<svg viewBox="0 0 24 24" fill="none" xmlns="http://www.w3.org/2000/svg">
  <path fill-rule="evenodd" clip-rule="evenodd"
    d="M11.9908 3.03906C19.2193 3.72749 23.3498 8.54644 23.0056 23.0033H7.17188C7.17188 16.8075 14.0561 18.5286 12.6793 8.54644"
    fill="white" />
  <path
    d="M11.9908 3.03906C19.2193 3.72749 23.3498 8.54644 23.0056 23.0033H7.17188C7.17188 16.8075 14.0561 18.5286 12.6793 8.54644"
    stroke="black" stroke-linecap="round" stroke-linejoin="round" />
  <path fill-rule="evenodd" clip-rule="evenodd"
    d="M13.3672 8.54921C13.6288 10.5525 9.54645 13.6229 7.85982 14.745C5.79455 16.1219 5.91846 17.7328 4.4177 17.4987C3.70036 16.8516 5.38838 15.4059 4.4177 15.4334C3.72928 15.4334 4.5485 16.2802 3.72928 16.8103C3.04086 16.8103 0.973522 17.4987 0.975587 14.0566C0.975587 12.6797 5.10612 5.79552 5.10612 5.79552C5.10612 5.79552 6.40724 4.48752 6.48297 3.38604C5.98042 2.70175 6.13876 2.0092 6.13876 1.32077C6.82718 0.632351 8.20403 3.04183 8.20403 3.04183H9.58087C9.58087 3.04183 10.1178 1.67049 11.3019 0.976562C11.9904 0.976562 11.9904 3.04183 11.9904 3.04183"
    fill="white" />
  <path
    d="M13.3672 8.54921C13.6288 10.5525 9.54645 13.6229 7.85982 14.745C5.79455 16.1219 5.91846 17.7328 4.4177 17.4987C3.70036 16.8516 5.38838 15.4059 4.4177 15.4334C3.72928 15.4334 4.5485 16.2802 3.72928 16.8103C3.04086 16.8103 0.973522 17.4987 0.975587 14.0566C0.975587 12.6797 5.10612 5.79552 5.10612 5.79552C5.10612 5.79552 6.40724 4.48752 6.48297 3.38604C5.98042 2.70175 6.13876 2.0092 6.13876 1.32077C6.82718 0.632351 8.20403 3.04183 8.20403 3.04183H9.58087C9.58087 3.04183 10.1178 1.67049 11.3019 0.976562C11.9904 0.976562 11.9904 3.04183 11.9904 3.04183"
    stroke="black" stroke-linecap="round" stroke-linejoin="round" />
  <path fill-rule="evenodd" clip-rule="evenodd"
    d="M3.38471 13.7114C3.38471 13.8027 3.34845 13.8902 3.28389 13.9548C3.21934 14.0193 3.13179 14.0556 3.0405 14.0556C2.94921 14.0556 2.86166 14.0193 2.79711 13.9548C2.73255 13.8902 2.69629 13.8027 2.69629 13.7114C2.69629 13.6201 2.73255 13.5326 2.79711 13.468C2.86166 13.4035 2.94921 13.3672 3.0405 13.3672C3.13179 13.3672 3.21934 13.4035 3.28389 13.468C3.34845 13.5326 3.38471 13.6201 3.38471 13.7114Z"
    fill="black" stroke="black" stroke-linecap="round" stroke-linejoin="round" />
  <path fill-rule="evenodd" clip-rule="evenodd"
    d="M7.12576 7.0041C6.98882 7.24127 6.82609 7.4506 6.67336 7.58603C6.52063 7.72146 6.39041 7.7719 6.31135 7.72625C6.23229 7.68061 6.21087 7.54262 6.2518 7.34263C6.29272 7.14265 6.39265 6.89706 6.52958 6.65989C6.66652 6.42271 6.82925 6.21339 6.98198 6.07796C7.13471 5.94253 7.26493 5.89209 7.34399 5.93773C7.42304 5.98338 7.44447 6.12137 7.40354 6.32135C7.36261 6.52133 7.26269 6.76692 7.12576 7.0041Z"
    fill="black" stroke="black" stroke-linecap="round" stroke-linejoin="round" />
</svg>
