<svg width="24" height="24" viewBox="0 0 24 24" fill="none" xmlns="http://www.w3.org/2000/svg">
  <g clip-path="url(#clip0_2893_1782)">
    <mask id="mask0_2893_1782" style="mask-type:luminance" maskUnits="userSpaceOnUse" x="0" y="0" width="24"
      height="24">
      <path d="M24 0H0V24H24V0Z" fill="white" />
    </mask>
    <g mask="url(#mask0_2893_1782)">
      <mask id="mask1_2893_1782" style="mask-type:alpha" maskUnits="userSpaceOnUse" x="12" y="0" width="12" height="24">
        <path d="M24 0H12V24H24V0Z" fill="#312E2B" />
      </mask>
      <g mask="url(#mask1_2893_1782)">
        <path
          d="M21.6 0H2.4C1.07452 0 0 1.07452 0 2.4V21.6C0 22.9255 1.07452 24 2.4 24H21.6C22.9255 24 24 22.9255 24 21.6V2.4C24 1.07452 22.9255 0 21.6 0Z"
          fill="#312E2B" />
        <path
          d="M21.6 0.5H2.4C1.35066 0.5 0.5 1.35066 0.5 2.4V21.6C0.5 22.6493 1.35066 23.5 2.4 23.5H21.6C22.6493 23.5 23.5 22.6493 23.5 21.6V2.4C23.5 1.35066 22.6493 0.5 21.6 0.5Z"
          stroke="white" stroke-opacity="0.1" stroke-width="2" />
      </g>
      <mask id="mask2_2893_1782" style="mask-type:alpha" maskUnits="userSpaceOnUse" x="0" y="0" width="12" height="24">
        <path d="M12 0H0V24H12V0Z" fill="#312E2B" />
      </mask>
      <g mask="url(#mask2_2893_1782)">
        <path
          d="M21.6 0H2.4C1.07452 0 0 1.07452 0 2.4V21.6C0 22.9255 1.07452 24 2.4 24H21.6C22.9255 24 24 22.9255 24 21.6V2.4C24 1.07452 22.9255 0 21.6 0Z"
          fill="#E7E6E5" />
        <path
          d="M21.6 0.5H2.4C1.35066 0.5 0.5 1.35066 0.5 2.4V21.6C0.5 22.6493 1.35066 23.5 2.4 23.5H21.6C22.6493 23.5 23.5 22.6493 23.5 21.6V2.4C23.5 1.35066 22.6493 0.5 21.6 0.5Z"
          stroke="black" stroke-opacity="0.1" stroke-width="2" />
      </g>
      <path d="M15 6H3V9.9H15V6Z" fill="#E7E6E5" />
      <path
        d="M6.37077 5.54835L6.07422 5.89435L6.39132 6.22165L8.75587 8.6624L9.05607 8.97225L9.40657 8.72065C10.1153 8.21195 10.6197 7.93945 11.0146 7.79195C11.3985 7.6486 11.6957 7.61695 12.0067 7.61695C12.6233 7.61695 13.1065 8.0299 13.1065 8.6405C13.1065 8.75905 13.0442 8.9301 12.841 9.1718C12.6416 9.409 12.3561 9.65615 12.018 9.92375C11.8965 10.0198 11.764 10.1217 11.6284 10.226C11.4088 10.3948 11.1814 10.5697 10.9809 10.7354C10.6534 11.0061 10.3252 11.3089 10.1046 11.639C9.86652 11.975 9.69527 12.287 9.58882 12.6423C9.48262 12.9966 9.44992 13.3641 9.44992 13.7963V15.0151V15.5151H9.94992H13.6065H14.1065V15.0151V14.3295C14.1065 14.0061 14.173 13.8125 14.3191 13.6562L14.3212 13.6539C14.6008 13.351 14.9021 13.0643 15.2177 12.7639C15.2789 12.7057 15.3405 12.647 15.4027 12.5876C15.7793 12.2274 16.1686 11.8451 16.5162 11.4214C17.2224 10.5602 17.763 9.5187 17.763 8.0768C17.763 5.1371 15.1798 3 11.9122 3C9.30982 3 7.35282 4.40261 6.37077 5.54835Z"
        fill="#312E2B" stroke="#E7E6E5" stroke-width="2" />
      <path
        d="M14.5 18.25C14.5 16.7312 13.2688 15.5 11.75 15.5C10.2312 15.5 9 16.7312 9 18.25C9 19.7688 10.2312 21 11.75 21C13.2688 21 14.5 19.7688 14.5 18.25Z"
        fill="#312E2B" stroke="#E7E6E5" stroke-width="2" />
    </g>
  </g>
  <defs>
    <clipPath id="clip0_2893_1782">
      <rect width="24" height="24" fill="white" />
    </clipPath>
  </defs>
</svg>
