<svg viewBox="0 0 24 24" fill="none" xmlns="http://www.w3.org/2000/svg">
  <path fill-rule="evenodd" clip-rule="evenodd"
    d="M11.9896 2.82812C19.3657 3.52046 23.5806 8.3668 23.2294 22.9058H7.07227C7.07227 16.6748 14.0971 18.4056 12.6921 8.3668"
    fill="black" />
  <path
    d="M11.9896 2.82812C19.3657 3.52046 23.5806 8.3668 23.2294 22.9058H7.07227C7.07227 16.6748 14.0971 18.4056 12.6921 8.3668"
    stroke="black" stroke-width="1.5" stroke-linecap="round" stroke-linejoin="round" />
  <path fill-rule="evenodd" clip-rule="evenodd"
    d="M13.3947 8.36567C13.6616 10.3804 9.4959 13.4682 7.77482 14.5967C5.66738 15.9813 5.79382 17.6014 4.26241 17.366C3.53043 16.7152 5.25291 15.2613 4.26241 15.289C3.55993 15.289 4.39588 16.1406 3.55993 16.6737C2.85745 16.6737 0.747894 17.366 0.750002 13.9043C0.750002 12.5197 4.96489 5.59634 4.96489 5.59634C4.96489 5.59634 6.29258 4.2809 6.36986 3.17317C5.85705 2.48499 6.01862 1.7885 6.01862 1.09617C6.7211 0.403833 8.12606 2.827 8.12606 2.827H9.53103C9.53103 2.827 10.079 1.44787 11.2872 0.75C11.9897 0.75 11.9897 2.827 11.9897 2.827"
    fill="black" />
  <path
    d="M13.3947 8.36567C13.6616 10.3804 9.4959 13.4682 7.77482 14.5967C5.66738 15.9813 5.79382 17.6014 4.26241 17.366C3.53043 16.7152 5.25291 15.2613 4.26241 15.289C3.55993 15.289 4.39588 16.1406 3.55993 16.6737C2.85745 16.6737 0.747894 17.366 0.750002 13.9043C0.750002 12.5197 4.96489 5.59634 4.96489 5.59634C4.96489 5.59634 6.29258 4.2809 6.36986 3.17317C5.85705 2.48499 6.01862 1.7885 6.01862 1.09617C6.7211 0.403833 8.12606 2.827 8.12606 2.827H9.53103C9.53103 2.827 10.079 1.44787 11.2872 0.75C11.9897 0.75 11.9897 2.827 11.9897 2.827"
    stroke="black" stroke-width="1.5" stroke-linecap="round" stroke-linejoin="round" />
  <path fill-rule="evenodd" clip-rule="evenodd"
    d="M3.20834 13.5571C3.20834 13.6489 3.17134 13.737 3.10547 13.8019C3.0396 13.8668 2.95026 13.9033 2.8571 13.9033C2.76395 13.9033 2.67461 13.8668 2.60874 13.8019C2.54286 13.737 2.50586 13.6489 2.50586 13.5571C2.50586 13.4653 2.54286 13.3772 2.60874 13.3123C2.67461 13.2474 2.76395 13.2109 2.8571 13.2109C2.95026 13.2109 3.0396 13.2474 3.10547 13.3123C3.17134 13.3772 3.20834 13.4653 3.20834 13.5571Z"
    fill="white" stroke="white" stroke-width="0.75" stroke-linecap="round" stroke-linejoin="round" />
  <path fill-rule="evenodd" clip-rule="evenodd"
    d="M7.02582 6.80801C6.88609 7.04653 6.72004 7.25704 6.56419 7.39324C6.40834 7.52944 6.27546 7.58017 6.19479 7.53427C6.11412 7.48836 6.09226 7.34959 6.13402 7.14847C6.17578 6.94735 6.27774 6.70036 6.41747 6.46184C6.55721 6.22332 6.72326 6.01281 6.87911 5.87661C7.03496 5.74041 7.16784 5.68968 7.24851 5.73558C7.32918 5.78149 7.35104 5.92026 7.30928 6.12138C7.26752 6.3225 7.16556 6.56949 7.02582 6.80801Z"
    fill="white" stroke="white" stroke-width="0.75" stroke-linecap="round" stroke-linejoin="round" />
  <path fill-rule="evenodd" clip-rule="evenodd"
    d="M15.0937 3.5625L14.8125 4.54348L15.125 4.64496C17.0934 5.3215 18.6557 6.32955 20.0617 9.21161C21.4677 12.0937 22.0926 16.1867 21.7802 22.9115L21.7489 23.2498H23.155L23.1862 22.9115C23.4987 16.1055 22.6363 11.5118 21.1553 8.47418C19.6743 5.43651 17.5371 3.98195 15.4124 3.63015L15.0937 3.5625Z"
    fill="white" />
</svg>
