<svg width="24" height="24" viewBox="0 0 24 24" fill="none" xmlns="http://www.w3.org/2000/svg">
  <g clip-path="url(#clip0_2_6)">
    <path fill-rule="evenodd" clip-rule="evenodd"
      d="M2.43048 19.5738C4.3139 18.9784 8.04742 19.8378 9.93086 18.3462C11.8143 19.8378 15.5478 18.9784 17.4312 19.5738C17.4312 19.5738 18.3479 19.9052 19.098 20.8014C18.7202 21.3968 18.1812 21.4091 17.4312 21.1084C15.5478 20.513 11.8143 21.3907 9.93086 20.4945C8.04742 21.3907 4.3139 20.513 2.43048 21.1084C1.67822 21.4091 1.13986 21.3968 0.763733 20.8014C1.51599 19.6107 2.43048 19.5738 2.43048 19.5738Z"
      fill="black" stroke="black" stroke-width="1.5" stroke-linejoin="round" />
    <path fill-rule="evenodd" clip-rule="evenodd"
      d="M5.76393 17.1203C7.15289 18.6549 12.7087 18.6549 14.0977 17.1203C14.3754 16.1995 14.0977 15.8927 14.0977 15.8927C14.0977 14.3581 12.7087 13.4374 12.7087 13.4374C15.7644 12.5166 16.0422 6.37838 9.93079 3.92308C3.81939 6.37838 4.09719 12.5166 7.15289 13.4374C7.15289 13.4374 5.76393 14.3581 5.76393 15.8927C5.76393 15.8927 5.48614 16.1995 5.76393 17.1203Z"
      fill="black" stroke="black" stroke-width="1.5" stroke-linejoin="round" />
    <path fill-rule="evenodd" clip-rule="evenodd"
      d="M11.3196 2.38553C11.3196 2.79252 11.1733 3.18284 10.9129 3.47062C10.6524 3.75841 10.2991 3.92009 9.9307 3.92009C9.56234 3.92009 9.20905 3.75841 8.9486 3.47062C8.68808 3.18284 8.54176 2.79252 8.54176 2.38553C8.54176 1.97853 8.68808 1.58821 8.9486 1.30042C9.20905 1.01263 9.56234 0.850962 9.9307 0.850962C10.2991 0.850962 10.6524 1.01263 10.9129 1.30042C11.1733 1.58821 11.3196 1.97853 11.3196 2.38553Z"
      fill="black" stroke="black" stroke-width="1.5" stroke-linejoin="round" />
    <path d="M6.31936 13.4332H13.542M5.48599 15.8885H9.93062H14.3753M9.93062 6.98798V10.0571M8.54168 8.52255H11.3196"
      stroke="white" stroke-width="0.75" stroke-linecap="round" />
  </g>
  <g clip-path="url(#clip1_2_6)">
    <path fill-rule="evenodd" clip-rule="evenodd"
      d="M6.56841 21.42C8.45183 20.8245 12.1853 21.6839 14.0688 20.1923C15.9522 21.6839 19.6857 20.8245 21.5691 21.42C21.5691 21.42 22.4858 21.7514 23.2359 22.6476C22.8581 23.243 22.3192 23.2553 21.5691 22.9545C19.6857 22.3591 15.9522 23.2369 14.0688 22.3407C12.1853 23.2369 8.45183 22.3591 6.56841 22.9545C5.81615 23.2553 5.27779 23.243 4.90166 22.6476C5.65391 21.4568 6.56841 21.42 6.56841 21.42Z"
      fill="black" stroke="black" stroke-width="1.5" stroke-linejoin="round" />
    <path fill-rule="evenodd" clip-rule="evenodd"
      d="M9.90186 18.9665C11.2908 20.5011 16.8467 20.5011 18.2356 18.9665C18.5133 18.0457 18.2356 17.7389 18.2356 17.7389C18.2356 16.2042 16.8467 15.2836 16.8467 15.2836C19.9024 14.3628 20.1801 8.22453 14.0687 5.76923C7.95732 8.22453 8.23511 14.3628 11.2908 15.2836C11.2908 15.2836 9.90186 16.2042 9.90186 17.7389C9.90186 17.7389 9.62407 18.0457 9.90186 18.9665Z"
      fill="black" stroke="black" stroke-width="1.5" stroke-linejoin="round" />
    <path fill-rule="evenodd" clip-rule="evenodd"
      d="M15.4576 4.23168C15.4576 4.63867 15.3112 5.029 15.0508 5.31678C14.7903 5.60456 14.437 5.76624 14.0686 5.76624C13.7003 5.76624 13.347 5.60456 13.0865 5.31678C12.826 5.029 12.6797 4.63867 12.6797 4.23168C12.6797 3.82469 12.826 3.43436 13.0865 3.14658C13.347 2.85879 13.7003 2.69712 14.0686 2.69712C14.437 2.69712 14.7903 2.85879 15.0508 3.14658C15.3112 3.43436 15.4576 3.82469 15.4576 4.23168Z"
      fill="black" stroke="black" stroke-width="1.5" stroke-linejoin="round" />
    <path d="M10.4573 15.2793H17.6799M9.62392 17.7346H14.0685H18.5133M14.0685 8.83413V11.9033M12.6796 10.3687H15.4576"
      stroke="white" stroke-width="0.75" stroke-linecap="round" />
  </g>
  <defs>
    <clipPath id="clip0_2_6">
      <rect width="19.8621" height="22.1538" fill="white" />
    </clipPath>
    <clipPath id="clip1_2_6">
      <rect width="19.8621" height="22.1538" fill="white" transform="translate(4.13792 1.84615)" />
    </clipPath>
  </defs>
</svg>
