<svg viewBox="0 0 24 24" fill="none" xmlns="http://www.w3.org/2000/svg">
  <path fill-rule="evenodd" clip-rule="evenodd"
    d="M3.07677 5.03797C3.07677 5.39406 2.9471 5.73557 2.71629 5.98737C2.48547 6.23917 2.17242 6.38063 1.846 6.38063C1.51958 6.38063 1.20653 6.23917 0.975718 5.98737C0.744904 5.73557 0.615234 5.39406 0.615234 5.03797C0.615234 4.68187 0.744904 4.34037 0.975718 4.08857C1.20653 3.83677 1.51958 3.69531 1.846 3.69531C2.17242 3.69531 2.48547 3.83677 2.71629 4.08857C2.9471 4.34037 3.07677 4.68187 3.07677 5.03797Z"
    fill="white" stroke="black" stroke-linecap="round" stroke-linejoin="round" />
  <path fill-rule="evenodd" clip-rule="evenodd"
    d="M13.2311 2.01453C13.2311 2.37063 13.1014 2.71214 12.8706 2.96393C12.6398 3.21573 12.3267 3.35719 12.0003 3.35719C11.6739 3.35719 11.3608 3.21573 11.13 2.96393C10.8992 2.71214 10.7695 2.37063 10.7695 2.01453C10.7695 1.65844 10.8992 1.31693 11.13 1.06513C11.3608 0.813333 11.6739 0.671875 12.0003 0.671875C12.3267 0.671875 12.6398 0.813333 12.8706 1.06513C13.1014 1.31693 13.2311 1.65844 13.2311 2.01453Z"
    fill="white" stroke="black" stroke-linecap="round" stroke-linejoin="round" />
  <path fill-rule="evenodd" clip-rule="evenodd"
    d="M23.3844 5.03797C23.3844 5.39406 23.2547 5.73557 23.0239 5.98737C22.7931 6.23917 22.48 6.38063 22.1536 6.38063C21.8272 6.38063 21.5141 6.23917 21.2833 5.98737C21.0525 5.73557 20.9229 5.39406 20.9229 5.03797C20.9229 4.68187 21.0525 4.34037 21.2833 4.08857C21.5141 3.83677 21.8272 3.69531 22.1536 3.69531C22.48 3.69531 22.7931 3.83677 23.0239 4.08857C23.2547 4.34037 23.3844 4.68187 23.3844 5.03797Z"
    fill="white" stroke="black" stroke-linecap="round" stroke-linejoin="round" />
  <path fill-rule="evenodd" clip-rule="evenodd"
    d="M7.99962 2.68641C7.99962 3.0425 7.86995 3.38401 7.63914 3.63581C7.40833 3.88761 7.09528 4.02906 6.76886 4.02906C6.44243 4.02906 6.12938 3.88761 5.89857 3.63581C5.66776 3.38401 5.53809 3.0425 5.53809 2.68641C5.53809 2.33031 5.66776 1.9888 5.89857 1.73701C6.12938 1.48521 6.44243 1.34375 6.76886 1.34375C7.09528 1.34375 7.40833 1.48521 7.63914 1.73701C7.86995 1.9888 7.99962 2.33031 7.99962 2.68641Z"
    fill="white" stroke="black" stroke-linecap="round" stroke-linejoin="round" />
  <path fill-rule="evenodd" clip-rule="evenodd"
    d="M18.4615 3.02234C18.4615 3.37844 18.3319 3.71995 18.1011 3.97175C17.8702 4.22354 17.5572 4.365 17.2308 4.365C16.9043 4.365 16.5913 4.22354 16.3605 3.97175C16.1297 3.71995 16 3.37844 16 3.02234C16 2.66625 16.1297 2.32474 16.3605 2.07294C16.5913 1.82115 16.9043 1.67969 17.2308 1.67969C17.5572 1.67969 17.8702 1.82115 18.1011 2.07294C18.3319 2.32474 18.4615 2.66625 18.4615 3.02234Z"
    fill="white" stroke="black" stroke-linecap="round" stroke-linejoin="round" />
  <path fill-rule="evenodd" clip-rule="evenodd"
    d="M3.69171 14.4363C8.92248 13.4293 16.6148 13.4293 20.3071 14.4363L21.5379 6.38035L17.2302 13.765V4.36637L13.8456 13.4293L11.9994 3.35938L10.1532 13.4293L6.76863 4.0307V13.765L2.46094 6.38035L3.69171 14.4363Z"
    fill="white" stroke="black" stroke-linejoin="round" />
  <path fill-rule="evenodd" clip-rule="evenodd"
    d="M3.69238 14.4349C3.69238 15.7776 4.61546 15.7776 5.23084 17.1202C5.84623 18.1272 5.84623 17.7916 5.53854 19.4699C4.61546 20.1412 4.61546 21.1482 4.61546 21.1482C3.69238 22.1552 4.92315 22.8265 4.92315 22.8265C8.92315 23.4979 15.077 23.4979 19.077 22.8265C19.077 22.8265 20.0001 22.1552 19.077 21.1482C19.077 21.1482 19.3847 20.1412 18.4616 19.4699C18.1539 17.7916 18.1539 18.1272 18.7693 17.1202C19.3847 15.7776 20.3078 15.7776 20.3078 14.4349C15.077 13.4279 8.92315 13.4279 3.69238 14.4349Z"
    fill="white" stroke="black" stroke-linejoin="round" />
  <path d="M5.23047 17.1207C7.38431 16.4494 16.6151 16.4494 18.7689 17.1207" stroke="black" stroke-linecap="round"
    stroke-linejoin="round" />
  <path d="M5.53809 19.4722C9.23039 18.8009 14.7689 18.8009 18.4612 19.4722" stroke="black" stroke-linecap="round"
    stroke-linejoin="round" />
</svg>
