<svg viewBox="0 0 24 24" fill="none" xmlns="http://www.w3.org/2000/svg">
  <g opacity="0.17">
    <g opacity="0.17">
      <g opacity="0.17">
        <path opacity="0.17"
          d="M11.835 23.7962C7.88817 23.7962 1.5166 23.2475 1.5166 22.4314C1.5166 21.7374 5.98359 21.5638 8.36157 21.8757C9.73221 22.0563 10.7726 22.2204 11.835 22.2204"
          fill="black" />
      </g>
      <g opacity="0.17">
        <path opacity="0.17"
          d="M11.835 23.7962C15.7817 23.7962 22.1533 23.2475 22.1533 22.4314C22.1533 21.7374 17.6863 21.5638 15.3084 21.8757C13.9377 22.0563 12.8973 22.2204 11.835 22.2204"
          fill="black" />
      </g>
    </g>
  </g>
  <path
    d="M21.9518 16.1V11.9191H21.2307V10.8944H21.0766V10.552L20.672 10.3058H19.8573H19.0399L18.6353 10.552V10.8944H18.4812V11.9191H17.7601V13.5605C17.6362 13.5113 17.5124 13.462 17.3885 13.4151L17.4849 11.3282L17.3583 10.5872L17.4849 9.85558L17.3583 9.1146L17.4849 8.25636L17.3583 7.36765L17.4849 6.19286L17.3583 4.72261H16.4445L16.2876 6.19286L16.417 7.36765H15.8775L16.0096 8.25636L15.8775 9.1146H15.1922L15.0986 9.85558L15.1922 10.5872L15.016 11.3282H14.3665L14.1491 12.5311C14.0665 12.517 13.9812 12.503 13.8986 12.4912V10.2144H13.483V5.83878H12.9298V2.87248H12.4564L12.4261 1.50307H12.3986L12.3656 0.452553H12.2885L12.2555 1.50307H12.2252L12.1949 2.87248H11.5729L11.5399 1.41396H11.5124L11.4766 0.0234375H11.3995L11.3638 1.41396H11.3362L11.3032 2.87248H10.8436V6.16706V10.2167H10.0289V12.5428C9.94357 12.5569 9.85825 12.5733 9.77293 12.5897L9.39036 6.93853H8.93623L8.90871 6.21162H8.87843L8.84541 4.53033H8.76559L8.73256 6.21162H8.70229L8.67476 6.93853H8.00045L7.97568 6.27727H7.94541L7.91238 4.59598H7.83531L7.80229 6.27727H7.77201L7.74724 6.93853H7.26284L6.82797 13.4245C6.75917 13.4503 6.69036 13.4761 6.62155 13.5042V10.5684L4.72797 9.0208V10.5684H4.60963H4.49128V9.0208L2.5977 10.5684V15.828C1.25733 16.9723 0.371094 18.3441 0.371094 19.8566C0.371094 23.5474 5.46008 24.4713 8.16834 22.8088C9.72889 21.8521 10.9151 20.9751 12.1234 20.9751C13.3316 20.9751 14.5179 21.8521 16.0784 22.8088C18.7867 24.469 23.8757 23.5474 23.8757 19.8566C23.8702 18.4613 23.1188 17.1881 21.9518 16.1Z"
    fill="#41B6E6" />
  <path opacity="0.31"
    d="M23.2565 18.0423C23.2565 18.0423 23.4354 18.9498 23.218 19.4071C23.0006 19.8643 22.7584 20.0308 22.2299 19.9089C21.7015 19.7869 21.4841 19.114 19.5905 18.1549C17.6942 17.1958 14.8978 16.1172 11.8565 16.1172C8.81525 16.1172 6.01617 17.1958 4.12259 18.1549C2.22627 19.114 2.01159 19.7869 1.48315 19.9089C0.95471 20.0308 0.712508 19.8643 0.495077 19.4071C0.277646 18.9498 0.456545 18.0423 0.456545 18.0423C-0.504006 21.1071 1.03728 21.7707 1.76663 22.3124C2.49599 22.8541 4.32626 23.2081 6.56113 21.7449C8.79599 20.2817 11.8593 20.3614 11.8593 20.3614C11.8593 20.3614 14.9226 20.2841 17.1575 21.7449C19.3923 23.2058 21.2226 22.8541 21.952 22.3124C22.6813 21.7707 24.2198 21.1071 23.2565 18.0423Z"
    fill="white" />
  <path opacity="0.42"
    d="M20.1191 17.8955C17.4577 16.0032 15.0109 15.1825 11.8237 15.22C8.63657 15.1825 6.18703 16.0032 3.52556 17.8955C1.28795 19.49 0.385196 21.2182 2.44391 22.2336C3.42648 22.719 5.52098 22.0929 7.05951 21.1361C8.58703 20.1865 9.26685 20.0294 11.8237 20.0294C14.3806 20.0294 15.0604 20.1865 16.5879 21.1361C18.1265 22.0929 20.2182 22.719 21.2035 22.2336C23.2623 21.2182 22.3595 19.49 20.1191 17.8955Z"
    fill="white" />
  <path
    d="M7.86901 15.4922L9.26443 20.665L7.3736 21.5444L5.26259 19.0002L6.62222 21.7929L4.6158 22.8083L0.927734 19.8302L2.12773 18.5593L4.46993 20.2922L3.22865 17.8723L4.90755 16.7795L6.97177 18.9064L5.96993 16.3223L7.86901 15.4922Z"
    fill="#41B6E6" />
  <path
    d="M15.3303 17.349L12.9853 17.3513C12.9853 17.3513 13.0431 16.3922 12.0248 16.3922C12.0248 16.3922 11.0807 16.2398 11.0807 17.2599V18.0337C11.0807 19.0514 12.0358 18.988 12.0358 18.988C12.9165 18.988 13.0156 18.4886 13.0156 17.9493C13.0431 17.9282 15.3303 17.9493 15.3303 17.9493C15.3303 19.3609 14.8073 20.5709 12.0826 20.5709C9.13487 20.5709 8.93945 19.0514 8.93945 18.1509V16.8003C8.93945 15.2597 10.0073 14.6641 11.7826 14.6641C14.5569 14.6641 15.3303 15.5645 15.3303 17.349Z"
    fill="#41B6E6" />
  <path
    d="M16.8938 15.7344L19.4507 16.6559C20.0864 16.9561 20.8516 17.3735 21.2094 18.3794C21.4103 18.9398 21.6112 20.0631 20.9727 21.0503C20.2708 22.1336 18.9195 22.4056 17.6782 21.9507L14.6396 20.9518L16.8938 15.7344ZM18.0773 18.1778L17.2351 19.9036C17.2351 19.9036 18.7103 20.9752 19.4039 19.8872C20.2048 18.6303 18.2864 18.2481 18.0773 18.1778Z"
    fill="#41B6E6" />
  <path
    d="M4.8498 5.72899C4.8553 5.71492 4.85806 5.71023 4.86081 5.70554C4.92136 5.5156 4.98191 5.32332 5.04246 5.13338C5.09751 4.95517 5.1553 4.77696 5.21035 4.60109C5.21585 4.58468 5.22136 4.57999 5.24338 4.58468C5.30393 4.59875 5.36723 4.61282 5.42778 4.62689C5.75806 4.70192 6.08833 4.77696 6.41861 4.852C6.4654 4.86372 6.51218 4.8731 6.56173 4.88248C6.56448 4.88013 6.56448 4.87779 6.56723 4.87544C6.23971 4.5964 5.91494 4.31971 5.58191 4.03597C5.91218 3.75459 6.23971 3.47789 6.56998 3.1965C6.55622 3.19885 6.54796 3.20119 6.53971 3.20119C6.30026 3.25512 6.06081 3.3114 5.81861 3.36533C5.6287 3.40754 5.44154 3.45209 5.25163 3.49665C5.22686 3.50134 5.21861 3.49665 5.21035 3.47554C5.18283 3.38409 5.15255 3.29264 5.12503 3.20119C5.03971 2.93153 4.95439 2.66421 4.86907 2.39455C4.86631 2.38282 4.86081 2.3711 4.85806 2.35938C4.8498 2.36875 4.84429 2.37813 4.84154 2.38751C4.80026 2.52117 4.75897 2.65248 4.71494 2.78614C4.64338 3.0136 4.57182 3.24105 4.50026 3.46851C4.48925 3.50368 4.48925 3.50368 4.44796 3.4943C4.29659 3.45913 4.14246 3.42396 3.98833 3.38878C3.72136 3.32781 3.45439 3.26685 3.19017 3.20588C3.1764 3.20353 3.16264 3.20119 3.14062 3.19884C3.15163 3.21057 3.15714 3.21526 3.16264 3.21995C3.23696 3.28326 3.31127 3.34657 3.38558 3.41223C3.62503 3.61624 3.86723 3.82259 4.10668 4.02659C4.12319 4.04066 4.12044 4.0477 4.10668 4.05942C4.07916 4.08053 4.05439 4.10397 4.02962 4.12508C3.74062 4.37129 3.45439 4.61516 3.1654 4.86138C3.15714 4.86841 3.15163 4.87545 3.14062 4.88482C3.15714 4.88248 3.1654 4.88248 3.17365 4.88013C3.38558 4.83324 3.59751 4.78399 3.80943 4.73475C4.02411 4.68551 4.23604 4.63627 4.45072 4.58702C4.49475 4.57764 4.49475 4.57764 4.50576 4.61516C4.52503 4.68082 4.54705 4.74413 4.56631 4.80979C4.64613 5.06304 4.72595 5.31629 4.80576 5.56953C4.81402 5.62112 4.83053 5.67271 4.8498 5.72899Z"
    fill="#ED2124" />
  <path opacity="0.07"
    d="M21.1902 18.4539C17.2902 15.6846 14.2985 15.171 11.992 15.2133C9.68838 15.171 6.69386 15.6869 2.79661 18.4539C0.867265 19.8233 0.311302 20.7707 2.55442 20.6206C3.62505 20.5502 5.66175 19.7342 7.08743 18.9369C8.50211 18.1444 9.57829 17.1689 11.992 17.2111C14.4058 17.1666 15.482 18.1444 16.8966 18.9369C18.3223 19.7342 20.359 20.5502 21.4296 20.6206C23.6728 20.7683 23.1168 19.8233 21.1902 18.4539Z"
    fill="white" />
  <path opacity="0.19"
    d="M21.1484 15.6517C17.2154 12.5939 13.2796 12.2422 11.8374 12.2422C7.94016 12.2422 3.78145 14.4675 2.47136 15.5813C-0.470839 18.0904 4.35668 14.2658 9.23924 13.6257C10.6484 13.4404 11.8374 13.4404 11.8374 13.4404C11.8374 13.4404 13.0292 13.4404 14.4356 13.6257C19.3181 14.2658 24.2227 18.0435 21.1484 15.6517Z"
    fill="white" />
  <g opacity="0.29">
    <g opacity="0.35">
      <path opacity="0.29"
        d="M4.8957 15.979C4.9012 15.9649 4.90395 15.9602 4.90671 15.9555C4.96726 15.7656 5.02781 15.5733 5.08836 15.3834C5.1434 15.2052 5.2012 15.027 5.25625 14.8511C5.26175 14.8347 5.26726 14.83 5.28928 14.8347C5.34983 14.8487 5.41313 14.8628 5.47368 14.8769C5.80395 14.9519 6.13423 15.027 6.46451 15.102C6.51129 15.1137 6.55808 15.1231 6.60762 15.1325C6.61038 15.1301 6.61038 15.1278 6.61313 15.1254C6.28561 14.8464 5.96084 14.5697 5.62781 14.286C5.95808 14.0046 6.28561 13.7279 6.61588 13.4465C6.60212 13.4488 6.59386 13.4512 6.58561 13.4512C6.34616 13.5051 6.10671 13.5614 5.86451 13.6153C5.6746 13.6575 5.48744 13.7021 5.29753 13.7466C5.27276 13.7513 5.26451 13.7466 5.25625 13.7255C5.22873 13.6341 5.19845 13.5426 5.17093 13.4512C5.08561 13.1815 5.00028 12.9142 4.91496 12.6445C4.91221 12.6328 4.90671 12.6211 4.90395 12.6094C4.8957 12.6188 4.89019 12.6281 4.88744 12.6375C4.84616 12.7712 4.80487 12.9025 4.76084 13.0361C4.68928 13.2636 4.61772 13.4911 4.54616 13.7185C4.53515 13.7537 4.53515 13.7537 4.49386 13.7443C4.34249 13.7091 4.18836 13.674 4.03423 13.6388C3.76726 13.5778 3.50028 13.5168 3.23606 13.4559C3.2223 13.4535 3.20854 13.4512 3.18652 13.4488C3.19753 13.4606 3.20304 13.4653 3.20854 13.47C3.28285 13.5333 3.35717 13.5966 3.43148 13.6622C3.67093 13.8662 3.91313 14.0726 4.15258 14.2766C4.16909 14.2907 4.16634 14.2977 4.15258 14.3094C4.12506 14.3305 4.10028 14.354 4.07551 14.3751C3.78652 14.6213 3.50028 14.8652 3.21129 15.1114C3.20304 15.1184 3.19753 15.1254 3.18652 15.1348C3.20304 15.1325 3.21129 15.1325 3.21955 15.1301C3.43148 15.0832 3.6434 15.034 3.85533 14.9848C4.07001 14.9355 4.28194 14.8863 4.49662 14.837C4.54065 14.8276 4.54065 14.8276 4.55166 14.8652C4.57093 14.9308 4.59295 14.9941 4.61221 15.0598C4.69203 15.313 4.77184 15.5663 4.85166 15.8195C4.85992 15.8711 4.87643 15.9204 4.8957 15.979Z"
        fill="#ED2124" />
    </g>
  </g>
</svg>
