<svg xmlns="http://www.w3.org/2000/svg" fill="none" viewBox="0 0 24 24">
  <g opacity=".17">
    <path fill="#000"
      d="M11.835 23.7962c-3.94683 0-10.3184-.5487-10.3184-1.3648 0-.694 4.46699-.8676 6.84497-.5557 1.37064.1806 2.41103.3447 3.47343.3447M11.835 23.7962c3.9467 0 10.3183-.5487 10.3183-1.3648 0-.694-4.467-.8676-6.8449-.5557-1.3707.1806-2.4111.3447-3.4734.3447"
      opacity=".17" />
  </g>
  <path fill="#41B6E6"
    d="M21.9518 16.1v-4.1809h-.7211v-1.0247h-.1541v-.3424l-.4046-.2462H19.0399l-.4046.2462v.3424h-.1541v1.0247h-.7211v1.6414c-.1239-.0492-.2477-.0985-.3716-.1454l.0964-2.0869-.1266-.741.1266-.73162-.1266-.74098.1266-.85824-.1266-.88871.1266-1.17479-.1266-1.47025h-.9138l-.1569 1.47025.1294 1.17479h-.5395l.1321.88871-.1321.85824h-.6853l-.0936.74098.0936.73162-.1762.741h-.6495l-.2174 1.2029c-.0826-.0141-.1679-.0281-.2505-.0399v-2.2768h-.4156V5.83878h-.5532v-2.9663h-.4734l-.0303-1.36941h-.0275l-.033-1.050517h-.0771l-.033 1.050517h-.0303l-.0303 1.36941h-.622l-.033-1.45852h-.0275L11.4766.0234375h-.0771L11.3638 1.41396h-.0276l-.033 1.45852h-.4596v7.34422h-.8147v2.3261c-.08533.0141-.17065.0305-.25597.0469l-.38257-5.65117h-.45413l-.02752-.72691h-.03028l-.03302-1.68129h-.07982l-.03303 1.68129h-.03027l-.02753.72691h-.67431l-.02477-.66126h-.03027l-.03303-1.68129h-.07707l-.03302 1.68129h-.03028l-.02477.66126h-.4844l-.43487 6.48597c-.0688.0258-.13761.0516-.20642.0797v-2.9358L4.72797 9.0208v1.5476h-.23669V9.0208L2.5977 10.5684v5.2596C1.25733 16.9723.371094 18.3441.371094 19.8566c0 3.6908 5.088986 4.6147 7.797246 2.9522 1.56055-.9567 2.74676-1.8337 3.95506-1.8337 1.2082 0 2.3945.877 3.955 1.8337 2.7083 1.6602 7.7973.7386 7.7973-2.9522-.0055-1.3953-.7569-2.6685-1.9239-3.7566Z" />
  <path fill="#fff"
    d="M23.2565 18.0423s.1789.9075-.0385 1.3648c-.2174.4572-.4596.6237-.9881.5018-.5284-.122-.7458-.7949-2.6394-1.754-1.8963-.9591-4.6927-2.0377-7.734-2.0377-3.04125 0-5.84033 1.0786-7.73391 2.0377-1.89632.9591-2.111 1.632-2.63944 1.754-.52844.1219-.770642-.0446-.988073-.5018-.217431-.4573-.038532-1.3648-.038532-1.3648-.960551 3.0648.580735 3.7284 1.310085 4.2701.72936.5417 2.55963.8957 4.7945-.5675 2.23486-1.4632 5.29817-1.3835 5.29817-1.3835s3.0633-.0773 5.2982 1.3835c2.2348 1.4609 4.0651 1.1092 4.7945.5675.7293-.5417 2.2678-1.2053 1.3045-4.2701Z"
    opacity=".31" />
  <path fill="#fff"
    d="M20.1191 17.8955c-2.6614-1.8923-5.1082-2.713-8.2954-2.6755-3.18713-.0375-5.63667.7832-8.29814 2.6755C1.28795 19.49.385196 21.2182 2.44391 22.2336c.98257.4854 3.07707-.1407 4.6156-1.0975 1.52752-.9496 2.20734-1.1067 4.76419-1.1067 2.5569 0 3.2367.1571 4.7642 1.1067 1.5386.9568 3.6303 1.5829 4.6156 1.0975 2.0588-1.0154 1.156-2.7436-1.0844-4.3381Z"
    opacity=".42" />
  <path fill="#41B6E6"
    d="m7.86901 15.4922 1.39542 5.1728-1.89083.8794-2.11101-2.5442 1.35963 2.7927-2.00642 1.0154-3.688066-2.9781 1.199996-1.2709 2.3422 1.7329-1.24128-2.4199 1.6789-1.0928 2.06422 2.1269-1.00184-2.5841 1.89908-.8301ZM15.3303 17.349l-2.345.0023s.0578-.9591-.9605-.9591c0 0-.9441-.1524-.9441.8677v.7738c0 1.0177.9551.9543.9551.9543.8807 0 .9798-.4994.9798-1.0387.0275-.0211 2.3147 0 2.3147 0 0 1.4116-.523 2.6216-3.2477 2.6216-2.94773 0-3.14315-1.5195-3.14315-2.42v-1.3506c0-1.5406 1.06785-2.1362 2.84315-2.1362 2.7743 0 3.5477.9004 3.5477 2.6849Z" />
  <path fill="#41B6E6"
    d="m16.8938 15.7344 2.5569.9215c.6357.3002 1.4009.7176 1.7587 1.7235.2009.5604.4018 1.6837-.2367 2.6709-.7019 1.0833-2.0532 1.3553-3.2945.9004l-3.0386-.9989 2.2542-5.2174Zm1.1835 2.4434-.8422 1.7258s1.4752 1.0716 2.1688-.0164c.8009-1.2569-1.1175-1.6391-1.3266-1.7094Z" />
  <path fill="#ED2124"
    d="M4.8498 5.72899c.0055-.01407.00826-.01876.01101-.02345.06055-.18994.1211-.38222.18165-.57216.05505-.17821.11284-.35642.16789-.53229.0055-.01641.01101-.0211.03303-.01641.06055.01407.12385.02814.1844.04221.33028.07503.66055.15007.99083.22511.04679.01172.09357.0211.14312.03048.00275-.00235.00275-.00469.0055-.00704-.32752-.27904-.65229-.55573-.98532-.83947.33027-.28138.6578-.55808.98807-.83947-.01376.00235-.02202.00469-.03027.00469-.23945.05393-.4789.11021-.7211.16414-.18991.04221-.37707.08676-.56698.13132-.02477.00469-.03302 0-.04128-.02111-.02752-.09145-.0578-.1829-.08532-.27435-.08532-.26966-.17064-.53698-.25596-.80664-.00276-.01173-.00826-.02345-.01101-.03517-.00826.00937-.01377.01875-.01652.02813-.04128.13366-.08257.26497-.1266.39863-.07156.22746-.14312.45491-.21468.68237-.01101.03517-.01101.03517-.0523.02579-.15137-.03517-.3055-.07034-.45963-.10552-.26697-.06097-.53394-.12193-.79816-.1829-.01377-.00235-.02753-.00469-.04955-.00704.01101.01173.01652.01642.02202.02111.07432.06331.14863.12662.22294.19228.23945.20401.48165.41036.7211.61436.01651.01407.01376.02111 0 .03283-.02752.02111-.05229.04455-.07706.06566-.289.24621-.57523.49008-.86422.7363-.00826.00703-.01377.01407-.02478.02344.01652-.00234.02478-.00234.03303-.00469.21193-.04689.42386-.09614.63578-.14538.21468-.04924.42661-.09848.64129-.14773.04403-.00938.04403-.00938.05504.02814.01927.06566.04129.12897.06055.19463.07982.25325.15964.5065.23945.75974.00826.05159.02477.10318.04404.15946Z" />
  <path fill="#fff"
    d="M21.1902 18.4539c-3.9-2.7693-6.8917-3.2829-9.1982-3.2406-2.30362-.0423-5.29814.4736-9.19539 3.2406-1.929345 1.3694-2.485308 2.3168-.24219 2.1667 1.07063-.0704 3.10733-.8864 4.53301-1.6837 1.41468-.7925 2.49086-1.768 4.90457-1.7258 2.4138-.0445 3.49.9333 4.9046 1.7258 1.4257.7973 3.4624 1.6133 4.533 1.6837 2.2432.1477 1.6872-.7973-.2394-2.1667Z"
    opacity=".07" />
  <path fill="#fff"
    d="M21.1484 15.6517c-3.933-3.0578-7.8688-3.4095-9.311-3.4095-3.89724 0-8.05595 2.2253-9.36604 3.3391-2.942199 2.5091 1.88532-1.3155 6.76788-1.9556 1.40916-.1853 2.59816-.1853 2.59816-.1853s1.1918 0 2.5982.1853c4.8825.6401 9.7871 4.4178 6.7128 2.026Z"
    opacity=".19" />
  <g opacity=".29">
    <g opacity=".35">
      <path fill="#ED2124"
        d="M4.8957 15.979c.0055-.0141.00825-.0188.01101-.0235.06055-.1899.1211-.3822.18165-.5721.05504-.1782.11284-.3564.16789-.5323.0055-.0164.01101-.0211.03303-.0164.06055.014.12385.0281.1844.0422.33027.075.66055.1501.99083.2251.04678.0117.09357.0211.14311.0305.00276-.0024.00276-.0047.00551-.0071-.32752-.279-.65229-.5557-.98532-.8394.33027-.2814.6578-.5581.98807-.8395-.01376.0023-.02202.0047-.03027.0047-.23945.0539-.4789.1102-.7211.1641-.18991.0422-.37707.0868-.56698.1313-.02477.0047-.03302 0-.04128-.0211-.02752-.0914-.0578-.1829-.08532-.2743-.08532-.2697-.17065-.537-.25597-.8067-.00275-.0117-.00825-.0234-.01101-.0351-.00825.0094-.01376.0187-.01651.0281-.04128.1337-.08257.265-.1266.3986-.07156.2275-.14312.455-.21468.6824-.01101.0352-.01101.0352-.0523.0258-.15137-.0352-.3055-.0703-.45963-.1055-.26697-.061-.53395-.122-.79817-.1829-.01376-.0024-.02752-.0047-.04954-.0071.01101.0118.01652.0165.02202.0212.07431.0633.14863.1266.22294.1922.23945.204.48165.4104.7211.6144.01651.0141.01376.0211 0 .0328-.02752.0211-.0523.0446-.07707.0657-.28899.2462-.57523.4901-.86422.7363-.00825.007-.01376.014-.02477.0234.01652-.0023.02477-.0023.03303-.0047.21193-.0469.42385-.0961.63578-.1453.21468-.0493.42661-.0985.64129-.1478.04403-.0094.04403-.0094.05504.0282.01927.0656.04129.1289.06055.1946.07982.2532.15963.5065.23945.7597.00826.0516.02477.1009.04404.1595Z"
        opacity=".29" />
    </g>
  </g>
</svg>
