<svg width="180" height="180" viewBox="0 0 180 180" fill="none" xmlns="http://www.w3.org/2000/svg">
  <path
    d="M37.8633 117.541L62.3065 61.165H71.3537L95.7969 117.541H85.48L79.8453 104.027H53.5768L47.8628 117.541H37.8633ZM57.148 95.3102H76.2741L66.6714 72.9204L57.148 95.3102Z"
    fill="#F8FAFC" />
  <path
    d="M91.0293 117.54V61.5625H115.79C122.244 61.5625 127.296 63.1751 130.948 66.4002C134.599 69.6265 136.425 73.9572 136.425 79.3956C136.425 83.8211 135.235 87.4596 132.854 90.3111C130.473 93.1637 127.246 95.1763 123.171 96.3491L138.171 117.541H126.662L112.855 98.0289H100.792V117.541H91.0304L91.0293 117.54ZM100.791 89.3113H115.075C118.567 89.3113 121.345 88.4593 123.409 86.7519C125.471 85.0468 126.505 82.7277 126.505 79.7946C126.505 76.8098 125.5 74.516 123.489 72.9178C121.479 71.3184 118.647 70.5182 114.996 70.5182H100.792V89.3102L100.791 89.3113Z"
    fill="#F8FAFC" />
  <path
    d="M4 90C4 42.5835 42.5835 4 90 4C137.417 4 176 42.5835 176 90C176 137.417 137.417 176 90 176C42.5835 176 4 137.417 4 90Z"
    stroke="#F8FAFC" stroke-width="8" stroke-miterlimit="10" />
</svg>
