<?xml version="1.0" encoding="UTF-8"?>
<svg id="Layer_1" data-name="Layer 1" xmlns="http://www.w3.org/2000/svg" viewBox="0 0 174.572 174.572">
  <g>
    <path
      d="M41.782,112.86l22.176-51.147h8.208l22.176,51.147h-9.36l-5.112-12.261h-23.832l-5.184,12.261h-9.072ZM59.278,92.691h17.352l-8.712-20.313-8.64,20.313Z"
      fill="#0b1019" />
    <path
      d="M90.021,112.86v-50.785h22.464c5.855,0,10.439,1.463,13.752,4.389,3.312,2.927,4.969,6.856,4.969,11.79,0,4.015-1.08,7.316-3.24,9.903-2.16,2.588-5.088,4.414-8.785,5.478l13.609,19.226h-10.441l-12.527-17.702h-10.944v17.702h-8.856ZM98.877,87.25h12.959c3.168,0,5.689-.773,7.561-2.322,1.871-1.547,2.809-3.651,2.809-6.312,0-2.708-.912-4.789-2.736-6.239-1.824-1.451-4.393-2.177-7.705-2.177h-12.887v17.049Z"
      fill="#0b1019" />
  </g>
  <path
    d="M87.286,3C40.811,3,3,40.811,3,87.286s37.811,84.286,84.286,84.286,84.286-37.811,84.286-84.286S133.761,3,87.286,3Z"
    fill="none" stroke="#0b1019" stroke-miterlimit="10" stroke-width="6" />
</svg>
