<svg viewBox="0 0 24 24" fill="none" xmlns="http://www.w3.org/2000/svg">
  <path fill-rule="evenodd" clip-rule="evenodd"
    d="M2.93684 21.205C5.21264 20.5599 9.72397 21.4909 11.9998 19.875C14.2756 21.4909 18.7869 20.5599 21.0627 21.205C21.0627 21.205 22.1704 21.564 23.0767 22.5349C22.6202 23.1799 21.969 23.1932 21.0627 22.8674C18.7869 22.2224 14.2756 23.1733 11.9998 22.2024C9.72397 23.1733 5.21264 22.2224 2.93684 22.8674C2.02786 23.1932 1.37734 23.1799 0.922852 22.5349C1.83183 21.2449 2.93684 21.205 2.93684 21.205Z"
    fill="black" stroke="black" stroke-width="1.5" stroke-linejoin="round" />
  <path fill-rule="evenodd" clip-rule="evenodd"
    d="M6.96475 18.547C8.64307 20.2095 15.3564 20.2095 17.0347 18.547C17.3703 17.5495 17.0347 17.2171 17.0347 17.2171C17.0347 15.5546 15.3564 14.5572 15.3564 14.5572C19.0487 13.5597 19.3843 6.90991 11.9997 4.25C4.6151 6.90991 4.95077 13.5597 8.64307 14.5572C8.64307 14.5572 6.96475 15.5546 6.96475 17.2171C6.96475 17.2171 6.62909 17.5495 6.96475 18.547Z"
    fill="black" stroke="black" stroke-width="1.5" stroke-linejoin="round" />
  <path fill-rule="evenodd" clip-rule="evenodd"
    d="M13.6779 2.58432C13.6779 3.02523 13.5011 3.44808 13.1864 3.75984C12.8716 4.07161 12.4447 4.24676 11.9996 4.24676C11.5545 4.24676 11.1276 4.07161 10.8129 3.75984C10.4981 3.44808 10.3213 3.02523 10.3213 2.58432C10.3213 2.14341 10.4981 1.72056 10.8129 1.40879C11.1276 1.09702 11.5545 0.921875 11.9996 0.921875C12.4447 0.921875 12.8716 1.09702 13.1864 1.40879C13.5011 1.72056 13.6779 2.14341 13.6779 2.58432Z"
    fill="black" stroke="black" stroke-width="1.5" stroke-linejoin="round" />
  <path d="M7.6359 14.5526H16.3632M6.62891 17.2125H11.9995H17.3702M11.9995 7.57031V10.8952M10.3212 9.23276H13.6779"
    stroke="white" stroke-width="0.75" stroke-linecap="round" />
</svg>
