<svg id="flag-icons-cn" viewBox="0 0 640 480" xmlns="http://www.w3.org/2000/svg">
  <g clip-path="url(#clip0_10_2887)">
    <path d="M0 0H640V480H0V0Z" fill="#DE2910" />
    <path d="M76.8006 177.6L120 48L163.2 177.6L48.001 98.4H191.999L76.8006 177.6Z" fill="#FFDE00" />
    <path d="M264.171 50.4836L219.713 60.3358L249.368 25.7791L246.46 72.2878L221.788 31.1136L264.171 50.4836Z"
      fill="#FFDE00" />
    <path d="M309.039 107.347L264.24 99.1858L304.976 78.8354L284.258 120.576L277.486 73.0558L309.039 107.347Z"
      fill="#FFDE00" />
    <path d="M302.5 187.124L264.925 161.401L310.419 159.434L274.478 189.095L287.677 142.945L302.5 187.124Z"
      fill="#FFDE00" />
    <path d="M245.989 239.241L221.265 201.001L263.988 216.758L219.38 230.236L249.379 192.765L245.989 239.241Z"
      fill="#FFDE00" />
  </g>
  <defs>
    <clipPath id="clip0_10_2887">
      <rect width="640" height="480" fill="white" />
    </clipPath>
  </defs>
</svg>
