<svg id="flag-icons-eg" viewBox="0 0 640 480" xmlns="http://www.w3.org/2000/svg">
  <g clip-path="url(#clip0_10_3409)">
    <path d="M0 320H640V480H0V320Z" fill="black" />
    <path d="M0 160H640V320H0V160Z" fill="white" />
    <path d="M0 0H640V160H0V0Z" fill="#CE1126" />
    <path
      d="M320.64 241.92L375.44 292.8L371.52 200.4C370.96 186.4 358.8 189.6 349.92 194.64C341.04 200.4 330.72 200.4 320 196.64C309.2 200.4 298.96 200.4 290.08 194.64C281.28 189.6 269.04 186.4 268.48 200.4L264.56 292.8L320.64 241.92Z"
      fill="white" stroke="#C09300" stroke-width="1.04" stroke-linejoin="round" />
    <path
      d="M274.8 197.2L270.96 287.04L264.56 292.8L268.48 200.4C270.37 198.951 272.513 197.866 274.8 197.2ZM282.48 203.6L279.28 278.8L272.88 285.36L276.72 198.56C278 199.84 281.76 202.96 282.48 203.6ZM289.44 209.36L286.96 272.08L281.76 277.12L284.96 205.6C286.24 206.8 288.8 208.64 289.44 209.36ZM297.04 212.56L294.56 266L289.52 270.08L292 210.64C293.28 211.2 295.76 212.56 297.04 212.56ZM304.08 212.56L302.24 257.12L297.04 262.16L299.04 213.12C300.24 213.12 303.52 213.12 304.08 212.56Z"
      fill="#C09300" />
    <path
      d="M365.2 197.2L369.04 287.04L375.44 292.8L371.52 200.4C369.63 198.951 367.487 197.866 365.2 197.2ZM357.52 203.6L360.72 278.8L367.12 285.36L363.28 198.56C362 199.84 358.24 202.96 357.52 203.6ZM350.56 209.36L353.04 272.08L358.24 277.12L355.04 205.6C353.76 206.8 351.2 208.64 350.56 209.36ZM342.96 212.56L345.44 266L350.48 270.08L348 210.64C346.72 211.2 344.24 212.56 342.96 212.56ZM335.92 212.56L337.76 257.12L342.96 262.16L340.96 213.12C339.76 213.12 336.48 213.12 335.92 212.56Z"
      fill="#C09300" />
    <path
      d="M322.56 252L330.24 287.04L327.68 289.6L325.04 287.6L320.72 256.4L322.56 287.6L320 290.8L317.52 287.6L319.36 256.4L314.96 287.6L312.32 289.6L309.76 287.04L317.44 252.08H322.56V252Z"
      fill="#C09300" stroke="#C09300" stroke-width="0.88" />
    <path d="M302.8 236.64L287.52 290.8L308.56 294L317.44 253.28L302.8 236.64Z" fill="white" stroke="#C09300"
      stroke-width="0.96" stroke-linejoin="round" />
    <path d="M297.76 255.2L299.6 259.6L309.52 250.16" stroke="#C09300" stroke-width="1.04" stroke-linejoin="round" />
    <path
      d="M304.64 244L306.72 263.44L313.04 255.12M310.48 258.32L313.92 270.32M315.28 265.92L308.32 276.48M310.48 287.04L308.24 276.48M308.24 276.48L306.32 265.76L301.6 272.08L299.6 264.8L293.04 271.52L296.32 283.68L300.96 276.16L303.44 283.84L308.24 276.48Z"
      stroke="#C09300" stroke-width="1.04" stroke-linejoin="round" />
    <path d="M292 289.6L296.24 283.6L298.96 292.8L302.8 286.4L305.28 294.08" stroke="#C09300" stroke-width="1.04"
      stroke-linejoin="round" />
    <path d="M337.2 236.64L352.48 290.8L331.44 294L322.56 253.28L337.2 236.64Z" fill="white" stroke="#C09300"
      stroke-width="0.96" stroke-linejoin="round" />
    <path d="M342.24 255.2L340.4 259.6L330.48 250.16" stroke="#C09300" stroke-width="1.04" stroke-linejoin="round" />
    <path
      d="M335.36 244L333.28 263.44L326.96 255.12M329.52 258.32L326.08 270.32M324.72 265.92L331.68 276.48M329.52 287.04L331.76 276.48M331.76 276.48L333.68 265.76L338.4 272.08L340.4 264.8L346.96 271.52L343.68 283.68L339.04 276.16L336.56 283.84L331.76 276.48Z"
      stroke="#C09300" stroke-width="1.04" stroke-linejoin="round" />
    <path d="M348 289.6L343.76 283.6L341.04 292.8L337.2 286.4L334.72 294.08" stroke="#C09300" stroke-width="1.04"
      stroke-linejoin="round" />
    <path
      d="M320 315.04C336 315.04 351.2 313.76 360.16 311.28C363.92 310.56 363.92 308.64 363.92 306.08C367.76 304.8 365.84 300.32 368.48 300.32C365.76 301.12 365.28 295.92 362.08 296.56C362.08 292.08 357.52 291.52 353.76 292.8C346.16 295.28 332.72 295.92 320 295.92C307.2 295.28 293.92 295.28 286.24 292.72C282.48 291.52 278 292.08 278 296.56C274.8 295.92 274.24 301.04 271.6 300.32C274.24 300.32 272.24 304.88 276.08 306.08C276.08 308.64 276.08 310.56 279.92 311.28C288.72 313.76 304.08 315.04 320 315.04Z"
      fill="white" stroke="#C09300" stroke-width="1.92" stroke-linecap="round" stroke-linejoin="round" />
    <path
      d="M298.32 290.8C303.44 291.52 309.2 292.08 313.68 291.52C316.24 291.52 318.08 295.92 312.96 296.56C308.56 297.12 301.52 296.56 297.76 295.92C292.812 295.054 287.901 293.986 283.04 292.72C278.56 290.8 281.76 287.12 284.32 287.6C288.887 289.063 293.571 290.134 298.32 290.8ZM341.68 290.8C336.56 291.52 330.8 292.08 326.48 291.52C323.76 291.52 321.92 295.92 327.04 296.56C331.52 297.12 338.48 296.56 342.24 295.92C345.44 295.28 352.48 294.08 356.96 292.72C361.44 290.8 358.24 287.12 355.68 287.6C351.113 289.064 346.429 290.134 341.68 290.8Z"
      fill="white" stroke="#C09300" stroke-width="1.04" stroke-linecap="round" stroke-linejoin="round" />
    <path
      d="M282.4 288.32C278.56 287.6 276.8 292.08 278 294.64C278.56 293.36 281.2 293.36 281.76 292.08C282.48 290.16 281.2 290.16 282.48 288.32H282.4ZM297.76 300.08C297.76 297.52 300.24 297.84 300.24 295.28C300.24 294.08 299.6 292.08 298.32 292.08C297.653 292.118 297.024 292.4 296.552 292.872C296.08 293.344 295.798 293.973 295.76 294.64C295.2 297.12 297.76 297.52 297.76 300.08ZM315.92 292.8C319.68 292.8 319.28 297.84 317.52 300.4C317.52 298.56 314.32 297.84 314.32 296.56C314.32 294.64 317.2 294.64 315.92 292.8ZM357.52 288.32C361.44 287.6 363.28 292.08 362 294.64C361.44 293.36 358.8 293.36 358.24 292.08C357.52 290.16 358.8 290.16 357.52 288.32ZM342.4 300C342.4 297.44 339.84 297.76 339.84 295.2C339.84 294 340.48 292 341.76 292C342.427 292.038 343.056 292.32 343.528 292.792C344 293.264 344.282 293.893 344.32 294.56C344.88 297.04 342.32 297.44 342.32 300H342.4ZM324 292.8C320.24 292.8 320.64 297.84 322.4 300.4C322.4 298.56 325.6 297.84 325.6 296.56C325.6 294.64 322.72 294.64 324 292.8Z"
      fill="white" stroke="#C09300" stroke-width="1.04" stroke-linecap="round" stroke-linejoin="round" />
    <path
      d="M283.76 289.6C285.04 289.6 286.96 290.16 287.52 290.88L283.76 289.6ZM290.08 291.52C290.72 291.52 293.28 292.08 294.48 292.8L290.08 291.52ZM312.96 294.08C311.76 294.08 309.2 294.08 308.56 294.64L312.96 294V294.08ZM306 294.08C305.28 293.36 302.8 293.36 301.52 294.08H306ZM356.24 289.6C354.883 289.617 353.566 290.065 352.48 290.88L356.24 289.6ZM350 291.52C349.2 291.52 346.8 292.08 345.52 292.8L350 291.52ZM327.04 294.08C328.24 294.08 330.8 294.08 331.52 294.64L327.04 294V294.08ZM334 294.08C334.72 293.36 337.2 293.36 338.48 294.08H334Z"
      fill="white" stroke="#C09300" stroke-width="0.72" stroke-linecap="round" stroke-linejoin="round" />
    <path
      d="M282.64 299.68C282.24 299.6 282 299.2 282.16 298.88C282.24 298.32 282.64 298.08 282.96 298.24C283.28 298.24 283.68 298.72 283.68 298.88L283.36 299.44L283.2 299.52C283.2 299.68 282.88 299.68 282.64 299.68ZM326.64 302.8C326.48 302.8 326.16 302.4 326.16 302.24C326.16 301.92 326.64 301.44 326.96 301.44L327.6 301.76C327.84 302 327.84 302.48 327.52 302.72C327.36 302.88 326.88 302.88 326.64 302.72V302.8ZM326.88 304.8C326.56 304.64 326.48 304.48 326.4 304.16C326.4 303.76 326.4 303.68 326.8 303.44L327.12 303.28L327.44 303.44C327.76 303.6 328 303.76 328 304.08C328 304.32 327.76 304.56 327.44 304.72C327.2 304.88 327.12 304.88 326.88 304.72V304.8Z"
      fill="#C09300" />
    <path
      d="M286.24 296C285.92 296 285.52 296.32 285.28 296.48C284.8 296.56 284.16 296.88 283.68 296.48C283.2 296.4 282.56 296.48 282.48 297.12C282.56 297.68 283.28 297.92 283.76 297.6C284.08 297.2 284.96 296.88 285.12 297.6C284.72 298.24 284.8 298.96 284.48 299.52C284.48 299.92 284.24 300.24 284.08 300.56C283.68 300.56 283.28 300.56 282.96 300.8C282.712 300.8 282.467 300.858 282.244 300.969C282.022 301.08 281.829 301.241 281.68 301.44C281.36 301.92 281.04 302.4 280.96 303.04C281.04 303.52 281.76 303.68 282.24 303.76L283.84 304.24L286.4 304.96C287.68 305.36 288.96 305.52 290.24 305.84L290.64 305.92C291.2 306.08 291.44 305.52 291.44 305.12L292.24 302.24C292.4 301.84 292.64 301.04 291.92 301.2C291.52 301.44 291.12 301.84 290.64 301.84C289.92 301.84 290.32 302.64 290.64 302.88C290.64 303.36 290.48 303.92 290.24 304.32C289.76 304.56 289.28 304.32 288.8 304.16C288.4 304.16 287.44 303.92 287.84 303.36L288.24 301.92C288.48 301.44 288.48 300.88 288.64 300.32C288.32 299.76 287.84 300.56 287.44 300.64C287.12 300.8 286.16 300.88 286.64 301.44C287.12 301.76 286.8 302.32 286.64 302.8C286.64 303.36 286 303.6 285.52 303.36C285.04 303.36 284.32 302.96 284.72 302.48L285.12 301.04L285.68 299.44C285.68 298.88 285.92 298.48 286.16 298C286.16 297.44 286.56 296.96 286.56 296.4C286.56 296.16 286.4 296.08 286.24 296.08V296ZM283.28 301.84C283.316 301.819 283.358 301.808 283.4 301.808C283.442 301.808 283.483 301.819 283.52 301.84C283.68 302 283.68 302.16 283.52 302.32L283.28 302.48C282.88 302.48 282.8 302.4 282.8 302.24C282.8 302.16 282.8 302.08 283.04 302C283.137 301.93 283.245 301.876 283.36 301.84H283.28ZM282.48 305.84C282.08 305.52 282.16 305.28 282.72 304.8C283.04 304.64 283.12 304.64 283.44 304.88C283.92 305.28 283.92 305.52 283.44 305.92C283.28 306.08 283.2 306.08 283.04 306.08C282.8 306.08 282.72 306.08 282.48 305.92V305.84ZM284.88 306.64C284.701 306.584 284.551 306.462 284.462 306.297C284.372 306.133 284.35 305.94 284.4 305.76C284.56 305.44 284.64 305.36 285.12 305.36C285.68 305.36 285.76 305.44 285.84 305.92C285.84 306.24 285.84 306.32 285.6 306.48C285.511 306.551 285.408 306.601 285.297 306.629C285.187 306.657 285.072 306.66 284.96 306.64H284.88ZM356.24 306.64C356.08 306.56 356 306.48 356 306.24C356 305.92 356.16 305.68 356.64 305.52C357.12 305.28 357.44 305.28 357.6 305.68C357.84 306.16 357.84 306.32 357.52 306.64C357.36 306.88 357.28 306.88 356.88 306.88C356.48 306.88 356.4 306.88 356.24 306.72V306.64ZM288.24 307.6C287.92 307.6 287.76 307.28 287.76 306.96C287.76 306.72 287.76 306.64 287.92 306.48L288.4 306.32L288.88 306.4C289.28 306.72 289.36 307.04 289.12 307.36C288.88 307.68 288.64 307.68 288.16 307.6H288.24ZM305.68 308.4L305.52 308.16C305.52 307.68 305.52 307.28 305.68 306.8C305.76 306.4 305.68 306 305.84 305.6L306.16 303.36C306.16 302.96 306.16 302.56 306.32 302.24C306.4 301.6 306.32 301.04 306.48 300.48C306.48 300.24 306.72 299.68 306.96 300C307.28 300.48 307.68 300.8 308.08 301.2C308.4 301.44 308.08 301.76 307.84 301.84C307.52 301.92 307.44 302.32 307.44 302.64L307.28 303.6C307.28 304.16 307.28 304.64 307.12 305.2L307.04 306.64L306.88 307.6C306.88 307.92 306.88 308.32 306.56 308.48C306.32 308.64 305.92 308.64 305.76 308.4H305.68ZM329.44 300.56L328.4 301.52C327.92 301.92 328.8 302.08 328.88 302.4C329.04 302.88 329.04 303.36 329.04 303.84C329.2 304.32 329.28 304.72 329.2 305.2C329.2 305.76 328.56 305.6 328.24 305.92C327.84 306.08 327.68 306.48 327.44 306.72C327.25 307.121 327.141 307.556 327.12 308C327.12 308.4 326.88 308.8 327.12 309.12L327.2 309.28H327.6L328.8 309.2C329.76 309.04 330.8 309.04 331.76 308.96L333.52 308.8C334 308.88 334.24 308.4 334.24 308C333.92 307.44 334.16 306.88 333.92 306.4C333.76 305.76 333.84 305.2 333.76 304.64C333.76 304.16 333.2 304 332.96 304.32C332.64 304.64 332.16 304.72 332 305.04C331.76 305.52 332.48 305.52 332.64 305.84L332.72 307.04C332.8 307.52 332.32 307.52 331.92 307.6C331.52 307.76 330.96 307.84 330.72 307.36C330.56 306.96 330.56 306.56 330.56 306.16C330.56 305.36 330.32 304.72 330.32 304C330.32 303.2 330.08 302.32 330.08 301.44C330.08 301.04 330 300.48 329.44 300.56ZM328.96 307.12H329.2V307.76L328.96 307.84C328.855 307.873 328.748 307.9 328.64 307.92C328.587 307.922 328.533 307.922 328.48 307.92C328.32 307.76 328.32 307.52 328.56 307.28L328.96 307.12ZM304.96 299.76C304.72 299.76 304.32 300.32 304 300.24C303.28 300.32 303.36 301.04 303.92 301.28V301.92C304 302.56 303.6 303.12 303.68 303.76C303.68 304.4 303.44 305.12 303.44 305.84C303.2 306.56 303.2 307.28 303.12 308C303.04 308.64 302.56 308.4 302.16 308.24V307.44C302.24 306.72 301.76 306.56 301.2 306.48C300.64 306.48 300.4 306.08 300.56 305.6C300.8 305.28 301.36 305.36 301.76 305.36C302.56 305.52 302.48 304.48 302.08 304.08C301.76 303.6 301.12 303.28 300.96 302.8C300.96 302.16 300.56 301.44 300 301.12C299.12 301.04 298.4 301.76 298.16 302.56C297.76 302.56 297.36 302.72 297.04 302.88C296.48 303.04 295.68 304 296.48 304.4C296.88 304.48 298.24 304.8 297.6 305.36C297.28 306 296.64 306 296.08 305.84C295.52 305.84 294.88 305.52 294.88 304.88C294.8 304.24 294.8 303.6 294.56 303.04C294.4 302.4 293.68 302.56 293.6 303.2C293.04 303.6 293.12 304.32 293.52 304.8C293.76 305.36 293.52 306.08 293.28 306.56C293.12 307.36 292.32 307.36 291.76 307.52C291.52 307.68 290.48 307.52 290.88 308.08C291.48 308.356 292.151 308.44 292.8 308.32C293.44 308.32 294 307.76 294.4 307.2C294.8 306.8 295.52 307.04 296.16 307.04C296.72 307.04 297.36 307.44 298 307.12C298.16 306.72 298.96 305.92 299.2 306.72C299.2 307.44 299.76 307.76 300.4 307.68C301.12 307.68 300.8 308.16 300.8 308.64C300.8 309.36 301.36 309.76 302 310.08H302.64C303.2 309.84 303.84 309.6 304.08 308.96C304.32 308.4 304.32 307.76 304.48 307.2C304.64 306.32 304.8 305.36 304.8 304.48C305.04 303.68 304.96 302.8 305.12 301.92L305.36 300.08C305.36 299.68 305.2 299.68 304.96 299.76ZM299.6 303.04C299.68 303.04 299.76 303.2 299.76 303.44C299.76 303.76 299.92 304 300.16 304.08V304.32L299.52 304.48C299.12 304.48 298.8 304.32 298.56 304.08L298.4 303.92L298.64 303.76L299.04 303.36C299.28 303.12 299.44 303.04 299.6 303.04ZM352.4 296.72C351.94 296.753 351.484 296.834 351.04 296.96C350.24 296.96 349.84 297.76 350.64 298.24C351.12 299.44 351.84 297.92 352.64 298.08C353.76 298.24 353.84 299.52 354.08 300.48C354.08 301.36 354.4 302.24 354.64 303.12C355.44 304 354.08 304.56 353.52 303.92C353.04 303.36 351.92 302.72 351.36 303.44C350.64 303.76 350.56 304.72 350 305.04C349.04 305.28 348.96 304.08 348.4 303.6C347.92 302.88 347.04 302.8 346.32 302.64C346 301.92 346.16 300.72 345.52 300.24C344.88 300.48 343.76 301.6 344.72 302.16C345.52 302.96 344.32 303.28 343.92 303.76C343.28 304.48 343.12 305.36 343.12 306.16C342.08 306.72 341.92 305.52 341.76 304.8C341.76 303.92 340.96 304.16 340.4 304.48C339.6 304.8 339.28 305.52 338.8 306.08V307.68C338.96 308.4 339.76 308.08 340.24 308C341.04 307.68 341.36 308.56 340.72 309.04C340.24 309.52 338.96 309.28 339.12 310.16H340.4C341.2 309.92 342.16 309.28 342.24 308.32C342.4 307.52 343.6 307.6 344.24 307.44C345.04 307.2 346.08 307.12 346.32 308.24C346.88 308.8 348.08 309.44 348.72 308.64C349.025 308.447 349.269 308.172 349.424 307.847C349.58 307.521 349.641 307.158 349.6 306.8C349.52 306.16 350.64 306.16 350.96 306.56C351.36 307.2 352.64 307.04 353.28 306.56C353.92 306.16 354.08 305.28 355.04 305.28L359.36 304.08C360.48 303.84 359.2 303.12 358.88 302.64C358.08 302.24 357.28 304 356.32 303.12C355.52 302.56 355.6 301.52 355.36 300.64C355.12 299.52 355.2 298.24 354.4 297.44C353.92 296.88 353.12 296.72 352.4 296.72ZM346.96 304.32C347.04 304.32 347.2 304.32 347.36 304.48C347.68 304.64 347.92 304.96 347.92 305.28C347.92 305.44 347.92 305.44 347.68 305.52L347.28 305.68C347.12 305.68 346.72 305.44 346.72 305.28V304.96C346.56 304.64 346.56 304.64 346.72 304.48L346.96 304.32ZM352.16 304.64C352.48 304.64 352.64 304.64 352.8 304.88C352.88 305.2 352.8 305.36 352.48 305.52L352.08 305.68L351.76 305.44C351.6 305.36 351.52 305.28 351.52 305.12C351.52 304.88 351.84 304.64 352.16 304.56V304.64ZM344.96 304.64C345.12 304.64 345.2 304.64 345.28 304.8C345.44 304.96 345.52 305.04 345.52 305.28V305.76C345.52 306 345.52 305.92 345.04 305.92C344.56 305.92 344.48 305.92 344.48 305.44C344.48 305.12 344.48 305.04 344.72 304.88C344.8 304.72 344.96 304.72 345.04 304.72L344.96 304.64ZM340.64 305.84C340.715 305.863 340.784 305.904 340.84 305.96C340.896 306.016 340.937 306.084 340.96 306.16C340.96 306.4 340.96 306.56 340.8 306.64C340.56 306.72 340.16 306.8 340 306.64C339.998 306.613 339.998 306.587 340 306.56C339.84 306.48 339.84 306.4 340 306.32V306.24L340.16 306C340.209 305.922 340.284 305.864 340.371 305.834C340.459 305.805 340.554 305.807 340.64 305.84ZM348 306.8L348.4 306.88V307.36H347.44L347.36 307.2C347.36 307.04 347.36 306.96 347.52 306.88L348 306.8ZM334.32 310.64C334.24 310.64 334.08 310.56 334.24 310.48C334.32 310.24 334.64 310.16 334.88 310C335.316 309.834 335.701 309.558 336 309.2C336 308.88 336.32 308.72 336.32 308.4L336.24 307.28C336.132 306.944 335.904 306.659 335.6 306.48C335.36 306.4 335.04 306.32 334.96 306C334.96 305.76 335.2 305.52 335.28 305.28L335.76 304.32C336 304.08 336.32 304.32 336.4 304.48L336.8 305.28C337.04 305.52 337.2 305.76 337.28 306.08C337.44 306.4 337.6 306.64 337.6 306.88L337.76 307.92C337.76 308.32 337.76 308.8 337.6 309.2L337.12 309.84C336.88 310.08 336.64 310.32 336.32 310.4C336.08 310.48 335.92 310.72 335.6 310.72H334.4L334.32 310.64ZM328.8 310.96C328.64 310.8 328.56 310.72 328.56 310.48C328.56 310.24 328.56 310.24 328.8 310C329.12 309.68 329.28 309.68 329.92 310C330.48 310.32 330.72 310.32 330.72 310.08C330.8 309.92 331.12 309.68 331.52 309.68C331.668 309.686 331.809 309.742 331.92 309.84C332.08 310 332.16 310.08 332.16 310.4C332.16 310.8 332.16 310.8 331.92 311.04C331.68 311.2 331.68 311.2 331.36 311.2C331.218 311.192 331.081 311.142 330.967 311.057C330.853 310.972 330.767 310.854 330.72 310.72C330.72 310.56 330.72 310.48 330.56 310.64L330.4 310.72C330.24 310.72 329.92 310.96 329.76 311.12L329.36 311.2C329.04 311.2 329.04 311.2 328.8 310.96ZM312.96 303.84C312.4 303.84 311.84 304.32 311.76 304.88C311.92 305.44 312.4 306.08 312.08 306.64C312.32 307.44 311.44 307.76 310.88 307.36C310.56 306.56 310.4 305.76 309.84 304.96C309.2 304.8 308.96 305.84 308.48 306.24C308.72 306.8 309.36 307.36 309.44 308.08C309.6 308.88 309.12 309.68 308.56 310C308 310.56 307.2 310.4 306.56 310.48C305.76 310.96 307.12 311.12 307.52 311.12C308.32 311.2 309.2 311.12 309.92 310.48C310.48 310.24 310.4 309.12 311.12 309.04L314.96 309.28C315.6 309.44 316.64 309.2 317.12 309.68C317.12 310.48 317.92 311.12 318.64 311.44C319.04 311.6 319.44 311.04 319.84 310.96C320.64 310.72 320.4 309.76 320.88 309.36H324.88C325.04 309.36 325.12 308.96 325.36 308.8L325.2 307.28C324.96 306.64 325.2 305.84 324.8 305.28C324.08 305.12 323.52 305.68 322.88 305.76C322.08 306.08 321.52 306.8 321.44 307.6C321.04 308.32 320.32 307.44 320.64 306.8L320.56 306C320.16 305.6 319.44 305.76 318.88 305.68L316.48 305.52C315.68 305.52 314.96 305.6 314.32 305.44C313.52 305.44 313.52 304.64 313.52 304C313.36 303.878 313.16 303.821 312.96 303.84ZM314.56 306.8L315.36 306.88H316.4C317.2 307.04 318 307.04 318.8 307.04C318.96 307.04 319.12 307.2 319.28 307.36V308.96C319.28 309.2 319.28 309.52 319.12 309.6C319.078 309.664 319.024 309.718 318.96 309.76C318.843 309.739 318.732 309.692 318.635 309.623C318.538 309.554 318.458 309.464 318.4 309.36V308.24C318.241 308.106 318.046 308.022 317.84 308L315.76 307.92L314.16 307.84C313.92 307.76 313.6 307.84 313.44 307.52C313.28 307.36 313.52 307.04 313.76 306.96C314.011 306.847 314.285 306.793 314.56 306.8ZM323.6 307.04C323.68 307.04 323.76 307.04 323.76 307.28L323.92 307.68C323.92 307.76 323.92 307.84 323.76 307.84C323.36 308 322.96 308 322.8 307.84C322.8 307.76 322.8 307.44 322.96 307.36L323.6 307.04Z"
      fill="#C09300" />
    <path
      d="M320 261.76C346.08 241.76 343.84 212.32 343.84 212.32L341.84 212.48C336.32 212.48 323.28 209.28 320.24 205.36C317.04 208.96 303.6 212.56 298.16 212.56L296.16 212.32C296.16 212.32 293.84 241.68 320 261.76Z"
      fill="white" stroke="#C09300" stroke-width="0.88" />
    <path
      d="M341.76 214.4H341.12C336.16 214.4 324.64 211.92 320.16 208.08C315.52 211.6 303.76 214.48 298.88 214.48C298.665 214.472 298.451 214.445 298.24 214.4C298.284 219.456 298.983 224.484 300.32 229.36C303.529 241.107 310.428 251.512 320 259.04C329.578 251.484 336.477 241.052 339.68 229.28C341.011 224.43 341.71 219.429 341.76 214.4Z"
      fill="white" stroke="#C09300" stroke-width="0.72" />
    <path
      d="M311.52 212C307.223 213.4 302.755 214.207 298.24 214.4L298.32 217.68C298.593 221.604 299.264 225.491 300.32 229.28C302.471 237.148 306.291 244.461 311.52 250.72V212ZM328 212V251.36C333.482 244.957 337.471 237.415 339.68 229.28C340.736 225.491 341.406 221.604 341.68 217.68L341.76 214.48H341.12C338.08 214.48 332.8 213.52 328 211.92V212Z"
      fill="#C09300" />
    <path
      d="M329.84 202.4C330.4 202.48 329.12 199.6 329.12 199.6C330.56 201.04 335.84 201.44 335.84 201.44C332.64 200 329.44 189.36 329.84 180.8C330.16 172.32 328.64 168.96 327.44 167.68C325.84 166.08 320.64 164.64 317.28 164.48C315.28 164.4 315.68 165.92 315.68 165.92C312.08 165.04 308.48 164.64 306.88 165.76C305.44 166.72 305.12 171.76 306.24 170.88C308.88 168.72 311.2 170.72 312.8 173.04C314.24 175.04 314.16 180.8 312.08 187.6C310.238 192.741 307.533 197.53 304.08 201.76C307.28 201.76 311.76 198.96 311.76 198.96L310.72 203.36C314.08 201.76 316.72 199.28 316.72 199.28L319.92 202.64C320.96 201.2 323.12 199.28 323.12 199.28C323.12 199.28 325.76 202.08 329.84 202.48V202.4Z"
      fill="white" stroke="#C09300" stroke-width="0.96" />
    <path
      d="M316.88 182.08C316.88 182.08 315.12 195.2 311.76 198.88M319.76 181.68C319.76 181.68 318.96 195.04 316.72 199.28M322.24 182.24C322.24 182.24 322.24 196.8 323.04 199.28M325.44 182.96C325.44 182.96 326.08 195.2 329.12 199.6"
      stroke="#C09300" stroke-width="1.04" />
    <path
      d="M313.6 175.68C313.529 174.752 313.256 173.851 312.8 173.04C311.2 170.64 308.88 168.72 306.24 170.88C306.24 170.88 307.12 168.08 309.12 168C310.56 167.92 314 169.12 317.04 174.24C317.04 174.24 314.8 173.76 314.24 174.24C313.28 175.04 313.68 175.68 313.68 175.68H313.6Z"
      fill="#C09300" stroke="#C09300" stroke-width="0.24" />
    <path
      d="M305.92 167.44C306.16 166.64 306.48 166 306.96 165.76C308.56 164.64 312.08 164.96 315.68 165.92C315.68 165.92 315.36 164.4 317.28 164.48C320.64 164.64 325.76 166.08 327.36 167.68C327.872 168.243 328.279 168.893 328.56 169.6C327.76 168.48 325.52 168.56 324.96 168.64C324.16 168.72 323.6 168.64 322.48 168.96C321.92 169.12 321.12 169.28 320.64 169.6C320.32 169.92 320 170.88 319.52 170.88C318.72 170.88 318.72 170.72 318.48 170.48C318.24 170.08 318.08 169.6 317.76 169.68C316.96 169.76 315.52 169.12 313.76 167.68C311.92 166.24 311.2 165.92 308.96 166.08C306.56 166.24 305.92 167.6 305.92 167.6V167.44Z"
      fill="#C09300" stroke="#C09300" stroke-width="0.24" />
    <path
      d="M319.04 169.52C319.57 169.52 320 169.09 320 168.56C320 168.03 319.57 167.6 319.04 167.6C318.51 167.6 318.08 168.03 318.08 168.56C318.08 169.09 318.51 169.52 319.04 169.52Z"
      fill="white" />
  </g>
  <defs>
    <clipPath id="clip0_10_3409">
      <rect width="640" height="480" fill="white" />
    </clipPath>
  </defs>
</svg>
