<svg viewBox="0 0 640 480" fill="none" id="flag-icons-eu" xmlns="http://www.w3.org/2000/svg">
  <g clip-path="url(#clip0_8_4)">
    <path d="M0 0H640V480H0V0Z" fill="#003399" />
    <path d="M320 76.3741L312.889 100.078L324.741 102.448L320 76.3741Z" fill="#FFCC00" />
    <path d="M320 76.3741L327.111 100.078L315.259 102.448L320 76.3741Z" fill="#FFCC00" />
    <path d="M342.544 92.7529L317.803 93.3147L319.211 105.319L342.544 92.7529Z" fill="#FFCC00" />
    <path d="M342.544 92.7529L322.197 106.841L316.281 96.3015L342.544 92.7529Z" fill="#FFCC00" />
    <path d="M333.933 119.255L325.753 95.898L314.771 100.947L333.933 119.255Z" fill="#FFCC00" />
    <path d="M333.933 119.255L314.247 104.258L322.442 95.3736L333.933 119.255Z" fill="#FFCC00" />
    <path d="M297.456 92.7529L322.197 93.3147L320.789 105.319L297.456 92.7529Z" fill="#FFCC00" />
    <path d="M297.456 92.7529L317.802 106.841L323.719 96.3015L297.456 92.7529Z" fill="#FFCC00" />
    <path d="M306.067 119.255L314.247 95.898L325.229 100.947L306.067 119.255Z" fill="#FFCC00" />
    <path d="M306.067 119.255L325.753 104.258L317.558 95.3736L306.067 119.255Z" fill="#FFCC00" />
    <path d="M320 360.818L312.889 384.522L324.741 386.893L320 360.818Z" fill="#FFCC00" />
    <path d="M320 360.818L327.111 384.522L315.259 386.893L320 360.818Z" fill="#FFCC00" />
    <path d="M342.544 377.197L317.803 377.759L319.211 389.763L342.544 377.197Z" fill="#FFCC00" />
    <path d="M342.544 377.197L322.197 391.285L316.281 380.746L342.544 377.197Z" fill="#FFCC00" />
    <path d="M333.933 403.699L325.753 380.342L314.771 385.391L333.933 403.699Z" fill="#FFCC00" />
    <path d="M333.933 403.699L314.247 388.702L322.442 379.818L333.933 403.699Z" fill="#FFCC00" />
    <path d="M297.456 377.197L322.197 377.759L320.789 389.763L297.456 377.197Z" fill="#FFCC00" />
    <path d="M297.456 377.197L317.802 391.285L323.719 380.746L297.456 377.197Z" fill="#FFCC00" />
    <path d="M306.067 403.699L314.247 380.342L325.229 385.391L306.067 403.699Z" fill="#FFCC00" />
    <path d="M306.067 403.699L325.753 388.702L317.558 379.818L306.067 403.699Z" fill="#FFCC00" />
    <path d="M177.778 218.596L170.667 242.3L182.518 244.67L177.778 218.596Z" fill="#FFCC00" />
    <path d="M177.778 218.596L184.889 242.3L173.037 244.67L177.778 218.596Z" fill="#FFCC00" />
    <path d="M200.321 234.975L175.58 235.537L176.988 247.541L200.321 234.975Z" fill="#FFCC00" />
    <path d="M200.321 234.975L179.975 249.063L174.058 238.524L200.321 234.975Z" fill="#FFCC00" />
    <path d="M191.71 261.477L183.531 238.12L172.549 243.169L191.71 261.477Z" fill="#FFCC00" />
    <path d="M191.711 261.477L172.025 246.48L180.22 237.596L191.711 261.477Z" fill="#FFCC00" />
    <path d="M155.234 234.975L179.975 235.537L178.567 247.541L155.234 234.975Z" fill="#FFCC00" />
    <path d="M155.234 234.975L175.58 249.063L181.497 238.524L155.234 234.975Z" fill="#FFCC00" />
    <path d="M163.845 261.477L172.025 238.12L183.006 243.169L163.845 261.477Z" fill="#FFCC00" />
    <path d="M163.845 261.477L183.531 246.48L175.336 237.596L163.845 261.477Z" fill="#FFCC00" />
    <path d="M236.701 139.383L256.387 124.386L248.192 115.502L236.701 139.383Z" fill="#FFCC00" />
    <path d="M236.701 139.383L244.881 116.026L255.862 121.075L236.701 139.383Z" fill="#FFCC00" />
    <path d="M228.09 112.881L248.436 126.969L254.353 116.43L228.09 112.881Z" fill="#FFCC00" />
    <path d="M228.09 112.881L252.831 113.443L251.423 125.447L228.09 112.881Z" fill="#FFCC00" />
    <path d="M250.634 96.5023L243.523 120.206L255.374 122.576L250.634 96.5023Z" fill="#FFCC00" />
    <path d="M250.634 96.5023L257.745 120.206L245.893 122.576L250.634 96.5023Z" fill="#FFCC00" />
    <path d="M264.566 139.383L244.881 124.386L253.076 115.502L264.566 139.383Z" fill="#FFCC00" />
    <path d="M264.566 139.383L256.387 116.026L245.405 121.075L264.566 139.383Z" fill="#FFCC00" />
    <path d="M273.177 112.881L252.831 126.969L246.914 116.43L273.177 112.881Z" fill="#FFCC00" />
    <path d="M273.177 112.881L248.436 113.443L249.844 125.447L273.177 112.881Z" fill="#FFCC00" />
    <path d="M211.839 192.11L203.659 168.754L192.677 173.803L211.839 192.11Z" fill="#FFCC00" />
    <path d="M211.839 192.11L192.153 177.114L200.348 168.23L211.839 192.11Z" fill="#FFCC00" />
    <path d="M183.973 192.11L203.659 177.113L195.464 168.229L183.973 192.11Z" fill="#FFCC00" />
    <path d="M183.973 192.11L192.153 168.754L203.135 173.803L183.973 192.11Z" fill="#FFCC00" />
    <path d="M175.362 165.609L195.708 179.697L201.625 169.157L175.362 165.609Z" fill="#FFCC00" />
    <path d="M175.362 165.609L200.103 166.171L198.695 178.175L175.362 165.609Z" fill="#FFCC00" />
    <path d="M220.45 165.609L200.103 179.697L194.187 169.158L220.45 165.609Z" fill="#FFCC00" />
    <path d="M220.45 165.609L195.709 166.171L197.117 178.175L220.45 165.609Z" fill="#FFCC00" />
    <path d="M197.906 149.23L205.017 172.934L193.165 175.304L197.906 149.23Z" fill="#FFCC00" />
    <path d="M197.906 149.23L190.795 172.934L202.647 175.304L197.906 149.23Z" fill="#FFCC00" />
    <path d="M220.476 308.172L195.735 308.734L197.143 320.738L220.476 308.172Z" fill="#FFCC00" />
    <path d="M220.476 308.172L200.13 322.26L194.213 311.721L220.476 308.172Z" fill="#FFCC00" />
    <path d="M211.865 334.674L203.685 311.317L192.703 316.366L211.865 334.674Z" fill="#FFCC00" />
    <path d="M211.865 334.674L192.179 319.677L200.374 310.793L211.865 334.674Z" fill="#FFCC00" />
    <path d="M183.999 334.674L203.685 319.677L195.49 310.793L183.999 334.674Z" fill="#FFCC00" />
    <path d="M183.999 334.674L192.179 311.317L203.161 316.366L183.999 334.674Z" fill="#FFCC00" />
    <path d="M197.932 291.793L205.043 315.497L193.191 317.867L197.932 291.793Z" fill="#FFCC00" />
    <path d="M197.932 291.793L190.821 315.497L202.673 317.867L197.932 291.793Z" fill="#FFCC00" />
    <path d="M175.389 308.172L200.13 308.734L198.722 320.738L175.389 308.172Z" fill="#FFCC00" />
    <path d="M175.389 308.172L195.735 322.26L201.651 311.721L175.389 308.172Z" fill="#FFCC00" />
    <path d="M271.921 355.882L247.18 356.444L248.588 368.448L271.921 355.882Z" fill="#FFCC00" />
    <path d="M271.921 355.882L251.575 369.97L245.658 359.431L271.921 355.882Z" fill="#FFCC00" />
    <path d="M263.31 382.384L255.13 359.027L244.149 364.076L263.31 382.384Z" fill="#FFCC00" />
    <path d="M263.31 382.384L243.624 367.387L251.82 358.503L263.31 382.384Z" fill="#FFCC00" />
    <path d="M235.445 382.384L255.13 367.387L246.935 358.503L235.445 382.384Z" fill="#FFCC00" />
    <path d="M235.445 382.384L243.624 359.027L254.606 364.076L235.445 382.384Z" fill="#FFCC00" />
    <path d="M249.377 339.504L256.489 363.207L244.637 365.578L249.377 339.504Z" fill="#FFCC00" />
    <path d="M249.377 339.504L242.266 363.207L254.118 365.578L249.377 339.504Z" fill="#FFCC00" />
    <path d="M226.834 355.882L251.575 356.444L250.167 368.448L226.834 355.882Z" fill="#FFCC00" />
    <path d="M226.834 355.882L247.18 369.97L253.097 359.431L226.834 355.882Z" fill="#FFCC00" />
    <path d="M462.222 218.596L469.333 242.3L457.481 244.67L462.222 218.596Z" fill="#FFCC00" />
    <path d="M462.222 218.596L455.111 242.3L466.963 244.67L462.222 218.596Z" fill="#FFCC00" />
    <path d="M439.679 234.975L464.42 235.537L463.011 247.541L439.679 234.975Z" fill="#FFCC00" />
    <path d="M439.679 234.975L460.025 249.063L465.941 238.524L439.679 234.975Z" fill="#FFCC00" />
    <path d="M448.289 261.477L456.469 238.12L467.451 243.169L448.289 261.477Z" fill="#FFCC00" />
    <path d="M448.289 261.477L467.975 246.48L459.78 237.596L448.289 261.477Z" fill="#FFCC00" />
    <path d="M484.766 234.975L460.025 235.537L461.433 247.541L484.766 234.975Z" fill="#FFCC00" />
    <path d="M484.766 234.975L464.42 249.063L458.503 238.524L484.766 234.975Z" fill="#FFCC00" />
    <path d="M476.155 261.477L467.975 238.12L456.994 243.169L476.155 261.477Z" fill="#FFCC00" />
    <path d="M476.155 261.477L456.469 246.48L464.664 237.596L476.155 261.477Z" fill="#FFCC00" />
    <path d="M403.299 139.383L383.613 124.386L391.808 115.502L403.299 139.383Z" fill="#FFCC00" />
    <path d="M403.299 139.383L395.119 116.026L384.138 121.075L403.299 139.383Z" fill="#FFCC00" />
    <path d="M411.91 112.881L391.564 126.969L385.647 116.43L411.91 112.881Z" fill="#FFCC00" />
    <path d="M411.91 112.881L387.169 113.443L388.577 125.447L411.91 112.881Z" fill="#FFCC00" />
    <path d="M389.366 96.5023L396.477 120.206L384.625 122.576L389.366 96.5023Z" fill="#FFCC00" />
    <path d="M389.366 96.5023L382.255 120.206L394.107 122.576L389.366 96.5023Z" fill="#FFCC00" />
    <path d="M375.434 139.383L395.119 124.386L386.924 115.502L375.434 139.383Z" fill="#FFCC00" />
    <path d="M375.434 139.383L383.613 116.026L394.595 121.075L375.434 139.383Z" fill="#FFCC00" />
    <path d="M366.823 112.881L387.169 126.969L393.086 116.43L366.823 112.881Z" fill="#FFCC00" />
    <path d="M366.823 112.881L391.564 113.443L390.156 125.447L366.823 112.881Z" fill="#FFCC00" />
    <path d="M428.161 192.11L436.341 168.754L447.323 173.803L428.161 192.11Z" fill="#FFCC00" />
    <path d="M428.161 192.11L447.847 177.114L439.652 168.23L428.161 192.11Z" fill="#FFCC00" />
    <path d="M456.027 192.11L436.341 177.113L444.536 168.229L456.027 192.11Z" fill="#FFCC00" />
    <path d="M456.027 192.11L447.847 168.754L436.865 173.803L456.027 192.11Z" fill="#FFCC00" />
    <path d="M464.638 165.609L444.291 179.697L438.375 169.157L464.638 165.609Z" fill="#FFCC00" />
    <path d="M464.638 165.609L439.897 166.171L441.305 178.175L464.638 165.609Z" fill="#FFCC00" />
    <path d="M419.55 165.609L439.896 179.697L445.813 169.158L419.55 165.609Z" fill="#FFCC00" />
    <path d="M419.55 165.609L444.291 166.171L442.883 178.175L419.55 165.609Z" fill="#FFCC00" />
    <path d="M442.094 149.23L434.983 172.934L446.835 175.304L442.094 149.23Z" fill="#FFCC00" />
    <path d="M442.094 149.23L449.205 172.934L437.353 175.304L442.094 149.23Z" fill="#FFCC00" />
    <path d="M419.524 308.172L444.265 308.734L442.857 320.738L419.524 308.172Z" fill="#FFCC00" />
    <path d="M419.524 308.172L439.87 322.26L445.787 311.721L419.524 308.172Z" fill="#FFCC00" />
    <path d="M428.135 334.674L436.315 311.317L447.296 316.366L428.135 334.674Z" fill="#FFCC00" />
    <path d="M428.135 334.674L447.821 319.677L439.626 310.793L428.135 334.674Z" fill="#FFCC00" />
    <path d="M456 334.674L436.315 319.677L444.51 310.793L456 334.674Z" fill="#FFCC00" />
    <path d="M456 334.674L447.821 311.317L436.839 316.366L456 334.674Z" fill="#FFCC00" />
    <path d="M442.068 291.793L434.956 315.497L446.808 317.867L442.068 291.793Z" fill="#FFCC00" />
    <path d="M442.068 291.793L449.179 315.497L437.327 317.867L442.068 291.793Z" fill="#FFCC00" />
    <path d="M464.611 308.172L439.87 308.734L441.278 320.738L464.611 308.172Z" fill="#FFCC00" />
    <path d="M464.611 308.172L444.265 322.26L438.348 311.721L464.611 308.172Z" fill="#FFCC00" />
    <path d="M368.079 355.882L392.82 356.444L391.412 368.448L368.079 355.882Z" fill="#FFCC00" />
    <path d="M368.079 355.882L388.425 369.97L394.342 359.431L368.079 355.882Z" fill="#FFCC00" />
    <path d="M376.69 382.384L384.869 359.027L395.851 364.076L376.69 382.384Z" fill="#FFCC00" />
    <path d="M376.69 382.384L396.375 367.387L388.18 358.503L376.69 382.384Z" fill="#FFCC00" />
    <path d="M404.555 382.384L384.869 367.387L393.065 358.503L404.555 382.384Z" fill="#FFCC00" />
    <path d="M404.555 382.384L396.375 359.027L385.394 364.076L404.555 382.384Z" fill="#FFCC00" />
    <path d="M390.622 339.504L383.511 363.207L395.363 365.578L390.622 339.504Z" fill="#FFCC00" />
    <path d="M390.622 339.504L397.734 363.207L385.882 365.578L390.622 339.504Z" fill="#FFCC00" />
    <path d="M413.166 355.882L388.425 356.444L389.833 368.448L413.166 355.882Z" fill="#FFCC00" />
    <path d="M413.166 355.882L392.82 369.97L386.903 359.431L413.166 355.882Z" fill="#FFCC00" />
  </g>
  <defs>
    <clipPath id="clip0_8_4">
      <rect width="640" height="480" fill="white" />
    </clipPath>
  </defs>
</svg>
