<svg id="flag-icons-fk" viewBox="0 0 640 480" xmlns="http://www.w3.org/2000/svg">
  <g clip-path="url(#clip0_10_10952)">
    <path d="M0 0H640V480H0V0Z" fill="#012169" />
    <path fill-rule="evenodd" clip-rule="evenodd" d="M0 0H400V200H0V0Z" fill="#012169" />
    <path fill-rule="evenodd" clip-rule="evenodd"
      d="M412.9 308.9C412.334 308.852 411.766 308.852 411.2 308.9C408.2 309.5 403.6 320.2 401.2 326.5C397.1 331.9 395 336.1 393.4 339.2C392.7 340.4 391.7 341.8 392 343.4C386 345 385.7 350.8 385.7 353C385.7 355.5 386.4 356.7 386.4 356.7L390 364.2V364.3C393.8 373.3 399.4 385.2 402.7 386.1C407.1 387.6 418.7 382.8 427.5 374.4C444.365 382.273 462.435 386.383 480.7 386.5C501.1 386.5 519.4 381 533.7 374.4C542.5 382.8 554.1 387.6 558.7 386.1C561.7 385.1 567.4 373.1 571.3 364.3L574.8 356.7C574.8 356.7 575.5 355.5 575.5 353.1C575.5 350.9 575.2 345.1 569.2 343.5C569.5 341.9 568.6 340.5 567.9 339.2C566.2 336 564.1 331.8 560.2 326.2C557.6 320 553 309.5 550.2 309C546 308.2 537.2 310.5 537.2 311.4V311.8L519.5 330.4C519.5 330.9 520.4 344.4 523.8 356.4C509.905 361.958 495.249 364.734 480.5 364.6C463.5 364.6 449 361.2 437.3 356.3C439.511 347.818 440.952 339.107 441.6 330.3L424 311.8V311.4C424 310.7 417.2 308.9 412.9 308.9ZM417.3 331.9C419.6 331.9 421.9 334.1 423.8 336.3L423.7 337.6C422.982 341.07 422.046 344.478 420.9 347.8C416.542 344.977 412.454 341.659 408.7 337.9C410.6 335.6 413.7 332.5 416.9 332.1H417.3V331.9ZM543.9 331.9H544.3C547.6 332.5 550.6 335.6 552.6 337.9C548.819 341.702 544.697 345.053 540.3 347.9C539.149 344.546 538.214 341.104 537.5 337.6C537.418 337.17 537.351 336.736 537.3 336.3C539.3 334 541.6 332 543.9 332V331.9ZM401.5 358.3C403.9 360.3 406.9 362.7 410.6 365.1C409.621 365.831 408.539 366.372 407.4 366.7C405.8 367.1 404.3 367 402.7 366.7C402.084 364.911 401.745 363.017 401.7 361.1C401.616 360.168 401.549 359.235 401.5 358.3ZM559.7 358.3L559.6 361.1C559.538 362.983 559.2 364.842 558.6 366.6C557.245 366.968 555.837 367.024 554.462 366.766C553.087 366.508 551.773 365.942 550.6 365.1C554.3 362.7 557.4 360.3 559.7 358.3Z"
      fill="url(#paint0_linear_10_10952)" stroke="white" stroke-width="10" />
    <path fill-rule="evenodd" clip-rule="evenodd"
      d="M426.2 339.6C426.2 339.6 420.1 328.5 415.1 329.4C410 330.1 405.1 337.2 404.9 337.6C402.072 334.81 399.552 331.619 397.4 328.1C397.7 327.7 405.2 307.2 409.4 306.3C413.4 305.4 422.1 307.8 422.1 308.6L426.2 339.6Z"
      fill="url(#paint1_linear_10_10952)" stroke="black" stroke-width="1.2" />
    <path fill-rule="evenodd" clip-rule="evenodd"
      d="M439.8 327.7C439.8 328.5 437.6 357.9 428.9 368.1C420.3 378.4 405.9 384.7 400.7 383.2C395.7 381.6 384.2 351.9 384.2 351.9C384.2 351.9 396.4 366.1 405.5 363.7C414.6 361.4 420.1 343.6 421.8 334.8C423.5 326.2 422.1 309.1 422.1 309.1L439.9 327.7H439.8Z"
      fill="url(#paint2_linear_10_10952)" stroke="black" stroke-width="1.2" />
    <path fill-rule="evenodd" clip-rule="evenodd"
      d="M532.9 339.6C532.9 339.6 539.1 328.5 544.1 329.4C549.1 330.1 553.9 337.2 554.3 337.6C557.128 334.81 559.648 331.619 561.8 328.1C561.4 327.7 553.9 307.2 549.8 306.3C545.7 305.4 537 307.8 537 308.6L532.9 339.6Z"
      fill="url(#paint3_linear_10_10952)" stroke="black" stroke-width="1.2" />
    <path fill-rule="evenodd" clip-rule="evenodd"
      d="M519.3 327.7C519.3 328.5 521.5 357.9 530.2 368.1C538.9 378.4 553.2 384.7 558.4 383.2C563.4 381.6 575 351.9 575 351.9C575 351.9 562.7 366.1 553.6 363.7C544.6 361.4 539.1 343.6 537.4 334.8C535.6 326.2 537 309.1 537 309.1L519.2 327.7H519.3Z"
      fill="url(#paint4_linear_10_10952)" stroke="black" stroke-width="1.2" />
    <path fill-rule="evenodd" clip-rule="evenodd"
      d="M401.2 326.2C397.2 331.7 395.1 336 393.3 339.2C391.6 342.4 392.7 346.9 396.5 353.2C400.8 359.9 435.5 386.6 480.6 386.6C525.8 386.6 560.4 360 564.6 353.2C568.6 346.8 569.6 342.4 567.9 339.2C566.2 336 564 331.7 560 326.2C560 334.5 531.3 364.7 480.6 364.7C429.9 364.7 401.2 334.5 401.2 326.2Z"
      fill="url(#paint5_linear_10_10952)" stroke="black" stroke-width="1.5" />
    <path fill-rule="evenodd" clip-rule="evenodd"
      d="M557.7 378.8L565.5 363.7L561.6 360.5C560.6 364.3 556.1 365.6 555.3 370.5C554.6 375.2 558.3 379.9 557.7 378.8Z"
      fill="url(#paint6_linear_10_10952)" stroke="black" stroke-width="1.2" />
    <path fill-rule="evenodd" clip-rule="evenodd"
      d="M564.8 374.5C564.8 374.5 566.2 367.7 561.8 366.9C557.4 366.1 555 370.7 555.7 368.9C556.3 366.9 558.9 364.9 559.4 358.2C559.7 351.5 559 347.9 559 347.9C559 347.9 560.8 339.2 567.8 340.4C575 341.7 575.3 348 575.3 350.3C575.334 351.495 575.13 352.685 574.7 353.8L564.8 374.5Z"
      fill="url(#paint7_linear_10_10952)" stroke="black" stroke-width="1.2" />
    <path
      d="M539.2 351.7L540.7 354.5L541.7 353.9L541 351.9L541.1 351.6L542.8 350.4L547.2 359.1V359.6L546.2 360.3L546.7 361.1L550.9 358.1L550.5 357.3L549.5 357.9H549.2L544.8 349.1L546.4 347.9H546.8L547.8 349.5L548.8 348.8L547.3 346L539.3 351.7H539.2ZM528.7 358.4L529.1 359.2L530 358.8L530.3 358.9L534.2 367.8L534.1 368.2L533.3 368.8L533.6 369.6L537.7 367.1L537.4 366.3L536.5 366.7H536.1L534.3 362.4L538.6 360L540.4 364V364.5L539.4 365.1L539.8 366L544 363.5L543.6 362.7L542.7 363.1L542.4 362.9L538.6 354.1V353.7L539.4 353.1L539.1 352.3L535 354.8L535.3 355.6L536.3 355.1L536.6 355.3L538.1 358.9L533.9 361.4L532.3 357.7L532.5 357.3L533.3 356.8L532.9 355.9L528.7 358.4ZM526.3 366L526.5 366.8L527.7 366.5L528.1 366.6L529 370.3L528.2 370.7C525.7 371.5 523.8 370.2 522.9 367C522.1 363.8 523.1 361.4 525.4 360.6C525.856 360.459 526.332 360.425 526.8 360.5L527.1 360.7L527.9 362.4L529.1 362L528.4 359C527.1 359 525.9 359.2 524.9 359.6C521.3 360.9 519.7 364.1 520.6 367.8C521.6 371.5 524.5 373.2 527.8 372.1C529.027 371.656 530.176 370.98 531.2 370.1L530 366L530.2 365.6L531.1 365.2L530.8 364.3L526.3 366ZM516.6 376.3L521.3 374.6L521 373.7L520 373.9L519.7 373.8L517.1 364.2L517.2 363.9L518.2 363.4L518 362.6L513.3 364.2L513.6 365.1L514.6 364.8L515 365L517.5 374.5L517.3 374.9L516.3 375.3L516.6 376.2V376.3ZM491.1 380.9L499.4 380.1L499.1 376.7L498.1 376.8L497.9 378.8L497.7 379.1L494.2 379.5L493.8 374.6L495.8 374.4L496.1 374.7L496.3 376H497.3L496.9 371.6H495.9V373L495.7 373.4L493.7 373.5L493.3 369.1L496.4 368.8L496.6 369L497 370.7L498.1 370.6L497.9 367.6L490.1 368.4V369.3H491.1L491.4 369.6L492.1 379.5L492 379.8L491 380V381L491.1 380.9ZM478.7 368.6V369.6H479.7L479.9 369.9L480 379.8L479.8 380.1L478.9 380.3V381.1H483.3V380.2H482.3L482.1 379.8V375H486.5V379.6L486.3 379.9L485.4 380V381H489.8V380H488.8L488.7 379.6L488.5 369.6L488.7 369.3H489.7V368.3H485.2V369.3L486.2 369.4L486.4 369.7V373.7L482.1 373.8L481.9 369.8L482.2 369.5H483.1V368.5L478.7 368.6ZM469.3 368.3V371.6H470.3L470.6 369.6L470.8 369.3H472.7V379.5L472.4 379.9H471.4V380.9H476V380L475 379.9L474.7 379.5L474.8 369.5H476.6L476.9 369.7L477.2 371.7H478.2V368.4L469.3 368.3ZM455 378.9L463 379.3L463.2 376H462.2L461.9 377.9L461.7 378.1L458.2 378L458.4 373L460.3 373.2L460.5 373.5L460.7 374.9H461.5L461.7 370.6H460.8L460.6 371.8L460.4 372.1H458.4L458.6 367.5L461.6 367.7L461.8 367.9L461.9 369.6H463V366.7L455.5 366.3V367.2L456.5 367.4L456.6 367.7L456.2 377.6L456 377.9H455V378.8V378.9ZM436.4 373.5L440.8 375.1L441 374.3L440 373.8V373.4L442.5 363.9L442.8 363.7L443.8 364L444 363.2L439.7 361.5L439.5 362.4L440.4 362.8L440.6 363.2L437.9 372.6L437.7 372.9L436.7 372.6L436.4 373.5ZM428.8 370.2C429.575 370.902 430.455 371.444 431.4 371.8C433.8 372.6 435.7 371.6 436.2 369.6C436.345 369.059 436.375 368.486 436.288 367.928C436.201 367.371 435.999 366.846 435.7 366.4L433.9 364.4C433.3 363.5 433.1 362.8 433.3 361.9C433.6 361 434.4 360.5 435.5 360.9C435.9 361.1 436.3 361.3 436.5 361.6V361.9L436.3 363.9L437.3 364.2L438.1 361.4C437.367 360.666 436.519 360.089 435.6 359.7C433.6 358.9 431.8 360 431.2 361.9C431.085 362.371 431.06 362.864 431.129 363.346C431.198 363.828 431.359 364.29 431.6 364.7C432 365.7 432.6 366.2 433.1 366.7C434 367.7 434.3 368.7 434.1 369.6C433.8 370.6 432.9 371.1 431.7 370.6C431.262 370.414 430.855 370.144 430.5 369.8L430.4 369.5L430.8 367.3L429.7 366.9L428.8 370.2ZM419 365.6L426.4 369.6L427.6 366.6L426.6 366.1L425.7 367.8L425.4 367.9L422.3 366.1L424.1 361.8L425.9 362.8V363.1L425.6 364.4L426.4 364.9L428 360.9L427.2 360.5L426.5 361.6L426.2 361.8L424.5 360.8L426.1 356.8L428.8 358.3L428.9 358.6L428.5 360.2L429.5 360.7L430.5 358.1L423.7 354.2L423.3 355L424.1 355.6L424.2 356L420.6 365H420.3L419.4 364.7L419 365.6ZM417.9 350.6L414.2 347.7L413.7 348.5L414.4 349.2L414.5 349.6L409.9 357.8L409.5 357.9L408.8 357.4L408.3 358.2L411.9 361C413.3 362 414.4 362.5 415.5 362.4C417.1 362.2 418.5 361.2 419.5 359.4C421.3 356 420.8 352.8 417.9 350.6ZM416.3 350.6L417.1 351.2C419.1 352.7 419.3 354.9 417.6 357.8C415.9 360.8 414.1 361.4 412.2 359.8L411.4 359.4L416.4 350.7L416.3 350.6ZM445.6 363.6L445.5 364.4L446.4 364.7L446.5 365.1L444.8 374.8L444.5 375H443.5V375.8L447.6 376.8L447.8 376L446.8 375.6L446.7 375.3L447.4 371.2H447.7C449.2 371.6 449.5 372.5 449.5 374.4C449.6 375.3 449.6 376.1 450.3 377.1C450.6 377.5 451 377.9 451.7 378C452.195 378.109 452.696 378.176 453.2 378.2L453.3 377.4H453.2C452.2 377.1 451.7 376.7 451.7 375.6C451.5 374.6 451.7 373.6 451.3 372.6C451.031 371.975 450.57 371.478 450 371.2C451.7 371.2 452.7 370.3 453 368.7C453.4 366.7 452.5 365.2 450.1 364.7L445.7 363.6H445.6ZM448.6 365.3L449.2 365.5C450.6 365.9 451.2 366.9 450.9 368.4C450.6 370.1 449.7 370.7 448.1 370.2L447.6 370.1L448.5 365.3H448.6ZM502.8 366.3L502.9 367.3H503.9L504.2 367.5L505.6 377.3L505.4 377.6L504.4 377.9L504.6 378.7L509.1 377.9V376.9L508 377.1L507.7 376.8L507.1 372.8H507.4C509 372.3 509.6 373 510.4 374.7C510.7 375.5 510.9 376.3 511.9 376.9C512.3 377.2 512.9 377.3 513.7 377.2C514.243 377.075 514.778 376.908 515.3 376.7L515.2 375.8H515C513.9 376.1 513.3 375.8 512.8 374.9C512.4 374.1 512.1 373.1 511.5 372.4C511.1 371.9 510.5 371.6 509.7 371.6C511.4 370.8 512.2 369.6 512 367.9C511.7 365.9 510.3 364.9 507.8 365.4L502.8 366.3ZM506.3 366.8H507C508.6 366.4 509.5 367 509.8 368.6C510 370.2 509.3 371.2 507.6 371.6H507L506.2 366.8H506.3Z"
      fill="black" />
    <path fill-rule="evenodd" clip-rule="evenodd"
      d="M401.5 378.8L393.7 363.7L397.6 360.5C398.6 364.3 403.1 365.6 403.9 370.5C404.6 375.2 400.9 379.9 401.5 378.8Z"
      fill="url(#paint8_linear_10_10952)" stroke="black" stroke-width="1.2" />
    <path fill-rule="evenodd" clip-rule="evenodd"
      d="M394.3 374.5C394.3 374.5 392.9 367.7 397.3 366.9C401.7 366.1 404.1 370.7 403.5 368.9C402.8 366.9 400.2 364.9 399.8 358.2C399.4 351.5 400.1 347.9 400.1 347.9C400.1 347.9 398.4 339.2 391.3 340.4C384.2 341.7 383.8 348 383.8 350.3C383.8 352.5 384.5 353.8 384.5 353.8L394.3 374.5Z"
      fill="url(#paint9_linear_10_10952)" stroke="black" stroke-width="1.2" />
    <path fill-rule="evenodd" clip-rule="evenodd"
      d="M480.5 356.1C480.5 356.1 398.5 329.1 399.1 226.7L399.7 91.1001H561L561.6 225.9C562.1 328.3 480.2 356 480.2 356L480.5 356.1Z"
      fill="#0072C4" stroke="white" stroke-width="3.9" />
    <path fill-rule="evenodd" clip-rule="evenodd"
      d="M410.262 123.61C410.408 123.61 411.361 122.541 412.314 121.636C413.559 120.814 414.732 119.909 415.977 119.168C417.003 118.593 418.908 118.099 419.714 117.606C420.91 116.936 421.96 115.982 422.792 114.809C422.939 113.082 423.158 111.765 423.158 109.709C424.477 108.886 425.65 108.228 426.822 107.735C428.508 107.159 428.874 106.419 430.559 106.09C431.658 105.678 433.417 105.678 434.956 105.678C436.641 105.678 437.667 107.077 439.206 107.324C441.038 108.146 441.844 108.722 443.309 110.12C444.042 111.272 444.555 112.259 445.947 113.082C447.046 113.74 448.072 114.727 449.318 115.056C450.784 115.96 451.956 116.536 453.055 117.852C454.081 118.675 454.521 119.827 455.4 120.649C456.479 121.683 457.631 122.619 458.844 123.446C460.309 124.515 461.775 125.338 464.046 125.091C465.292 125.091 466.611 124.844 468.077 125.091C469.762 125.091 471.374 125.091 472.84 125.584C474.598 125.584 475.99 125.831 477.603 125.996C479.068 126.242 480.607 126.325 482.292 126.325C483.758 126.818 485.37 126.736 487.055 126.736H496.581C498.266 126.736 500.025 126.818 501.271 127.147C502.865 127.124 504.455 126.987 506.034 126.736C507.866 126.736 509.258 126.407 511.09 126.325H516.805C518.271 126.818 520.176 127.147 521.202 127.97C522.594 128.381 523.253 129.121 524.572 129.533C525.672 130.108 527.21 131.096 528.016 132.329C529.086 133.643 529.998 135.109 530.728 136.689C531.607 138.17 531.973 139.979 532.706 141.871C533.146 143.681 533.439 145.408 533.439 147.382C533.805 149.11 533.732 151.002 533.732 152.976C533.366 154.785 533.292 156.759 532.706 158.487C532.706 160.461 532.34 162.188 532.047 163.669C531.753 165.314 531.387 166.383 531.314 168.44V174.033C531.314 175.843 530.874 177.159 530.728 179.133C529.822 181.082 529.014 183.087 528.31 185.138C527.244 185.987 526.326 187.046 525.598 188.263C524.866 188.757 524.499 189.58 524.646 189.909C525.965 190.402 525.598 191.471 525.598 193.446C525.818 195.008 525.965 196.9 526.331 198.628C526.404 200.52 526.771 201.671 527.284 202.987C527.87 203.81 528.016 203.399 526.624 203.399C525.672 204.221 524.646 203.81 524.279 202.165C523.514 200.856 523.037 199.362 522.887 197.805C522.741 195.996 522.447 194.186 521.935 193.034C521.715 190.813 521.202 190.813 519.223 190.649C518.271 189.744 517.025 189.497 515.12 189.497C513.288 189.497 513.141 189.251 513.141 191.471V197.065C512.775 198.71 512.116 199.944 511.749 201.424C510.723 202.247 510.284 203.645 509.038 204.55C508.452 206.36 507.646 206.689 506.034 207.018L503.982 204.221C504.934 202.412 505.741 202.165 506.327 200.191C507.059 198.628 507.499 197.641 508.012 196.242C507.279 195.008 506.693 194.433 506.034 192.705C505.331 191.326 504.766 189.864 504.348 188.346C503.176 187.852 501.417 187.77 500.611 187.112C498.926 186.701 498.486 188.757 496.508 188.757H491.818C489.693 188.757 489.18 189.991 487.422 189.909C486.909 190.073 485.59 189.826 483.684 189.909C482.219 190.484 480.534 190.32 478.921 190.32C477.236 190.32 475.844 189.826 474.525 189.497C472.986 189.004 471.447 188.51 469.835 188.346C467.857 188.346 467.051 188.51 465.732 189.497C464.706 190.238 463.167 191.801 462.068 192.705C461.555 194.021 461.335 196.242 460.602 197.805C460.309 199.45 459.723 200.355 459.357 201.836C458.786 203.353 458.439 204.964 458.331 206.607C458.184 209.239 457.671 208.91 456.279 208.169C455.693 207.018 454.814 205.866 454.227 204.55C454.521 202.576 454.96 201.589 454.96 199.45C454.594 197.805 453.861 197.97 452.909 199.039C452.909 201.095 452.909 202.741 452.176 203.81C452.048 204.453 451.808 205.06 451.468 205.597C451.128 206.134 450.696 206.589 450.197 206.936C449.684 208.416 448.585 209.157 447.486 209.732C447.34 209.732 447.486 209.239 447.486 208.087C446.68 206.36 447.486 204.797 447.486 202.576C447.486 200.602 447.34 199.286 447.852 197.476C447.852 195.502 447.12 193.692 446.827 192.294C446.167 190.813 445.801 190.073 444.115 189.497C442.87 188.922 441.184 188.263 440.378 187.03C439.602 185.816 438.535 184.875 437.301 184.315C435.835 183.739 435.029 183.081 433.93 182.341C432.904 181.025 432.025 180.531 431.585 178.804C430.852 177.57 430.779 175.267 430.266 173.622C430.122 171.986 429.776 170.381 429.24 168.851C429.074 167.22 428.73 165.617 428.214 164.08C427.995 162.435 427.628 160.79 427.189 158.898C427.189 157.006 427.189 155.114 426.822 153.387V147.794C426.602 146.148 426.529 143.845 426.163 142.611C426.163 140.473 425.943 139.321 425.43 137.841C424.697 136.442 424.697 135.866 423.452 135.455C422.572 136.689 421.18 137.265 419.421 137.512C418.176 137.183 416.417 136.936 415.025 136.278C413.633 135.949 412.753 135.291 411.654 134.633C411.021 133.549 410.337 132.506 409.602 131.507C409.383 129.45 409.016 128.381 408.87 126.325C408.87 124.844 408.943 125.667 410.335 123.61H410.262Z"
      fill="#BCBCBC" />
    <path fill-rule="evenodd" clip-rule="evenodd"
      d="M430.266 137.923L430.559 137.594C429.973 138.252 430.193 137.923 431.512 137.347C432.245 136.853 433.637 135.949 434.15 135.373C434.736 135.044 435.762 134.55 436.348 133.975C436.934 133.152 437.594 132.494 438.473 131.754C439.352 130.849 440.232 130.52 441.331 129.779C442.65 129.615 443.163 128.957 444.408 129.45C445.581 129.779 446.094 129.779 447.046 128.628C447.999 127.97 449.098 127.23 449.465 126.16V124.433C449.465 126.242 449.098 126.901 447.999 127.476C447.266 128.546 446.24 129.615 445.801 130.602C445.068 131.836 444.921 132.494 444.189 133.07C443.529 133.975 442.503 134.468 442.283 135.949C442.577 136.607 442.283 136.936 443.016 137.018C443.676 137.676 444.409 137.429 445.361 137.018C446.157 136.05 446.801 134.937 447.266 133.728C448.072 132.412 448.512 131.836 448.952 130.849C449.831 130.191 450.344 129.697 450.637 128.628C451.59 127.97 452.396 127.312 453.055 126.654C453.788 126.16 454.154 125.749 455.18 125.502C455.255 126.607 454.997 127.708 454.447 128.628C454.227 130.191 454.301 130.931 454.74 131.918C455.4 132.494 455.253 132.905 455.693 133.975C456.059 132.987 456.279 131.178 456.426 130.026V129.779C456.426 130.931 456.426 132.576 456.133 133.399C456.133 135.044 456.499 135.784 456.865 137.018C457.232 137.676 457.598 138.087 458.038 138.416C458.038 136.771 458.477 135.784 458.551 134.304C458.844 135.373 458.771 136.936 458.99 138.17C459.064 139.486 459.503 140.473 459.943 141.542C460.529 141.871 460.676 143.023 460.896 142.118C461.482 140.144 461.482 138.005 461.848 135.949C461.921 134.879 461.995 133.316 462.361 132.576L461.848 135.866C461.921 134.879 461.995 133.399 462.361 132.576V132.247C462.627 133.74 462.799 135.251 462.874 136.771C462.874 138.005 462.801 139.239 463.094 140.39C463.827 139.979 464.34 138.992 464.779 137.923C465.294 136.795 465.934 135.744 466.684 134.797L464.779 137.841C465.299 136.741 465.939 135.719 466.684 134.797V134.55C466.544 135.833 466.471 137.124 466.465 138.416C466.465 139.732 466.465 141.213 466.684 142.118C466.977 143.598 467.344 143.845 467.417 145.408C467.417 146.231 467.271 147.053 467.637 147.465C468.663 147.711 468.663 147.053 468.809 145.49C468.809 143.681 469.249 142.447 469.322 140.72C469.322 138.581 469.542 140.966 469.762 141.789C470.201 142.964 470.449 144.217 470.495 145.49C470.495 146.313 470.421 147.053 470.715 147.465C471.667 146.971 472.034 145.819 472.62 145.161C473.133 143.845 473.646 143.269 474.085 142.365C475.331 142.118 475.258 141.542 475.258 139.897C475.258 138.499 475.184 137.1 475.551 135.949C475.931 134.736 476.249 133.5 476.503 132.247C476.943 132 477.383 132.741 477.676 133.399C478.189 134.304 478.115 135.62 478.115 137.018C478.409 138.252 478.848 139.239 479.361 140.39C479.806 141.405 480.373 142.346 481.046 143.187C481.266 144.092 481.266 145.655 481.266 146.889C482.219 145.655 482.365 143.928 482.439 142.118C482.292 140.884 482.292 139.321 481.999 138.17C481.999 136.936 481.706 135.702 481.486 134.797C480.753 134.386 480.534 133.975 481.266 132.823C481.999 132.083 482.878 132.412 484.124 132.576C484.784 133.316 485.003 133.728 485.077 135.373C485.077 136.853 485.077 138.005 485.59 138.992C486.029 139.815 486.469 140.391 486.762 141.789C487.128 142.2 487.421 142.776 487.934 142.118C488.228 141.295 488.447 139.65 488.667 138.745C488.887 137.676 489.327 137.1 489.84 136.771C489.84 138.334 489.84 139.239 490.353 140.39C490.792 141.624 491.085 142.118 491.525 143.516C492.038 143.928 492.111 144.75 492.771 145.161C492.917 143.845 492.99 142.365 492.99 140.72V136.771C493.064 135.455 493.357 134.715 493.723 133.646C494.456 134.797 494.456 135.208 494.456 136.771C495.189 136.442 495.335 135.784 495.628 134.797C496.141 134.221 496.361 133.975 496.581 135.373C496.728 136.853 497.021 138.17 497.314 139.568C497.753 140.226 498.34 141.789 498.926 142.365C499.341 143.188 499.832 143.96 500.391 144.668C500.758 145.49 500.831 146.066 501.857 146.313C501.857 144.421 501.857 142.529 501.564 140.72C501.564 139.074 501.271 138.499 501.124 137.018C500.684 136.113 500.465 134.633 500.611 134.221C501.568 135.138 502.321 136.292 502.809 137.594C503.322 138.992 503.835 139.897 504.275 141.295C504.972 142.152 505.586 143.09 506.107 144.092C506.986 144.915 507.426 145.819 508.305 146.56C508.745 147.053 509.771 147.382 509.991 147.135C509.917 145.49 509.697 144.092 509.258 142.694C509.255 141.52 509.004 140.364 508.525 139.321C507.572 138.416 506.84 137.758 506.327 136.524C506.034 136.113 505.96 135.866 505.887 135.126C507.15 136.251 508.283 137.55 509.258 138.992C509.732 139.822 510.388 140.502 511.163 140.966C511.603 141.624 512.995 142.365 514.021 142.611C514.616 143.495 515.474 144.108 516.439 144.339L514.021 142.694C514.628 143.546 515.485 144.129 516.439 144.339V144.668C516.263 143.054 515.762 141.507 514.973 140.144C514.515 138.892 513.754 137.809 512.775 137.018C512.18 135.997 511.376 135.151 510.43 134.55C509.771 133.728 508.818 132.247 508.232 131.754C509.331 130.931 510.503 132.247 511.603 132.823C512.555 133.975 513.435 135.455 514.021 136.195C514.583 137.547 515.324 138.794 516.219 139.897C517.245 140.555 517.904 141.213 518.784 142.118C520.249 142.529 519.663 141.953 519.297 140.72C518.784 139.074 519.297 139.074 520.249 140.144C520.909 140.72 521.715 141.542 522.667 142.118C523.034 142.694 523.693 143.105 524.279 142.694C524.572 142.282 524.572 142.282 524.572 141.871C524.059 140.061 523.62 138.745 522.374 138.17C521.861 137.347 520.909 136.524 520.176 135.702C519.736 134.879 519.223 134.386 518.784 133.399L520.249 135.62C519.736 134.797 519.223 134.386 518.784 133.399H518.564C520.029 133.399 520.542 133.892 521.641 134.55C522.528 134.958 523.291 135.643 523.84 136.524C524.279 137.183 525.012 137.923 525.525 138.745L527.87 140.72C528.676 141.871 528.822 142.611 528.822 144.339C529.335 145.161 529.409 146.806 529.555 147.711C529.409 149.274 528.896 148.04 528.822 147.135C528.676 145.902 528.236 145.984 527.357 146.313C527.357 147.958 527.577 148.452 528.09 149.685C527.99 150.681 527.689 151.637 527.21 152.482C526.624 152.893 526.478 151.66 525.965 151.084C525.965 149.439 525.525 149.192 524.499 148.287V149.439C525.085 150.59 525.672 151.66 525.745 153.305C526.125 154.49 526.299 155.747 526.258 157.006C526.258 158.405 526.258 159.721 525.965 160.954C525.965 162.435 525.745 163.093 525.745 164.574V172.47C525.57 173.666 525.496 174.878 525.525 176.09L525.745 172.47C525.525 173.457 525.525 174.691 525.525 176.09V176.336C525.085 174.938 524.572 173.704 524.279 172.224C523.574 171.396 523.026 170.417 522.667 169.345C522.447 168.111 522.374 166.712 522.154 165.725C521.788 164.738 521.422 163.669 520.689 164.327C520.396 166.383 520.762 167.617 521.422 169.591C521.788 170.907 521.788 172.059 522.154 173.293C522.741 174.774 523.18 174.938 522.154 176.583C521.641 177.57 521.422 177.817 521.202 178.886C520.322 179.38 520.103 179.709 520.029 180.86C519.736 179.791 519.003 178.475 518.564 177.241C518.124 175.843 517.611 174.444 517.391 173.293C516.805 172.306 516.072 170.825 515.486 170.167C514.827 169.345 514.021 167.699 513.581 166.877C512.628 165.643 512.409 164.903 511.603 164.327C511.456 163.751 511.163 163.011 510.65 163.504C510.65 164.821 510.65 166.219 510.943 167.37C511.163 169.016 511.603 169.92 511.676 171.566V174.691C511.09 173.046 510.43 171.73 509.991 170.167C509.404 169.345 508.891 167.699 508.305 167.124C507.865 165.972 507.572 165.067 507.059 164.327C506.986 163.504 506.62 163.504 506.327 162.929C506.327 164.492 506.84 165.067 507.059 166.219C507.572 167.37 507.719 169.098 507.572 169.674C506.986 167.699 506.4 165.561 505.667 163.751C504.934 162.6 504.202 161.119 503.762 160.05C503.029 159.145 502.297 159.063 501.564 158.405C500.908 158.101 500.33 157.62 499.878 157.006C500.098 158.487 500.611 159.474 500.831 160.625C501.051 162.024 501.564 163.175 501.784 164.327C501.564 166.219 501.197 163.751 500.831 162.929C500.611 161.284 500.098 160.461 499.659 159.556C498.999 158.98 498.413 158.076 497.753 157.582C497.021 157.253 497.314 157.582 497.314 158.651C497.314 160.379 497.314 161.53 497.753 162.6C498.266 163.422 498.266 164.492 498.266 165.972C498.193 167.37 497.973 168.44 497.973 169.92V172.141C497.46 170.99 496.947 170.249 496.508 168.769C495.775 167.453 495.482 166.548 494.896 165.15C494.383 164.903 493.43 164.656 492.99 165.15C493.064 166.548 493.65 167.124 493.723 168.769C492.771 169.838 492.917 170.167 492.258 168.522C491.745 167.206 491.085 167.288 490.353 166.548C489.107 166.383 489.547 165.479 489.18 164.245C489.18 163.175 489.18 162.106 488.887 161.201C487.568 161.201 486.835 161.201 486.029 162.024C485.663 162.846 485.809 164.492 486.029 165.725V169.591C485.736 170.578 485.296 170.661 485.077 171.895C484.637 173.046 484.49 174.362 484.124 175.185C483.245 176.09 483.611 176.172 483.171 174.691V165.643C483.171 164.162 483.391 163.422 483.391 162.024C482.878 160.872 482.805 160.625 481.193 160.625C480.9 161.366 481.046 162.682 481.193 163.422C481.193 164.821 481.34 166.137 481.486 167.124C481.486 168.604 481.633 169.509 481.706 170.743C481.706 172.224 481.413 173.375 480.753 174.033C479.947 174.362 480.68 175.02 479.801 175.267C478.841 174.756 477.953 174.091 477.163 173.293C476.284 172.964 475.404 172.717 474.085 172.717C472.473 172.717 472.473 172.47 471.887 171.072C471.449 169.599 471.13 168.085 470.934 166.548C470.421 165.232 470.348 164.327 469.982 162.846C469.651 162.059 469.147 161.379 468.516 160.872C468.223 162.353 467.93 163.504 467.857 165.15C467.564 165.808 467.49 167.453 467.344 168.193C466.904 167.37 466.684 165.725 466.391 164.574C465.952 162.929 465.585 161.777 464.046 162.353C462.434 162.353 462.361 162.353 462.361 164.327L464.266 167.617V171.566C464.266 173.211 464.34 173.704 463.314 174.033C462.947 172.388 462.068 170.743 461.115 169.345C461.042 168.193 460.749 168.522 459.723 168.522C459.064 168.522 458.404 168.358 458.038 168.769V171.236C457.452 171.401 457.305 171.237 456.865 170.743C456.426 171.566 456.719 172.717 456.865 173.786C456.572 175.103 456.133 176.254 455.693 176.912C455.546 176.501 455.327 176.665 455.693 176.665C454.008 175.925 452.762 175.514 451.296 175.02C450.564 175.02 449.904 175.925 449.465 176.665C448.219 177.077 447.706 177.488 446.314 177.488C444.995 177.488 444.408 177.735 443.236 177.735C442.357 177.981 441.258 178.064 440.085 178.064C439.499 177.817 438.327 177.817 437.96 177.488C438.473 176.665 438.986 176.254 439.426 175.02C440.115 174.401 440.752 173.712 441.331 172.964C441.917 172.47 442.65 171.401 443.236 170.743C443.602 169.345 444.115 169.098 444.921 168.522C446.387 168.522 446.607 169.098 447.999 169.345C449.391 169.92 450.197 170.167 450.93 169.016C452.029 168.522 452.982 167.617 454.227 167.37L456.646 165.725C457.671 164.985 458.111 164.245 458.99 163.422C459.284 162.271 460.016 161.366 459.723 160.132C458.404 159.721 457.598 159.803 456.792 160.625C455.84 161.613 455.62 162.024 454.447 162.846C453.495 163.175 452.982 163.669 451.809 163.998C450.857 164.409 449.611 164.245 448.512 164.245C447.413 164.245 446.021 164.162 445.361 164.574C446.46 163.751 447.706 162.929 448.732 162.6C449.684 161.859 450.051 161.53 451.37 161.448C451.956 160.625 452.542 160.625 452.835 159.227C453.202 157.582 451.883 158.076 450.857 158.651C449.904 158.898 448.805 159.638 447.999 160.05C447.004 160.413 445.967 160.607 444.921 160.625C444.628 160.132 445.141 159.721 445.361 158.98C446.46 158.487 446.68 158.322 446.827 157.006C445.508 157.171 445.068 157.664 443.896 157.829C442.723 158.158 441.477 158.322 440.085 158.405H436.788C435.615 158.405 434.956 158.076 433.637 158.076C432.684 157.5 432.684 157.253 432.684 155.608C433.417 154.621 434.15 154.785 435.615 154.785L438.18 153.305C439.059 153.14 439.646 152.729 439.426 152.235H436.055C434.736 151.577 436.055 151.331 436.788 150.837C437.887 150.837 439.133 150.837 439.865 151.331C441.331 151.331 441.844 150.755 442.943 149.685C443.896 148.863 444.409 148.287 445.361 147.711C446.094 146.806 446.827 146.313 447.266 145.49C448.292 144.421 448.952 143.845 449.465 142.94C450.051 142.529 450.49 142.118 450.197 141.542C448.658 141.707 447.999 142.365 447.046 143.187C446.496 143.85 445.853 144.405 445.141 144.832C444.216 145.569 443.123 145.997 441.99 146.066C440.818 146.066 439.792 145.819 438.693 145.737C437.374 145.573 438.546 145.244 438.913 144.586C439.426 144.257 439.792 143.352 439.352 142.694C438.4 142.282 437.154 142.365 436.055 142.365H432.684C431.439 142.365 430.926 142.036 430.046 141.542C429.827 140.72 430.046 140.966 430.999 140.966C432.066 140.918 433.124 140.725 434.15 140.39C435.249 140.061 435.396 139.568 435.615 138.17C434.443 138.17 433.197 138.17 432.465 137.923H430.266ZM409.602 131.507C409.383 129.45 408.943 128.381 408.87 126.325C408.87 124.844 408.943 125.667 410.262 123.61C410.408 123.61 411.361 122.541 412.314 121.636C413.559 120.814 414.732 119.909 415.977 119.168C416.93 118.593 418.908 118.099 419.714 117.606C420.91 116.936 421.96 115.982 422.792 114.809C422.865 113.082 423.085 111.765 423.085 109.709C424.477 108.886 425.65 108.228 426.822 107.735C428.508 107.159 428.874 106.419 430.559 106.09C431.658 105.678 433.417 105.678 434.956 105.678C436.641 105.678 437.667 107.077 439.206 107.324C441.038 108.146 441.844 108.722 443.236 110.12C444.042 111.272 444.555 112.259 445.947 113.082C447.046 113.74 448.072 114.727 449.318 115.056C449.318 116.536 449.611 116.289 448.732 116.289C448.585 117.77 448.292 117.606 447.046 117.688C446.148 117.148 445.39 116.354 444.848 115.385C445.361 113.986 445.068 116.619 444.848 117.112C444.262 117.688 443.896 118.264 443.236 117.688C442.796 116.289 442.503 115.385 442.503 113.74C442.283 112.012 441.844 113.246 441.551 113.986C441.184 115.467 441.331 115.96 441.771 117.112C440.525 117.112 439.572 116.948 438.693 116.783C437.814 116.536 436.788 116.865 435.762 117.359C434.516 118.264 434.956 118.264 435.542 119.333C436.641 119.744 437.447 120.402 438.473 120.978C439.499 120.814 440.671 120.485 441.771 120.156C442.943 119.744 443.969 119.991 445.141 120.156C445.727 120.567 446.46 120.567 446.827 120.978C446.827 121.883 446.827 122.788 446.533 123.281C446.094 123.693 445.581 124.68 444.848 124.926C443.822 125.604 442.71 126.103 441.551 126.407C440.085 126.407 439.499 126.818 438.4 127.476C438.253 128.957 437.887 129.286 436.715 129.779C435.685 130.33 434.557 130.611 433.417 130.602C432.684 130.602 432.025 130.684 431.732 130.273C432.545 129.32 433.191 128.204 433.637 126.983C433.857 126.325 434.296 125.996 433.857 125.502C432.465 125.584 432.098 125.584 431.952 127.147C431.805 128.71 431.292 128.957 430.266 129.45C430.559 128.052 430.633 126.983 430.999 125.831C429.981 126.01 428.952 126.093 427.921 126.078C427.189 126.571 426.896 126.818 427.189 127.723C426.236 128.134 424.99 127.888 423.818 127.723C422.792 127.723 423.378 127.23 422.646 126.654C422.133 125.584 421.62 125.338 420.447 125.255C419.934 126.078 418.982 126.325 418.322 126.901C417.296 127.312 416.637 126.983 415.684 126.407C414.512 126.407 414.658 126.818 414.952 127.805C415.464 128.134 414.952 128.546 415.684 128.628C416.417 129.286 417.003 129.45 418.322 129.45C419.348 129.121 420.521 129.204 421.693 129.204C422.865 129.204 422.646 129.533 422.646 130.849C421.913 131.507 420.74 131.425 419.495 131.425C418.516 131.282 417.556 131.005 416.637 130.602C415.538 130.52 414.658 130.273 413.779 130.602C413.413 131.096 412.314 131.26 413.559 131.425C414.072 132 416.857 131.671 417.003 132.658C417.736 133.481 417.516 134.55 416.417 134.55C416.163 134.376 415.872 134.283 415.574 134.283C415.277 134.283 414.985 134.376 414.732 134.55C413.999 134.715 412.973 134.55 411.581 134.715C413.413 134.879 410.262 132.494 409.602 131.507Z"
      fill="#FEFEFE" />
    <path fill-rule="evenodd" clip-rule="evenodd"
      d="M417.15 122.212L415.684 123.281C414.658 123.939 413.486 124.926 412.826 125.502C412.314 125.996 412.314 126.325 411.654 126.325C412.753 126.16 413.266 125.831 414.292 125.255C415.538 125.091 416.71 124.762 417.37 124.104C418.029 123.857 417.37 122.788 417.15 122.13V122.212ZM428.141 108.969C428.288 108.969 428.581 109.791 429.094 110.367C429.46 111.436 429.826 112.177 429.826 113.493C430.12 112.094 430.559 111.025 430.779 109.544C430.413 108.722 430.413 108.475 429.314 108.393C429.314 109.215 429.46 108.64 428.141 108.969Z"
      fill="#BCBCBC" />
    <path fill-rule="evenodd" clip-rule="evenodd"
      d="M421.482 118.887C420.94 118.887 422.349 118.254 422.892 118.127C423.325 117.114 423.542 116.48 424.301 115.847C425.494 115.847 426.145 116.354 426.687 117.24C427.772 117.62 428.097 118.127 429.29 118.38C429.832 118.887 430.375 118.887 429.29 119.267C428.639 119.647 427.663 119.774 426.47 119.774C425.491 119.86 424.535 120.161 423.651 120.661C422.024 120.661 422.241 120.661 421.482 118.887Z"
      fill="#C4C4C2" stroke="black" stroke-width="1.05487" />
    <path fill-rule="evenodd" clip-rule="evenodd"
      d="M432.465 109.215V109.545C432.465 108.722 432.465 109.133 432.684 110.696C433.076 111.735 433.252 112.86 433.197 113.986C433.878 113.33 434.384 112.476 434.663 111.519C434.663 109.298 434.296 109.38 432.465 109.215ZM441.258 141.542H441.551C440.818 141.542 441.258 141.542 442.503 140.72C443.309 140.061 443.969 139.074 445.141 138.745C446.048 137.877 447.092 137.207 448.219 136.771C448.805 136.442 449.318 135.949 449.904 136.524C449.758 137.841 449.538 138.416 448.439 138.992C447.926 139.815 447.12 140.308 446.314 140.637C445.581 141.131 444.702 141.131 444.409 142.118C443.09 142.776 442.943 142.611 441.331 141.542H441.258ZM445.874 149.685C446.24 149.274 447.779 147.547 448.512 146.889C449.159 145.825 449.95 144.881 450.857 144.092C451.59 142.858 452.469 142.036 453.055 140.966L454.96 138.17C454.96 139.403 454.814 141.049 455.18 141.789C455.251 142.971 454.995 144.149 454.447 145.161C453.934 146.148 453.495 146.806 452.249 147.465C451.223 148.123 450.564 148.287 449.684 149.11C448.98 149.63 448.246 150.097 447.486 150.508C446.827 150.837 447.12 150.755 445.874 149.685ZM438.4 156.101H438.693C437.96 156.101 438.327 156.184 439.646 155.279C440.672 154.127 441.478 153.634 442.723 153.058C443.74 153.008 444.737 152.729 445.654 152.235C446.167 152.071 446.607 151.66 447.047 152.235C447.779 153.387 447.999 153.716 446.827 154.456C446.111 155.098 445.289 155.574 444.409 155.855C443.822 156.43 442.65 156.43 441.478 156.677C440.598 156.677 440.012 156.842 439.646 156.101L441.551 156.677C440.598 156.677 440.085 156.842 438.4 156.101ZM448.659 156.101V155.855C448.659 156.677 448.659 156.266 449.172 154.703C450.124 153.14 450.417 152.235 451.59 151.906C452.103 151.084 453.055 150.919 454.228 150.508C454.667 151.331 454.301 152.318 454.228 153.305C453.934 154.374 453.055 155.114 452.542 155.855C451.809 156.43 451.516 157.006 450.344 157.253C449.465 157.253 449.978 157.253 448.732 156.101H448.659Z"
      fill="#BCBCBC" />
    <path fill-rule="evenodd" clip-rule="evenodd"
      d="M425.283 119.662C425.283 120.402 424.77 121.06 424.111 121.06C423.378 121.06 422.865 120.402 422.865 119.662C422.865 118.922 423.451 118.264 424.111 118.264C424.77 118.264 425.283 118.839 425.283 119.662Z"
      fill="black" />
    <path fill-rule="evenodd" clip-rule="evenodd"
      d="M428.847 196.147H429.824C426.787 196.147 428.631 195.894 433.619 200.581C435.788 198.554 435.788 198.3 437.415 201.847C438.499 203.747 438.716 201.594 440.343 199.567C441.102 203.621 441.536 207.801 444.139 204.001C447.175 204.001 450.212 203.747 451.839 205.141C453.791 209.321 453.14 204.381 454.658 206.281C458.996 206.788 458.888 201.974 463.443 200.707C466.262 204.887 467.564 201.721 471.034 199.694C473.745 200.454 476.239 205.141 476.782 200.581C478.951 196.527 479.059 196.78 480.577 200.581C482.746 202.861 483.614 199.567 485.349 198.427C488.603 200.581 492.181 200.961 496.845 199.567C497.712 203.241 499.664 201.594 501.725 200.581C505.954 202.734 507.364 203.367 512.244 200.581C514.63 197.287 513.329 200.707 515.064 202.861C518.643 201.594 517.667 201.341 521.788 201.721C526.017 201.721 526.343 201.721 527.536 198.427C529.705 200.834 530.355 202.607 533.283 199.567C537.838 199.567 536.428 200.2 539.031 198.3C541.092 203.367 541.525 199.82 543.911 201.721C542.57 205.463 540.206 208.58 537.188 210.588C535.344 214.388 534.151 218.188 530.464 219.708C527.753 222.875 524.824 224.775 521.788 227.562C517.667 228.829 513.112 228.576 508.449 228.576H468.106C465.286 230.349 460.514 231.109 456.61 231.996C452.272 231.996 447.175 231.996 444.139 230.856C442.078 228.449 438.499 225.789 436.547 223.002C434.378 221.102 434.378 217.428 432.643 215.148C431.125 211.981 430.474 206.914 428.847 204.001V196.147Z"
      fill="#005120" stroke="#002B0D" stroke-width="1.56277" />
    <path fill-rule="evenodd" clip-rule="evenodd"
      d="M521.788 206.281V207.294C521.788 204.254 521.896 205.901 519.836 211.855C519.51 213.248 518.534 213.628 517.016 214.135M513.22 210.714H514.196C510.618 214.515 508.232 216.415 507.473 220.848L514.196 210.714C510.618 214.515 508.232 216.415 507.473 220.848M499.773 205.141C499.773 205.141 499.664 209.068 498.797 210.714ZM488.277 206.281H489.253H488.169C488.928 206.281 488.603 206.281 488.169 206.281H488.277ZM434.595 206.281C435.029 206.281 436.981 209.828 439.367 211.855C438.825 215.148 437.849 218.948 439.367 221.988M442.295 212.995C442.729 212.995 444.572 216.541 447.067 218.568L442.295 212.995C442.729 212.995 444.572 216.541 447.067 218.568V219.708C447.067 216.161 446.85 212.615 448.043 210.714C449.127 212.868 450.429 216.161 450.862 212.995C456.285 212.741 458.888 210.968 462.358 209.574C462.358 211.221 462.141 210.461 463.443 211.855M528.512 207.294H529.488C527.644 209.068 526.234 212.741 524.716 215.148M489.253 204.001H496.845Z"
      fill="#005120" />
    <path
      d="M521.788 206.281V207.294C521.788 204.254 521.896 205.901 519.836 211.855C519.51 213.248 518.534 213.628 517.016 214.135M513.22 210.714H514.196M514.196 210.714C510.618 214.515 508.232 216.415 507.473 220.848L514.196 210.714ZM499.773 205.141C499.773 205.141 499.664 209.068 498.797 210.714M495.977 212.995V214.008M488.169 206.281H489.253H488.277H488.169ZM488.169 206.281C488.603 206.281 488.928 206.281 488.169 206.281ZM434.595 206.281C435.029 206.281 436.981 209.828 439.367 211.855C438.825 215.148 437.849 218.948 439.367 221.988M447.067 218.568C444.572 216.541 442.729 212.995 442.295 212.995L447.067 218.568ZM447.067 218.568V219.708C447.067 216.161 446.85 212.615 448.043 210.714C449.127 212.868 450.429 216.161 450.862 212.995C456.285 212.741 458.888 210.968 462.358 209.574C462.358 211.221 462.141 210.461 463.443 211.855M528.512 207.294H529.488C527.644 209.068 526.234 212.741 524.716 215.148M489.253 204.001H496.845"
      stroke="#002B0D" stroke-width="1.56277" />
    <path fill-rule="evenodd" clip-rule="evenodd"
      d="M425.9 214.3C414.4 214.3 410.5 227.8 399 227.8H398.4V228.6C398.4 238 399 246.7 400.2 254.8C410.8 254 414.7 241.4 425.9 241.4C437.4 241.4 441.2 254.8 452.7 254.8C464.3 254.8 468.1 241.4 479.6 241.4C491.1 241.4 495 254.8 506.5 254.8C518 254.8 521.8 241.4 533.3 241.4C544.3 241.4 548.3 253.9 558.9 254.8C560.229 245.879 560.864 236.845 560.8 227.8H560.1C548.6 227.8 544.8 214.4 533.3 214.4C521.8 214.4 517.9 227.9 506.5 227.9C495 227.9 491.1 214.4 479.5 214.4C468.1 214.4 464.2 227.9 452.7 227.9C441.3 227.9 437.4 214.4 425.9 214.4V214.3ZM425.9 267C416.9 267 412.7 275.2 405.7 278.8C408.005 285.912 410.884 292.774 414.3 299.3C417.6 296.5 421 294.1 425.9 294.1C437.4 294.1 441.2 307.6 452.7 307.6C464.3 307.6 468.1 294.1 479.6 294.1C491.1 294.1 495 307.6 506.4 307.6C517.8 307.6 521.8 294.1 533.3 294.1C537.462 294.271 541.448 296.034 544.6 299.1C548.006 292.603 550.884 285.776 553.2 278.7C546.5 275 542.2 267 533.2 267C521.8 267 517.9 280.5 506.4 280.5C494.9 280.5 491 267 479.6 267C468.2 267 464.2 280.5 452.7 280.5C441.3 280.5 437.4 267 425.9 267ZM479.6 319.7C468.1 319.7 464.2 333.2 452.7 333.2C441.8 333.2 437.8 321.2 427.7 319.8C438.515 333.265 451.867 344.477 467 352.8C470.6 349.6 474.3 356.4 479.5 356.4C484.8 356.4 488.5 349.5 492 352.6C506.728 344.576 519.963 333.479 531 319.9C521.2 321.6 517 333.2 506.4 333.2C494.9 333.2 491.1 319.7 479.6 319.7Z"
      fill="white" />
    <path
      d="M408.26 268.275C411.987 266.795 415.775 265.531 419.609 264.49L437.226 284.3L422.743 287.707L408.26 268.275Z"
      stroke="#512007" stroke-width="0.583904" />
    <path
      d="M443.011 300.606C443.286 296.008 451.077 269.615 451.077 269.615M445.669 300.906L451.81 269.814M447.777 301.006L452.91 269.814M443.286 296.807C444.661 296.008 448.602 294.808 448.602 294.808M445.211 292.209C446.494 292.209 449.152 291.009 449.152 291.009M445.944 288.71C447.251 288.171 448.601 287.769 449.977 287.51M446.494 284.311L450.802 283.511M448.419 280.512C448.419 280.812 451.352 280.812 451.352 280.812M449.152 277.113L452.085 277.612"
      stroke="#512007" stroke-width="0.574338" />
    <path
      d="M493.32 319.854C492.996 311.996 483.809 266.897 483.809 266.897M490.186 318.316L482.945 267.068M486.944 314.387C486.727 311.483 481.648 267.238 481.648 267.238M492.996 313.362C491.375 311.996 486.727 309.946 486.727 309.946M490.726 305.504C489.213 305.504 486.079 303.454 486.079 303.454M489.862 299.525C488.321 298.605 486.729 297.918 485.106 297.475M489.213 292.009L484.133 290.642M486.944 285.517C486.944 286.03 483.485 286.03 483.485 286.03M486.079 279.709L482.62 280.563"
      stroke="#512007" stroke-width="0.543521" />
    <path
      d="M520.038 303.683C519.714 297.879 510.527 264.567 510.527 264.567M516.904 302.548L509.662 264.694M513.661 299.646C513.445 297.501 508.365 264.82 508.365 264.82M519.714 298.889C518.093 297.879 513.445 296.365 513.445 296.365M517.444 293.084C515.931 293.084 512.797 291.57 512.797 291.57M516.58 288.668C515.039 287.988 513.447 287.481 511.824 287.154M515.931 283.116L510.851 282.106M513.661 278.321C513.661 278.7 510.203 278.7 510.203 278.7M512.797 274.031L509.338 274.662"
      stroke="#512007" stroke-width="0.583904" />
    <path fill-rule="evenodd" clip-rule="evenodd"
      d="M476.135 307.139L477.108 215.027C477.108 215.027 479.918 214.648 479.918 215.027C479.918 215.405 479.594 306.76 479.27 307.139C478.945 307.517 475.811 307.77 476.135 307.139ZM506.938 219.065L506.29 296.413L504.128 299.442L504.777 219.065H506.938Z"
      fill="#DD8B59" stroke="#512007" stroke-width="0.583904" />
    <path fill-rule="evenodd" clip-rule="evenodd"
      d="M441.225 291.997C441.225 291.997 444.468 329.851 480.567 328.716C516.666 327.58 526.717 290.609 526.717 290.609L511.046 289.852C510.721 289.852 498.508 307.517 482.728 307.139C466.948 306.76 461.977 302.344 458.518 298.685C455.06 294.899 452.033 289.473 452.033 289.473L433.659 281.019L434.74 289.095L441.225 291.997ZM538.822 288.212L537.742 283.164V278.874L539.471 274.332C539.471 274.332 512.126 279 512.126 279.379L512.018 287.959L538.822 288.085V288.212Z"
      fill="#DD8B59" stroke="#512007" stroke-width="0.583904" />
    <path
      d="M440.036 291.619C441.009 291.619 448.25 293.511 448.25 293.511L455.816 305.246M533.634 278.874L532.986 286.445H537.417L537.093 278.874H533.634ZM528.987 279.253L528.663 287.328L531.473 286.95L531.797 279.253H528.987ZM524.231 287.328V281.019L527.042 279.884L527.366 286.193L524.231 287.328ZM518.827 286.95L519.476 281.398L522.718 281.776L522.934 287.707L518.827 286.95ZM512.883 286.95L513.207 282.155L516.45 281.776V287.328L512.883 286.95Z"
      stroke="#512007" stroke-width="0.583904" />
    <path
      d="M445.332 293.133C445.657 293.511 451.925 318.116 482.08 318.116C512.235 318.116 519.476 290.23 519.476 290.23"
      stroke="#512007" stroke-width="0.583904" />
    <path
      d="M524.232 290.988C524.232 290.988 509.749 327.58 482.08 325.056C454.519 322.533 450.088 310.419 447.926 304.11C445.765 297.801 444.468 292.754 444.468 292.754"
      stroke="#512007" stroke-width="0.583904" />
    <path fill-rule="evenodd" clip-rule="evenodd"
      d="M452.249 289.473C452.574 287.328 452.574 220.831 452.574 220.831L450.736 220.579L450.412 288.338L452.249 289.6V289.473ZM407.396 267.897L431.174 281.398L430.633 283.291C430.633 283.291 407.72 270.673 407.72 270.294C407.72 269.915 407.936 268.401 407.396 267.77V267.897Z"
      fill="#DD8B59" stroke="#512007" stroke-width="0.583904" />
    <path fill-rule="evenodd" clip-rule="evenodd"
      d="M418.312 263.859C418.312 264.868 421.771 287.328 421.771 287.328C421.771 287.328 423.932 287.707 423.932 287.328L420.257 264.237L418.312 263.859ZM440.361 264.49C441.55 264.49 463.058 260.452 463.058 260.452L462.625 264.49L441.549 267.013L440.361 264.49Z"
      fill="#DD8B59" stroke="#512007" stroke-width="0.583904" />
    <path fill-rule="evenodd" clip-rule="evenodd"
      d="M443.387 234.08C444.143 234.08 450.952 238.118 453.871 237.108C456.789 236.099 454.843 233.323 455.384 233.323C456.032 233.323 458.194 235.216 459.491 233.702C460.788 232.314 461.652 227.897 461.112 228.276C460.464 228.654 443.819 235.594 443.495 234.08H443.387Z"
      fill="#FECF3E" stroke="#512007" stroke-width="0.583904" />
    <path fill-rule="evenodd" clip-rule="evenodd"
      d="M440.685 243.291C441.874 243.67 466.408 235.594 466.408 235.594C466.408 235.594 466.408 238.118 466.084 238.118L440.685 245.815V243.291Z"
      fill="#DD8B59" stroke="#512007" stroke-width="0.583904" />
    <path fill-rule="evenodd" clip-rule="evenodd"
      d="M497.427 231.935C497.427 231.935 499.049 236.351 500.67 235.594C502.291 234.837 503.804 233.323 503.804 233.323C503.804 233.323 505.101 237.108 507.263 236.351C509.424 235.594 510.721 231.556 510.721 231.556C510.721 231.556 512.883 232.314 513.856 231.935C514.828 231.556 516.017 225.626 516.017 225.626L497.535 231.935H497.427ZM495.59 267.518C495.266 268.275 497.211 270.042 498.832 270.042C500.454 270.042 500.994 267.518 501.318 268.275C501.643 268.906 501.643 272.313 505.642 271.177C509.641 270.042 509.749 266.761 509.749 266.761C509.749 266.761 508.56 267.897 511.37 268.275C514.18 268.654 516.99 263.48 516.774 263.48C516.342 263.48 496.238 267.896 495.59 267.518Z"
      fill="#FECF3E" stroke="#512007" stroke-width="0.583904" />
    <path fill-rule="evenodd" clip-rule="evenodd"
      d="M441.658 232.566C441.46 233.703 441.535 234.882 441.874 235.973L462.409 227.897C462.409 227.897 463.274 226.005 462.409 226.005C461.545 226.005 441.333 233.323 441.55 232.692L441.658 232.566ZM468.678 227.519C469.218 227.519 489.646 219.822 489.646 219.822C489.646 219.822 489.97 223.102 489.646 223.102L470.515 229.664L468.57 227.519H468.678Z"
      fill="#DD8B59" stroke="#512007" stroke-width="0.583904" />
    <path fill-rule="evenodd" clip-rule="evenodd"
      d="M495.59 243.67C495.59 243.67 492.456 247.708 493.428 253.134C494.401 258.685 495.59 263.48 495.914 263.48C496.239 263.48 499.697 256.162 503.48 255.783C507.263 255.405 514.18 259.821 514.18 259.821C514.18 259.821 513.207 250.988 513.532 246.951C513.856 242.913 519.152 235.973 519.152 235.973L495.59 243.544V243.67Z"
      fill="#FECF3E" stroke="#512007" stroke-width="0.583904" />
    <path fill-rule="evenodd" clip-rule="evenodd"
      d="M467.057 236.982C467.057 236.982 466.408 240.389 466.732 240.389L493.428 232.314V229.916L467.057 236.856V236.982Z"
      fill="#DD8B59" stroke="#512007" stroke-width="0.583904" />
    <path fill-rule="evenodd" clip-rule="evenodd"
      d="M433.119 281.398C433.119 281.398 426.851 280.389 427.175 282.155C427.499 284.048 430.309 285.814 430.633 286.95C430.958 288.086 429.661 291.997 431.606 291.745C433.443 291.366 435.281 289.852 435.281 288.716L434.957 282.407L433.119 281.398Z"
      fill="#B6B6B4" stroke="#512007" stroke-width="0.583904" />
    <path fill-rule="evenodd" clip-rule="evenodd"
      d="M468.029 263.102V265.625L490.618 261.966L489.97 260.073L468.029 263.102Z" fill="#DD8B59" stroke="#512007"
      stroke-width="0.583904" />
    <path fill-rule="evenodd" clip-rule="evenodd"
      d="M441.225 267.518C441.658 267.518 441.225 270.799 443.819 270.042C446.305 269.285 446.953 267.518 446.953 267.518C446.953 267.518 447.602 271.556 451.061 271.177C454.519 270.799 456.465 266.382 456.465 266.382C456.465 266.382 456.681 269.663 458.842 268.527C461.004 267.392 461.653 264.868 461.653 264.868L441.874 268.149L441.333 267.518H441.225ZM441.225 245.815C441.225 245.815 438.415 246.951 439.388 253.512C440.361 260.073 442.63 263.859 442.846 263.859C443.171 263.859 445.657 257.55 449.439 256.54C453.222 255.278 459.815 259.821 459.815 259.821C459.815 259.821 459.167 253.891 460.139 248.465C460.833 244.931 462.242 241.643 464.246 238.875C464.246 238.875 442.198 245.815 441.333 245.815H441.225Z"
      fill="#FECF3E" stroke="#512007" stroke-width="0.583904" />
    <path fill-rule="evenodd" clip-rule="evenodd"
      d="M494.077 264.868L494.401 267.139C494.401 267.139 517.098 263.859 517.098 263.354C517.098 263.102 517.098 260.83 516.666 260.83C516.342 260.83 494.401 265.247 493.969 264.868H494.077ZM493.753 241.399L494.077 243.922L520.773 235.594C520.773 235.594 521.421 233.323 521.097 233.323C520.773 233.323 494.401 242.534 493.753 241.399Z"
      fill="#DD8B59" stroke="#512007" stroke-width="0.583904" />
    <path
      d="M538.39 272.187L518.936 236.351M516.342 261.209C516.666 260.2 517.639 238.118 517.639 238.118M496.563 229.664C496.563 229.664 496.239 231.935 496.563 231.935C496.887 231.935 516.342 226.383 516.342 226.005C516.342 225.626 518.287 223.481 516.666 223.86C515.153 224.238 497.211 230.799 496.563 229.664Z"
      stroke="#512007" stroke-width="0.583904" />
    <path fill-rule="evenodd" clip-rule="evenodd"
      d="M469.326 228.654C470.407 228.907 472.677 232.692 473.974 231.935C475.271 231.178 477.108 228.907 477.108 228.907C477.108 228.907 476.784 233.323 479.27 232.692C481.864 231.935 482.188 228.907 482.188 228.907C482.188 228.907 484.025 230.168 485.647 228.907C487.16 227.897 488.673 222.345 488.132 222.345C487.592 222.345 469.867 228.907 469.218 228.654H469.326ZM468.678 239.253C468.678 240.011 465.435 245.815 466.516 251.367C467.597 256.919 469.218 261.966 469.543 261.966C469.867 261.966 474.622 256.162 478.729 255.026C482.728 253.89 488.781 258.685 488.457 258.685C488.133 258.685 486.836 253.133 486.836 249.096C486.836 245.058 491.591 232.692 491.591 232.692L468.678 239.253ZM468.678 265.751C468.678 266.004 469.542 268.527 471.812 268.527C473.974 268.527 474.298 266.004 474.298 266.004C474.298 266.004 473.974 270.42 477.432 270.041C480.891 269.663 482.08 265.625 482.08 265.625C482.08 265.625 482.404 267.896 485.322 266.761C488.132 265.625 491.807 261.966 491.591 261.966C491.267 261.966 468.894 266.761 468.57 265.751H468.678Z"
      fill="#FECF3E" stroke="#512007" stroke-width="0.583904" />
    <path fill-rule="evenodd" clip-rule="evenodd"
      d="M471.272 251.707C471.716 251.726 472.136 251.953 472.438 252.337C472.74 252.721 472.899 253.23 472.882 253.754C472.865 254.277 472.671 254.771 472.345 255.127C472.018 255.484 471.585 255.673 471.141 255.653C470.696 255.634 470.277 255.407 469.975 255.023C469.673 254.639 469.513 254.129 469.531 253.606C469.548 253.083 469.741 252.589 470.068 252.232C470.394 251.876 470.828 251.687 471.272 251.707Z"
      fill="#BE0F17" stroke="#512007" stroke-width="0.57467" />
    <path fill-rule="evenodd" clip-rule="evenodd"
      d="M482.685 248.309C483.129 248.329 483.549 248.556 483.851 248.939C484.153 249.323 484.312 249.833 484.295 250.356C484.278 250.88 484.084 251.374 483.758 251.73C483.431 252.086 482.998 252.275 482.554 252.256C482.109 252.236 481.69 252.01 481.388 251.626C481.086 251.242 480.926 250.732 480.944 250.209C480.961 249.686 481.154 249.191 481.481 248.835C481.807 248.479 482.241 248.29 482.685 248.309Z"
      fill="#BE0F17" stroke="#512007" stroke-width="0.57467" />
    <path fill-rule="evenodd" clip-rule="evenodd"
      d="M476.978 255.298C477.423 255.317 477.842 255.544 478.144 255.928C478.446 256.312 478.606 256.822 478.588 257.345C478.571 257.868 478.378 258.362 478.051 258.719C477.725 259.075 477.291 259.264 476.847 259.244C476.403 259.225 475.983 258.998 475.681 258.614C475.379 258.23 475.22 257.721 475.237 257.197C475.255 256.674 475.448 256.18 475.774 255.824C476.101 255.467 476.534 255.278 476.978 255.298Z"
      fill="#BE0F17" stroke="#512007" stroke-width="0.57467" />
    <path fill-rule="evenodd" clip-rule="evenodd"
      d="M476.978 244.621C477.423 244.641 477.842 244.867 478.144 245.251C478.446 245.635 478.606 246.145 478.588 246.668C478.571 247.192 478.378 247.686 478.051 248.042C477.725 248.398 477.291 248.587 476.847 248.568C476.403 248.548 475.983 248.321 475.681 247.938C475.379 247.554 475.22 247.044 475.237 246.521C475.255 245.997 475.448 245.503 475.774 245.147C476.101 244.791 476.534 244.602 476.978 244.621Z"
      fill="#BE0F17" stroke="#512007" stroke-width="0.57467" />
    <path
      d="M479.27 216.036C479.27 215.784 488.997 220.831 488.997 221.21C488.997 221.588 523.583 275.215 523.907 275.215M506.614 221.21L515.477 225.626L518.287 233.702M451.925 220.579C451.601 220.579 461.653 229.411 461.653 229.411L462.95 236.604M417.772 274.079C422.095 271.934 452.574 240.768 452.574 240.768M409.557 268.149L443.819 234.459M466.732 239.506L499.157 302.344M495.266 265.499C495.266 265.499 499.049 280.262 502.831 282.533C505.653 284.302 508.395 286.239 511.046 288.338"
      stroke="#512007" stroke-width="0.583904" />
    <path
      d="M494.833 265.878C494.833 265.878 497.536 283.291 501.318 286.571C505.101 289.852 508.884 293.511 508.884 293.511"
      stroke="#512007" stroke-width="0.583904" />
    <path
      d="M468.808 265.732C468.808 265.732 472.482 289.959 480.048 295.511C484.683 298.874 489.294 302.281 493.882 305.731"
      stroke="#512007" stroke-width="0.583904" />
    <path
      d="M468.483 265.354C468.483 265.354 476.589 284.533 483.615 290.337C490.424 296.268 499.827 301.694 499.827 301.694M442.111 266.994C444.273 271.41 443.949 279.864 446.435 282.766C448.72 285.782 450.815 288.987 452.703 292.356M442.652 267.246C443.949 269.391 447.407 280.369 449.569 283.65C451.19 286.678 467.186 305.353 467.186 305.353"
      stroke="#512007" stroke-width="0.583904" />
    <path fill-rule="evenodd" clip-rule="evenodd"
      d="M461.89 306.236C461.89 306.601 461.829 306.962 461.709 307.298C461.59 307.635 461.415 307.941 461.194 308.199C460.973 308.457 460.711 308.661 460.422 308.801C460.134 308.94 459.825 309.012 459.513 309.012C459.2 309.012 458.891 308.94 458.603 308.801C458.314 308.661 458.052 308.457 457.831 308.199C457.61 307.941 457.435 307.635 457.316 307.298C457.196 306.962 457.135 306.601 457.135 306.236C457.135 305.5 457.385 304.794 457.831 304.273C458.277 303.753 458.882 303.46 459.513 303.46C460.143 303.46 460.748 303.753 461.194 304.273C461.64 304.794 461.89 305.5 461.89 306.236ZM473.455 312.167C473.455 312.802 473.239 313.412 472.854 313.862C472.468 314.311 471.946 314.564 471.401 314.564C470.857 314.564 470.335 314.311 469.949 313.862C469.564 313.412 469.348 312.802 469.348 312.167C469.348 311.531 469.564 310.921 469.949 310.471C470.335 310.022 470.857 309.769 471.401 309.769C471.946 309.769 472.468 310.022 472.854 310.471C473.239 310.921 473.455 311.531 473.455 312.167ZM488.262 313.681C488.262 314.317 488.046 314.926 487.661 315.376C487.276 315.826 486.753 316.078 486.209 316.078C485.664 316.078 485.142 315.826 484.757 315.376C484.371 314.926 484.155 314.317 484.155 313.681C484.155 313.045 484.371 312.435 484.757 311.986C485.142 311.536 485.664 311.283 486.209 311.283C486.753 311.283 487.276 311.536 487.661 311.986C488.046 312.435 488.262 313.045 488.262 313.681ZM501.124 308.003C501.124 309.264 500.367 310.148 499.395 310.148C498.422 310.148 497.665 309.138 497.665 308.003C497.665 306.867 498.422 305.731 499.395 305.731C500.367 305.731 501.124 306.741 501.124 308.003ZM511.5 300.81C511.5 301.946 510.527 302.829 509.446 302.829C508.365 302.829 507.393 301.946 507.393 300.81C507.393 299.675 508.365 298.792 509.446 298.792C510.527 298.792 511.5 299.675 511.5 300.81Z"
      fill="black" stroke="#512007" stroke-width="0.583904" />
    <path fill-rule="evenodd" clip-rule="evenodd"
      d="M450.542 222.073C449.569 222.831 433.897 227.247 436.059 226.868C438.221 226.49 450.866 230.654 450.542 229.392C450.218 228.13 450.542 222.831 450.542 222.073ZM477.238 216.648C476.589 216.648 467.511 220.685 467.835 220.685C468.159 220.685 478.211 223.966 477.886 223.209C477.562 222.452 477.562 217.657 477.238 216.648ZM504.582 220.307C503.934 220.685 493.234 223.588 495.179 223.966C497.125 224.345 504.258 227.247 504.258 226.49C504.258 225.859 504.258 220.685 504.582 220.181V220.307Z"
      fill="#FF0000" stroke="#512007" stroke-width="0.583904" />
    <path
      d="M493.234 306.11C493.558 300.306 502.745 266.994 502.745 266.994M496.368 304.974L503.61 267.12M499.611 302.072C499.827 299.927 504.907 267.246 504.907 267.246M493.558 301.315C495.179 300.306 499.827 298.791 499.827 298.791M495.828 295.511C497.341 295.511 500.475 293.997 500.475 293.997M496.692 291.094C498.233 290.415 499.825 289.908 501.448 289.58M497.341 285.542L502.421 284.533M499.611 280.748C499.611 281.126 503.069 281.126 503.069 281.126M500.475 276.457L503.934 277.088"
      stroke="#512007" stroke-width="0.583904" />
    <path
      d="M466.43 310.342C466.754 304.27 475.941 269.42 475.941 269.42M469.564 310.738L476.805 269.684M472.05 310.87L478.102 269.684M466.754 305.326C468.375 304.27 473.023 302.686 473.023 302.686M469.024 299.253C470.537 299.253 473.671 297.669 473.671 297.669M469.888 294.633C471.429 293.922 473.021 293.392 474.644 293.049M470.537 288.825L475.617 287.769M472.806 283.809C472.806 284.205 476.265 284.205 476.265 284.205M473.671 279.321L477.13 279.981"
      stroke="#512007" stroke-width="0.597227" />
    <path
      d="M466.343 307.682C466.019 301.789 456.832 267.964 456.832 267.964M463.209 306.529L455.967 268.092M459.966 303.582C459.75 301.404 454.671 268.221 454.671 268.221M466.019 302.814C464.398 301.789 459.75 300.251 459.75 300.251M463.749 296.92C462.236 296.92 459.102 295.382 459.102 295.382M462.885 292.436C461.344 291.745 459.752 291.231 458.129 290.898M462.236 286.798L457.156 285.773M459.966 281.93C459.966 282.314 456.508 282.314 456.508 282.314M459.102 277.573L455.643 278.214"
      stroke="#512007" stroke-width="0.588378" />
    <path fill-rule="evenodd" clip-rule="evenodd"
      d="M509.749 289.852L539.579 290.609L539.903 288.085L509.1 287.707L509.749 289.852ZM511.046 280.641C514.504 280.641 540.552 274.836 540.552 274.836C540.552 274.836 541.524 271.051 540.552 271.051C539.579 271.051 511.046 278.117 511.046 278.117V280.641Z"
      fill="#DD8B59" stroke="#512007" stroke-width="0.583904" />
    <path fill-rule="evenodd" clip-rule="evenodd"
      d="M476.978 249.96C477.423 249.979 477.842 250.206 478.144 250.59C478.446 250.974 478.606 251.483 478.588 252.007C478.571 252.53 478.378 253.024 478.051 253.38C477.725 253.736 477.291 253.926 476.847 253.906C476.403 253.886 475.983 253.66 475.681 253.276C475.379 252.892 475.22 252.382 475.237 251.859C475.255 251.336 475.448 250.842 475.774 250.485C476.101 250.129 476.534 249.94 476.978 249.96Z"
      fill="#BE0F17" stroke="#512007" stroke-width="0.57467" />
    <path d="M0 0H320V240H0V0Z" fill="#012169" />
    <path
      d="M37.5 0L159.5 90.5L281 0H320V31L200 120.5L320 209.5V240H280L160 150.5L40.5 240H0V210L119.5 121L0 32V0H37.5Z"
      fill="white" />
    <path
      d="M212 140.5L320 220V240L184.5 140.5H212ZM120 150.5L123 168L27 240H0L120 150.5ZM320 0V1.5L195.5 95.5L196.5 73.5L295 0H320ZM0 0L119.5 88H89.5L0 21V0Z"
      fill="#C8102E" />
    <path d="M120.5 0V240H200.5V0H120.5ZM0 80V160H320V80H0Z" fill="white" />
    <path d="M0 96.5V144.5H320V96.5H0ZM136.5 0V240H184.5V0H136.5Z" fill="#C8102E" />
  </g>
  <defs>
    <linearGradient id="paint0_linear_10_10952" x1="218.597" y1="569.333" x2="242.527" y2="557.186"
      gradientUnits="userSpaceOnUse">
      <stop stop-color="#A43907" />
      <stop offset="1" stop-color="white" />
    </linearGradient>
    <linearGradient id="paint1_linear_10_10952" x1="427.557" y1="335.463" x2="396.805" y2="320.462"
      gradientUnits="userSpaceOnUse">
      <stop stop-color="#A43907" />
      <stop offset="1" stop-color="white" />
    </linearGradient>
    <linearGradient id="paint2_linear_10_10952" x1="442.406" y1="347.713" x2="378.237" y2="340.198"
      gradientUnits="userSpaceOnUse">
      <stop stop-color="#A43907" />
      <stop offset="1" stop-color="white" />
    </linearGradient>
    <linearGradient id="paint3_linear_10_10952" x1="562.008" y1="318.362" x2="532.595" y2="319.756"
      gradientUnits="userSpaceOnUse">
      <stop stop-color="#A43907" />
      <stop offset="1" stop-color="white" />
    </linearGradient>
    <linearGradient id="paint4_linear_10_10952" x1="577.754" y1="335.785" x2="514.82" y2="339.166"
      gradientUnits="userSpaceOnUse">
      <stop stop-color="#A43907" />
      <stop offset="1" stop-color="white" />
    </linearGradient>
    <linearGradient id="paint5_linear_10_10952" x1="568.774" y1="356.292" x2="392.507" y2="356.292"
      gradientUnits="userSpaceOnUse">
      <stop stop-color="#A43907" />
      <stop offset="1" stop-color="white" />
    </linearGradient>
    <linearGradient id="paint6_linear_10_10952" x1="395.881" y1="370.237" x2="652.797" y2="371.056"
      gradientUnits="userSpaceOnUse">
      <stop stop-color="#A43907" />
      <stop offset="1" stop-color="white" />
    </linearGradient>
    <linearGradient id="paint7_linear_10_10952" x1="577.875" y1="352.788" x2="556.897" y2="353.335"
      gradientUnits="userSpaceOnUse">
      <stop stop-color="#A43907" />
      <stop offset="1" stop-color="white" />
    </linearGradient>
    <linearGradient id="paint8_linear_10_10952" x1="391.778" y1="377.655" x2="411.926" y2="378.84"
      gradientUnits="userSpaceOnUse">
      <stop stop-color="#A43907" />
      <stop offset="1" stop-color="white" />
    </linearGradient>
    <linearGradient id="paint9_linear_10_10952" x1="406.65" y1="372.549" x2="369.331" y2="364.266"
      gradientUnits="userSpaceOnUse">
      <stop stop-color="#A43907" />
      <stop offset="1" stop-color="white" />
    </linearGradient>
    <clipPath id="clip0_10_10952">
      <rect width="640" height="480" fill="white" />
    </clipPath>
  </defs>
</svg>
