<svg id="flag-icons-gb-nir" viewBox="0 0 640 480" xmlns="http://www.w3.org/2000/svg">
  <g clip-path="url(#clip0_10_11398)">
    <path d="M0 0H640V480H0V0Z" fill="white" />
    <path d="M640 192H0V288H640V192Z" fill="#CC0000" />
    <path d="M368 480V0H272V480H368Z" fill="#CC0000" />
    <path fill-rule="evenodd" clip-rule="evenodd"
      d="M355.2 146.6C358.2 141.8 356.4 138.6 351.8 137.7C351.8 137.7 336.9 142.5 320.8 143C304.8 143.5 285.8 139 285.8 139C282.3 141.1 283.1 146.2 284.8 149.4C284.8 149.4 301.6 155 320.8 154.4C331.039 153.965 341.169 152.114 350.9 148.9C354.6 147.7 355.2 146.7 355.2 146.6Z"
      fill="#EBEAE3" stroke="black" stroke-width="0.5" />
    <path
      d="M320 357.6L289.1 293.4L218.2 298.8L258.2 240L218.2 181.2L289.2 186.6L320 122.5L350.9 186.5L421.8 181.2L381.8 240L421.8 298.8L350.8 293.4L320 357.6Z"
      fill="white" stroke="#161111" stroke-width="1.6" />
    <path fill-rule="evenodd" clip-rule="evenodd"
      d="M319.5 122.2C358.3 128.6 356.9 130.4 356.9 130.4L367 100.2C367 100.2 368.1 94.2001 365.3 90.6001C362.5 87.0001 354.8 89.0001 354.8 89.0001C354.8 89.0001 353.8 84.1001 350.3 83.0001C346.9 81.8001 334.3 87.5001 330.3 88.8001C326.3 90.1001 324.3 91.3001 318.8 91.2001C313.3 91.2001 303.4 86.2001 301.5 85.2001C299.8 84.3001 297.1 83.4001 294.6 83.5001C292.2 83.5001 289.6 84.2001 288.3 85.9001C287.1 87.6001 287.1 89.8001 287.1 89.8001C287.1 89.8001 285.1 88.5001 281.9 88.5001C278.7 88.5001 276.9 88.9001 275.4 90.6001C273.9 92.3001 272 97.1001 272 97.1001L275.6 105.3L275.8 116.6L283.3 128.6L319.5 122.2Z"
      fill="#B02320" stroke="black" stroke-width="1.3" />
    <path fill-rule="evenodd" clip-rule="evenodd"
      d="M355.7 139.3C355.7 139.3 357.7 141.6 357.6 142.5C357.5 143.3 356.6 144 356.6 144C356.6 144 357.3 144.6 357.1 145.5C357 146.5 355.7 146.5 355.7 146.5C355.7 146.5 356 147.3 355.2 147.7C354.5 148.1 351.4 148.7 351.4 148.7C351.4 148.7 336.4 144.5 320.4 144.5C304.4 144.5 285.4 149.7 285.4 149.7C285.4 149.7 283.4 149 283.4 147.7C283.2 146.5 283.5 145.6 283.5 145.6C283.5 145.6 282.5 145.6 282.2 144.7C281.8 143.4 282.3 142.4 282.3 142.4C282.3 142.4 281.6 142.6 282.4 140.9C283 139.6 283.9 139.2 283.9 139.2C283.9 139.2 300.7 133.2 319.9 133.1C339 133.1 355.7 139.1 355.7 139.3Z"
      fill="#EBEAE3" stroke="black" stroke-width="0.5" />
    <path
      d="M276.2 101.5C276.2 101.5 275.6 99.3 277 97.4C277.547 96.7155 278.291 96.2146 279.131 95.9643C279.971 95.7141 280.867 95.7266 281.7 96C282.5 96.4 282.4 97.3 283.4 97.5C284.4 97.8 285.2 97 285.2 97"
      stroke="black" stroke-width="1.1" />
    <path fill-rule="evenodd" clip-rule="evenodd"
      d="M369.8 106.6L364 118.6L361.7 119C361.7 119 360.3 118.2 356.3 118.5C353.5 118.7 352.6 119.5 352.6 119.5L357.8 107.5C357.8 107.5 358.2 110 358.8 111.5C359.6 113.5 362.5 115.2 362.5 115.2C362.5 115.2 362.9 112.9 362.1 110.2C361.338 107.704 360.403 105.265 359.3 102.9L369.8 106.6Z"
      fill="#FFCC00" fill-opacity="0.9" stroke="black" stroke-width="1.2" />
    <path d="M316.5 69.2H323V96.9H316.5V69.2Z" fill="#121116" stroke="#121116" stroke-width="1.2"
      stroke-linejoin="round" />
    <path fill-rule="evenodd" clip-rule="evenodd"
      d="M276.6 120.2L280.7 129.2C280.7 129.2 298.6 122.2 319.6 122.4C351.1 122.6 360.1 128.9 360.1 128.9L364.7 117.8L361.2 119.8L357.6 122.1L353.6 123.6L348.6 123.3L344.2 120.1L342 115.4L338.3 118.8L331.7 120.2L325.3 118.6L319.7 111.5C319.7 111.5 315.5 119.4 310.1 119.9C302.4 120.5 298 116.2 298 116.2C298 116.2 295.1 122.6 290.4 123.7C282.9 125.6 276.7 120.2 276.6 120.2Z"
      fill="#F6CA1F" stroke="black" />
    <path
      d="M348.4 65.6999C348.4 67.4999 347 69.0999 345.1 69.0999C344.653 69.0999 344.211 69.012 343.799 68.8411C343.386 68.6703 343.011 68.4198 342.696 68.1041C342.38 67.7884 342.13 67.4136 341.959 67.0011C341.788 66.5886 341.7 66.1464 341.7 65.6999C341.687 65.2451 341.765 64.7922 341.929 64.3681C342.094 63.944 342.343 63.5573 342.66 63.2309C342.977 62.9045 343.356 62.6451 343.775 62.468C344.194 62.2909 344.645 62.1998 345.1 62.2C345.984 62.226 346.824 62.5956 347.44 63.2305C348.056 63.8653 348.4 64.7153 348.4 65.5999"
      fill="#EEEEEE" />
    <path
      d="M348.4 65.6999C348.4 67.4999 347 69.0999 345.1 69.0999C344.653 69.0999 344.211 69.012 343.799 68.8411C343.386 68.6703 343.011 68.4198 342.696 68.1041C342.38 67.7884 342.13 67.4136 341.959 67.0011C341.788 66.5886 341.7 66.1464 341.7 65.6999C341.687 65.2451 341.765 64.7922 341.929 64.3681C342.094 63.944 342.343 63.5573 342.66 63.2309C342.977 62.9045 343.356 62.6451 343.775 62.468C344.194 62.2909 344.645 62.1998 345.1 62.2C345.984 62.226 346.824 62.5956 347.44 63.2305C348.056 63.8653 348.4 64.7153 348.4 65.5999"
      stroke="#1E1E1E" stroke-width="1.2" stroke-linejoin="round" />
    <path fill-rule="evenodd" clip-rule="evenodd"
      d="M343.5 67.4C343.5 67.4 346.2 67.4 346.5 66.3C346.8 65.1 346.3 63.7 346.3 63.7C346.3 63.7 347.6 65.0999 347.3 66.1999C346.9 67.2999 346.5 67.6 345.6 67.9C344.895 67.9748 344.187 67.7976 343.6 67.4H343.5Z"
      fill="#A3AFB8" />
    <path
      d="M340.3 69.5001C340.3 71.3001 338.8 72.9001 336.9 72.9001C336.454 72.9001 336.011 72.8121 335.599 72.6412C335.186 72.4704 334.812 72.2199 334.496 71.9042C334.18 71.5885 333.93 71.2137 333.759 70.8012C333.588 70.3887 333.5 69.9465 333.5 69.5001C333.486 69.0367 333.567 68.5754 333.738 68.1445C333.909 67.7136 334.167 67.3222 334.494 66.9944C334.822 66.6666 335.214 66.4093 335.644 66.2383C336.075 66.0673 336.537 65.9862 337 66.0001C337.885 65.9997 338.735 66.3441 339.37 66.9603C340.004 67.5764 340.374 68.4158 340.4 69.3001"
      fill="#EEEEEE" />
    <path
      d="M340.3 69.5001C340.3 71.3001 338.8 72.9001 336.9 72.9001C336.454 72.9001 336.011 72.8121 335.599 72.6412C335.186 72.4704 334.812 72.2199 334.496 71.9042C334.18 71.5885 333.93 71.2137 333.759 70.8012C333.588 70.3887 333.5 69.9465 333.5 69.5001C333.486 69.0367 333.567 68.5754 333.738 68.1445C333.909 67.7136 334.167 67.3222 334.494 66.9944C334.822 66.6666 335.214 66.4093 335.644 66.2383C336.075 66.0673 336.537 65.9862 337 66.0001C337.885 65.9997 338.735 66.3441 339.37 66.9603C340.004 67.5764 340.374 68.4158 340.4 69.3001"
      stroke="#1E1E1E" stroke-width="1.2" stroke-linejoin="round" />
    <path fill-rule="evenodd" clip-rule="evenodd"
      d="M335.3 71.2C335.3 71.2 338.1 71.2 338.3 70.1C338.6 69 338.1 67.5 338.1 67.5C338.1 67.5 339.4 69 339.1 70.1C338.7 71.1 338.3 71.5 337.4 71.7C336.695 71.7748 335.986 71.5977 335.4 71.2H335.3Z"
      fill="#A3AFB8" />
    <path
      d="M358 63.4C358 65.3 356.4 66.8 354.6 66.8C353.698 66.8 352.833 66.4418 352.196 65.8042C351.558 65.1665 351.2 64.3017 351.2 63.4C351.2 62.5153 351.544 61.6653 352.16 61.0305C352.776 60.3957 353.616 60.026 354.5 60C355.402 60 356.266 60.3582 356.904 60.9958C357.542 61.6335 357.9 62.4983 357.9 63.4"
      fill="#EEEEEE" />
    <path
      d="M358 63.4C358 65.3 356.4 66.8 354.6 66.8C353.698 66.8 352.833 66.4418 352.196 65.8042C351.558 65.1665 351.2 64.3017 351.2 63.4C351.2 62.5153 351.544 61.6653 352.16 61.0305C352.776 60.3957 353.616 60.026 354.5 60C355.402 60 356.266 60.3582 356.904 60.9958C357.542 61.6335 357.9 62.4983 357.9 63.4"
      stroke="#1E1E1E" stroke-width="1.2" stroke-linejoin="round" />
    <path fill-rule="evenodd" clip-rule="evenodd"
      d="M353 65.2C353 65.2 355.7 65.2 356 64C356.3 62.9 355.8 61.5 355.8 61.5C355.8 61.5 357.1 62.9 356.8 64C356.4 65.1 356 65.4 355.1 65.6C354.407 65.7043 353.699 65.5628 353.1 65.2H353Z"
      fill="#A3AFB8" />
    <path
      d="M368.6 65.5999C368.6 67.3999 367.1 69 365.3 69C364.398 69 363.533 68.6417 362.896 68.0041C362.258 67.3665 361.9 66.5017 361.9 65.5999C361.9 64.6982 362.258 63.8334 362.896 63.1958C363.533 62.5582 364.398 62.2 365.3 62.2C366.167 62.2251 366.992 62.5809 367.605 63.1944C368.219 63.8079 368.575 64.6327 368.6 65.5"
      fill="#EEEEEE" />
    <path
      d="M368.6 65.5999C368.6 67.3999 367.1 69 365.3 69C364.398 69 363.533 68.6417 362.896 68.0041C362.258 67.3665 361.9 66.5017 361.9 65.5999C361.9 64.6982 362.258 63.8334 362.896 63.1958C363.533 62.5582 364.398 62.2 365.3 62.2C366.167 62.2251 366.992 62.5809 367.605 63.1944C368.219 63.8079 368.575 64.6327 368.6 65.5"
      stroke="#1E1E1E" stroke-width="1.2" stroke-linejoin="round" />
    <path fill-rule="evenodd" clip-rule="evenodd"
      d="M363.7 67.3001C363.7 67.3001 366.4 67.3001 366.7 66.2001C367 65.0001 366.5 63.6001 366.5 63.6001C366.5 63.6001 367.8 65.0001 367.5 66.2001C367.1 67.2001 366.7 67.5001 365.8 67.8001C365.062 67.8998 364.314 67.7216 363.7 67.3001Z"
      fill="#A3AFB8" />
    <path
      d="M376.8 72.3001C376.8 74.1001 375.3 75.7001 373.4 75.7001C372.498 75.7001 371.633 75.3419 370.996 74.7043C370.358 74.0667 370 73.2019 370 72.3001C370 71.3984 370.358 70.5336 370.996 69.896C371.633 69.2584 372.498 68.9001 373.4 68.9001C374.285 68.8998 375.135 69.2442 375.77 69.8604C376.404 70.4765 376.774 71.3159 376.8 72.2001"
      fill="#EEEEEE" />
    <path
      d="M376.8 72.3001C376.8 74.1001 375.3 75.7001 373.4 75.7001C372.498 75.7001 371.633 75.3419 370.996 74.7043C370.358 74.0667 370 73.2019 370 72.3001C370 71.3984 370.358 70.5336 370.996 69.896C371.633 69.2584 372.498 68.9001 373.4 68.9001C374.285 68.8998 375.135 69.2442 375.77 69.8604C376.404 70.4765 376.774 71.3159 376.8 72.2001"
      stroke="#1E1E1E" stroke-width="1.2" stroke-linejoin="round" />
    <path fill-rule="evenodd" clip-rule="evenodd"
      d="M371.9 74C371.9 74 374.6 74 374.9 72.9C375.1 71.8 374.7 70.3 374.7 70.3C374.7 70.3 376 71.8 375.6 72.9C375.2 73.9 374.9 74.3 373.9 74.5C373.3 74.6 372.4 74.4 371.9 74Z"
      fill="#A3AFB8" />
    <path
      d="M380.3 83.3001C380.3 85.2001 378.8 86.7001 376.9 86.7001C376.016 86.6741 375.176 86.3045 374.56 85.6696C373.944 85.0348 373.599 84.1848 373.6 83.3001C373.599 82.4155 373.944 81.5655 374.56 80.9307C375.176 80.2958 376.016 79.9262 376.9 79.9001C377.802 79.9001 378.666 80.2584 379.304 80.896C379.942 81.5336 380.3 82.3984 380.3 83.3001Z"
      fill="#EEEEEE" stroke="#1E1E1E" stroke-width="1.2" stroke-linejoin="round" />
    <path fill-rule="evenodd" clip-rule="evenodd"
      d="M375.4 85C375.4 85 378.1 85 378.4 83.9C378.6 82.8 378.2 81.3 378.2 81.3C378.2 81.3 379.5 82.8 379.1 83.9C378.7 84.9 378.4 85.3 377.4 85.5C376.695 85.5749 375.987 85.3977 375.4 85Z"
      fill="#A3AFB8" />
    <path
      d="M379 94.4C379 96.4 377.5 97.8 375.6 97.8C374.733 97.7748 373.908 97.4191 373.294 96.8056C372.681 96.1921 372.325 95.3673 372.3 94.5C372.287 94.0535 372.361 93.6087 372.52 93.191C372.679 92.7734 372.918 92.3912 373.225 92.0661C373.531 91.7411 373.899 91.4796 374.306 91.2967C374.714 91.1138 375.153 91.0129 375.6 91C376.502 91 377.366 91.3582 378.004 91.9958C378.642 92.6335 379 93.4983 379 94.4Z"
      fill="#EEEEEE" stroke="#1E1E1E" stroke-width="1.2" stroke-linejoin="round" />
    <path fill-rule="evenodd" clip-rule="evenodd"
      d="M374 96.2C374 96.2 376.8 96.2 377 95C377.3 94 376.9 92.5 376.9 92.5C376.9 92.5 378.2 93.9 377.8 95C377.4 96.1 377.1 96.4 376.1 96.6C375.407 96.7043 374.699 96.5628 374.1 96.2H374Z"
      fill="#A3AFB8" />
    <path
      d="M374 104.2C374 106.1 372.5 107.6 370.7 107.6C369.798 107.6 368.933 107.242 368.296 106.604C367.658 105.967 367.3 105.102 367.3 104.2C367.3 103.298 367.658 102.434 368.296 101.796C368.933 101.158 369.798 100.8 370.7 100.8C371.584 100.826 372.423 101.196 373.04 101.831C373.656 102.465 374 103.315 374 104.2Z"
      fill="#EEEEEE" stroke="#1E1E1E" stroke-width="1.2" stroke-linejoin="round" />
    <path fill-rule="evenodd" clip-rule="evenodd"
      d="M369.1 106C369.1 106 371.8 106 372.1 104.8C372.4 103.8 371.9 102.3 371.9 102.3C371.9 102.3 373.2 103.7 372.9 104.8C372.5 105.9 372.1 106.2 371.2 106.4C370.507 106.504 369.799 106.363 369.2 106H369.1Z"
      fill="#A3AFB8" />
    <path
      d="M332.3 72.4C332.3 74.3 330.8 75.8 329 75.8C328.098 75.8 327.233 75.4418 326.596 74.8042C325.958 74.1665 325.6 73.3017 325.6 72.4C325.599 71.5153 325.944 70.6653 326.56 70.0305C327.176 69.3957 328.016 69.026 328.9 69C329.802 69 330.666 69.3582 331.304 69.9958C331.942 70.6335 332.3 71.4983 332.3 72.4Z"
      fill="#EEEEEE" stroke="#1E1E1E" stroke-width="1.2" stroke-linejoin="round" />
    <path fill-rule="evenodd" clip-rule="evenodd"
      d="M327.4 74.2C327.4 74.2 330.1 74.2 330.4 73C330.7 71.9 330.2 70.5 330.2 70.5C330.2 70.5 331.5 71.9 331.2 73C330.8 74.1 330.4 74.4 329.5 74.6C328.8 74.8 327.9 74.6 327.4 74.2Z"
      fill="#A3AFB8" />
    <path
      d="M322.1 71.5C322.113 71.876 322.051 72.2509 321.916 72.6022C321.781 72.9535 321.577 73.2741 321.316 73.5448C321.055 73.8155 320.741 74.0307 320.395 74.1777C320.049 74.3246 319.676 74.4002 319.3 74.4C318.924 74.4002 318.551 74.3246 318.205 74.1777C317.858 74.0307 317.545 73.8155 317.284 73.5448C317.022 73.2741 316.818 72.9535 316.684 72.6022C316.549 72.2509 316.486 71.876 316.5 71.5C316.5 70.7573 316.795 70.0452 317.32 69.5201C317.845 68.995 318.557 68.7 319.3 68.7C320.042 68.7 320.755 68.995 321.28 69.5201C321.805 70.0452 322.1 70.7573 322.1 71.5Z"
      fill="#EEEEEE" stroke="#1E1E1E" stroke-width="1.2" stroke-linejoin="round" />
    <path fill-rule="evenodd" clip-rule="evenodd"
      d="M318 73C318 73 320.3 73 320.5 72C320.8 71.1 320.4 70 320.4 70C320.4 70 321.4 71.1 321.2 72C320.8 73 320.5 73.2 319.8 73.4C319.171 73.5009 318.527 73.3578 318 73Z"
      fill="#A3AFB8" />
    <path
      d="M322.2 75C322.227 75.3841 322.175 75.7698 322.047 76.133C321.919 76.4961 321.717 76.8289 321.454 77.1105C321.191 77.392 320.873 77.6164 320.52 77.7694C320.166 77.9225 319.785 78.0009 319.4 78C319.015 78.0009 318.634 77.9225 318.28 77.7694C317.927 77.6164 317.609 77.392 317.346 77.1105C317.083 76.8289 316.881 76.4961 316.753 76.133C316.624 75.7698 316.572 75.3841 316.6 75C316.6 74.6323 316.672 74.2682 316.813 73.9284C316.954 73.5887 317.16 73.2801 317.42 73.0201C317.68 72.7601 317.989 72.5538 318.328 72.4131C318.668 72.2724 319.032 72.2 319.4 72.2C320.143 72.2 320.855 72.495 321.38 73.0201C321.905 73.5452 322.2 74.2573 322.2 75Z"
      fill="#EEEEEE" stroke="#1E1E1E" stroke-width="1.2" stroke-linejoin="round" />
    <path fill-rule="evenodd" clip-rule="evenodd"
      d="M318 76.5C318 76.5 320.3 76.5 320.6 75.5C320.8 74.7 320.4 73.5 320.4 73.5C320.4 73.5 321.4 74.7 321.2 75.5C320.9 76.5 320.6 76.7 319.8 76.9C319.204 76.9754 318.6 76.8334 318.1 76.5H318Z"
      fill="#A3AFB8" />
    <path
      d="M322.4 80.3C322.4 81.0427 322.105 81.7548 321.58 82.2799C321.055 82.805 320.342 83.1 319.6 83.1C319.224 83.1135 318.849 83.051 318.498 82.9163C318.146 82.7816 317.826 82.5775 317.555 82.3162C317.284 82.0548 317.069 81.7416 316.922 81.3952C316.775 81.0488 316.7 80.6763 316.7 80.3C316.686 79.9155 316.751 79.5321 316.892 79.1739C317.033 78.8157 317.246 78.4904 317.518 78.2183C317.79 77.9462 318.116 77.733 318.474 77.5923C318.832 77.4515 319.215 77.386 319.6 77.4C319.976 77.3998 320.349 77.4754 320.695 77.6223C321.041 77.7693 321.355 77.9845 321.616 78.2552C321.877 78.5259 322.081 78.8465 322.216 79.1978C322.351 79.5491 322.413 79.924 322.4 80.3Z"
      fill="#EEEEEE" stroke="#1E1E1E" stroke-width="1.2" stroke-linejoin="round" />
    <path fill-rule="evenodd" clip-rule="evenodd"
      d="M318.3 81.8C318.3 81.8 320.5 81.8 320.8 80.8C321 79.8 320.6 78.7 320.6 78.7C320.6 78.7 321.6 79.9 321.4 80.7C321.1 81.7 320.8 82 320 82.1C319.416 82.205 318.813 82.0986 318.3 81.8Z"
      fill="#A3AFB8" />
    <path
      d="M322.7 85.8C322.713 86.2023 322.646 86.6031 322.501 86.9787C322.356 87.3543 322.137 87.697 321.857 87.9862C321.577 88.2755 321.242 88.5054 320.872 88.6624C320.501 88.8194 320.102 88.9002 319.7 88.9C319.298 88.9134 318.897 88.8457 318.521 88.701C318.146 88.5562 317.803 88.3374 317.514 88.0574C317.224 87.7775 316.994 87.4422 316.837 87.0716C316.68 86.7009 316.6 86.3025 316.6 85.9C316.573 85.4895 316.63 85.0778 316.768 84.6904C316.907 84.303 317.123 83.9482 317.405 83.6481C317.686 83.348 318.026 83.109 318.404 82.9459C318.781 82.7827 319.189 82.699 319.6 82.7C320.002 82.6997 320.401 82.7805 320.772 82.9375C321.142 83.0945 321.477 83.3244 321.757 83.6137C322.037 83.903 322.256 84.2456 322.401 84.6212C322.546 84.9968 322.613 85.3977 322.6 85.8"
      fill="#EEEEEE" />
    <path
      d="M322.7 85.8C322.713 86.2023 322.646 86.6031 322.501 86.9787C322.356 87.3543 322.137 87.697 321.857 87.9862C321.577 88.2755 321.242 88.5054 320.872 88.6624C320.501 88.8194 320.102 88.9002 319.7 88.9C319.298 88.9134 318.897 88.8457 318.521 88.701C318.146 88.5562 317.803 88.3374 317.514 88.0574C317.224 87.7775 316.994 87.4422 316.837 87.0716C316.68 86.7009 316.6 86.3025 316.6 85.9C316.573 85.4895 316.63 85.0778 316.768 84.6904C316.907 84.303 317.123 83.9482 317.405 83.6481C317.686 83.348 318.026 83.109 318.404 82.9459C318.781 82.7827 319.189 82.699 319.6 82.7C320.002 82.6997 320.401 82.7805 320.772 82.9375C321.142 83.0945 321.477 83.3244 321.757 83.6137C322.037 83.903 322.256 84.2456 322.401 84.6212C322.546 84.9968 322.613 85.3977 322.6 85.8"
      stroke="#1E1E1E" stroke-width="1.2" stroke-linejoin="round" />
    <path fill-rule="evenodd" clip-rule="evenodd"
      d="M318.2 87.3999C318.2 87.3999 320.7 87.3999 320.9 86.3999C321.1 85.3999 320.7 84.0999 320.7 84.0999C320.7 84.0999 321.9 85.3999 321.6 86.3999C321.2 87.3999 320.9 87.5999 320.1 87.7999C319.439 87.9169 318.758 87.7735 318.2 87.3999Z"
      fill="#A3AFB8" />
    <path
      d="M323 93.3C323 95.1 321.5 96.7 319.6 96.7C318.716 96.674 317.876 96.3044 317.26 95.6695C316.644 95.0347 316.299 94.1847 316.3 93.3C316.287 92.8535 316.361 92.4087 316.52 91.9911C316.679 91.5735 316.918 91.1912 317.225 90.8662C317.531 90.5411 317.899 90.2797 318.306 90.0967C318.714 89.9138 319.153 89.813 319.6 89.8C320.502 89.8 321.366 90.1583 322.004 90.7959C322.642 91.4335 323 92.2983 323 93.2"
      fill="#EEEEEE" />
    <path
      d="M323 93.3C323 95.1 321.5 96.7 319.6 96.7C318.716 96.674 317.876 96.3044 317.26 95.6695C316.644 95.0347 316.299 94.1847 316.3 93.3C316.287 92.8535 316.361 92.4087 316.52 91.9911C316.679 91.5735 316.918 91.1912 317.225 90.8662C317.531 90.5411 317.899 90.2797 318.306 90.0967C318.714 89.9138 319.153 89.813 319.6 89.8C320.502 89.8 321.366 90.1583 322.004 90.7959C322.642 91.4335 323 92.2983 323 93.2"
      stroke="#1E1E1E" stroke-width="1.2" stroke-linejoin="round" />
    <path fill-rule="evenodd" clip-rule="evenodd"
      d="M318 95C318 95 320.8 95 321 93.9C321.3 92.8 320.9 91.3 320.9 91.3C320.9 91.3 322.2 92.8 321.8 93.9C321.4 94.9 321.1 95.3 320.1 95.5C319.395 95.5749 318.687 95.3977 318.1 95H318Z"
      fill="#A3AFB8" />
    <path
      d="M322.7 108.5C322.7 110.3 321.3 111.7 319.5 111.7C318.651 111.7 317.837 111.363 317.237 110.763C316.637 110.163 316.3 109.349 316.3 108.5C316.3 106.8 317.7 105.3 319.5 105.3C320.349 105.3 321.162 105.637 321.763 106.237C322.363 106.837 322.7 107.651 322.7 108.5Z"
      fill="#EEEEEE" stroke="#1E1E1E" stroke-width="1.2" stroke-linejoin="round" />
    <path fill-rule="evenodd" clip-rule="evenodd"
      d="M318 110.2C318 110.2 320.6 110.2 320.8 109.1C321.1 108.1 320.7 106.7 320.7 106.7C320.7 106.7 321.9 108 321.5 109.1C321.2 110.1 320.8 110.4 320 110.6C319.4 110.7 318.5 110.5 318 110.2Z"
      fill="#A3AFB8" />
    <path
      d="M313.6 72.3001C313.6 74.2001 312 75.7001 310.2 75.7001C309.298 75.7001 308.433 75.3419 307.796 74.7043C307.158 74.0667 306.8 73.2019 306.8 72.3001C306.8 71.3984 307.158 70.5336 307.796 69.896C308.433 69.2584 309.298 68.9001 310.2 68.9001C311.102 68.9001 311.966 69.2584 312.604 69.896C313.242 70.5336 313.6 71.3984 313.6 72.3001Z"
      fill="#EEEEEE" stroke="#1E1E1E" stroke-width="1.2" stroke-linejoin="round" />
    <path fill-rule="evenodd" clip-rule="evenodd"
      d="M308.6 74.0001C308.6 74.0001 311.3 74.0001 311.6 73.0001C311.9 71.8001 311.4 70.4001 311.4 70.4001C311.4 70.4001 312.7 71.8001 312.4 72.9001C312 74.0001 311.6 74.3001 310.7 74.5001C310.007 74.6045 309.299 74.463 308.7 74.1001L308.6 74.0001Z"
      fill="#A3AFB8" />
    <path
      d="M305.2 69.0001C305.2 70.9001 303.7 72.4001 301.8 72.4001C300.916 72.3741 300.076 72.0044 299.46 71.3696C298.844 70.7348 298.5 69.8848 298.5 69.0001C298.5 68.1154 298.844 67.2654 299.46 66.6306C300.076 65.9958 300.916 65.6261 301.8 65.6001C302.702 65.6001 303.567 65.9583 304.204 66.5959C304.842 67.2336 305.2 68.0984 305.2 69.0001Z"
      fill="#EEEEEE" stroke="#1E1E1E" stroke-width="1.2" stroke-linejoin="round" />
    <path fill-rule="evenodd" clip-rule="evenodd"
      d="M300.3 70.8001C300.3 70.8001 303 70.8001 303.3 69.6001C303.5 68.6001 303.1 67.1001 303.1 67.1001C303.1 67.1001 304.4 68.5001 304.1 69.6001C303.6 70.7001 303.3 71.0001 302.3 71.2001C301.7 71.4001 300.8 71.2001 300.3 70.8001Z"
      fill="#A3AFB8" />
    <path
      d="M297.2 65.3001C297.2 67.1001 295.7 68.7 293.9 68.7C292.998 68.7 292.134 68.3418 291.496 67.7042C290.858 67.0666 290.5 66.2018 290.5 65.3001C290.487 64.8535 290.562 64.4087 290.72 63.9911C290.879 63.5735 291.118 63.1912 291.425 62.8662C291.731 62.5411 292.099 62.2797 292.506 62.0967C292.914 61.9138 293.353 61.813 293.8 61.8C294.702 61.8 295.567 62.1583 296.204 62.7959C296.842 63.4335 297.2 64.2983 297.2 65.2"
      fill="#EEEEEE" />
    <path
      d="M297.2 65.3001C297.2 67.1001 295.7 68.7 293.9 68.7C292.998 68.7 292.134 68.3418 291.496 67.7042C290.858 67.0666 290.5 66.2018 290.5 65.3001C290.487 64.8535 290.562 64.4087 290.72 63.9911C290.879 63.5735 291.118 63.1912 291.425 62.8662C291.731 62.5411 292.099 62.2797 292.506 62.0967C292.914 61.9138 293.353 61.813 293.8 61.8C294.702 61.8 295.567 62.1583 296.204 62.7959C296.842 63.4335 297.2 64.2983 297.2 65.2"
      stroke="#1E1E1E" stroke-width="1.2" stroke-linejoin="round" />
    <path fill-rule="evenodd" clip-rule="evenodd"
      d="M292.3 67C292.3 67 295 67.0001 295.3 65.9001C295.6 64.8001 295.1 63.3 295.1 63.3C295.1 63.3 296.4 64.8001 296.1 65.9001C295.7 66.9001 295.3 67.3 294.4 67.5C293.662 67.5997 292.914 67.4215 292.3 67Z"
      fill="#A3AFB8" />
    <path
      d="M288 63.3C288 65.2 286.6 66.7 284.7 66.7C283.798 66.7 282.933 66.3418 282.296 65.7042C281.658 65.0666 281.3 64.2018 281.3 63.3C281.286 62.8452 281.364 62.3923 281.529 61.9682C281.694 61.5441 281.943 61.1574 282.26 60.831C282.577 60.5046 282.956 60.2452 283.375 60.0681C283.794 59.891 284.245 59.7999 284.7 59.8C285.602 59.8 286.466 60.1583 287.104 60.7959C287.742 61.4335 288.1 62.2983 288.1 63.2001"
      fill="#EEEEEE" />
    <path
      d="M288 63.3C288 65.2 286.6 66.7 284.7 66.7C283.798 66.7 282.933 66.3418 282.296 65.7042C281.658 65.0666 281.3 64.2018 281.3 63.3C281.286 62.8452 281.364 62.3923 281.529 61.9682C281.694 61.5441 281.943 61.1574 282.26 60.831C282.577 60.5046 282.956 60.2452 283.375 60.0681C283.794 59.891 284.245 59.7999 284.7 59.8C285.602 59.8 286.466 60.1583 287.104 60.7959C287.742 61.4335 288.1 62.2983 288.1 63.2001"
      stroke="#1E1E1E" stroke-width="1.2" stroke-linejoin="round" />
    <path fill-rule="evenodd" clip-rule="evenodd"
      d="M283.1 65C283.1 65 285.8 65.0001 286.1 63.9001C286.4 62.8001 285.9 61.3 285.9 61.3C285.9 61.3 287.2 62.8001 286.9 63.9001C286.5 64.9001 286.1 65.3 285.2 65.5C284.495 65.5749 283.787 65.3977 283.2 65H283.1Z"
      fill="#A3AFB8" />
    <path
      d="M277.2 65.8001C277.2 67.8001 275.7 69.2001 273.9 69.3001C272.998 69.3001 272.133 68.9419 271.496 68.3043C270.858 67.6667 270.5 66.8019 270.5 65.9001C270.487 65.4453 270.565 64.9924 270.73 64.5683C270.894 64.1442 271.143 63.7575 271.46 63.4311C271.777 63.1047 272.156 62.8453 272.575 62.6682C272.995 62.4911 273.445 62.3999 273.9 62.4001C274.784 62.4262 275.624 62.7958 276.24 63.4307C276.856 64.0655 277.2 64.9155 277.2 65.8001Z"
      fill="#EEEEEE" stroke="#1E1E1E" stroke-width="1.2" stroke-linejoin="round" />
    <path fill-rule="evenodd" clip-rule="evenodd"
      d="M272.3 67.6001C272.3 67.6001 275 67.6001 275.3 66.5001C275.6 65.3001 275.1 63.9001 275.1 63.9001C275.1 63.9001 276.4 65.3001 276.1 66.4001C275.7 67.5001 275.3 67.8001 274.4 68.1001C273.695 68.175 272.986 67.9978 272.4 67.6001H272.3Z"
      fill="#A3AFB8" />
    <path
      d="M269.6 73.5001C269.6 75.4001 268.1 76.9001 266.2 76.9001C265.316 76.8741 264.476 76.5044 263.86 75.8696C263.244 75.2348 262.9 74.3848 262.9 73.5001C262.9 72.6154 263.244 71.7654 263.86 71.1306C264.476 70.4958 265.316 70.1261 266.2 70.1001C267.102 70.1001 267.966 70.4583 268.604 71.0959C269.242 71.7336 269.6 72.5984 269.6 73.5001Z"
      fill="#EEEEEE" stroke="#1E1E1E" stroke-width="1.2" stroke-linejoin="round" />
    <path fill-rule="evenodd" clip-rule="evenodd"
      d="M264.7 75.2C264.7 75.2 267.4 75.2 267.7 74.1C267.9 73 267.5 71.5 267.5 71.5C267.5 71.5 268.8 73 268.4 74.1C268 75.1 267.7 75.5 266.7 75.7C265.995 75.7748 265.287 75.5977 264.7 75.2Z"
      fill="#A3AFB8" />
    <path
      d="M266.4 84.2C266.4 86.1 264.9 87.6 263.1 87.6C262.198 87.6 261.333 87.2418 260.696 86.6042C260.058 85.9666 259.7 85.1018 259.7 84.2C259.7 83.3154 260.044 82.4654 260.66 81.8306C261.276 81.1957 262.116 80.8261 263 80.8C263.885 80.7997 264.735 81.1441 265.369 81.7603C266.004 82.3764 266.374 83.2158 266.4 84.1"
      fill="#EEEEEE" />
    <path
      d="M266.4 84.2C266.4 86.1 264.9 87.6 263.1 87.6C262.198 87.6 261.333 87.2418 260.696 86.6042C260.058 85.9666 259.7 85.1018 259.7 84.2C259.7 83.3154 260.044 82.4654 260.66 81.8306C261.276 81.1957 262.116 80.8261 263 80.8C263.885 80.7997 264.735 81.1441 265.369 81.7603C266.004 82.3764 266.374 83.2158 266.4 84.1"
      stroke="#1E1E1E" stroke-width="1.2" stroke-linejoin="round" />
    <path fill-rule="evenodd" clip-rule="evenodd"
      d="M261.5 86C261.5 86 264.2 85.9 264.5 84.8C264.8 83.7 264.3 82.2 264.3 82.2C264.3 82.2 265.6 83.7 265.3 84.8C264.9 85.8 264.5 86.2 263.6 86.4C262.862 86.4996 262.114 86.3214 261.5 85.9V86Z"
      fill="#A3AFB8" />
    <path
      d="M267.8 95.3001C267.8 97.3001 266.3 98.8001 264.5 98.8001C263.598 98.8001 262.733 98.4419 262.096 97.8043C261.458 97.1667 261.1 96.3019 261.1 95.4001C261.087 94.9536 261.161 94.5088 261.32 94.0912C261.479 93.6736 261.718 93.2913 262.025 92.9663C262.331 92.6412 262.699 92.3798 263.106 92.1968C263.514 92.0139 263.953 91.9131 264.4 91.9001C265.302 91.9001 266.166 92.2584 266.804 92.896C267.442 93.5336 267.8 94.3984 267.8 95.3001Z"
      fill="#EEEEEE" stroke="#1E1E1E" stroke-width="1.2" stroke-linejoin="round" />
    <path fill-rule="evenodd" clip-rule="evenodd"
      d="M262.9 97.1001C262.9 97.1001 265.6 97.1001 265.9 95.9001C266.2 94.9001 265.7 93.4001 265.7 93.4001C265.7 93.4001 267 94.8001 266.7 95.9001C266.3 97.0001 265.9 97.3001 265 97.6001C264.295 97.675 263.587 97.4978 263 97.1001H262.9Z"
      fill="#A3AFB8" />
    <path
      d="M273 105.5C273 107.3 271.5 108.9 269.6 108.9C268.716 108.874 267.876 108.504 267.26 107.869C266.644 107.235 266.299 106.385 266.3 105.5C266.287 105.053 266.361 104.609 266.52 104.191C266.679 103.773 266.918 103.391 267.225 103.066C267.531 102.741 267.899 102.48 268.306 102.297C268.714 102.114 269.153 102.013 269.6 102C270.046 102 270.488 102.088 270.901 102.259C271.313 102.43 271.688 102.68 272.004 102.996C272.32 103.312 272.57 103.686 272.741 104.099C272.912 104.511 273 104.954 273 105.4"
      fill="#EEEEEE" />
    <path
      d="M273 105.5C273 107.3 271.5 108.9 269.6 108.9C268.716 108.874 267.876 108.504 267.26 107.869C266.644 107.235 266.299 106.385 266.3 105.5C266.287 105.053 266.361 104.609 266.52 104.191C266.679 103.773 266.918 103.391 267.225 103.066C267.531 102.741 267.899 102.48 268.306 102.297C268.714 102.114 269.153 102.013 269.6 102C270.046 102 270.488 102.088 270.901 102.259C271.313 102.43 271.688 102.68 272.004 102.996C272.32 103.312 272.57 103.686 272.741 104.099C272.912 104.511 273 104.954 273 105.4"
      stroke="#1E1E1E" stroke-width="1.2" stroke-linejoin="round" />
    <path fill-rule="evenodd" clip-rule="evenodd"
      d="M268 107.2C268 107.2 270.8 107.2 271 106.1C271.3 105 270.9 103.5 270.9 103.5C270.9 103.5 272.2 104.9 271.9 106C271.4 107.1 271.1 107.4 270.2 107.7C269.462 107.8 268.714 107.621 268.1 107.2H268Z"
      fill="#A3AFB8" />
    <path
      d="M278.853 118.181C279.084 119.04 279.093 119.922 278.878 120.637C278.664 121.351 278.244 121.839 277.708 121.997C277.164 122.143 276.549 121.938 275.999 121.427C275.449 120.916 275.01 120.141 274.777 119.273C274.547 118.413 274.538 117.531 274.752 116.817C274.966 116.103 275.386 115.614 275.922 115.456C276.467 115.31 277.081 115.515 277.631 116.026C278.181 116.537 278.62 117.312 278.853 118.181Z"
      fill="#EEEEEE" stroke="#1E1E1E" stroke-width="1.15653" stroke-linejoin="round" />
    <path fill-rule="evenodd" clip-rule="evenodd"
      d="M276.3 120.7C276.3 120.7 277.9 120.2 277.8 119.1C277.8 118 277.1 116.7 277.1 116.7C277.1 116.7 278.2 117.8 278.3 119C278.3 120 278.2 120.4 277.7 120.8C277.4 121 276.7 121 276.3 120.7Z"
      fill="#A3AFB8" />
    <path
      d="M365.825 118.832C365.612 119.697 365.194 120.474 364.661 120.996C364.129 121.518 363.525 121.743 362.98 121.622C362.432 121.487 361.993 121.011 361.758 120.298C361.523 119.585 361.513 118.694 361.728 117.821C361.941 116.957 362.359 116.18 362.892 115.658C363.424 115.136 364.028 114.911 364.573 115.032C365.121 115.167 365.56 115.643 365.795 116.356C366.029 117.069 366.04 117.96 365.825 118.832Z"
      fill="#EEEEEE" stroke="#1E1E1E" stroke-width="1.15654" stroke-linejoin="round" />
    <path fill-rule="evenodd" clip-rule="evenodd"
      d="M362.3 119.8C362.3 119.8 364 120.2 364.4 119.1C364.9 118.1 364.9 116.6 364.9 116.6C364.9 116.6 365.4 118.2 364.9 119.2C364.4 120.2 364.1 120.5 363.5 120.5C363.1 120.6 362.5 120.2 362.3 119.8Z"
      fill="#A3AFB8" />
    <path fill-rule="evenodd" clip-rule="evenodd"
      d="M316.7 53.7999L317 59.5C317 59.5 310.2 60.1 310 60.7C308.6 63.7 311.5 67.6999 311.5 67.6999C311.5 67.6999 313.8 65.9 319.5 65.9C325 65.9 327.8 67.3 327.8 67.3C327.8 67.3 329.2 64.9999 329.2 63.2999C329.2 61.5999 328.6 59.9 328.6 59.9L325 59.5H322.5L322.3 53.7L316.7 53.7999Z"
      fill="#B3A192" stroke="black" stroke-width="1.2" />
    <path
      d="M326.4 62.5999C326.4 63.2999 325.8 63.7999 325.2 63.7999C324.5 63.7999 323.9 63.3 323.9 62.7C323.9 62 324.5 61.5 325.1 61.5C325.8 61.5 326.3 61.9999 326.4 62.5999ZM329.1 63.2999C329.1 63.8999 328.6 64.5 327.9 64.5C327.2 64.5 326.6 63.8999 326.6 63.2999C326.6 62.5999 327.2 62.0999 327.9 62.0999C328.6 62.0999 329.1 62.5999 329.1 63.2999ZM323.6 62.5999C323.6 63.1999 323 63.7999 322.4 63.7999C321.7 63.7999 321.2 63.1999 321.2 62.5999C321.2 61.9999 321.7 61.4 322.3 61.4C323 61.4 323.6 61.9999 323.6 62.5999ZM318 62.5999C318 63.2999 317.4 63.9 316.7 63.9C316 63.9 315.5 63.3 315.5 62.7C315.5 62 316 61.5 316.7 61.5C317.4 61.5 318 62 318 62.7M314.9 62.9C314.9 63.5 314.3 64.0999 313.6 64.0999C312.9 64.0999 312.4 63.6 312.4 62.9C312.4 62.2 312.9 61.7 313.6 61.7C314.3 61.7 314.9 62.2 314.9 62.9ZM320.6 59.4C320.6 60 320.1 60.4 319.6 60.4C319.453 60.43 319.301 60.4266 319.156 60.3899C319.01 60.3533 318.875 60.2845 318.76 60.1884C318.644 60.0924 318.552 59.9716 318.49 59.8352C318.428 59.6987 318.397 59.5499 318.4 59.4C318.4 58.8 318.9 58.4 319.5 58.4C320.1 58.4 320.5 58.8 320.5 59.4M320.5 54.7C320.5 55.2 320.1 55.7 319.5 55.7C319.235 55.7 318.981 55.5946 318.793 55.4071C318.605 55.2195 318.5 54.9652 318.5 54.7C318.5 54.1 318.9 53.7 319.5 53.7C320.1 53.7 320.5 54.1 320.5 54.7ZM320.5 57.2C320.5 57.8 320.1 58.2 319.5 58.2C318.9 58.2 318.5 57.8 318.5 57.2C318.5 56.7 318.9 56.2 319.5 56.2C320.1 56.2 320.5 56.6 320.5 57.2ZM311.7 63.7C311.7 64.4 311.2 64.9 310.5 64.9C309.9 64.9 309.3 64.4 309.3 63.7C309.3 63.1 309.8 62.5999 310.5 62.5999C311.2 62.5999 311.7 63.1 311.7 63.7Z"
      fill="#F0DDCB" />
    <path
      d="M318 62.5999C318 63.2999 317.4 63.9 316.7 63.9C316 63.9 315.5 63.3 315.5 62.7C315.5 62 316 61.5 316.7 61.5C317.4 61.5 318 62 318 62.7M320.6 59.4C320.6 60 320.1 60.4 319.6 60.4C319.453 60.43 319.301 60.4266 319.156 60.3899C319.01 60.3533 318.875 60.2845 318.76 60.1884C318.644 60.0924 318.552 59.9716 318.49 59.8352C318.428 59.6987 318.397 59.5499 318.4 59.4C318.4 58.8 318.9 58.4 319.5 58.4C320.1 58.4 320.5 58.8 320.5 59.4M326.4 62.5999C326.4 63.2999 325.8 63.7999 325.2 63.7999C324.5 63.7999 323.9 63.3 323.9 62.7C323.9 62 324.5 61.5 325.1 61.5C325.8 61.5 326.3 61.9999 326.4 62.5999ZM329.1 63.2999C329.1 63.8999 328.6 64.5 327.9 64.5C327.2 64.5 326.6 63.8999 326.6 63.2999C326.6 62.5999 327.2 62.0999 327.9 62.0999C328.6 62.0999 329.1 62.5999 329.1 63.2999ZM323.6 62.5999C323.6 63.1999 323 63.7999 322.4 63.7999C321.7 63.7999 321.2 63.1999 321.2 62.5999C321.2 61.9999 321.7 61.4 322.3 61.4C323 61.4 323.6 61.9999 323.6 62.5999ZM314.9 62.9C314.9 63.5 314.3 64.0999 313.6 64.0999C312.9 64.0999 312.4 63.6 312.4 62.9C312.4 62.2 312.9 61.7 313.6 61.7C314.3 61.7 314.9 62.2 314.9 62.9ZM320.5 54.7C320.5 55.2 320.1 55.7 319.5 55.7C319.235 55.7 318.981 55.5946 318.793 55.4071C318.605 55.2195 318.5 54.9652 318.5 54.7C318.5 54.1 318.9 53.7 319.5 53.7C320.1 53.7 320.5 54.1 320.5 54.7ZM320.5 57.2C320.5 57.8 320.1 58.2 319.5 58.2C318.9 58.2 318.5 57.8 318.5 57.2C318.5 56.7 318.9 56.2 319.5 56.2C320.1 56.2 320.5 56.6 320.5 57.2ZM311.7 63.7C311.7 64.4 311.2 64.9 310.5 64.9C309.9 64.9 309.3 64.4 309.3 63.7C309.3 63.1 309.8 62.5999 310.5 62.5999C311.2 62.5999 311.7 63.1 311.7 63.7Z"
      stroke="#121116" stroke-width="0.6" stroke-linejoin="round" />
    <path
      d="M320.9 62.4001C320.9 63.1001 320.3 63.6001 319.5 63.6001C319.172 63.6011 318.855 63.4779 318.614 63.2553C318.373 63.0328 318.225 62.7273 318.2 62.4001C318.2 61.7001 318.8 61.1001 319.5 61.1001C320.2 61.1001 320.8 61.7001 320.8 62.4001"
      fill="#916C68" />
    <path
      d="M320.9 62.4001C320.9 63.1001 320.3 63.6001 319.5 63.6001C319.172 63.6011 318.855 63.4779 318.614 63.2553C318.373 63.0328 318.225 62.7273 318.2 62.4001C318.2 61.7001 318.8 61.1001 319.5 61.1001C320.2 61.1001 320.8 61.7001 320.8 62.4001"
      stroke="#4D3126" stroke-width="0.6" stroke-linejoin="round" />
    <path
      d="M322 45.4999C322 46.146 321.751 46.7672 321.303 47.2332C320.856 47.6993 320.245 47.9741 319.6 47.9999C319.272 47.9999 318.946 47.9352 318.643 47.8096C318.34 47.684 318.064 47.4998 317.832 47.2677C317.6 47.0355 317.416 46.7599 317.29 46.4566C317.165 46.1533 317.1 45.8282 317.1 45.4999C317.086 45.1633 317.141 44.8274 317.261 44.5125C317.38 44.1975 317.562 43.91 317.796 43.6671C318.029 43.4243 318.31 43.2311 318.62 43.0993C318.93 42.9675 319.263 42.8996 319.6 42.8999C320.263 42.8999 320.899 43.1633 321.368 43.6321C321.837 44.101 322.1 44.7369 322.1 45.3999"
      fill="#EEEEEE" />
    <path
      d="M322 45.4999C322 46.146 321.751 46.7672 321.303 47.2332C320.856 47.6993 320.245 47.9741 319.6 47.9999C319.272 47.9999 318.946 47.9352 318.643 47.8096C318.34 47.684 318.064 47.4998 317.832 47.2677C317.6 47.0355 317.416 46.7599 317.29 46.4566C317.165 46.1533 317.1 45.8282 317.1 45.4999C317.086 45.1633 317.141 44.8274 317.261 44.5125C317.38 44.1975 317.562 43.91 317.796 43.6671C318.029 43.4243 318.31 43.2311 318.62 43.0993C318.93 42.9675 319.263 42.8996 319.6 42.8999C320.263 42.8999 320.899 43.1633 321.368 43.6321C321.837 44.101 322.1 44.7369 322.1 45.3999"
      stroke="#1E1E1E" stroke-width="1.2" stroke-linejoin="round" />
    <path fill-rule="evenodd" clip-rule="evenodd"
      d="M318.4 46.8C318.4 46.8 320.4 46.8 320.6 45.8C320.8 45.1 320.5 44 320.5 44C320.5 44 321.5 45 321.2 45.9C320.9 46.7 320.6 46.9 320 47.1C319.448 47.2083 318.875 47.1009 318.4 46.8Z"
      fill="#A3AFB8" />
    <path fill-rule="evenodd" clip-rule="evenodd"
      d="M280 130.1C280 130.1 282.2 132.2 282.8 134.1C283.4 135.9 284.3 140.9 284.3 140.9C284.3 140.9 307.5 134.4 318.9 134.9C330.3 135.5 356.6 141.2 356.6 141.2L357.6 135.5C358.1 132.5 360.3 129.2 360.3 129.2C360.3 129.2 335.2 121.4 319.3 122.2C310.093 122.279 300.929 123.454 292 125.7C287.964 127.067 283.963 128.535 280 130.1Z"
      fill="#FFCC00" stroke="black" stroke-width="0.5" />
    <path fill-rule="evenodd" clip-rule="evenodd"
      d="M314.7 36H324.7C324.7 36 322.2 37.7 321.7 39.4C321.3 40.8 321.4 43.1 321.4 43.1C321.4 43.1 324.1 43.1 325.4 42.1C326.604 41.0967 327.838 40.1297 329.1 39.2V51.9C329.1 51.9 326.6 49.6 325.1 48.8C323.995 48.2166 322.818 47.7796 321.6 47.5C321.6 47.5 321.6 49.5 322.4 50.8C323.2 52.1 326.7 56.6 326.7 56.6L312.4 57.1C312.4 57.1 315.8 53.6 317.2 51C318.1 49.3 317.7 47.5 317.7 47.5C317.7 47.5 315.3 47.5 314.1 48.4C312.8 49.2 310.7 51.7 310.7 51.7V39.5C310.7 39.5 311.7 41.9 313.7 42.8C315.7 43.7 317.5 43.2 317.5 43.2C317.5 43.2 317.9 40.8 317.1 39.2C316.3 37.7 314.5 36 314.7 36.1V36Z"
      fill="#FFCC00" stroke="black" stroke-width="1.2" />
    <path fill-rule="evenodd" clip-rule="evenodd"
      d="M313.9 76.5C313.9 76.5 306.8 76.4 300.7 72.8C294.6 69.2 288.4 65.4 279.4 67.5C277.6 68 270.8 71 267.8 80.7C266.232 87.0141 267.089 93.6865 270.2 99.4C271.834 102.034 273.709 104.512 275.8 106.8L279.5 104.3C279.5 104.3 270.2 96.3 271.3 86.1C272.3 75.8 277.5 73.4 277.5 73.4C277.5 73.4 283.9 68.4 292.4 73.1C300.285 77.3996 308.838 80.3407 317.7 81.8C318.3 81.7 313.7 76.4 313.9 76.5Z"
      fill="#FFCC00" stroke="#121116" stroke-width="1.2" />
    <path fill-rule="evenodd" clip-rule="evenodd"
      d="M274.5 115L270.7 107.6L282.1 103.2C282.1 103.2 279.3 106.8 278.7 109.4C277.9 112.6 278.2 115.3 278.2 115.3C278.2 115.3 279.2 114.5 280.5 112.4C281.5 110.9 283.1 105.1 283.1 105.1L288.2 121.4C288.2 121.4 285.6 118.8 283.7 118.5C281.7 118.1 279.1 118.8 279.1 118.8L276.1 119.8L274.5 115Z"
      fill="#FFCC00" stroke="black" stroke-width="1.2" />
    <path fill-rule="evenodd" clip-rule="evenodd"
      d="M326.7 76.3001C326.7 76.3001 333.8 76.3001 339.9 72.6001C346 69.0001 352.1 65.3001 361.2 67.4001C363 67.8001 369.8 70.8001 372.8 80.5001C374.337 86.8265 373.445 93.4996 370.3 99.2001C369.159 101.202 367.958 103.169 366.7 105.1L362.3 103.5C362.3 103.5 370.4 96.2001 369.3 85.9001C368.2 75.6001 363.1 73.2001 363.1 73.2001C363.1 73.2001 356.7 68.2001 348.2 73.0001C339.7 77.7001 331.4 79.8001 331.4 79.8001C331.4 79.8001 323.6 81.8001 322.9 81.6001C322.2 81.6001 326.9 76.2001 326.7 76.3001Z"
      fill="#FFCC00" stroke="#121116" stroke-width="1.2" />
    <path d="M323 69.3001H326V97.0001H323V69.3001ZM313 69.1001H316.5V96.8001H313V69.1001Z" fill="#FFCC00"
      stroke="#121116" stroke-width="1.2" stroke-linejoin="round" />
    <path
      d="M329.2 62.7001C329.2 67.7001 324.9 71.7 319.5 71.7C314.2 71.7 309.8 67.7001 309.8 62.7001C309.8 57.8001 314.1 53.8 319.4 53.8C324.8 53.8 329.2 57.8001 329.2 62.7001Z"
      fill="#FFCC00" stroke="#121116" stroke-width="1.2" stroke-linejoin="round" />
    <path fill-rule="evenodd" clip-rule="evenodd"
      d="M310.9 96.8001L327.6 96.6001C327.6 96.6001 325.6 97.8001 323.9 100.8C322.3 103.8 322.5 105.6 322.5 105.6C322.5 105.6 325 105.6 326.8 104.3C328.19 103.2 329.463 101.96 330.6 100.6V115.9C330.6 115.9 329.3 113.9 327.3 112.9C325.3 111.6 322.5 111.6 322.5 111.6H316.8C316.8 111.6 314.2 111.8 313.1 112.6C311.779 113.561 310.541 114.631 309.4 115.8L309.1 101.2C309.1 101.2 309.9 103.8 312.6 104.8C315.3 105.8 316.8 105.8 316.8 105.8C316.8 105.8 316.8 102.4 315.4 100.8C314.025 99.3324 312.519 97.9935 310.9 96.8001Z"
      fill="#FFCC00" stroke="black" />
    <path fill-rule="evenodd" clip-rule="evenodd"
      d="M320.2 108.8C320.2 108.8 322.6 114.5 325.5 117C327.1 118.5 332.1 119.6 334.3 119C339.3 117.7 342.9 113.7 342.9 113.7C342.9 113.7 342.7 118.1 345.9 120.6C349 123 351.5 123.6 354.1 122.9C356.8 122.2 364.1 116.7 364.1 116.7L365.7 118C365.7 118 361.4 122.2 357 124.3C354.7 125.5 347.7 124.8 345.5 123C343.2 121.2 341.9 116.9 341.9 116.9C341.9 116.9 340.5 119.7 337.5 120.7C334.5 121.7 330.5 121.7 326.6 120.5C324.1 119.7 320.7 116.2 320.1 115C319.5 113.9 319.7 113.2 319.7 113.2C319.7 113.2 317.7 118.6 313.9 120.1C310.204 121.439 306.18 121.579 302.4 120.5C298.8 119.5 298.5 117.4 298.5 117.4C298.5 117.4 298.3 123.1 290.5 124.7C282.5 126.3 276.3 120.6 276.3 120.6L277.4 118.9C277.4 118.9 281.8 123.9 288.6 123.5C295.4 123 297.6 114.3 297.6 114.3C297.6 114.3 300.6 118.8 308.6 118.9C316.5 119 318.8 108.6 318.8 108.6L320.2 108.8Z"
      fill="#F6CA1F" stroke="black" stroke-width="0.9" />
    <path fill-rule="evenodd" clip-rule="evenodd"
      d="M300.6 112.1C300.6 112.1 300.6 109.4 301.3 108.5C302.1 107.4 303.3 107.3 303.9 107.5C304.6 107.7 305.3 108.3 305.2 110.3C305.1 112.2 304.5 113.1 305.2 113.9C305.7 114.6 305.8 115.1 306.9 114.9C307.9 114.7 308.5 114.4 308.2 113.4C307.9 112.4 307.7 113.4 307.5 112.6C307.3 111.7 308.5 108 308.3 105.7C308.1 103.5 307.3 101.7 305.5 101.2C303.9 100.8 302.5 100.8 301 101.9C299.6 102.9 297.7 106.4 297.7 106.4V113.9L300.7 113.7V112.1H300.6Z"
      fill="#FFCC00" stroke="black" stroke-width="1.1" />
    <path fill-rule="evenodd" clip-rule="evenodd"
      d="M295 114.1C295 114.1 293.8 111.6 293 111.1C292.586 110.821 292.099 110.671 291.6 110.671C291.101 110.671 290.613 110.821 290.2 111.1C289.6 111.6 289.2 112.5 290.1 114.2C290.9 115.9 291.8 116.6 291.5 117.5C291.3 118.4 291.5 118.9 290.4 119.2C289.3 119.5 288.7 119.3 288.5 118.2C288.3 117.2 289.1 118.2 288.9 117.2C288.8 116.4 286.1 113.5 285.4 111.3C284.7 109.2 284.8 107.2 286.2 106.1C287.5 105.1 288.7 104.5 290.5 104.9C292.3 105.3 295.4 107.8 295.4 107.8L298.4 114.6L295.6 115.6L295 114.1Z"
      fill="#FFCC00" stroke="black" stroke-width="1.1" />
    <path fill-rule="evenodd" clip-rule="evenodd"
      d="M294.4 92.1001C294.4 92.1001 291.4 97.1001 292.1 100.9C292.8 104.7 296.7 112.9 296.7 112.9V113.9L298.9 113.7L298.4 112.6C298.4 112.6 299.4 102.8 298.8 99.7001C297.678 96.9821 296.199 94.4261 294.4 92.1001ZM299.1 114.8C299.1 114.8 300.6 116.5 302.3 117.4C304.3 118.3 305.1 118.4 305.8 117.7C306.4 117.3 306.2 115.5 305.5 115C304.9 114.5 304.1 114.8 304 115.3C303.8 116.1 303.6 116.1 303 115.7C302 115.3 300 114 300 114L299.1 114.8ZM296.8 115.2C296.8 115.2 296.2 117.4 295 118.9C293.6 120.5 292.9 120.9 292 120.6C291.3 120.5 290.7 118.8 291.1 118C291.5 117.3 292.3 117.2 292.6 117.6C293.1 118.3 293.3 118.2 293.7 117.6L295.7 114.9L296.8 115.1V115.2Z"
      fill="#FFCC00" stroke="black" stroke-width="1.1" />
    <path
      d="M302.4 113.4C302.6 114 300.6 114.9 298.1 115.3C295.6 115.7 293.5 115.6 293.3 114.9C293.3 114.3 295.2 113.4 297.7 112.9C300.2 112.5 302.3 112.7 302.4 113.4Z"
      fill="#FFCC00" stroke="black" stroke-width="1.1" stroke-linejoin="round" />
    <path fill-rule="evenodd" clip-rule="evenodd"
      d="M345.6 113.2C345.6 113.2 346.6 110.7 347.6 110.1C348.7 109.3 349.8 109.6 350.3 110.1C350.9 110.4 351.3 111.3 350.6 113.1C349.8 114.8 349 115.5 349.2 116.4C349.5 117.4 349.4 117.8 350.5 118C351.6 118.3 352.2 118.1 352.3 117C352.4 116 351.8 117 351.9 116C351.9 115.2 354.5 112.1 355.1 110C355.7 107.7 355.5 105.8 354.1 104.7C352.7 103.7 351.4 103.3 349.6 103.8C347.9 104.3 344.9 106.9 344.9 106.9L342.3 113.9L345.2 114.8L345.6 113.2Z"
      fill="#FFCC00" stroke="black" stroke-width="1.1" />
    <path fill-rule="evenodd" clip-rule="evenodd"
      d="M339.7 113.1C339.7 113.1 339.5 110.4 338.8 109.6C337.9 108.5 336.8 108.5 336.2 108.6C335.5 108.9 334.8 109.6 335 111.5C335.2 113.5 335.8 114.3 335.3 115.1C334.7 115.9 334.7 116.3 333.6 116.2C332.5 116.2 331.9 115.8 332.1 114.8C332.3 113.8 332.7 114.8 332.9 113.9C333 113.1 331.6 109.4 331.7 107.1C331.7 104.9 332.5 103.1 334.2 102.5C335.8 102 337.2 101.9 338.7 103C340.2 104 342.3 107.3 342.3 107.3L342.7 114.7H339.7V113.1Z"
      fill="#FFCC00" stroke="black" stroke-width="1.1" />
    <path fill-rule="evenodd" clip-rule="evenodd"
      d="M346.8 92.3C346.8 92.3 342.3 95.9 341.6 99.7C340.9 103.5 341.7 112.5 341.7 112.5L341.4 113.5L343.4 114.1V112.9C343.4 112.9 347.8 104.1 348.3 100.9C348.195 97.9783 347.691 95.0847 346.8 92.3ZM343.3 115.2C343.3 115.2 344.1 117.3 345.4 118.7C346.9 120.3 347.6 120.6 348.5 120.3C349.2 120.1 349.6 118.3 349.2 117.7C348.8 117 348 117 347.7 117.4C347.2 118.1 347 117.9 346.6 117.4C345.848 116.55 345.114 115.683 344.4 114.8L343.3 115.2ZM341 114.7C341 114.7 339.7 116.6 338 117.5C336.1 118.6 335.3 118.7 334.5 118.1C333.9 117.8 334 116 334.6 115.4C335.3 114.9 336 115.1 336.2 115.6C336.4 116.4 336.7 116.3 337.2 116L340 114L341 114.7Z"
      fill="#FFCC00" stroke="black" stroke-width="1.1" />
    <path
      d="M346.9 115C346.8 115.7 344.6 115.8 342.1 115.3C339.6 114.8 337.7 113.9 337.8 113.3C337.9 112.6 340.1 112.5 342.6 113C345.1 113.5 347 114.4 346.9 115Z"
      fill="#FFCC00" stroke="black" stroke-width="1.1" stroke-linejoin="round" />
    <path fill-rule="evenodd" clip-rule="evenodd"
      d="M279 129.9C279 129.9 279.6 131.9 280.7 130.9C281.9 129.8 298 123.4 320.7 123.4C343.4 123.4 358.2 129.7 359.1 130.1C360 130.4 360.4 130.9 361.1 130.1C361.9 129.1 360.4 127.8 360.4 127.8C360.4 127.8 344.6 121.1 320 121.2C295.3 121.3 279.4 128.3 279.4 128.3C279.4 128.3 278.4 129.1 279.1 129.9H279Z"
      fill="#CCA715" stroke="black" stroke-width="0.5" />
    <path fill-rule="evenodd" clip-rule="evenodd"
      d="M307.9 139.3C307.9 139.3 308.6 137.3 309.9 136.9C310.9 136.6 312.4 137.6 312.4 137.6C312.4 137.6 310.5 137.4 309.9 137.8C309.4 138.1 309.2 139 309.2 139C309.2 139 309.6 138.2 311.1 138.3H312.7C312.7 138.3 310.2 138.6 309.7 139.3C309.1 140 312 140.3 312 140.3C312 140.3 307.5 140.3 307 140.1C306.4 139.8 306 138.9 305 139.1C304 139.5 303 140.4 303 140.4C303 140.4 304.1 138.4 304.8 138.4C305.5 138.4 306 138.4 306.6 138.7L307.9 139.3ZM291.1 142.9C291.1 142.9 291.4 140.9 292.6 140.2C293.6 139.7 295.3 140.4 295.3 140.4C295.3 140.4 293.3 140.6 292.8 141C292.4 141.4 292.4 142.4 292.4 142.4C292.4 142.4 292.7 141.6 294.1 141.4C294.635 141.306 295.168 141.206 295.7 141.1C295.7 141.1 293.3 141.8 292.9 142.6C292.4 143.4 295.4 143.2 295.4 143.2C295.4 143.2 291 144 290.4 143.9C289.7 143.7 289.2 142.9 288.3 143.4C287.3 143.8 286.5 144.9 286.5 144.9C286.5 144.9 287.3 142.8 288 142.6C288.7 142.5 289 142.4 289.8 142.6L291.1 142.9ZM322 138.6C322 138.6 322.8 136.6 324 136.3C325.1 136 326.7 137.1 326.7 137.1C326.7 137.1 324.7 136.8 324.1 137.1C323.6 137.4 323.4 138.3 323.4 138.3C323.4 138.3 323.8 137.6 325.3 137.8L326.9 137.9C326.9 137.9 324.4 137.9 323.8 138.7C323.2 139.3 326.1 139.8 326.1 139.8C326.1 139.8 321.6 139.6 321.1 139.3C320.5 139 320.1 138.1 319.1 138.3C318.1 138.5 317.1 139.3 317.1 139.3C317.1 139.3 318.3 137.5 319 137.5C319.7 137.5 320.1 137.5 320.8 137.9L322 138.6ZM336.1 140.2C336.1 140.2 337.1 138.3 338.5 138.2C339.5 138 340.9 139.2 340.9 139.2C340.9 139.2 339.1 138.8 338.4 139C337.8 139.2 337.5 140 337.5 140C337.5 140 338 139.4 339.5 139.7L341.1 140.1C341.1 140.1 338.6 139.9 337.9 140.5C337.2 141.1 340 141.9 340 141.9C340 141.9 335.6 141.1 335 140.8C334.6 140.4 334.3 139.4 333.3 139.5C332.3 139.6 331.1 140.3 331.1 140.3C331.1 140.3 332.6 138.7 333.3 138.8C334 138.8 334.4 138.9 335 139.3L336.1 140.2ZM350.1 142.7C350.1 142.7 351.1 141.3 352.2 141.2C353.1 141.2 354.1 142.3 354.1 142.3C354.1 142.3 352.6 141.8 352.1 141.9C351.6 142 351.3 142.7 351.3 142.7C351.3 142.7 351.8 142.2 352.9 142.6L354.2 143C354.2 143 352.2 142.6 351.6 143C351 143.5 353.2 144.4 353.2 144.4C353.2 144.4 349.7 143.4 349.2 143.1C348.9 142.8 348.8 142 348 142C347.1 142 346.1 142.5 346.1 142.5C346.1 142.5 347.4 141.2 348 141.4C348.5 141.4 348.9 141.6 349.3 141.9L350.2 142.7H350.1Z"
      fill="black" />
    <path
      d="M305 129.7C305.4 131.4 303.4 133.2 300.6 133.7C297.8 134.3 295.3 133.4 295 131.7C294.7 130.1 296.6 128.3 299.4 127.7C302.2 127.1 304.7 128 305 129.7Z"
      fill="#0F6545" stroke="black" stroke-width="0.7" stroke-linejoin="round" />
    <path
      d="M298.8 129.4C298.8 129.8 298.4 130.3 297.8 130.4C297.2 130.5 296.6 130.3 296.5 129.9C296.5 129.5 296.9 129.1 297.5 128.9C298.1 128.9 298.7 129 298.8 129.4Z"
      fill="#CECFC1" />
    <path
      d="M344.1 131.8C343.6 133.4 341.1 134 338.3 133.2C335.6 132.3 333.9 130.3 334.3 128.7C334.9 127.1 337.5 126.4 340.2 127.3C342.9 128.1 344.7 130.1 344.2 131.7L344.1 131.8Z"
      fill="#0F6545" stroke="black" stroke-width="0.7" stroke-linejoin="round" />
    <path
      d="M338.8 128.5C338.6 128.9 338.1 129.1 337.5 128.9C336.9 128.7 336.5 128.2 336.6 127.9C336.7 127.4 337.3 127.3 337.9 127.4C338.5 127.6 338.9 128.1 338.8 128.4V128.5Z"
      fill="#CECFC1" />
    <path d="M314.6 126H324.7V131H314.6V126Z" fill="#1F2D86" stroke="black" stroke-linejoin="round" />
    <path
      d="M318.9 127C318.9 127.3 318.5 127.5 317.9 127.5C317.3 127.5 316.9 127.3 316.9 127C316.9 126.8 317.4 126.6 317.9 126.6C318.4 126.6 318.9 126.8 318.9 127Z"
      fill="#707C8B" />
    <path fill-rule="evenodd" clip-rule="evenodd"
      d="M286 131L287.6 136L284.6 137.7C284.6 137.7 283.1 138.7 281.6 137.9C280.2 137.2 279.4 134.9 280.2 133.9C281.7 132.1 285.9 130.9 285.9 131H286Z"
      fill="#9F1209" stroke="black" stroke-width="0.5" />
    <path
      d="M283.4 134.6C283.4 135.4 282.7 136.1 281.9 136.1C281.1 136.1 280.5 135.4 280.5 134.6C280.5 133.7 281.1 133.1 281.9 133.1C282.7 133.1 283.4 133.7 283.4 134.6Z"
      fill="#8F322F" />
    <path
      d="M282 134C282.024 134.124 282.019 134.252 281.984 134.374C281.95 134.496 281.886 134.608 281.8 134.7C281.729 134.757 281.641 134.788 281.55 134.788C281.459 134.788 281.371 134.757 281.3 134.7C281.203 134.649 281.117 134.578 281.048 134.492C280.979 134.406 280.929 134.306 280.9 134.2C280.876 134.076 280.881 133.948 280.916 133.826C280.951 133.704 281.014 133.593 281.1 133.5C281.159 133.428 281.241 133.378 281.332 133.36C281.423 133.342 281.518 133.356 281.6 133.4C281.8 133.4 282 133.7 282 134Z"
      fill="#E2A494" />
    <path fill-rule="evenodd" clip-rule="evenodd"
      d="M353.9 131.7L352.2 136.1L356.2 138.1C356.2 138.1 357.9 138.9 359 138C360 137.2 360.2 135.2 359.4 134.3C358.7 133.3 353.8 131.7 353.9 131.7Z"
      fill="#9F1209" stroke="black" stroke-width="0.5" />
    <path
      d="M358.6 135.2C358.6 135.8 358 136.2 357.3 136.2C356.6 136.2 356.1 135.8 356.1 135.2C356.1 134.6 356.7 134.2 357.3 134.2C358 134.2 358.6 134.7 358.6 135.2Z"
      fill="#AA675D" />
    <path
      d="M357.4 135C357.4 135.3 357.3 135.6 357.1 135.7C357.013 135.765 356.908 135.8 356.8 135.8C356.692 135.8 356.586 135.765 356.5 135.7C356.409 135.628 356.336 135.536 356.284 135.433C356.232 135.329 356.204 135.216 356.2 135.1C356.2 134.8 356.3 134.6 356.5 134.5C356.586 134.435 356.692 134.4 356.8 134.4C356.908 134.4 357.013 134.435 357.1 134.5C357.3 134.5 357.4 134.8 357.4 135.1V135Z"
      fill="#E2A494" />
    <path
      d="M328.6 126.4C328.601 126.501 328.58 126.601 328.539 126.693C328.498 126.785 328.437 126.867 328.361 126.934C328.285 127 328.196 127.05 328.099 127.078C328.002 127.107 327.9 127.114 327.8 127.1C327.614 127.1 327.436 127.026 327.305 126.895C327.174 126.764 327.1 126.586 327.1 126.4C327.1 126.214 327.174 126.036 327.305 125.905C327.436 125.774 327.614 125.7 327.8 125.7C328.2 125.7 328.6 126 328.6 126.4ZM332.9 126.6C332.9 126.692 332.882 126.783 332.847 126.868C332.812 126.953 332.76 127.03 332.695 127.095C332.63 127.16 332.553 127.211 332.468 127.247C332.383 127.282 332.292 127.3 332.2 127.3C332.1 127.314 331.998 127.307 331.901 127.278C331.805 127.25 331.715 127.2 331.639 127.134C331.563 127.067 331.502 126.985 331.461 126.893C331.42 126.801 331.399 126.701 331.4 126.6C331.412 126.508 331.443 126.419 331.49 126.338C331.537 126.258 331.599 126.188 331.674 126.132C331.748 126.076 331.833 126.036 331.924 126.013C332.014 125.99 332.108 125.986 332.2 126C332.5 126 332.9 126.2 332.9 126.6ZM330.7 128.3C330.7 128.8 330.3 129.2 329.7 129.2C329.1 129.2 328.9 128.8 328.9 128.3C328.9 127.8 329.3 127.4 329.8 127.4C330.3 127.4 330.7 127.8 330.7 128.4V128.3ZM332.7 131.1C332.702 131.27 332.642 131.434 332.532 131.563C332.421 131.691 332.268 131.776 332.1 131.8C332 131.814 331.898 131.807 331.801 131.778C331.705 131.75 331.615 131.7 331.539 131.634C331.463 131.567 331.402 131.485 331.361 131.393C331.32 131.301 331.299 131.201 331.3 131.1C331.3 130.914 331.374 130.736 331.505 130.605C331.636 130.474 331.814 130.4 332 130.4C332.5 130.4 332.8 130.7 332.8 131.1H332.7ZM328.6 130.6C328.6 130.786 328.526 130.964 328.395 131.095C328.264 131.226 328.086 131.3 327.9 131.3C327.714 131.3 327.536 131.226 327.405 131.095C327.274 130.964 327.2 130.786 327.2 130.6C327.2 130.414 327.274 130.236 327.405 130.105C327.536 129.974 327.714 129.9 327.9 129.9C328.3 129.9 328.6 130.2 328.6 130.6ZM307.7 127.1C307.731 127.272 307.698 127.449 307.605 127.597C307.513 127.745 307.368 127.853 307.2 127.9C307.108 127.93 307.011 127.941 306.915 127.932C306.818 127.923 306.725 127.894 306.64 127.847C306.556 127.8 306.482 127.736 306.423 127.659C306.365 127.582 306.323 127.494 306.3 127.4C306.286 127.308 306.29 127.214 306.313 127.124C306.336 127.033 306.376 126.948 306.432 126.874C306.488 126.799 306.558 126.737 306.638 126.69C306.719 126.643 306.808 126.612 306.9 126.6C307.072 126.569 307.249 126.602 307.397 126.695C307.545 126.787 307.653 126.932 307.7 127.1ZM312 126.4C312.014 126.492 312.01 126.586 311.987 126.676C311.964 126.767 311.924 126.852 311.868 126.926C311.812 127.001 311.742 127.063 311.662 127.11C311.581 127.157 311.492 127.188 311.4 127.2C311.228 127.231 311.051 127.197 310.903 127.105C310.755 127.012 310.647 126.868 310.6 126.7C310.569 126.528 310.602 126.351 310.695 126.203C310.787 126.055 310.932 125.947 311.1 125.9C311.192 125.87 311.289 125.859 311.385 125.868C311.482 125.877 311.575 125.906 311.66 125.953C311.744 126 311.818 126.064 311.877 126.141C311.935 126.218 311.977 126.306 312 126.4ZM310.2 128.5C310.3 129 310 129.5 309.6 129.5C309.375 129.562 309.134 129.535 308.928 129.423C308.723 129.311 308.569 129.123 308.5 128.9C308.4 128.5 308.7 127.9 309.2 127.9C309.411 127.865 309.627 127.906 309.81 128.016C309.994 128.126 310.132 128.298 310.2 128.5ZM312.9 130.8C312.931 130.972 312.898 131.149 312.805 131.297C312.713 131.445 312.568 131.553 312.4 131.6C312.308 131.63 312.211 131.641 312.115 131.632C312.018 131.623 311.925 131.594 311.84 131.547C311.756 131.5 311.682 131.436 311.623 131.359C311.565 131.282 311.523 131.194 311.5 131.1C311.469 130.928 311.503 130.751 311.595 130.603C311.688 130.455 311.832 130.347 312 130.3C312.092 130.27 312.189 130.259 312.285 130.268C312.382 130.277 312.475 130.306 312.56 130.353C312.644 130.4 312.718 130.464 312.777 130.541C312.835 130.618 312.877 130.706 312.9 130.8ZM308.7 131.2C308.731 131.372 308.698 131.549 308.605 131.697C308.513 131.845 308.368 131.953 308.2 132C308.108 132.03 308.011 132.041 307.915 132.032C307.818 132.023 307.725 131.994 307.64 131.947C307.556 131.9 307.482 131.836 307.423 131.759C307.365 131.682 307.323 131.594 307.3 131.5C307.286 131.408 307.29 131.314 307.313 131.224C307.336 131.133 307.376 131.048 307.432 130.974C307.488 130.899 307.558 130.837 307.638 130.79C307.719 130.743 307.808 130.712 307.9 130.7C308.072 130.669 308.249 130.702 308.397 130.795C308.545 130.887 308.653 131.032 308.7 131.2ZM289.5 131C289.549 131.09 289.578 131.19 289.584 131.293C289.59 131.396 289.573 131.498 289.535 131.594C289.497 131.689 289.438 131.775 289.363 131.845C289.288 131.916 289.198 131.968 289.1 132C288.928 132.065 288.736 132.06 288.568 131.985C288.399 131.91 288.267 131.772 288.2 131.6C288.151 131.51 288.122 131.41 288.116 131.307C288.11 131.204 288.127 131.102 288.165 131.006C288.203 130.911 288.262 130.825 288.337 130.755C288.413 130.684 288.502 130.632 288.6 130.6C288.69 130.551 288.79 130.522 288.893 130.516C288.996 130.51 289.098 130.527 289.194 130.565C289.289 130.603 289.375 130.662 289.445 130.737C289.516 130.812 289.568 130.902 289.6 131H289.5ZM293.6 129.7C293.649 129.79 293.678 129.89 293.684 129.993C293.69 130.096 293.673 130.198 293.635 130.294C293.597 130.389 293.538 130.475 293.463 130.545C293.388 130.616 293.298 130.668 293.2 130.7C293.108 130.73 293.011 130.741 292.915 130.732C292.818 130.723 292.725 130.694 292.64 130.647C292.556 130.6 292.482 130.536 292.423 130.459C292.365 130.382 292.323 130.294 292.3 130.2C292.235 130.027 292.24 129.836 292.315 129.668C292.39 129.499 292.528 129.367 292.7 129.3C292.79 129.251 292.89 129.222 292.993 129.216C293.096 129.21 293.198 129.227 293.294 129.265C293.389 129.303 293.475 129.362 293.545 129.437C293.616 129.512 293.668 129.602 293.7 129.7H293.6ZM292.2 132.1C292.242 132.299 292.215 132.505 292.124 132.687C292.033 132.869 291.884 133.014 291.7 133.1C291.499 133.175 291.278 133.177 291.076 133.103C290.874 133.03 290.706 132.887 290.6 132.7C290.532 132.487 290.546 132.257 290.638 132.054C290.73 131.85 290.895 131.689 291.1 131.6C291.313 131.532 291.543 131.546 291.746 131.638C291.95 131.73 292.111 131.895 292.2 132.1ZM295.2 133.9C295.249 133.99 295.278 134.09 295.284 134.193C295.29 134.296 295.273 134.398 295.235 134.494C295.197 134.589 295.138 134.675 295.063 134.745C294.988 134.816 294.898 134.868 294.8 134.9C294.4 134.9 294 134.8 293.8 134.4C293.6 134 293.9 133.7 294.3 133.5C294.472 133.435 294.664 133.44 294.832 133.515C295.001 133.59 295.133 133.728 295.2 133.9ZM291.1 134.9C291.149 134.99 291.178 135.09 291.184 135.193C291.19 135.296 291.173 135.398 291.135 135.494C291.097 135.589 291.038 135.675 290.963 135.745C290.888 135.816 290.798 135.868 290.7 135.9C290.61 135.949 290.51 135.978 290.407 135.984C290.304 135.99 290.202 135.973 290.106 135.935C290.011 135.896 289.925 135.838 289.855 135.763C289.784 135.687 289.732 135.598 289.7 135.5C289.652 135.403 289.627 135.296 289.627 135.188C289.627 135.079 289.652 134.972 289.701 134.875C289.749 134.778 289.82 134.694 289.906 134.629C289.993 134.564 290.093 134.52 290.2 134.5C290.29 134.451 290.39 134.422 290.493 134.416C290.596 134.41 290.698 134.427 290.794 134.465C290.889 134.503 290.975 134.562 291.045 134.637C291.116 134.712 291.168 134.802 291.2 134.9H291.1ZM347.3 129.1C347.2 129.5 346.8 129.7 346.3 129.6C346.103 129.532 345.94 129.389 345.846 129.202C345.753 129.015 345.736 128.799 345.8 128.6C345.8 128.3 346.3 128.1 346.8 128.2C347.1 128.2 347.4 128.7 347.3 129.1ZM351.7 130.4C351.7 130.8 351.2 131.1 350.8 131C350.693 130.977 350.592 130.932 350.504 130.868C350.415 130.805 350.34 130.723 350.284 130.63C350.227 130.536 350.191 130.432 350.177 130.324C350.162 130.215 350.17 130.105 350.2 130C350.3 129.7 350.7 129.4 351.2 129.5C351.6 129.6 351.8 130 351.7 130.5V130.4ZM349 131.6C348.931 131.829 348.782 132.025 348.58 132.154C348.378 132.282 348.137 132.334 347.9 132.3C347.653 132.251 347.433 132.111 347.284 131.907C347.136 131.703 347.07 131.45 347.1 131.2C347.17 130.951 347.335 130.738 347.559 130.608C347.782 130.477 348.048 130.438 348.3 130.5C348.8 130.6 349.1 131.1 349 131.6ZM350.5 135.1C350.4 135.5 350 135.7 349.5 135.6C349.324 135.533 349.177 135.406 349.086 135.241C348.995 135.076 348.964 134.885 349 134.7C349 134.3 349.5 134.1 349.9 134.2C350.3 134.3 350.6 134.7 350.5 135.2V135.1ZM346.2 133.5C346.2 133.9 345.7 134.1 345.3 134C345.124 133.933 344.977 133.806 344.886 133.641C344.795 133.476 344.764 133.285 344.8 133.1C344.8 132.7 345.3 132.5 345.7 132.6C346.1 132.6 346.3 133.1 346.2 133.5Z"
      fill="#F5D8BC" />
    <path
      d="M356 89C356 89 354 90.9 351.5 90.9C349.825 90.9345 348.192 90.3668 346.9 89.3C346.1 88.8 347.1 87.3 347.1 87.3"
      stroke="black" stroke-width="1.2" />
    <path
      d="M312.9 92.8001C312.9 92.8001 309.2 92.1001 307.6 91.6001C306.1 91.1001 306.5 90.1001 304.6 90.2001C302.9 90.3001 301.1 91.6001 301.5 93.4001C301.9 95.2001 303.2 95.4001 304.5 95.1001C305.7 94.7001 305.3 92.5001 303.7 92.7001C302 92.7001 303.4 94.2001 303.4 94.2001"
      stroke="black" stroke-width="1.1" />
    <path
      d="M287.3 89.9999C287.3 89.9999 288.3 91.4999 291 91.1999C293.7 90.9999 294.7 89.5999 294.8 88.8999C295 88.2999 294.8 87.0999 294.3 86.5999C293.8 86.0999 292 85.8999 292 85.8999"
      stroke="black" />
    <path
      d="M339.2 270.4C341.7 267.9 345.7 265.2 347.9 259.4C349.9 253.8 350.9 243.7 352.9 238.6C355.4 229.8 360.4 221.2 354.4 221.8C348.7 222.4 346.9 227.8 344.8 231.8C343.8 233.3 341.5 236.5 341.1 238.3C341 235.3 339.4 226.4 339.1 217.5C338.8 209.1 339.1 200.5 338.8 197.2C338.6 192.9 338.6 188.9 337.6 185.8C337.1 184.3 335 182.8 333.8 182.9C331.6 182.9 330.2 184.9 329.8 186.8L329.6 189.6C329.4 192 329.6 195.1 329.4 197.9C329.3 200.9 329.6 204.1 329.4 206.9C329.2 212.3 328.8 217.4 328.6 218.4C328.6 216.4 327.6 206.7 327.3 197.5L327.1 187.5C327.1 184.9 327.1 182.1 326.9 180.1C326.4 176.7 325.3 175.1 322.9 175.1C321.1 175.1 318.7 176.4 317.9 180.1C317.6 182.2 317.5 184.7 317.6 187.5L317.8 195.5C317.6 206 317.4 217 317 220.3C317 219.3 315.9 213.8 315.6 206.4L315.2 196.8L314.9 187.2C314.9 185.6 314.2 181 311.2 181.2C309.5 181 307.8 182.2 307.2 186.5C306.8 189 306.8 193.1 306.7 196.4C306.6 202.4 306.3 207.8 306.7 213.3L306.8 221C306.8 221.4 305.9 218.1 305.5 213.6L304.7 205C304.7 202.7 304.6 199.3 304.4 196.5C304.2 194.4 304.3 192 301.9 192.2C299.5 192.3 298.1 193.2 297.6 197.2C297.2 199.9 297.2 205.7 297.1 207.7C297.3 213 295.9 225.4 295.3 228.9C295.1 231.4 294.1 234.6 293.7 238.1C293.014 244.978 293.351 251.92 294.7 258.7C296.7 265.7 301.7 268.9 301.5 273.7C301.2 278.5 301.5 287 301.5 290.7C301.5 294.5 304.8 294.7 311.5 293.3C322.7 290.9 328.8 295.7 337.9 292.1C336.8 281.7 339 275.4 338.9 271.6L339.2 270.4ZM332.7 245.7C335 239.3 337.9 236.8 340.7 235.5Z"
      fill="#CC0000" />
    <path
      d="M332.7 245.7C335 239.3 337.9 236.8 340.7 235.5M339.2 270.4C341.7 267.9 345.7 265.2 347.9 259.4C349.9 253.8 350.9 243.7 352.9 238.6C355.4 229.8 360.4 221.2 354.4 221.8C348.7 222.4 346.9 227.8 344.8 231.8C343.8 233.3 341.5 236.5 341.1 238.3C341 235.3 339.4 226.4 339.1 217.5C338.8 209.1 339.1 200.5 338.8 197.2C338.6 192.9 338.6 188.9 337.6 185.8C337.1 184.3 335 182.8 333.8 182.9C331.6 182.9 330.2 184.9 329.8 186.8L329.6 189.6C329.4 192 329.6 195.1 329.4 197.9C329.3 200.9 329.6 204.1 329.4 206.9C329.2 212.3 328.8 217.4 328.6 218.4C328.6 216.4 327.6 206.7 327.3 197.5L327.1 187.5C327.1 184.9 327.1 182.1 326.9 180.1C326.4 176.7 325.3 175.1 322.9 175.1C321.1 175.1 318.7 176.4 317.9 180.1C317.6 182.2 317.5 184.7 317.6 187.5L317.8 195.5C317.6 206 317.4 217 317 220.3C317 219.3 315.9 213.8 315.6 206.4L315.2 196.8L314.9 187.2C314.9 185.6 314.2 181 311.2 181.2C309.5 181 307.8 182.2 307.2 186.5C306.8 189 306.8 193.1 306.7 196.4C306.6 202.4 306.3 207.8 306.7 213.3L306.8 221C306.8 221.4 305.9 218.1 305.5 213.6L304.7 205C304.7 202.7 304.6 199.3 304.4 196.5C304.2 194.4 304.3 192 301.9 192.2C299.5 192.3 298.1 193.2 297.6 197.2C297.2 199.9 297.2 205.7 297.1 207.7C297.3 213 295.9 225.4 295.3 228.9C295.1 231.4 294.1 234.6 293.7 238.1C293.014 244.978 293.351 251.92 294.7 258.7C296.7 265.7 301.7 268.9 301.5 273.7C301.2 278.5 301.5 287 301.5 290.7C301.5 294.5 304.8 294.7 311.5 293.3C322.7 290.9 328.8 295.7 337.9 292.1C336.8 281.7 339 275.4 338.9 271.6L339.2 270.4Z"
      stroke="#161111" stroke-width="1.6" />
    <path
      d="M307.4 239.2C310.9 237.8 314.4 236.8 318 235.6C322.3 234.4 326.5 232.6 331 232C333 231.5 335.2 231 337.4 231M301.3 273C301.7 272.7 302.3 273.2 302.7 273.3C303.3 273.5 304 273.7 304.7 273.6C306.033 273.575 307.367 273.575 308.7 273.6C310.4 273.6 311.7 273.4 313 272.6M323 273.2L324.6 274.1C325.4 274.4 326.4 274.5 331.9 274.1C335.4 274.3 338.4 271.3 339.3 270.5"
      stroke="#161111" stroke-width="1.6" />
  </g>
  <defs>
    <clipPath id="clip0_10_11398">
      <rect width="640" height="480" fill="white" />
    </clipPath>
  </defs>
</svg>
