<svg viewBox="0 0 640 480" id="flag-icons-gi" xmlns="http://www.w3.org/2000/svg">
  <g clip-path="url(#clip0_10_11177)">
  <path d="M0 0H640V480H0V0Z" fill="#DA000C"/>
  <path d="M0 0H640V321.6H0V0Z" fill="white"/>
  <path d="M208.625 218.062H328.625V300.562H208.625V218.062Z" fill="black"/>
  <path d="M270.875 288.562H197.75L181.438 299.25V310.5H270.875M240.312 241.125C250.812 241.125 259.437 249.938 259.437 260.813V288.375H273.125V183.375H197.562V288.375H221.187V260.813C221.187 250.313 229.625 241.125 240.312 241.125Z" fill="#DA000C"/>
  <path d="M270.875 288.562H197.75L181.438 299.25V310.5H270.875M240.312 241.125C250.812 241.125 259.437 249.938 259.437 260.813V288.375H273.125V183.375H197.562V288.375H221.187V260.813C221.187 250.313 229.625 241.125 240.312 241.125Z" stroke="black" stroke-width="1.875" stroke-linecap="square"/>
  <path d="M223.438 112.5H258.313V176.25H223.438V112.5Z" fill="black"/>
  <path d="M258.125 166.312H227.75V155.438H205.437V166.312H190.437V155.438H181.25V174.938H258.125M190.25 174.938H255.875V183.375H190.25V174.938ZM216.5 89.25V155.625H227.75V137.438C227.75 130.688 232.437 125.062 239.187 124.687H239.938C241.612 124.687 243.27 125.017 244.817 125.658C246.364 126.299 247.769 127.238 248.953 128.422C250.137 129.606 251.076 131.011 251.717 132.558C252.358 134.105 252.688 135.763 252.688 137.438V155.625H263.375V89.25H216.5ZM212.188 80.25V89.25H267.125V80.25H212.188ZM205.25 63.1875V80.25H270.875V63.1875H260.938V72H248.562V63.1875H229.812V72H217.625V63.1875H205.25ZM181.25 299.25H271.25ZM329.375 294H268.625L250.25 302.813V315.938H329.375" fill="#DA000C"/>
  <path d="M258.125 166.312H227.75V155.438H205.437V166.312H190.437V155.438H181.25V174.938H258.125M181.25 299.25H271.25M329.375 294H268.625L250.25 302.813V315.938H329.375M190.25 174.938H255.875V183.375H190.25V174.938ZM216.5 89.25V155.625H227.75V137.438C227.75 130.688 232.437 125.062 239.187 124.687H239.938C241.612 124.687 243.27 125.017 244.817 125.658C246.364 126.299 247.769 127.238 248.953 128.422C250.137 129.606 251.076 131.011 251.717 132.558C252.358 134.105 252.688 135.763 252.688 137.438V155.625H263.375V89.25H216.5ZM212.188 80.25V89.25H267.125V80.25H212.188ZM205.25 63.1875V80.25H270.875V63.1875H260.938V72H248.562V63.1875H229.812V72H217.625V63.1875H205.25Z" stroke="black" stroke-width="1.875" stroke-linecap="square"/>
  <path d="M250.25 302.812H331.25Z" fill="#DA000C"/>
  <path d="M250.25 302.812H331.25" stroke="black" stroke-width="1.875"/>
  <path d="M431.375 218.062H311.375V300.562H431.375V218.062Z" fill="black"/>
  <path d="M369.125 288.562H442.25L458.562 299.25V310.5H369.125M399.688 241.125C389.188 241.125 380.563 249.938 380.563 260.813V288.375H366.875V183.375H442.438V288.375H418.813V260.813C418.813 250.313 410.375 241.125 399.688 241.125Z" fill="#DA000C"/>
  <path d="M369.125 288.562H442.25L458.562 299.25V310.5H369.125M399.688 241.125C389.188 241.125 380.563 249.938 380.563 260.813V288.375H366.875V183.375H442.438V288.375H418.813V260.813C418.813 250.313 410.375 241.125 399.688 241.125Z" stroke="black" stroke-width="1.875" stroke-linecap="square"/>
  <path d="M416.562 112.5H381.687V176.25H416.562V112.5Z" fill="black"/>
  <path d="M381.875 166.312H412.25V155.438H434.563V166.312H449.563V155.438H458.75V174.938H381.875M449.75 174.938H384.125V183.375H449.75V174.938ZM423.5 89.25V155.625H412.25V137.438C412.25 130.688 407.563 125.062 400.813 124.687H400.062C398.388 124.687 396.73 125.017 395.183 125.658C393.636 126.299 392.231 127.238 391.047 128.422C389.863 129.606 388.924 131.011 388.283 132.558C387.642 134.105 387.312 135.763 387.312 137.438V155.625H376.625V89.25H423.5ZM427.812 80.25V89.25H372.875V80.25H427.812ZM434.75 63.1875V80.25H369.125V63.1875H379.062V72H391.438V63.1875H410.188V72H422.375V63.1875H434.75ZM458.75 299.25H368.75ZM310.625 294H371.375L389.75 302.813V315.938H310.625" fill="#DA000C"/>
  <path d="M381.875 166.312H412.25V155.438H434.563V166.312H449.563V155.438H458.75V174.938H381.875M458.75 299.25H368.75M310.625 294H371.375L389.75 302.813V315.938H310.625M449.75 174.938H384.125V183.375H449.75V174.938ZM423.5 89.25V155.625H412.25V137.438C412.25 130.688 407.563 125.062 400.813 124.687H400.062C398.388 124.687 396.73 125.017 395.183 125.658C393.636 126.299 392.231 127.238 391.047 128.422C389.863 129.606 388.924 131.011 388.283 132.558C387.642 134.105 387.312 135.763 387.312 137.438V155.625H376.625V89.25H423.5ZM427.812 80.25V89.25H372.875V80.25H427.812ZM434.75 63.1875V80.25H369.125V63.1875H379.062V72H391.438V63.1875H410.188V72H422.375V63.1875H434.75Z" stroke="black" stroke-width="1.875" stroke-linecap="square"/>
  <path d="M389.75 302.812H308.75Z" fill="#DA000C"/>
  <path d="M389.75 302.812H308.75" stroke="black" stroke-width="1.875"/>
  <path d="M352.437 281.25C347.375 283.125 343.062 285.75 338.375 288.375C332.542 291.707 326.964 295.467 321.687 299.625C319.812 300.938 317.937 302.25 316.625 304.125C314.75 305.625 312.875 307.875 313.25 310.687C313.25 311.812 314.75 309.188 315.875 309C317.655 308.047 319.723 307.78 321.687 308.25C324.125 305.625 327.312 303.938 329.937 301.875C337.58 296.344 345.744 291.571 354.312 287.625L352.437 281.25Z" fill="#F8D80E" stroke="black" stroke-width="1.5" stroke-linecap="round"/>
  <path d="M328.25 295.125V302.438ZM332.75 291.938V299.25ZM337.25 289.125V296.25ZM341.938 286.312V293.812Z" fill="#F8D80E"/>
  <path d="M328.25 295.125V302.438M332.75 291.938V299.25M337.25 289.125V296.25M341.938 286.312V293.812" stroke="black" stroke-width="1.875" stroke-linecap="round"/>
  <path d="M287.937 281.625L285.688 287.813C296.049 291.787 305.976 296.813 315.313 302.813C318.5 305.063 321.875 307.125 324.312 310.125C324.875 311.625 323.375 312.938 321.875 312.375C320.563 312 319.063 311.438 317.75 312.375C315.688 313.313 313.813 316.5 316.813 317.438C321.313 320.438 328.25 319.125 330.313 314.063C331.438 311.438 331.625 308.063 329.375 305.813C325.625 301.5 320.375 298.312 315.5 295.125C306.746 289.79 297.519 285.271 287.937 281.625Z" fill="#F8D80E" stroke="black" stroke-width="1.5" stroke-linecap="round"/>
  <path d="M316.25 296.25L315.688 302.625ZM321.5 299.438L320 305.625ZM327.125 303.75L323.75 308.625ZM328.813 315.375L323.938 312.75ZM330.313 310.125L324.688 310.688ZM323.188 318.188L322.813 313.313ZM320.938 312.75L316.438 316.125ZM298.812 286.688V292.5ZM310.625 293.063V299.625ZM304.625 289.875V296.062Z" fill="#F8D80E"/>
  <path d="M316.25 296.25L315.688 302.625M321.5 299.438L320 305.625M327.125 303.75L323.75 308.625M328.813 315.375L323.938 312.75M330.313 310.125L324.688 310.688M323.188 318.188L322.813 313.313M320.938 312.75L316.438 316.125M298.812 286.688V292.5M310.625 293.063V299.625M304.625 289.875V296.062" stroke="black" stroke-width="1.875" stroke-linecap="round"/>
  <path d="M282.125 426.75V441.75H291.5V434.25H304.437V441.75H314.563V426.75H282.125ZM282.125 447.375V462.375H314.375V447.375H304.25V454.875H291.312V447.375H282.125Z" fill="#F8D80E" stroke="black" stroke-width="1.875"/>
  <path d="M314.375 363.188H323.75V471.938H314.375V363.188Z" fill="#F8D80E" stroke="black" stroke-width="1.875"/>
  <path d="M314.375 372.562H323.75V466.312H314.375V372.562ZM319.25 336.375L339.125 348L319.25 359.625L299.187 348L319.25 336.375ZM292.437 343.875H287.375V352.125H292.437L319.25 367.688L345.875 352.125H351.125V343.875H345.875L319.25 328.312L292.437 343.875Z" fill="#F8D80E" stroke="black" stroke-width="1.875"/>
  <path d="M318.688 308.062C316.506 308.506 314.553 309.712 313.178 311.464C311.804 313.216 311.099 315.4 311.188 317.625V338.625C311.36 340.855 312.324 342.95 313.906 344.532C315.487 346.114 317.582 347.078 319.813 347.25C321.668 347.389 323.522 346.962 325.129 346.024C326.736 345.087 328.021 343.683 328.813 342L325.625 340.125C325.183 341.223 324.394 342.147 323.379 342.756C322.364 343.365 321.177 343.627 320 343.5C317 343.5 314.563 340.5 314.938 337.688V316.687C315.08 315.312 315.74 314.042 316.785 313.137C317.83 312.231 319.181 311.758 320.563 311.813C321.688 311.438 323.375 313.125 324.125 311.813C325.25 310.125 323.375 309 322.25 308.062H318.688ZM329.563 315.375C328.646 316.659 327.421 317.691 326 318.375V332.438L329.75 334.5V315.375H329.563Z" fill="#F8D80E" stroke="black" stroke-width="1.875"/>
  <path d="M291.5 72H346.438V171.75H291.5V72Z" fill="black"/>
  <path d="M287.75 72V155.437H305.188V130.687C305.188 125.062 308.937 117 320 117C331.062 117 335 125.062 335 130.687V155.625H352.25V72H287.75ZM317.375 81.375H322.625V109.875H317.375V81.375ZM301.812 87H307.438V107.812H301.812V87ZM332.75 87H338.188V107.812H332.563L332.75 87ZM281.75 60V71.8125H358.25V60H281.75ZM274.625 46.125V60H365.562V46.125H354.125V53.625H341V46.125H326.375V53.625H313.625V46.125H298.812V53.625H286.25V46.125H274.625ZM257.75 183.375V192H382.437V183.375H257.75Z" fill="#DA000C" stroke="black" stroke-width="1.875"/>
  <path d="M252.5 155.438V183.562H387.5V155.438H374.75V166.312H357.5V155.438H334.625V166.312H305V155.438H282.125V166.312H265.25V155.438H252.5Z" fill="#DA000C" stroke="black" stroke-width="1.875"/>
  <path d="M268.812 192V294H292.813V255.75C292.813 237.937 304.813 229.5 320 229.5C334.625 229.5 347.188 237.937 347.188 255.75V294H371.187V192H268.812Z" fill="#DA000C" stroke="black" stroke-width="1.875" stroke-linejoin="round"/>
  </g>
  <defs>
  <clipPath id="clip0_10_11177">
  <rect width="640" height="480" fill="white"/>
  </clipPath>
  </defs>
  </svg>
