<svg id="flag-icons-hn" viewBox="0 0 640 480" xmlns="http://www.w3.org/2000/svg">
  <g clip-path="url(#clip0_10_11885)">
    <path d="M0 0H640V480H0V0Z" fill="#0073CF" />
    <path d="M0 160H640V320H0V160Z" fill="white" />
    <path d="M312 240L325.333 242.667L320 213.333L312 240Z" fill="#0073CF" />
    <path d="M328 240L314.667 242.667L320 213.333L328 240Z" fill="#0073CF" />
    <path d="M317.528 232.392L319.112 245.896L345.362 231.76L317.528 232.392Z" fill="#0073CF" />
    <path d="M322.472 247.608L315.816 235.752L345.362 231.76L322.472 247.608Z" fill="#0073CF" />
    <path d="M317.528 247.608L324.184 235.752L294.639 231.76L317.528 247.608Z" fill="#0073CF" />
    <path d="M322.472 232.392L320.888 245.896L294.639 231.76L322.472 232.392Z" fill="#0073CF" />
    <path d="M326.472 235.298L314.118 240.978L335.674 261.574L326.472 235.298Z" fill="#0073CF" />
    <path d="M313.528 244.702L322.747 234.708L335.674 261.574L313.528 244.702Z" fill="#0073CF" />
    <path d="M326.472 244.702L317.253 234.708L304.326 261.574L326.472 244.702Z" fill="#0073CF" />
    <path d="M313.528 235.298L325.882 240.978L304.326 261.574L313.528 235.298Z" fill="#0073CF" />
    <path d="M445.3 197.3L458.633 199.967L453.3 170.633L445.3 197.3Z" fill="#0073CF" />
    <path d="M461.3 197.3L447.966 199.967L453.3 170.633L461.3 197.3Z" fill="#0073CF" />
    <path d="M450.828 189.691L452.412 203.196L478.662 189.059L450.828 189.691Z" fill="#0073CF" />
    <path d="M455.772 204.908L449.116 193.052L478.662 189.06L455.772 204.908Z" fill="#0073CF" />
    <path d="M450.828 204.908L457.484 193.052L427.938 189.06L450.828 204.908Z" fill="#0073CF" />
    <path d="M455.772 189.691L454.188 203.196L427.939 189.059L455.772 189.691Z" fill="#0073CF" />
    <path d="M459.772 192.598L447.418 198.277L468.974 218.874L459.772 192.598Z" fill="#0073CF" />
    <path d="M446.828 202.002L456.047 192.008L468.974 218.874L446.828 202.002Z" fill="#0073CF" />
    <path d="M459.772 202.002L450.552 192.008L437.626 218.874L459.772 202.002Z" fill="#0073CF" />
    <path d="M446.828 192.598L459.182 198.277L437.625 218.874L446.828 192.598Z" fill="#0073CF" />
    <path d="M445.3 277.3L458.633 279.967L453.3 250.633L445.3 277.3Z" fill="#0073CF" />
    <path d="M461.3 277.3L447.966 279.967L453.3 250.633L461.3 277.3Z" fill="#0073CF" />
    <path d="M450.828 269.692L452.412 283.196L478.662 269.06L450.828 269.692Z" fill="#0073CF" />
    <path d="M455.772 284.908L449.116 273.052L478.662 269.06L455.772 284.908Z" fill="#0073CF" />
    <path d="M450.828 284.908L457.484 273.052L427.938 269.06L450.828 284.908Z" fill="#0073CF" />
    <path d="M455.772 269.692L454.188 283.196L427.939 269.06L455.772 269.692Z" fill="#0073CF" />
    <path d="M459.772 272.598L447.418 278.277L468.974 298.874L459.772 272.598Z" fill="#0073CF" />
    <path d="M446.828 282.002L456.047 272.008L468.974 298.874L446.828 282.002Z" fill="#0073CF" />
    <path d="M459.772 282.002L450.552 272.008L437.626 298.874L459.772 282.002Z" fill="#0073CF" />
    <path d="M446.828 272.598L459.182 278.277L437.625 298.874L446.828 272.598Z" fill="#0073CF" />
    <path d="M178.7 197.3L192.033 199.967L186.7 170.633L178.7 197.3Z" fill="#0073CF" />
    <path d="M194.7 197.3L181.366 199.967L186.7 170.633L194.7 197.3Z" fill="#0073CF" />
    <path d="M184.228 189.691L185.812 203.196L212.061 189.059L184.228 189.691Z" fill="#0073CF" />
    <path d="M189.172 204.908L182.516 193.052L212.062 189.06L189.172 204.908Z" fill="#0073CF" />
    <path d="M184.228 204.908L190.884 193.052L161.338 189.06L184.228 204.908Z" fill="#0073CF" />
    <path d="M189.172 189.691L187.588 203.196L161.338 189.059L189.172 189.691Z" fill="#0073CF" />
    <path d="M193.172 192.598L180.818 198.277L202.374 218.874L193.172 192.598Z" fill="#0073CF" />
    <path d="M180.228 202.002L189.447 192.008L202.374 218.874L180.228 202.002Z" fill="#0073CF" />
    <path d="M193.172 202.002L183.952 192.008L171.025 218.874L193.172 202.002Z" fill="#0073CF" />
    <path d="M180.227 192.598L192.582 198.277L171.025 218.874L180.227 192.598Z" fill="#0073CF" />
    <path d="M178.7 277.3L192.033 279.967L186.7 250.633L178.7 277.3Z" fill="#0073CF" />
    <path d="M194.7 277.3L181.366 279.967L186.7 250.633L194.7 277.3Z" fill="#0073CF" />
    <path d="M184.228 269.692L185.812 283.196L212.061 269.06L184.228 269.692Z" fill="#0073CF" />
    <path d="M189.172 284.908L182.516 273.052L212.062 269.06L189.172 284.908Z" fill="#0073CF" />
    <path d="M184.228 284.908L190.884 273.052L161.338 269.06L184.228 284.908Z" fill="#0073CF" />
    <path d="M189.172 269.692L187.588 283.196L161.338 269.06L189.172 269.692Z" fill="#0073CF" />
    <path d="M193.172 272.598L180.818 278.277L202.374 298.874L193.172 272.598Z" fill="#0073CF" />
    <path d="M180.228 282.002L189.447 272.008L202.374 298.874L180.228 282.002Z" fill="#0073CF" />
    <path d="M193.172 282.002L183.952 272.008L171.025 298.874L193.172 282.002Z" fill="#0073CF" />
    <path d="M180.227 272.598L192.582 278.277L171.025 298.874L180.227 272.598Z" fill="#0073CF" />
  </g>
  <defs>
    <clipPath id="clip0_10_11885">
      <rect width="640" height="480" fill="white" />
    </clipPath>
  </defs>
</svg>
