<svg id="flag-icons-in" viewBox="0 0 640 480" xmlns="http://www.w3.org/2000/svg">
  <g clip-path="url(#clip0_10_12588)">
  <path d="M0 0H640V160H0V0Z" fill="#FF9933"/>
  <path d="M0 160H640V320H0V160Z" fill="white"/>
  <path d="M0 320H640V480H0V320Z" fill="#128807"/>
  <path d="M320 304C355.346 304 384 275.346 384 240C384 204.654 355.346 176 320 176C284.654 176 256 204.654 256 240C256 275.346 284.654 304 320 304Z" fill="#000088"/>
  <path d="M320 296C350.928 296 376 270.928 376 240C376 209.072 350.928 184 320 184C289.072 184 264 209.072 264 240C264 270.928 289.072 296 320 296Z" fill="white"/>
  <path d="M320 251.2C326.186 251.2 331.2 246.185 331.2 240C331.2 233.814 326.186 228.8 320 228.8C313.815 228.8 308.8 233.814 308.8 240C308.8 246.185 313.815 251.2 320 251.2Z" fill="#000088"/>
  <path d="M375.144 250.186C376.721 250.394 378.167 249.284 378.375 247.707C378.582 246.13 377.472 244.683 375.895 244.475C374.318 244.268 372.872 245.378 372.664 246.955C372.457 248.532 373.567 249.978 375.144 250.186Z" fill="#000088"/>
  <path d="M320 296L321.92 262.4L320 246.4L318.08 262.4L320 296Z" fill="#000088"/>
  <path d="M370.629 264.111C372.098 264.72 373.783 264.022 374.392 262.553C375 261.083 374.303 259.398 372.833 258.79C371.364 258.181 369.679 258.879 369.07 260.348C368.462 261.818 369.159 263.502 370.629 264.111Z" fill="#000088"/>
  <path d="M305.506 294.092L316.057 262.134L318.343 246.182L312.348 261.14L305.506 294.092Z" fill="#000088"/>
  <path d="M362.663 276.393C363.925 277.362 365.733 277.124 366.701 275.862C367.67 274.6 367.432 272.792 366.17 271.824C364.908 270.855 363.1 271.093 362.132 272.355C361.163 273.617 361.401 275.425 362.663 276.393Z" fill="#000088"/>
  <path d="M292 288.498L310.463 260.359L316.8 245.543L307.137 258.439L292 288.498Z" fill="#000088"/>
  <path d="M351.79 286.195C352.758 287.457 354.566 287.695 355.828 286.727C357.09 285.758 357.328 283.951 356.36 282.689C355.391 281.427 353.583 281.189 352.322 282.157C351.06 283.125 350.822 284.933 351.79 286.195Z" fill="#000088"/>
  <path d="M280.402 279.598L305.518 257.197L315.474 244.526L302.803 254.482L280.402 279.598Z" fill="#000088"/>
  <path d="M338.751 292.849C339.359 294.318 341.044 295.016 342.514 294.408C343.983 293.799 344.681 292.114 344.072 290.645C343.464 289.175 341.779 288.477 340.309 289.086C338.84 289.695 338.142 291.379 338.751 292.849Z" fill="#000088"/>
  <path d="M271.503 268L301.561 252.863L314.458 243.2L299.641 249.537L271.503 268Z" fill="#000088"/>
  <path d="M324.433 295.901C324.641 297.478 326.088 298.588 327.665 298.381C329.242 298.173 330.352 296.726 330.144 295.149C329.936 293.572 328.49 292.462 326.913 292.67C325.336 292.877 324.226 294.324 324.433 295.901Z" fill="#000088"/>
  <path d="M265.908 254.494L298.86 247.652L313.818 241.656L297.866 243.943L265.908 254.494Z" fill="#000088"/>
  <path d="M309.814 295.144C309.607 296.721 310.717 298.168 312.294 298.375C313.871 298.583 315.317 297.473 315.525 295.896C315.733 294.319 314.622 292.872 313.046 292.665C311.469 292.457 310.022 293.567 309.814 295.144Z" fill="#000088"/>
  <path d="M264 240L297.6 241.92L313.6 240L297.6 238.08L264 240Z" fill="#000088"/>
  <path d="M295.889 290.629C295.281 292.098 295.978 293.783 297.448 294.392C298.917 295 300.602 294.302 301.211 292.833C301.82 291.363 301.122 289.679 299.652 289.07C298.183 288.461 296.498 289.159 295.889 290.629Z" fill="#000088"/>
  <path d="M265.908 225.506L297.866 236.057L313.818 238.344L298.86 232.348L265.908 225.506Z" fill="#000088"/>
  <path d="M283.607 282.663C282.639 283.925 282.877 285.733 284.139 286.701C285.401 287.67 287.209 287.432 288.177 286.17C289.145 284.908 288.907 283.1 287.645 282.132C286.383 281.163 284.576 281.401 283.607 282.663Z" fill="#000088"/>
  <path d="M271.503 212L299.641 230.463L314.457 236.8L301.561 227.137L271.503 212Z" fill="#000088"/>
  <path d="M273.805 271.79C272.543 272.758 272.305 274.566 273.274 275.828C274.242 277.09 276.05 277.328 277.312 276.36C278.574 275.392 278.812 273.584 277.843 272.322C276.875 271.06 275.067 270.822 273.805 271.79Z" fill="#000088"/>
  <path d="M280.402 200.402L302.804 225.519L315.475 235.475L305.519 222.803L280.402 200.402Z" fill="#000088"/>
  <path d="M267.151 258.751C265.682 259.359 264.984 261.044 265.592 262.514C266.201 263.983 267.886 264.681 269.355 264.072C270.825 263.464 271.523 261.779 270.914 260.309C270.305 258.84 268.621 258.142 267.151 258.751Z" fill="#000088"/>
  <path d="M292 191.502L307.137 221.561L316.8 234.457L310.463 219.641L292 191.502Z" fill="#000088"/>
  <path d="M264.098 244.434C262.521 244.641 261.411 246.088 261.619 247.665C261.827 249.242 263.273 250.352 264.85 250.144C266.427 249.937 267.537 248.49 267.33 246.913C267.122 245.336 265.675 244.226 264.098 244.434Z" fill="#000088"/>
  <path d="M305.506 185.908L312.347 218.86L318.343 233.818L316.057 217.866L305.506 185.908Z" fill="#000088"/>
  <path d="M264.856 229.814C263.279 229.606 261.833 230.716 261.625 232.293C261.418 233.87 262.528 235.317 264.105 235.525C265.682 235.732 267.128 234.622 267.336 233.045C267.543 231.468 266.433 230.022 264.856 229.814Z" fill="#000088"/>
  <path d="M320 184L318.08 217.6L320 233.6L321.92 217.6L320 184Z" fill="#000088"/>
  <path d="M269.371 215.889C267.902 215.28 266.217 215.978 265.608 217.447C265 218.917 265.697 220.602 267.167 221.21C268.636 221.819 270.321 221.121 270.93 219.652C271.538 218.182 270.841 216.498 269.371 215.889Z" fill="#000088"/>
  <path d="M334.494 185.908L323.943 217.866L321.657 233.818L327.652 218.86L334.494 185.908Z" fill="#000088"/>
  <path d="M277.337 203.607C276.075 202.638 274.267 202.876 273.299 204.138C272.33 205.4 272.568 207.208 273.83 208.176C275.092 209.145 276.9 208.907 277.868 207.645C278.837 206.383 278.599 204.575 277.337 203.607Z" fill="#000088"/>
  <path d="M348 191.502L329.537 219.641L323.2 234.457L332.863 221.561L348 191.502Z" fill="#000088"/>
  <path d="M288.21 193.805C287.242 192.543 285.434 192.305 284.172 193.273C282.91 194.242 282.672 196.049 283.64 197.311C284.609 198.573 286.417 198.811 287.678 197.843C288.94 196.875 289.178 195.067 288.21 193.805Z" fill="#000088"/>
  <path d="M359.598 200.402L334.482 222.803L324.526 235.474L337.197 225.518L359.598 200.402Z" fill="#000088"/>
  <path d="M301.249 187.151C300.641 185.681 298.956 184.984 297.486 185.592C296.017 186.201 295.319 187.886 295.928 189.355C296.536 190.825 298.221 191.522 299.691 190.914C301.16 190.305 301.858 188.62 301.249 187.151Z" fill="#000088"/>
  <path d="M368.497 212L338.439 227.137L325.542 236.8L340.359 230.463L368.497 212Z" fill="#000088"/>
  <path d="M315.567 184.099C315.359 182.522 313.912 181.412 312.335 181.619C310.758 181.827 309.648 183.273 309.856 184.85C310.064 186.427 311.51 187.538 313.087 187.33C314.664 187.122 315.774 185.676 315.567 184.099Z" fill="#000088"/>
  <path d="M374.092 225.506L341.14 232.348L326.182 238.343L342.134 236.057L374.092 225.506Z" fill="#000088"/>
  <path d="M330.186 184.856C330.393 183.279 329.283 181.832 327.706 181.624C326.129 181.417 324.683 182.527 324.475 184.104C324.267 185.681 325.378 187.128 326.954 187.335C328.531 187.543 329.978 186.433 330.186 184.856Z" fill="#000088"/>
  <path d="M376 240L342.4 238.08L326.4 240L342.4 241.92L376 240Z" fill="#000088"/>
  <path d="M344.111 189.371C344.719 187.902 344.022 186.217 342.552 185.608C341.083 185 339.398 185.697 338.789 187.167C338.18 188.636 338.878 190.321 340.348 190.93C341.817 191.538 343.502 190.841 344.111 189.371Z" fill="#000088"/>
  <path d="M374.092 254.494L342.134 243.943L326.182 241.656L341.14 247.652L374.092 254.494Z" fill="#000088"/>
  <path d="M356.393 197.337C357.361 196.075 357.123 194.267 355.861 193.299C354.599 192.33 352.791 192.568 351.823 193.83C350.855 195.092 351.093 196.9 352.355 197.868C353.617 198.837 355.424 198.598 356.393 197.337Z" fill="#000088"/>
  <path d="M368.497 268L340.359 249.537L325.543 243.2L338.439 252.863L368.497 268Z" fill="#000088"/>
  <path d="M366.195 208.21C367.457 207.241 367.695 205.433 366.726 204.171C365.758 202.91 363.95 202.672 362.688 203.64C361.426 204.608 361.188 206.416 362.157 207.678C363.125 208.94 364.933 209.178 366.195 208.21Z" fill="#000088"/>
  <path d="M359.598 279.598L337.196 254.481L324.525 244.525L334.481 257.197L359.598 279.598Z" fill="#000088"/>
  <path d="M372.849 221.249C374.318 220.64 375.016 218.956 374.408 217.486C373.799 216.017 372.114 215.319 370.645 215.927C369.175 216.536 368.477 218.221 369.086 219.69C369.695 221.16 371.379 221.858 372.849 221.249Z" fill="#000088"/>
  <path d="M348 288.497L332.863 258.439L323.2 245.542L329.537 260.359L348 288.497Z" fill="#000088"/>
  <path d="M375.902 235.566C377.479 235.358 378.589 233.912 378.381 232.335C378.173 230.758 376.727 229.648 375.15 229.855C373.573 230.063 372.463 231.51 372.67 233.087C372.878 234.664 374.325 235.774 375.902 235.566Z" fill="#000088"/>
  <path d="M334.494 294.091L327.653 261.139L321.657 246.182L323.943 262.133L334.494 294.091Z" fill="#000088"/>
  </g>
  <defs>
  <clipPath id="clip0_10_12588">
  <rect width="640" height="480" fill="white"/>
  </clipPath>
  </defs>
  </svg>
