<svg id="flag-icons-li" viewBox="0 0 640 480" xmlns="http://www.w3.org/2000/svg">
  <g clip-path="url(#clip0_10_13064)">
  <path d="M0 0H640V240H0V0Z" fill="#002B7F"/>
  <path d="M0 240H640V480H0V240Z" fill="#CE1126"/>
  <path d="M173.12 97.84L171.6 147.84H120.88C114.64 135.68 109.52 125.44 109.52 111.44C109.52 99.76 118.72 90.48 131.92 90.48C145.92 90.48 161.36 95.2 173.12 97.84Z" fill="#FFD83D"/>
  <path d="M115.6 100.16V128.96ZM119.6 97.2V135.6ZM123.76 95.2V140.96ZM127.76 94.24V130.16ZM131.84 94.08V130.32ZM135.92 92.72V130.32ZM140 92.72V130.32ZM144.08 93.12V130.72ZM148.16 93.52V131.04ZM152.24 95.84V133.44ZM156.24 96.24V138.56ZM160.4 96.24V133.84ZM164.4 96.24V133.84Z" fill="#FFD83D"/>
  <path d="M115.6 100.16V128.96M119.6 97.2V135.6M123.76 95.2V140.96M127.76 94.24V130.16M131.84 94.08V130.32M135.92 92.72V130.32M140 92.72V130.32M144.08 93.12V130.72M148.16 93.52V131.04M152.24 95.84V133.44M156.24 96.24V138.56M160.4 96.24V133.84M164.4 96.24V133.84" stroke="black" stroke-width="1.2" stroke-linecap="round" stroke-linejoin="round"/>
  <path d="M141.12 94.3999C149.76 95.7599 168.64 104.64 166.48 116.56C163.44 133.52 153.52 126.72 140.4 124.32L130.48 127.6C126.88 131.2 121.68 134.56 118.16 130.16H112.24V153.2H177.36V97.5999L141.12 94.3999Z" fill="black" stroke="black" stroke-width="1.2" stroke-linecap="round" stroke-linejoin="round"/>
  <path d="M170.24 94.32C172.405 94.32 174.16 92.5649 174.16 90.4C174.16 88.235 172.405 86.48 170.24 86.48C168.075 86.48 166.32 88.235 166.32 90.4C166.32 92.5649 168.075 94.32 170.24 94.32Z" fill="#FFD83D" stroke="black" stroke-width="1.6" stroke-linecap="round" stroke-linejoin="round"/>
  <path d="M161.36 92.1598C163.525 92.1598 165.28 90.4048 165.28 88.2398C165.28 86.0749 163.525 84.3198 161.36 84.3198C159.195 84.3198 157.44 86.0749 157.44 88.2398C157.44 90.4048 159.195 92.1598 161.36 92.1598Z" fill="#FFD83D" stroke="black" stroke-width="1.6" stroke-linecap="round" stroke-linejoin="round"/>
  <path d="M152.32 89.9198C154.485 89.9198 156.24 88.1648 156.24 85.9998C156.24 83.8349 154.485 82.0798 152.32 82.0798C150.155 82.0798 148.4 83.8349 148.4 85.9998C148.4 88.1648 150.155 89.9198 152.32 89.9198Z" fill="#FFD83D" stroke="black" stroke-width="1.6" stroke-linecap="round" stroke-linejoin="round"/>
  <path d="M143.28 88.3998C145.445 88.3998 147.2 86.6448 147.2 84.4798C147.2 82.3149 145.445 80.5598 143.28 80.5598C141.115 80.5598 139.36 82.3149 139.36 84.4798C139.36 86.6448 141.115 88.3998 143.28 88.3998Z" fill="#FFD83D" stroke="black" stroke-width="1.6" stroke-linecap="round" stroke-linejoin="round"/>
  <path d="M134.24 87.5199C136.405 87.5199 138.16 85.7649 138.16 83.5999C138.16 81.435 136.405 79.6799 134.24 79.6799C132.075 79.6799 130.32 81.435 130.32 83.5999C130.32 85.7649 132.075 87.5199 134.24 87.5199Z" fill="#FFD83D" stroke="black" stroke-width="1.6" stroke-linecap="round" stroke-linejoin="round"/>
  <path d="M125.44 87.9999C127.605 87.9999 129.36 86.2449 129.36 84.0799C129.36 81.915 127.605 80.1599 125.44 80.1599C123.275 80.1599 121.52 81.915 121.52 84.0799C121.52 86.2449 123.275 87.9999 125.44 87.9999Z" fill="#FFD83D" stroke="black" stroke-width="1.6" stroke-linecap="round" stroke-linejoin="round"/>
  <path d="M116.96 90.88C119.125 90.88 120.88 89.125 120.88 86.96C120.88 84.7951 119.125 83.04 116.96 83.04C114.795 83.04 113.04 84.7951 113.04 86.96C113.04 89.125 114.795 90.88 116.96 90.88Z" fill="#FFD83D" stroke="black" stroke-width="1.6" stroke-linecap="round" stroke-linejoin="round"/>
  <path d="M109.84 96.1598C112.005 96.1598 113.76 94.4048 113.76 92.2398C113.76 90.0749 112.005 88.3198 109.84 88.3198C107.675 88.3198 105.92 90.0749 105.92 92.2398C105.92 94.4048 107.675 96.1598 109.84 96.1598Z" fill="#FFD83D" stroke="black" stroke-width="1.6" stroke-linecap="round" stroke-linejoin="round"/>
  <path d="M104.8 103.44C106.965 103.44 108.72 101.685 108.72 99.5199C108.72 97.3549 106.965 95.5999 104.8 95.5999C102.635 95.5999 100.88 97.3549 100.88 99.5199C100.88 101.685 102.635 103.44 104.8 103.44Z" fill="#FFD83D" stroke="black" stroke-width="1.6" stroke-linecap="round" stroke-linejoin="round"/>
  <path d="M102.32 112.08C104.485 112.08 106.24 110.325 106.24 108.16C106.24 105.995 104.485 104.24 102.32 104.24C100.155 104.24 98.3999 105.995 98.3999 108.16C98.3999 110.325 100.155 112.08 102.32 112.08Z" fill="#FFD83D" stroke="black" stroke-width="1.6" stroke-linecap="round" stroke-linejoin="round"/>
  <path d="M102.4 120.96C104.565 120.96 106.32 119.205 106.32 117.04C106.32 114.875 104.565 113.12 102.4 113.12C100.235 113.12 98.48 114.875 98.48 117.04C98.48 119.205 100.235 120.96 102.4 120.96Z" fill="#FFD83D" stroke="black" stroke-width="1.6" stroke-linecap="round" stroke-linejoin="round"/>
  <path d="M104.16 129.68C106.325 129.68 108.08 127.925 108.08 125.76C108.08 123.595 106.325 121.84 104.16 121.84C101.995 121.84 100.24 123.595 100.24 125.76C100.24 127.925 101.995 129.68 104.16 129.68Z" fill="#FFD83D" stroke="black" stroke-width="1.6" stroke-linecap="round" stroke-linejoin="round"/>
  <path d="M172 95.6L171.6 100.8C161.76 99.2 147.84 93.76 134.8 93.76C122.8 93.76 113.52 98.56 113.52 110.72C113.52 122.64 118.56 133.52 125.28 144.56L118.32 147.76C112.08 135.76 106.88 125.36 106.88 111.44C106.88 99.76 116.08 88.24 131.92 88.24C145.92 88.24 160.24 93.04 172 95.6Z" fill="#FFD83D" stroke="black" stroke-width="1.6" stroke-linecap="round" stroke-linejoin="round"/>
  <path d="M182.08 97.84L183.6 147.84H234.32C240.56 135.68 245.68 125.44 245.68 111.44C245.68 99.76 236.48 90.48 223.28 90.48C209.28 90.48 193.84 95.2 182.08 97.84Z" fill="#FFD83D"/>
  <path d="M239.6 100.16V128.96ZM235.6 97.2V135.6ZM231.44 95.2V140.96ZM227.44 94.24V130.16ZM223.36 94.08V130.32ZM219.28 92.72V130.32ZM215.2 92.72V130.32ZM211.12 93.12V130.72ZM207.04 93.52V131.04ZM202.96 95.84V133.44ZM198.96 96.24V138.56ZM194.8 96.24V133.84ZM190.8 96.24V133.84Z" fill="#FFD83D"/>
  <path d="M239.6 100.16V128.96M235.6 97.2V135.6M231.44 95.2V140.96M227.44 94.24V130.16M223.36 94.08V130.32M219.28 92.72V130.32M215.2 92.72V130.32M211.12 93.12V130.72M207.04 93.52V131.04M202.96 95.84V133.44M198.96 96.24V138.56M194.8 96.24V133.84M190.8 96.24V133.84" stroke="black" stroke-width="1.2" stroke-linecap="round" stroke-linejoin="round"/>
  <path d="M214.08 94.3999C205.44 95.7599 186.56 104.64 188.72 116.56C191.76 133.52 201.68 126.72 214.8 124.32L224.72 127.6C228.32 131.2 233.52 134.56 237.04 130.16H242.96V153.2H177.84V97.5999L214.08 94.3999Z" fill="black" stroke="black" stroke-width="1.2" stroke-linecap="round" stroke-linejoin="round"/>
  <path d="M184.96 94.32C182.795 94.32 181.04 92.5649 181.04 90.4C181.04 88.235 182.795 86.48 184.96 86.48C187.125 86.48 188.88 88.235 188.88 90.4C188.88 92.5649 187.125 94.32 184.96 94.32Z" fill="#FFD83D" stroke="black" stroke-width="1.6" stroke-linecap="round" stroke-linejoin="round"/>
  <path d="M193.84 92.1598C191.675 92.1598 189.92 90.4048 189.92 88.2398C189.92 86.0749 191.675 84.3198 193.84 84.3198C196.005 84.3198 197.76 86.0749 197.76 88.2398C197.76 90.4048 196.005 92.1598 193.84 92.1598Z" fill="#FFD83D" stroke="black" stroke-width="1.6" stroke-linecap="round" stroke-linejoin="round"/>
  <path d="M202.88 89.9198C200.715 89.9198 198.96 88.1648 198.96 85.9998C198.96 83.8349 200.715 82.0798 202.88 82.0798C205.045 82.0798 206.8 83.8349 206.8 85.9998C206.8 88.1648 205.045 89.9198 202.88 89.9198Z" fill="#FFD83D" stroke="black" stroke-width="1.6" stroke-linecap="round" stroke-linejoin="round"/>
  <path d="M211.92 88.3998C209.755 88.3998 208 86.6448 208 84.4798C208 82.3149 209.755 80.5598 211.92 80.5598C214.085 80.5598 215.84 82.3149 215.84 84.4798C215.84 86.6448 214.085 88.3998 211.92 88.3998Z" fill="#FFD83D" stroke="black" stroke-width="1.6" stroke-linecap="round" stroke-linejoin="round"/>
  <path d="M220.96 87.5199C218.795 87.5199 217.04 85.7649 217.04 83.5999C217.04 81.435 218.795 79.6799 220.96 79.6799C223.125 79.6799 224.88 81.435 224.88 83.5999C224.88 85.7649 223.125 87.5199 220.96 87.5199Z" fill="#FFD83D" stroke="black" stroke-width="1.6" stroke-linecap="round" stroke-linejoin="round"/>
  <path d="M229.76 87.9999C227.595 87.9999 225.84 86.2449 225.84 84.0799C225.84 81.915 227.595 80.1599 229.76 80.1599C231.925 80.1599 233.68 81.915 233.68 84.0799C233.68 86.2449 231.925 87.9999 229.76 87.9999Z" fill="#FFD83D" stroke="black" stroke-width="1.6" stroke-linecap="round" stroke-linejoin="round"/>
  <path d="M238.24 90.88C236.075 90.88 234.32 89.125 234.32 86.96C234.32 84.7951 236.075 83.04 238.24 83.04C240.405 83.04 242.16 84.7951 242.16 86.96C242.16 89.125 240.405 90.88 238.24 90.88Z" fill="#FFD83D" stroke="black" stroke-width="1.6" stroke-linecap="round" stroke-linejoin="round"/>
  <path d="M245.36 96.1598C243.195 96.1598 241.44 94.4048 241.44 92.2398C241.44 90.0749 243.195 88.3198 245.36 88.3198C247.525 88.3198 249.28 90.0749 249.28 92.2398C249.28 94.4048 247.525 96.1598 245.36 96.1598Z" fill="#FFD83D" stroke="black" stroke-width="1.6" stroke-linecap="round" stroke-linejoin="round"/>
  <path d="M250.4 103.44C248.235 103.44 246.48 101.685 246.48 99.5199C246.48 97.3549 248.235 95.5999 250.4 95.5999C252.565 95.5999 254.32 97.3549 254.32 99.5199C254.32 101.685 252.565 103.44 250.4 103.44Z" fill="#FFD83D" stroke="black" stroke-width="1.6" stroke-linecap="round" stroke-linejoin="round"/>
  <path d="M252.88 112.08C250.715 112.08 248.96 110.325 248.96 108.16C248.96 105.995 250.715 104.24 252.88 104.24C255.045 104.24 256.8 105.995 256.8 108.16C256.8 110.325 255.045 112.08 252.88 112.08Z" fill="#FFD83D" stroke="black" stroke-width="1.6" stroke-linecap="round" stroke-linejoin="round"/>
  <path d="M252.8 120.96C250.635 120.96 248.88 119.205 248.88 117.04C248.88 114.875 250.635 113.12 252.8 113.12C254.965 113.12 256.72 114.875 256.72 117.04C256.72 119.205 254.965 120.96 252.8 120.96Z" fill="#FFD83D" stroke="black" stroke-width="1.6" stroke-linecap="round" stroke-linejoin="round"/>
  <path d="M251.04 129.68C248.875 129.68 247.12 127.925 247.12 125.76C247.12 123.595 248.875 121.84 251.04 121.84C253.205 121.84 254.96 123.595 254.96 125.76C254.96 127.925 253.205 129.68 251.04 129.68Z" fill="#FFD83D" stroke="black" stroke-width="1.6" stroke-linecap="round" stroke-linejoin="round"/>
  <path d="M183.2 95.6L183.6 100.8C193.44 99.2 207.36 93.76 220.4 93.76C232.4 93.76 241.68 98.56 241.68 110.72C241.68 122.64 236.64 133.52 229.92 144.56L236.88 147.76C243.12 135.76 248.32 125.36 248.32 111.44C248.32 99.76 239.12 88.24 223.28 88.24C209.28 88.24 194.96 93.04 183.2 95.6Z" fill="#FFD83D" stroke="black" stroke-width="1.6" stroke-linecap="round" stroke-linejoin="round"/>
  <path d="M177.6 42.4799L173.44 50.2399L177.6 57.9199L181.68 50.2399L177.6 42.3999V42.4799ZM177.6 61.9999L173.44 69.6799L177.6 77.4399L181.6 69.5999L177.52 61.9199L177.6 61.9999ZM162.88 59.9999L169.36 64.0799L175.84 59.9999L169.44 55.8399L162.88 59.9999ZM179.28 59.9999L185.76 64.0799L192.32 59.9999L185.76 55.8399L179.36 59.9999H179.28Z" fill="#FFD83D" stroke="black" stroke-width="1.6" stroke-linecap="round" stroke-linejoin="round"/>
  <path d="M177.6 63.2C179.323 63.2 180.72 61.8031 180.72 60.08C180.72 58.3568 179.323 56.96 177.6 56.96C175.877 56.96 174.48 58.3568 174.48 60.08C174.48 61.8031 175.877 63.2 177.6 63.2Z" fill="#FFD83D" stroke="black" stroke-width="1.6" stroke-linecap="round" stroke-linejoin="round"/>
  <path d="M177.6 88.3999C182.239 88.3999 186 84.639 186 79.9999C186 75.3607 182.239 71.5999 177.6 71.5999C172.961 71.5999 169.2 75.3607 169.2 79.9999C169.2 84.639 172.961 88.3999 177.6 88.3999Z" fill="#FFD83D" stroke="black" stroke-width="1.6" stroke-linecap="round" stroke-linejoin="round"/>
  <path d="M175.44 71.9199V77.1999C173.456 77.2955 171.479 77.5092 169.52 77.8399M185.68 77.8399C183.695 77.5052 181.691 77.2915 179.68 77.1999V71.9199M169.44 82.0799C172.135 81.6131 174.865 81.3723 177.6 81.3599C180.32 81.3599 183.04 81.5999 185.6 82.0799" stroke="black" stroke-width="1.2" stroke-linecap="round" stroke-linejoin="round"/>
  <path d="M169.44 94.1599C168.64 107.76 167.04 121.76 161.68 131.84L170.32 128.32C173.36 116.88 174 102.08 174.88 95.0399L169.44 94.1599ZM185.76 94.1599L180.24 95.0399C181.2 102.08 181.84 116.88 184.8 128.32L193.44 131.84C188.16 121.76 186.56 107.84 185.76 94.1599Z" fill="#FFD83D" stroke="black" stroke-width="1.6" stroke-linecap="round" stroke-linejoin="round"/>
  <path d="M177.6 123.76C167.2 123.76 159.6 128.56 159.2 141.04C156.64 136.56 146 122.64 136 124.48C130.08 125.6 124.8 133.84 125.76 143.2C120.8 129.12 106.48 126.8 95.9199 135.2C105.28 142.8 109.44 165.44 117.28 175.2H237.84C245.68 165.44 249.84 142.8 259.2 135.2C248.72 126.8 234.32 129.12 229.44 143.2C230.24 133.84 225.04 125.6 219.04 124.48C209.12 122.64 198.48 136.56 195.92 141.04C195.52 128.64 187.92 123.76 177.52 123.76H177.6Z" fill="#FFD83D" stroke="black" stroke-width="1.6" stroke-linecap="round" stroke-linejoin="round"/>
  <path d="M237.68 175.2C237.68 179.68 210.8 184.56 177.6 184.56C144.4 184.56 117.44 179.76 117.44 175.2C117.44 170.8 144.4 168.4 177.6 168.4C210.72 168.4 237.68 170.8 237.68 175.2Z" fill="black" stroke="black" stroke-width="1.2" stroke-linecap="round" stroke-linejoin="round"/>
  <path d="M177.6 94.32C179.146 94.32 180.4 93.0664 180.4 91.52C180.4 89.9736 179.146 88.72 177.6 88.72C176.053 88.72 174.8 89.9736 174.8 91.52C174.8 93.0664 176.053 94.32 177.6 94.32Z" fill="#FFD83D" stroke="black" stroke-width="1.2" stroke-linecap="round" stroke-linejoin="round"/>
  <path d="M177.6 100.56C179.234 100.56 180.56 99.2347 180.56 97.5999C180.56 95.9651 179.234 94.6399 177.6 94.6399C175.965 94.6399 174.64 95.9651 174.64 97.5999C174.64 99.2347 175.965 100.56 177.6 100.56Z" fill="#FFD83D" stroke="black" stroke-width="1.2" stroke-linecap="round" stroke-linejoin="round"/>
  <path d="M177.6 107.44C179.411 107.44 180.88 105.971 180.88 104.16C180.88 102.348 179.411 100.88 177.6 100.88C175.788 100.88 174.32 102.348 174.32 104.16C174.32 105.971 175.788 107.44 177.6 107.44Z" fill="#FFD83D" stroke="black" stroke-width="1.2" stroke-linecap="round" stroke-linejoin="round"/>
  <path d="M177.6 115.2C179.676 115.2 181.36 113.517 181.36 111.44C181.36 109.363 179.676 107.68 177.6 107.68C175.523 107.68 173.84 109.363 173.84 111.44C173.84 113.517 175.523 115.2 177.6 115.2Z" fill="#FFD83D" stroke="black" stroke-width="1.2" stroke-linecap="round" stroke-linejoin="round"/>
  <path d="M177.6 123.6C179.853 123.6 181.68 121.773 181.68 119.52C181.68 117.267 179.853 115.44 177.6 115.44C175.346 115.44 173.52 117.267 173.52 119.52C173.52 121.773 175.346 123.6 177.6 123.6Z" fill="#FFD83D" stroke="black" stroke-width="1.2" stroke-linecap="round" stroke-linejoin="round"/>
  <path d="M176 127.36C175.52 127.36 175.12 127.76 175.2 128.48L175.68 131.92C175.84 133.12 176.48 132.72 176.72 131.92C176.88 130.96 176.8 130.32 176.88 128.64C176.88 127.76 176.4 127.36 175.92 127.36H176ZM179.2 127.36C178.72 127.36 178.32 127.76 178.32 128.64C178.32 130.32 178.32 130.96 178.48 131.84C178.64 132.8 179.28 133.12 179.52 131.84L179.92 128.48C180.08 127.68 179.6 127.36 179.2 127.36ZM173.04 127.84C172.828 127.84 172.624 127.924 172.474 128.074C172.324 128.224 172.24 128.428 172.24 128.64C172.24 129.44 172.48 130.48 172.56 131.68C172.72 132.88 173.6 132.48 173.68 131.68C173.68 131.04 173.84 129.92 173.68 128.56C173.68 128.08 173.52 127.84 173.2 127.76C173.147 127.753 173.093 127.753 173.04 127.76V127.84ZM181.92 127.84C181.68 127.84 181.44 128.08 181.36 128.64C181.317 129.656 181.37 130.674 181.52 131.68C181.52 132.48 182.48 132.88 182.56 131.68C182.56 130.48 182.88 129.52 182.88 128.72C182.88 128.24 182.48 127.92 182.08 127.84C182.027 127.833 181.973 127.833 181.92 127.84ZM169.6 129.2C169.2 129.28 168.8 129.76 168.96 130.24C169.2 131.28 169.44 132.4 169.44 133.44C169.44 134.32 170.16 134 170.24 133.44C170.302 132.374 170.329 131.307 170.32 130.24C170.32 129.44 169.92 129.12 169.52 129.2H169.6ZM185.28 129.2C185.04 129.28 184.8 129.6 184.8 130.24L184.96 133.44C184.96 134 185.76 134.32 185.76 133.44C185.76 132.4 185.92 131.28 186.16 130.24C186.32 129.76 185.92 129.28 185.6 129.2C185.521 129.18 185.438 129.18 185.36 129.2H185.28ZM138.08 129.36C137.6 129.36 137.28 129.92 137.6 130.56C138.08 131.68 138.64 132.32 139.12 133.44C139.52 134.48 140.24 133.84 140 133.12L138.88 130.16C138.64 129.6 138.32 129.36 138.08 129.36ZM217.12 129.36C216.8 129.36 216.56 129.6 216.32 130.16C215.6 131.68 215.36 132.4 215.12 133.12C214.96 133.92 215.6 134.48 216.08 133.44L217.52 130.56C217.84 129.92 217.52 129.36 217.12 129.36ZM141.28 129.36C140.88 129.52 140.72 129.92 140.88 130.4C141.36 131.36 141.92 132.4 142.32 133.44C142.64 134.32 143.44 134.08 143.12 133.28L142.32 130.32C142 129.52 141.52 129.28 141.28 129.36ZM213.68 129.36C213.36 129.44 213.04 129.76 212.88 130.32C212.32 131.92 212.24 132.4 212 133.28C211.68 134.08 212.48 134.32 212.8 133.44L214.24 130.4C214.4 129.92 214.24 129.52 213.92 129.36C213.841 129.34 213.758 129.34 213.68 129.36ZM145.28 130.16C144.8 130.24 144.48 130.88 144.8 131.68C145.12 132.64 145.6 133.52 146.08 134.64C146.56 135.76 147.28 135.52 147.12 134.8C146.88 134.08 146.72 132.96 146.16 131.2C145.92 130.4 145.6 130.08 145.28 130.16ZM209.92 130.16C209.6 130.16 209.2 130.4 208.96 131.2C208.48 132.96 208.16 134.08 208.08 134.8C207.84 135.6 208.64 135.76 209.04 134.64C209.52 133.52 210 132.64 210.32 131.68C210.64 130.88 210.32 130.24 209.92 130.16ZM135.36 130.72C134.88 130.72 134.56 131.52 134.8 132.08C135.2 132.88 135.52 133.2 135.92 134.16C136.4 135.12 136.88 134.4 136.72 133.76C136.48 133.12 136.24 132.4 136.08 131.52C135.92 130.88 135.6 130.72 135.28 130.72H135.36ZM219.84 130.72C219.52 130.72 219.28 130.88 219.04 131.52L218.48 133.76C218.32 134.4 218.8 135.12 219.28 134.16C219.68 133.2 219.92 132.96 220.4 132.08C220.64 131.52 220.24 130.8 219.84 130.72ZM166.24 132.96C165.68 132.96 165.2 133.6 165.44 134.16C165.6 135.12 166.08 135.92 166.32 137.12C166.64 138.16 167.36 137.68 167.28 136.96C167.222 135.885 167.088 134.816 166.88 133.76C166.72 133.2 166.48 132.96 166.16 132.96H166.24ZM188.96 132.96C188.72 132.96 188.4 133.2 188.32 133.76C188.085 134.814 187.924 135.883 187.84 136.96C187.84 137.68 188.56 138.16 188.8 137.12L189.76 134.16C189.92 133.6 189.44 132.96 188.96 132.96ZM177.6 133.92C176.96 133.92 176.88 134.72 176.88 135.28C176.831 137.102 176.277 138.874 175.28 140.4C174.48 141.36 173.44 141.12 172.48 140.56C171.549 140.053 170.666 139.464 169.84 138.8C168.72 138 167.92 138.48 169.2 140.32C172.88 145.6 176.88 150.08 176.88 158.72C176.88 159.76 177.12 160.08 177.6 160.08C178.08 160.08 178.24 159.76 178.24 158.64C178.24 150.08 182.24 145.6 185.92 140.24C187.2 138.48 186.4 138 185.36 138.8C184.537 139.469 183.653 140.058 182.72 140.56C181.68 141.12 180.64 141.36 179.92 140.4C178.923 138.874 178.369 137.102 178.32 135.28C178.24 134.72 178.16 133.92 177.52 133.92H177.6ZM149.36 132.64C149.307 132.631 149.253 132.631 149.2 132.64C148.96 132.72 148.88 132.96 148.96 133.44L149.84 136.56C150.08 137.36 150.96 137.12 150.8 136.16L150.32 133.68C150.16 133.04 149.68 132.64 149.36 132.64ZM205.84 132.64C205.44 132.64 205.04 133.04 204.88 133.68C204.56 134.8 204.56 135.12 204.4 136.08C204.16 137.12 205.12 137.28 205.28 136.56L206.24 133.36C206.24 132.96 206.16 132.72 205.92 132.64C205.867 132.631 205.813 132.631 205.76 132.64H205.84ZM132.56 132.96C132.08 132.96 131.76 133.6 132.24 134.4C132.72 135.36 133.6 136.48 134 137.2C134.4 137.84 135.12 137.36 134.64 136.56C134.16 135.76 134 134.72 133.36 133.52C133.307 133.351 133.2 133.205 133.055 133.104C132.91 133.002 132.736 132.952 132.56 132.96ZM222.56 132.96C222.32 132.96 222 133.12 221.76 133.52C221.2 134.72 220.96 135.68 220.56 136.56C220.08 137.36 220.72 137.84 221.12 137.2C221.52 136.48 222.4 135.36 222.88 134.4C223.36 133.6 223.04 132.96 222.56 132.96ZM107.2 135.6C106.72 135.6 106.56 136.56 107.04 137.2C107.661 137.986 108.358 138.709 109.12 139.36C109.76 140 109.92 139.2 109.6 138.56L108.16 136.4C107.76 135.84 107.44 135.6 107.2 135.6ZM247.92 135.6C247.68 135.6 247.36 135.84 247.04 136.4L245.52 138.56C245.2 139.2 245.36 140 246.08 139.36C246.843 138.71 247.539 137.987 248.16 137.2C248.64 136.56 248.48 135.6 247.92 135.6ZM111.28 136.4C110.8 136.4 110.48 136.72 110.88 137.44L112.4 140.48C112.8 141.28 114 141.52 113.52 140.32L112.48 137.28C112.24 136.72 111.68 136.48 111.28 136.48V136.4ZM243.92 136.4C243.44 136.4 242.88 136.72 242.64 137.28L241.68 140.32C241.2 141.52 242.4 141.28 242.8 140.48C243.2 139.68 243.84 138.48 244.24 137.44C244.64 136.72 244.32 136.4 243.92 136.4ZM103.44 136.72C102.8 136.72 102.8 137.28 103.36 137.68C104.08 138.24 104.96 138.8 105.76 139.52C106.8 140.32 107.12 139.52 106.56 138.88C106.08 138.24 105.6 137.6 104.24 136.88C103.92 136.72 103.68 136.72 103.44 136.72ZM251.68 136.72C251.52 136.72 251.2 136.72 250.88 136.88C249.6 137.6 249.04 138.24 248.48 138.88C248 139.6 248.4 140.32 249.36 139.52C250.16 138.8 251.12 138.24 251.76 137.68C252.4 137.28 252.32 136.72 251.76 136.72H251.68ZM164 137.28C163.6 137.28 163.36 137.68 163.44 138.24L164.24 141.12C164.4 142 165.44 142 165.28 141.12C165.12 140.32 165.04 139.28 164.72 138C164.64 137.52 164.4 137.28 164.08 137.2C164.053 137.198 164.026 137.198 164 137.2V137.28ZM191.04 137.28C190.8 137.28 190.56 137.52 190.4 138.08C190.08 139.28 190 140.32 189.84 141.2C189.68 142 190.72 142 190.88 141.12L191.68 138.24C191.84 137.68 191.52 137.28 191.2 137.28C191.147 137.271 191.093 137.271 191.04 137.28ZM139.84 135.68C139.6 135.68 139.44 136.24 139.68 137.04C140.528 139.345 140.962 141.783 140.96 144.24C140.72 145.2 140.16 145.28 139.44 145.04C138.655 144.653 137.905 144.198 137.2 143.68C136.56 143.28 135.84 143.76 136.8 144.56C141.6 148.56 145.04 153.12 146.4 158.64C146.56 159.76 147.28 159.92 147.12 158.64C146 151.68 145.76 145.92 147.44 142.4C148.08 141.04 147.44 139.76 146.48 141.92C145.76 143.36 144.72 143.92 143.84 142.72C142.589 140.768 141.518 138.706 140.64 136.56C140.48 136 140.24 135.76 140 135.68C139.973 135.675 139.946 135.675 139.92 135.68H139.84ZM215.12 135.68C214.88 135.68 214.64 136 214.48 136.48C213.92 138.08 212.16 141.44 211.28 142.72C210.4 144 209.36 143.36 208.72 141.92C207.68 139.76 207.12 141.04 207.68 142.4C209.36 145.92 209.12 151.68 208.08 158.64C207.84 159.92 208.56 159.76 208.88 158.64C210.359 153.021 213.684 148.062 218.32 144.56C219.28 143.76 218.56 143.28 217.92 143.76C217.21 144.225 216.46 144.627 215.68 144.96C214.88 145.28 214.4 145.2 214.16 144.16C214 143.2 214.32 141.04 215.52 136.96C215.68 136.32 215.52 135.76 215.28 135.68C215.228 135.662 215.171 135.662 215.12 135.68ZM115.52 137.6C115.12 137.6 114.72 137.92 114.96 138.56C115.28 139.68 115.92 140.8 116.16 141.44C116.4 142.16 117.12 141.84 116.96 140.88L116.56 138.4C116.56 137.92 116 137.6 115.52 137.6ZM239.6 137.6C239.12 137.6 238.64 137.92 238.56 138.4L238.24 140.88C238.08 141.84 238.8 142.16 239.04 141.44C239.2 140.8 239.84 139.68 240.16 138.56C240.4 137.92 240.08 137.6 239.6 137.6ZM130.56 136.24C130.08 136.16 130 137.44 130.4 138L132.64 140.48C133.28 141.28 133.68 140.56 133.28 139.92L131.2 136.88C130.96 136.48 130.72 136.24 130.56 136.24ZM224.56 136.24C224.4 136.24 224.16 136.48 223.92 136.88L221.84 139.92C221.44 140.56 221.84 141.28 222.56 140.48L224.72 138C225.12 137.44 225.12 136.16 224.56 136.24ZM118.96 139.44C118.64 139.44 118.4 139.6 118.56 140.24C118.72 141.2 118.96 141.84 119.2 142.72C119.44 143.52 120 143.44 120 142.64L119.76 140.08C119.725 139.888 119.627 139.714 119.483 139.583C119.338 139.453 119.154 139.374 118.96 139.36V139.44ZM236.16 139.44C235.973 139.436 235.79 139.498 235.644 139.615C235.498 139.732 235.397 139.896 235.36 140.08L235.12 142.64C235.12 143.44 235.76 143.6 235.92 142.72L236.64 140.32C236.8 139.6 236.48 139.36 236.16 139.36V139.44ZM129.44 140.56C128.96 140.56 128.56 141.12 129.12 141.84C130 143.04 131.04 143.84 131.44 144.24C131.76 144.72 132.64 144.56 132.08 143.68L130.24 140.88C130.08 140.56 129.76 140.48 129.44 140.56ZM225.44 140.56C225.28 140.56 225.04 140.64 224.96 140.88L223.04 143.68C222.48 144.56 223.36 144.72 223.76 144.32C224.08 143.84 225.12 143.04 226.08 141.84C226.64 141.04 226.16 140.56 225.68 140.56C225.627 140.554 225.573 140.554 225.52 140.56H225.44ZM112.88 143.84C112.56 143.84 112.4 144.16 112.88 144.88C114.115 146.378 115.015 148.124 115.52 150C115.6 151.12 115.12 151.12 114.64 151.12C113.12 151.12 112.4 150 111.12 149.68C109.76 149.44 109.52 150.08 110.48 150.8C115.065 153.7 119.056 157.446 122.24 161.84C123.04 163.36 124.08 163.84 123.52 162.48C121.965 159.36 121.301 155.872 121.6 152.4C122 150.16 122.56 148.72 122.48 147.44C122.48 146.24 121.68 146.32 121.44 147.44L120.64 149.68C120.32 150.08 119.2 150.32 118.24 148.96C116.879 147.29 115.381 145.738 113.76 144.32C113.52 144.08 113.2 143.92 112.96 143.84H112.88ZM242.24 143.84C242 143.84 241.68 144 241.36 144.32C239.767 145.742 238.295 147.294 236.96 148.96C235.92 150.32 234.8 150.08 234.56 149.76C234.195 149.024 233.926 148.244 233.76 147.44C233.44 146.32 232.72 146.24 232.64 147.44C232.64 148.72 233.12 150.16 233.52 152.4C233.92 154.64 233.52 158.16 231.68 162.48C231.04 163.84 232.16 163.28 232.96 161.84C236.114 157.449 240.078 153.702 244.64 150.8C245.6 150.08 245.44 149.44 244.08 149.68C242.72 150 242 151.12 240.56 151.12C240.08 151.12 239.52 151.12 239.6 150C239.68 148.96 241.04 146.48 242.24 144.88C242.72 144.08 242.64 143.84 242.24 143.84Z" fill="black"/>
  <path d="M120.08 170.16L121.68 175.04ZM123.28 169.2L124.72 174.16ZM126.8 168.56L127.76 173.68ZM130 168L131.04 173.04ZM134.08 167.6L134.88 172.72ZM138.48 167.6L139.36 172.64ZM142.8 166.16L143.44 171.28ZM146.8 166.4L147.44 171.52ZM150.72 165.92L151.36 171.04ZM154.56 165.44L154.96 170.64ZM158.8 165.44L159.12 170.64ZM162.64 165.2L162.88 170.4ZM166.8 164.96L167.04 170.08ZM171.6 164.8L171.84 170ZM235.04 170.16L233.44 175.04ZM231.84 169.2L230.48 174.16ZM228.4 168.56L227.44 173.68ZM225.2 168L224.16 173.04ZM220.96 167.6L220.16 172.72ZM216.64 167.6L215.76 172.72ZM212.4 166.16L211.76 171.28ZM208.32 166.4L207.68 171.52ZM204.48 165.92L203.76 171.04ZM200.56 165.44L200.16 170.64ZM196.32 165.44L196 170.64ZM192.56 165.2L192.32 170.4ZM188.32 164.96L188.16 170.08ZM183.52 164.8L183.36 170ZM177.6 164.4V170.16Z" fill="#FFD83D"/>
  <path d="M120.08 170.16L121.68 175.04M123.28 169.2L124.72 174.16M126.8 168.56L127.76 173.68M130 168L131.04 173.04M134.08 167.6L134.88 172.72M138.48 167.6L139.36 172.64M142.8 166.16L143.44 171.28M146.8 166.4L147.44 171.52M150.72 165.92L151.36 171.04M154.56 165.44L154.96 170.64M158.8 165.44L159.12 170.64M162.64 165.2L162.88 170.4M166.8 164.96L167.04 170.08M171.6 164.8L171.84 170M235.04 170.16L233.44 175.04M231.84 169.2L230.48 174.16M228.4 168.56L227.44 173.68M225.2 168L224.16 173.04M220.96 167.6L220.16 172.72M216.64 167.6L215.76 172.72M212.4 166.16L211.76 171.28M208.32 166.4L207.68 171.52M204.48 165.92L203.76 171.04M200.56 165.44L200.16 170.64M196.32 165.44L196 170.64M192.56 165.2L192.32 170.4M188.32 164.96L188.16 170.08M183.52 164.8L183.36 170M177.6 164.4V170.16" stroke="black" stroke-width="1.2" stroke-linecap="round" stroke-linejoin="round"/>
  </g>
  <defs>
  <clipPath id="clip0_10_13064">
  <rect width="640" height="480" fill="white"/>
  </clipPath>
  </defs>
  </svg>
