<svg id="flag-icons-my" viewBox="0 0 640 480" xmlns="http://www.w3.org/2000/svg">
  <g clip-path="url(#clip0_10_13487)">
    <path d="M0 0H640V480H0V0Z" fill="#CC0001" />
    <path d="M0 445.8H640V480H0V445.8Z" fill="white" />
    <path d="M0 377.2H640V411.4H0V377.2Z" fill="white" />
    <path d="M0 308.6H640V342.8H0V308.6Z" fill="white" />
    <path d="M0 240H640V274.2H0V240Z" fill="white" />
    <path d="M0 171.5H640V205.7H0V171.5Z" fill="white" />
    <path d="M0 102.8H640V137H0V102.8Z" fill="white" />
    <path d="M0 34.3H640V68.5001H0V34.3Z" fill="white" />
    <path d="M0 0H372.6V274.3H0V0Z" fill="#010066" />
    <path
      d="M149.7 48.5C100.7 48.5 60.7998 88.2 60.7998 137.1C60.826 148.761 63.1489 160.303 67.6358 171.067C72.1226 181.831 78.6857 191.605 86.9501 199.833C95.2145 208.06 105.018 214.579 115.802 219.017C126.586 223.455 138.138 225.726 149.8 225.7C166.811 225.733 183.473 220.873 197.8 211.7C189.493 214.525 180.774 215.944 172 215.9C151.145 215.927 131.131 207.674 116.356 192.955C101.581 178.237 93.2528 158.255 93.1998 137.4C93.2061 124.699 96.2863 112.188 102.177 100.936C108.069 89.6835 116.596 80.0243 127.03 72.7829C137.465 65.5416 149.497 60.9333 162.099 59.3516C174.701 57.77 187.499 59.2619 199.4 63.7C184.722 53.7846 167.413 48.4907 149.7 48.5Z"
      fill="#FFCC00" />
    <path
      d="M297.1 183.2L259.7 163.7L270.7 203.7L245.7 170.2L237.9 210.9L230.2 170.2L205.1 203.6L216.3 163.6L178.7 183.1L206.7 151.8L164.2 153.4L203.2 137.1L164.2 120.6L206.7 122.3L178.9 91L216.3 110.5L205.3 70.5L230.3 104L238.1 63.3L245.8 104L270.9 70.7L259.7 110.6L297.3 91.2L269.3 122.4L311.8 120.8L272.8 137.2L311.8 153.7L269.3 151.9L297.1 183.2Z"
      fill="#FFCC00" />
  </g>
  <defs>
    <clipPath id="clip0_10_13487">
      <rect width="640" height="480" fill="white" />
    </clipPath>
  </defs>
</svg>
