<svg id="flag-icons-ni" viewBox="0 0 640 480" xmlns="http://www.w3.org/2000/svg">
  <g clip-path="url(#clip0_10_14283)">
  <path d="M0 0H640V480H0V0Z" fill="#0067C6"/>
  <path d="M0 160H640V320H0V160Z" fill="white"/>
  <path d="M248 239.5L256 240V238.8L253 238.6L253.2 234.8L256.5 232.4L256.6 230.9L253.1 233.4C253 232.6 252.5 231.7 251.7 231.4C250.9 231.2 250.1 231.2 249.4 231.7C248.6 232.3 248.4 233.3 248.4 234.2L248 239.5ZM249.2 238.4L249.5 234.4C249.6 233.8 249.7 233 250.3 232.6C250.427 232.515 250.571 232.46 250.723 232.44C250.874 232.42 251.028 232.434 251.173 232.482C251.317 232.531 251.449 232.611 251.558 232.718C251.667 232.825 251.749 232.956 251.8 233.1C252.2 234.1 252 235.2 251.9 236.3L251.8 238.5L249.2 238.4ZM249 227.2L256.8 229L258.6 221.4C258.233 221.334 257.866 221.268 257.5 221.2L256 227.6L253.6 227.1L255 221.3L253.9 221L252.5 226.8L250.5 226.3L251.9 220.1L250.7 219.9L249 227.2ZM251.8 216.7L259.4 219.4L259.8 218.3L256.8 217.3L258 213.8C258.2 212.8 258.4 211.8 257.9 210.8C257.667 210.49 257.365 210.238 257.018 210.064C256.671 209.89 256.288 209.8 255.9 209.8C254.9 209.8 254.3 210.5 253.9 211.3C253.3 212.3 252.9 213.5 252.6 214.7L251.8 216.7ZM253.3 216L254.5 212.6C254.8 212 255.1 211.3 255.8 211.1C255.939 211.071 256.082 211.072 256.221 211.103C256.359 211.134 256.49 211.194 256.603 211.279C256.717 211.364 256.811 211.473 256.879 211.597C256.948 211.721 256.989 211.859 257 212C257.2 213 256.7 214 256.4 215L255.7 216.9L253.3 216ZM256 207L260.3 209.6C261.1 210 262.1 210.2 263 209.8C264.084 209.065 264.921 208.019 265.4 206.8C265.8 205.8 266.2 204.6 265.6 203.6C265 202.6 263.9 202.2 262.9 201.6L260.2 200L259.6 201L263.6 203.4C264.3 203.8 264.8 204.4 264.7 205.3C264.501 206.216 264.09 207.072 263.5 207.8C263.1 208.4 262.3 208.9 261.5 208.8C260.7 208.6 260 208 259.3 207.6L256.6 206.1L256 207.1V207ZM261.8 197.7L268.1 202.5L271.1 198.7C271.7 197.8 272.1 196.7 271.8 195.7C271.614 195.315 271.333 194.984 270.983 194.739C270.632 194.494 270.225 194.343 269.8 194.3C269.3 194.3 268.8 194.6 268.6 194.7C268.8 193.8 268.1 193 267.4 192.8C266.4 192.5 265.4 193.1 264.8 193.8L262.8 196.3L261.8 197.7ZM263.4 197.4C264.1 196.4 264.8 195.4 265.6 194.6C266 194.2 266.6 193.6 267.1 194C267.6 194.2 267.8 194.9 267.5 195.3C267.1 196.2 266.5 196.8 265.9 197.6L265.1 198.7L263.4 197.4ZM266 199.4L268.3 196.4C268.7 196 269.3 195.4 269.9 195.6C270.5 195.7 270.9 196.3 270.7 196.9C270.4 197.9 269.6 198.7 268.9 199.6L267.9 200.9L265.9 199.4H266ZM269 189.2L274.5 195L279.2 190.5L278.4 189.7L274.6 193.3H274.5L269.8 188.3L269 189.2ZM276 183L280.9 189.3L281.9 188.6L276.9 182.3L276 183ZM283.2 178.1C282.418 178.559 281.738 179.171 281.2 179.9C280.746 180.501 280.492 181.23 280.474 181.984C280.456 182.737 280.675 183.478 281.1 184.1C281.487 184.736 282.04 185.255 282.7 185.6C283.314 185.923 284.009 186.062 284.7 186C285.663 185.873 286.586 185.531 287.4 185C288.233 184.523 288.923 183.833 289.4 183C289.8 182.2 289.9 181.4 289.7 180.6L288.7 181C288.9 182.6 287.9 183.4 286.7 184C284.9 185.2 283.2 185.1 282.1 183.5C281 181.6 282.1 180.1 283.7 179.1C284.8 178.4 285.9 177.9 286.9 178.6L287.8 177.8C287.219 177.382 286.515 177.171 285.8 177.2C284.9 177.2 284.1 177.6 283.2 178.2V178.1ZM292.7 173.4L291.8 182.4L293.1 181.9L293.3 179.1L297.3 177.5L299.5 179.3L300.7 178.8L293.9 172.9L292.7 173.4ZM293.7 174.4L296.4 176.6L293.4 177.8L293.7 174.3V174.4ZM310.2 168.4L310.7 176.4L315 176.2C316.2 176 317.4 175.8 318.1 174.8C319.1 173.8 319.3 172.1 318.8 170.7C318.611 170.092 318.259 169.548 317.784 169.125C317.308 168.702 316.726 168.417 316.1 168.3C314.9 168.1 313.7 168.3 312.5 168.3L310.2 168.5V168.4ZM311.4 169.5L314.9 169.4C315.538 169.371 316.169 169.546 316.7 169.9C317.5 170.5 318 171.4 317.9 172.4C317.856 172.958 317.641 173.489 317.282 173.919C316.924 174.349 316.441 174.657 315.9 174.8C315.3 175 314.6 175 314 175.1L311.8 175.2L311.4 169.5ZM321.4 168L320.9 176L328.7 176.4V175.3L322.1 174.9L322.2 172.5L328.2 172.8V171.7L322.3 171.4L322.4 169.2L328.8 169.6V168.4L321.3 168H321.4ZM342.2 171.3L339.3 178.8L340.3 179.2L342.7 173.2V173L342.9 173.3L345.7 181.3L347 181.8L349.9 174.3L348.9 173.9L346.6 179.9L346.5 180.1L346.3 179.8L343.6 171.8L342.2 171.3ZM353 176L349.3 183L348.3 182.5L351.9 175.4L353 176ZM359 179.5C358.273 179.013 357.458 178.673 356.6 178.5C355.86 178.29 355.073 178.323 354.353 178.593C353.634 178.862 353.019 179.356 352.6 180C352.214 180.633 352.006 181.359 352 182.1C352 182.8 352.1 183.5 352.6 184.2C353 184.9 353.6 185.5 354.6 186.2C355.406 186.748 356.332 187.091 357.3 187.2C358.091 187.222 358.867 186.975 359.5 186.5L358.7 185.6C357.3 186.6 356.2 185.9 355.1 185.2C353.3 184 352.6 182.4 353.7 180.7C354.9 178.9 356.8 179.4 358.4 180.4C359.4 181.1 360.4 181.9 360.2 183.1L361.2 183.5C361.319 182.818 361.214 182.117 360.9 181.5C360.5 180.7 359.9 180.1 359 179.5ZM366.6 185.2L358.3 188.6L359.3 189.5L361.9 188.5L365.2 191.3L364.5 194L365.5 194.9L367.6 186.1L366.6 185.2ZM366.3 186.6L365.5 190L363 188L366.3 186.6ZM372.7 190.8L366.5 195.8L367.2 196.8L369.7 194.8L372.1 197.8L371.4 201.8L372.3 202.9L373.1 198.7C373.8 199.2 374.8 199.5 375.6 199.1C376.3 198.7 377 198.1 377 197.3C377 196.2 376.3 195.3 375.7 194.5L372.7 190.8ZM372.5 192.4L375.1 195.6C375.5 196.2 376 197 375.5 197.6C375.2 198.2 374.4 198.2 373.9 197.8C372.9 197.1 372.3 196.1 371.5 195.2L370.5 194.1L372.5 192.4ZM382 203.5L373 203.9L373.7 205.1L376.5 205L378.7 208.8L377.1 211.1L377.8 212.3L382.7 204.7L382 203.5ZM381.3 204.7L379.3 207.7L377.8 204.9L381.3 204.7ZM387.2 214.1C386.7 212.8 385.9 211.4 384.5 210.7C383.744 210.35 382.894 210.259 382.081 210.44C381.268 210.62 380.537 211.063 380 211.7C379 212.7 379 214.2 379.3 215.6C379.6 217.1 380.3 218.6 381.3 219.7L380.7 219.9L381.1 221L384.9 219.7L383.4 215.6L382.6 215.9L383.6 218.9L382.4 219.4C381.315 218.388 380.58 217.057 380.3 215.6C380 214.5 380 213.2 380.8 212.4C381.8 211.4 383.4 211.1 384.5 211.9C385.6 212.7 386.2 214 386.5 215.3C386.8 216.2 386.7 217.2 386.1 217.9C385.9 217.9 386.1 218.2 386.2 218.3L386.5 218.8C386.839 218.541 387.114 218.209 387.305 217.827C387.495 217.446 387.596 217.026 387.6 216.6C387.62 215.749 387.484 214.902 387.2 214.1ZM389.5 220.4L385 221.2C384.309 221.3 383.655 221.576 383.1 222C382.666 222.391 382.383 222.922 382.3 223.5V225.9C382.6 226.9 382.9 227.6 383.3 228.2C383.6 228.8 384 229.2 384.5 229.2C385.156 229.369 385.844 229.369 386.5 229.2L391 228.4L390.8 227.3L386.4 228.1C384.4 228.5 383.8 227.5 383.4 225.7C383.1 223.9 383.4 222.7 385.3 222.4L389.7 221.5L389.5 220.4ZM391.9 234L383.6 230.4L383.7 231.8L386.3 232.8L386.6 237.2L384.2 238.7L384.3 240L392 235.3L391.9 234ZM390.7 234.7L387.7 236.6L387.5 233.4L390.7 234.7ZM254.2 254.7L253 255L254.3 259.9L255.5 259.6L254.2 254.7ZM385.8 254.7L387 255L385.7 259.9L384.5 259.6L385.8 254.7ZM266.6 275.2L257.6 276.2L258.4 277.3L261.2 277L263.6 280.6L262.2 283.1L263 284.1L267.3 276.3L266.6 275.2ZM265.9 276.5L264.2 279.5L262.4 276.9L265.9 276.5ZM270 280.1L264.3 285.4L265.1 286.2L269.9 281.7L267.3 288.7L268.3 289.6L275.1 287.6L270.4 291.9L271.2 292.7L276.9 287.4L275.7 286.2L268.7 288.2L271.3 281.5L270 280.1ZM278.3 288.5L273.5 295L279.7 299.6L280.4 298.7L275.1 294.7L276.6 292.7L281.3 296.4L282 295.4L277.3 291.9L278.6 290.2L283.6 294L284.3 293L278.3 288.5ZM286.1 294.3L282.4 301.3L283.4 301.9L284.9 299.1L288.3 300.9L289.1 304.9L290.4 305.6L289.5 301.4C290.4 301.7 291.5 301.5 292 300.8C292.5 300.2 292.9 299.5 292.6 298.7C292.4 297.7 291.3 297.1 290.5 296.6L286.1 294.3ZM286.6 295.8L290.2 297.8C290.8 298.2 291.5 298.7 291.4 299.4C291.4 300.1 290.7 300.4 290.1 300.3C288.9 300.1 287.9 299.4 286.9 298.9L285.4 298.1L286.6 295.8ZM295.2 299L292.2 306.4L293.2 306.9L296.2 299.5L295.2 299ZM302.4 301.5C301.568 301.196 300.685 301.06 299.8 301.1C299.03 301.113 298.284 301.372 297.672 301.84C297.06 302.308 296.614 302.96 296.4 303.7C296.218 304.388 296.218 305.112 296.4 305.8C296.4 306.6 296.8 307.2 297.4 307.8C298.089 308.412 298.911 308.857 299.8 309.1C300.73 309.43 301.733 309.5 302.7 309.3C303.487 309.148 304.196 308.723 304.7 308.1L303.7 307.5C302.7 308.8 301.4 308.5 300.1 308C298.1 307.3 297 306 297.6 304C298.3 302 300.3 302 302 302.5C303.2 302.9 304.3 303.5 304.4 304.6L305.6 304.8C305.545 304.048 305.226 303.34 304.7 302.8C304.053 302.183 303.262 301.736 302.4 301.5ZM310.4 303.3L305.2 310.6L306.5 310.8L308.1 308.5L312.5 309.2L313.4 311.8L314.7 312L311.7 303.5L310.4 303.3ZM310.9 304.6L312.1 308L308.9 307.5L310.9 304.6ZM329.2 303.4C328.2 303.5 327.5 303.8 326.8 304.3C326.139 304.685 325.618 305.271 325.312 305.972C325.007 306.673 324.932 307.454 325.1 308.2C325.2 308.9 325.5 309.5 326.1 310.2C326.5 310.7 327.1 311 327.9 311.2C328.6 311.4 329.6 311.4 330.7 311.2C331.7 311 332.7 310.6 333.3 310C333.886 309.48 334.275 308.774 334.4 308H333.2C332.9 309.6 331.7 310 330.4 310.2C328.3 310.6 326.7 309.9 326.3 307.9C325.9 305.8 327.6 304.8 329.3 304.4C330.6 304.2 331.8 304.1 332.5 305.1L333.5 304.7C333.125 304.102 332.562 303.645 331.9 303.4C331.015 303.171 330.085 303.171 329.2 303.4ZM334.5 302.4L336.8 310.1L344.3 307.9L343.9 306.8L337.6 308.7L336.9 306.3L342.6 304.6L342.3 303.6L336.6 305.2L336 303.2L342 301.4L341.7 300.3L334.5 302.4ZM343.2 299.7L346.5 307L347.5 306.5L344.7 300.5L352.5 304H353L354 303.5L350.6 296.2L349.6 296.7L352.4 302.7L344.4 299.1L343.2 299.7ZM352 295.6L352.6 296.6L355.4 294.6H355.6L359.3 300.3L360.3 299.6L356.6 294V293.9L359.5 291.9L358.9 291L352 295.6ZM360 290L365.4 296L366.3 295.1L364.2 292.8L367 290.2L371 290.8L372.2 289.8L367.9 289.2C368.4 288.5 368.6 287.4 368.1 286.6C367.7 285.9 367.1 285.3 366.2 285.4C365.2 285.4 364.2 286.2 363.5 286.8L360 290.1V290ZM361.6 290.1L364.6 287.3C365.2 286.9 366 286.4 366.6 286.8C367.3 287.1 367.3 287.9 366.9 288.4C366.3 289.4 365.4 290.1 364.5 291L363.4 292L361.6 290V290.1ZM369.3 280.7L372.9 289L373.7 288L372.7 285.4L375.4 282L378.1 282.6L379 281.6L370.2 279.6L369.3 280.7ZM370.7 281L374.2 281.7L372.2 284.2L370.7 281ZM372.8 276.2L379.5 280.5L383 275.1L382 274.5L379.3 278.8L379.2 279H379.1L373.4 275.2L372.8 276.2Z" fill="#C8A400"/>
  <mask id="mask0_10_14283" style="mask-type:luminance" maskUnits="userSpaceOnUse" x="269" y="181" width="102" height="89">
  <path d="M320 181.12L269.04 269.36H370.96L320 181.12Z" fill="white"/>
  </mask>
  <g mask="url(#mask0_10_14283)">
  <path d="M319.999 181.12L294.799 224.72L282.479 246.08H357.52L345.759 225.76L319.999 181.12Z" fill="white"/>
  <path opacity="0.6" d="M320 181.12L318.08 184.32L320 228.32L321.92 184.32L320 181.12Z" fill="#17C0EB" stroke="#17C0EB" stroke-width="0.08"/>
  <path d="M320 222H319.92L320 224.4L320.08 222H320Z" fill="white"/>
  <path opacity="0.6" d="M364.965 213.79L361.329 212.952L320.076 228.375L362.515 216.605L364.965 213.79Z" fill="#17C0EB" stroke="#17C0EB" stroke-width="0.08"/>
  <path d="M326.086 226.422L326.062 226.346L323.804 227.164L326.111 226.498L326.086 226.422Z" fill="white"/>
  <path opacity="0.6" d="M347.79 266.65L347.463 262.933L320.047 228.465L344.356 265.19L347.79 266.65Z" fill="#17C0EB" stroke="#17C0EB" stroke-width="0.08"/>
  <path d="M323.761 233.578L323.826 233.531L322.351 231.636L323.697 233.625L323.761 233.578Z" fill="white"/>
  <path opacity="0.6" d="M292.209 266.65L295.644 265.19L319.953 228.465L292.537 262.933L292.209 266.65Z" fill="#17C0EB" stroke="#17C0EB" stroke-width="0.08"/>
  <path d="M316.238 233.578L316.303 233.625L317.649 231.636L316.173 233.531L316.238 233.578Z" fill="white"/>
  <path opacity="0.6" d="M275.034 213.79L277.484 216.605L319.924 228.375L278.67 212.952L275.034 213.79Z" fill="#17C0EB" stroke="#17C0EB" stroke-width="0.08"/>
  <path d="M313.913 226.422L313.889 226.498L316.196 227.164L313.938 226.346L313.913 226.422Z" fill="white"/>
  <path opacity="0.6" d="M326.58 181.58L324.233 184.482L320.011 228.321L328.036 185.016L326.58 181.58Z" fill="#17C0EB" stroke="#17C0EB" stroke-width="0.08"/>
  <path d="M320.891 222.062L320.812 222.051L320.557 224.439L320.97 222.073L320.891 222.062Z" fill="white"/>
  <path opacity="0.6" d="M366.561 220.19L363.076 218.855L320.078 228.386L363.743 222.636L366.561 220.19Z" fill="#17C0EB" stroke="#17C0EB" stroke-width="0.08"/>
  <path d="M326.302 227.289L326.288 227.21L323.938 227.705L326.316 227.367L326.302 227.289Z" fill="white"/>
  <path opacity="0.6" d="M342.196 270.146L342.389 266.419L320.037 228.471L338.999 268.222L342.196 270.146Z" fill="#17C0EB" stroke="#17C0EB" stroke-width="0.08"/>
  <path d="M323.005 234.051L323.075 234.013L321.878 231.932L322.934 234.088L323.005 234.051Z" fill="white"/>
  <path opacity="0.6" d="M287.156 262.41L290.76 261.442L319.944 228.458L287.998 258.775L287.156 262.41Z" fill="#17C0EB" stroke="#17C0EB" stroke-width="0.08"/>
  <path d="M315.554 233.004L315.611 233.059L317.221 231.277L315.496 232.948L315.554 233.004Z" fill="white"/>
  <path opacity="0.6" d="M277.505 207.674L279.539 210.802L319.928 228.365L281.223 207.351L277.505 207.674Z" fill="#17C0EB" stroke="#17C0EB" stroke-width="0.08"/>
  <path d="M314.247 225.594L314.212 225.666L316.404 226.647L314.282 225.523L314.247 225.594Z" fill="white"/>
  <path opacity="0.6" d="M333.032 182.952L330.304 185.498L320.022 228.323L333.996 186.557L333.032 182.952Z" fill="#17C0EB" stroke="#17C0EB" stroke-width="0.08"/>
  <path d="M321.764 222.248L321.688 222.226L321.103 224.555L321.841 222.27L321.764 222.248Z" fill="white"/>
  <path opacity="0.6" d="M367.251 226.75L363.986 224.943L320.079 228.397L364.12 228.78L367.251 226.75Z" fill="#17C0EB" stroke="#17C0EB" stroke-width="0.08"/>
  <path d="M326.395 228.177L326.393 228.097L323.997 228.26L326.398 228.257L326.395 228.177Z" fill="white"/>
  <path opacity="0.6" d="M336.17 272.829L336.88 269.165L320.027 228.475L333.272 270.478L336.17 272.829Z" fill="#17C0EB" stroke="#17C0EB" stroke-width="0.08"/>
  <path d="M322.188 234.414L322.264 234.387L321.368 232.159L322.113 234.441L322.188 234.414Z" fill="white"/>
  <path opacity="0.6" d="M282.743 257.508L286.446 257.051L319.937 228.449L284.082 254.025L282.743 257.508Z" fill="#17C0EB" stroke="#17C0EB" stroke-width="0.08"/>
  <path d="M314.957 232.34L315.006 232.403L316.848 230.863L314.907 232.277L314.957 232.34Z" fill="white"/>
  <path opacity="0.6" d="M280.803 201.961L282.382 205.342L319.934 228.355L284.53 202.159L280.803 201.961Z" fill="#17C0EB" stroke="#17C0EB" stroke-width="0.08"/>
  <path d="M314.694 224.821L314.649 224.887L316.684 226.163L314.739 224.755L314.694 224.821Z" fill="white"/>
  <path opacity="0.6" d="M339.23 185.208L336.174 187.35L320.032 228.327L339.682 188.912L339.23 185.208Z" fill="#17C0EB" stroke="#17C0EB" stroke-width="0.08"/>
  <path d="M322.602 222.553L322.529 222.521L321.626 224.746L322.675 222.586L322.602 222.553Z" fill="white"/>
  <path opacity="0.6" d="M367.02 233.342L364.038 231.098L320.079 228.408L363.637 234.917L367.02 233.342Z" fill="#17C0EB" stroke="#17C0EB" stroke-width="0.08"/>
  <path d="M326.364 229.069L326.372 228.989L323.977 228.818L326.355 229.149L326.364 229.069Z" fill="white"/>
  <path opacity="0.6" d="M329.829 274.647L331.042 271.117L320.016 228.478L327.286 271.916L329.829 274.647Z" fill="#17C0EB" stroke="#17C0EB" stroke-width="0.08"/>
  <path d="M321.33 234.66L321.408 234.643L320.831 232.313L321.252 234.677L321.33 234.66Z" fill="white"/>
  <path opacity="0.6" d="M279.054 252.04L282.785 252.103L319.93 228.44L280.865 248.777L279.054 252.04Z" fill="#17C0EB" stroke="#17C0EB" stroke-width="0.08"/>
  <path d="M314.457 231.6L314.497 231.669L316.536 230.4L314.417 231.531L314.457 231.6Z" fill="white"/>
  <path opacity="0.6" d="M284.864 196.763L285.957 200.332L319.94 228.346L288.527 197.478L284.864 196.763Z" fill="#17C0EB" stroke="#17C0EB" stroke-width="0.08"/>
  <path d="M315.244 224.118L315.19 224.177L317.028 225.723L315.297 224.058L315.244 224.118Z" fill="white"/>
  <path opacity="0.6" d="M345.054 188.304L341.73 190.001L320.042 228.332L344.987 192.036L345.054 188.304Z" fill="#17C0EB" stroke="#17C0EB" stroke-width="0.08"/>
  <path d="M323.391 222.973L323.323 222.93L322.119 225.008L323.459 223.015L323.391 222.973Z" fill="white"/>
  <path opacity="0.6" d="M365.875 239.838L363.235 237.201L320.077 228.419L362.306 240.927L365.875 239.838Z" fill="#17C0EB" stroke="#17C0EB" stroke-width="0.08"/>
  <path d="M326.21 229.948L326.229 229.871L323.881 229.368L326.191 230.026L326.21 229.948Z" fill="white"/>
  <path opacity="0.6" d="M323.298 275.565L324.99 272.239L320.005 228.48L321.159 272.507L323.298 275.565Z" fill="#17C0EB" stroke="#17C0EB" stroke-width="0.08"/>
  <path d="M320.446 234.784L320.525 234.779L320.278 232.39L320.366 234.79L320.446 234.784Z" fill="white"/>
  <path opacity="0.6" d="M276.163 246.111L279.849 246.693L319.926 228.43L278.41 243.132L276.163 246.111Z" fill="#17C0EB" stroke="#17C0EB" stroke-width="0.08"/>
  <path d="M314.066 230.798L314.096 230.872L316.291 229.898L314.036 230.723L314.066 230.798Z" fill="white"/>
  <path opacity="0.6" d="M289.608 192.181L290.195 195.867L319.948 228.339L293.136 193.399L289.608 192.181Z" fill="#17C0EB" stroke="#17C0EB" stroke-width="0.08"/>
  <path d="M315.886 223.497L315.824 223.549L317.428 225.336L315.947 223.446L315.886 223.497Z" fill="white"/>
  <path opacity="0.6" d="M350.391 192.181L346.863 193.399L320.051 228.339L349.805 195.867L350.391 192.181Z" fill="#17C0EB" stroke="#17C0EB" stroke-width="0.08"/>
  <path d="M324.114 223.497L324.053 223.446L322.571 225.336L324.175 223.549L324.114 223.497Z" fill="white"/>
  <path opacity="0.6" d="M363.836 246.111L361.589 243.132L320.073 228.43L360.15 246.693L363.836 246.111Z" fill="#17C0EB" stroke="#17C0EB" stroke-width="0.08"/>
  <path d="M325.933 230.797L325.963 230.723L323.708 229.898L325.903 230.872L325.933 230.797Z" fill="white"/>
  <path opacity="0.6" d="M316.702 275.565L318.84 272.507L319.994 228.48L315.01 272.239L316.702 275.565Z" fill="#17C0EB" stroke="#17C0EB" stroke-width="0.08"/>
  <path d="M319.554 234.784L319.634 234.79L319.721 232.39L319.474 234.779L319.554 234.784Z" fill="white"/>
  <path opacity="0.6" d="M274.124 239.838L277.694 240.927L319.922 228.419L276.765 237.201L274.124 239.838Z" fill="#17C0EB" stroke="#17C0EB" stroke-width="0.08"/>
  <path d="M313.79 229.948L313.81 230.026L316.119 229.368L313.771 229.871L313.79 229.948Z" fill="white"/>
  <path opacity="0.6" d="M294.945 188.304L295.012 192.035L319.957 228.332L298.269 190.001L294.945 188.304Z" fill="#17C0EB" stroke="#17C0EB" stroke-width="0.08"/>
  <path d="M316.608 222.972L316.54 223.015L317.88 225.008L316.676 222.93L316.608 222.972Z" fill="white"/>
  <path opacity="0.6" d="M355.135 196.763L351.473 197.478L320.059 228.346L354.042 200.331L355.135 196.763Z" fill="#17C0EB" stroke="#17C0EB" stroke-width="0.08"/>
  <path d="M324.756 224.117L324.702 224.058L322.972 225.723L324.809 224.177L324.756 224.117Z" fill="white"/>
  <path opacity="0.6" d="M360.945 252.04L359.134 248.777L320.069 228.44L357.214 252.103L360.945 252.04Z" fill="#17C0EB" stroke="#17C0EB" stroke-width="0.08"/>
  <path d="M325.542 231.6L325.582 231.531L323.464 230.4L325.502 231.669L325.542 231.6Z" fill="white"/>
  <path opacity="0.6" d="M310.17 274.647L312.713 271.916L319.983 228.478L308.957 271.118L310.17 274.647Z" fill="#17C0EB" stroke="#17C0EB" stroke-width="0.08"/>
  <path d="M318.669 234.66L318.747 234.677L319.168 232.313L318.591 234.644L318.669 234.66Z" fill="white"/>
  <path opacity="0.6" d="M272.979 233.342L276.362 234.917L319.92 228.408L275.961 231.098L272.979 233.342Z" fill="#17C0EB" stroke="#17C0EB" stroke-width="0.08"/>
  <path d="M313.635 229.069L313.644 229.148L316.022 228.818L313.627 228.989L313.635 229.069Z" fill="white"/>
  <path opacity="0.6" d="M300.769 185.208L300.316 188.912L319.967 228.327L303.824 187.35L300.769 185.208Z" fill="#17C0EB" stroke="#17C0EB" stroke-width="0.08"/>
  <path d="M317.396 222.553L317.323 222.586L318.372 224.746L317.469 222.521L317.396 222.553Z" fill="white"/>
  <path opacity="0.6" d="M359.197 201.961L355.47 202.159L320.066 228.355L357.617 205.343L359.197 201.961Z" fill="#17C0EB" stroke="#17C0EB" stroke-width="0.08"/>
  <path d="M325.305 224.821L325.261 224.755L323.316 226.163L325.35 224.888L325.305 224.821Z" fill="white"/>
  <path opacity="0.6" d="M357.257 257.509L355.918 254.025L320.063 228.449L353.554 257.051L357.257 257.509Z" fill="#17C0EB" stroke="#17C0EB" stroke-width="0.08"/>
  <path d="M325.044 232.34L325.093 232.277L323.152 230.863L324.994 232.403L325.044 232.34Z" fill="white"/>
  <path opacity="0.6" d="M303.83 272.829L306.728 270.478L319.973 228.475L303.12 269.165L303.83 272.829Z" fill="#17C0EB" stroke="#17C0EB" stroke-width="0.08"/>
  <path d="M317.812 234.414L317.887 234.441L318.632 232.159L317.736 234.387L317.812 234.414Z" fill="white"/>
  <path opacity="0.6" d="M272.749 226.75L275.88 228.78L319.92 228.397L276.014 224.943L272.749 226.75Z" fill="#17C0EB" stroke="#17C0EB" stroke-width="0.08"/>
  <path d="M313.603 228.177L313.601 228.257L316.002 228.26L313.606 228.097L313.603 228.177Z" fill="white"/>
  <path opacity="0.6" d="M306.968 182.952L306.004 186.557L319.978 228.323L309.695 185.498L306.968 182.952Z" fill="#17C0EB" stroke="#17C0EB" stroke-width="0.08"/>
  <path d="M318.236 222.248L318.159 222.27L318.898 224.555L318.313 222.226L318.236 222.248Z" fill="white"/>
  <path opacity="0.6" d="M362.494 207.674L358.776 207.351L320.071 228.365L360.46 210.802L362.494 207.674Z" fill="#17C0EB" stroke="#17C0EB" stroke-width="0.08"/>
  <path d="M325.751 225.594L325.716 225.523L323.594 226.647L325.786 225.666L325.751 225.594Z" fill="white"/>
  <path opacity="0.6" d="M352.843 262.41L352.001 258.775L320.055 228.458L349.238 261.442L352.843 262.41Z" fill="#17C0EB" stroke="#17C0EB" stroke-width="0.08"/>
  <path d="M324.444 233.004L324.502 232.948L322.777 231.277L324.387 233.059L324.444 233.004Z" fill="white"/>
  <path opacity="0.6" d="M297.803 270.146L301 268.222L319.962 228.471L297.61 266.419L297.803 270.146Z" fill="#17C0EB" stroke="#17C0EB" stroke-width="0.08"/>
  <path d="M316.995 234.051L317.065 234.088L318.122 231.932L316.924 234.013L316.995 234.051Z" fill="white"/>
  <path opacity="0.6" d="M273.438 220.19L276.256 222.636L319.921 228.386L276.923 218.855L273.438 220.19Z" fill="#17C0EB" stroke="#17C0EB" stroke-width="0.08"/>
  <path d="M313.697 227.289L313.683 227.367L316.06 227.705L313.71 227.21L313.697 227.289Z" fill="white"/>
  <path opacity="0.6" d="M313.419 181.58L311.963 185.016L319.988 228.321L315.766 184.482L313.419 181.58Z" fill="#17C0EB" stroke="#17C0EB" stroke-width="0.08"/>
  <path d="M319.109 222.062L319.029 222.073L319.443 224.439L319.188 222.051L319.109 222.062Z" fill="white"/>
  <path d="M319.999 212.64C311.478 212.63 303.239 215.698 296.799 221.28L285.119 241.6C284.701 243.789 284.487 246.012 284.479 248.24H288.479C288.887 240.165 292.381 232.556 298.24 226.985C304.099 221.414 311.875 218.307 319.959 218.307C328.044 218.307 335.82 221.414 341.679 226.985C347.538 232.556 351.032 240.165 351.439 248.24H355.439C355.458 246.014 355.271 243.791 354.879 241.6L343.199 221.28C336.756 215.705 328.52 212.637 319.999 212.64Z" fill="#FF0000"/>
  <path d="M320 213.36C310.959 213.341 302.266 216.841 295.76 223.12L286.16 239.84C285.48 242.561 285.131 245.355 285.12 248.16H288.56C289.128 240.209 292.687 232.769 298.52 227.336C304.354 221.904 312.029 218.884 320 218.884C327.971 218.884 335.646 221.904 341.48 227.336C347.314 232.769 350.873 240.209 351.44 248.16H354.88C354.873 245.328 354.524 242.508 353.84 239.76L344.24 223.12C337.735 216.841 329.041 213.341 320 213.36Z" fill="#FF6600"/>
  <path d="M320 214C315.166 213.987 310.385 215 305.972 216.972C301.559 218.944 297.615 221.83 294.4 225.44L287.44 237.44C286.331 240.931 285.791 244.577 285.84 248.24H288.48C288.887 240.165 292.381 232.556 298.241 226.985C304.1 221.414 311.875 218.307 319.96 218.307C328.045 218.307 335.82 221.414 341.679 226.985C347.539 232.556 351.033 240.165 351.44 248.24H354.24C354.24 244.48 353.6 240.88 352.56 237.52L345.52 225.44C342.317 221.837 338.387 218.954 333.988 216.982C329.588 215.01 324.821 213.993 320 214Z" fill="#FFFF00"/>
  <path d="M319.999 214.64C314.482 214.637 309.048 215.993 304.178 218.588C299.309 221.183 295.154 224.938 292.079 229.52L289.839 233.44C287.572 238.044 286.395 243.108 286.399 248.24H288.559C289.127 240.289 292.686 232.849 298.52 227.416C304.353 221.984 312.028 218.964 319.999 218.964C327.971 218.964 335.646 221.984 341.479 227.416C347.313 232.849 350.872 240.289 351.439 248.24H353.599C353.604 243.108 352.427 238.044 350.159 233.44L347.919 229.44C344.845 224.858 340.69 221.103 335.82 218.508C330.951 215.913 325.517 214.557 319.999 214.56V214.64Z" fill="#00FF00"/>
  <path d="M320 215.2C315.665 215.2 311.372 216.055 307.368 217.717C303.364 219.378 299.727 221.813 296.666 224.882C293.604 227.951 291.178 231.594 289.526 235.602C287.874 239.61 287.03 243.905 287.04 248.24H288.56C289.128 240.289 292.687 232.849 298.52 227.416C304.354 221.984 312.029 218.964 320 218.964C327.971 218.964 335.646 221.984 341.48 227.416C347.314 232.849 350.873 240.289 351.44 248.24H352.96C352.971 243.905 352.126 239.61 350.474 235.602C348.823 231.594 346.396 227.951 343.335 224.882C340.273 221.813 336.636 219.378 332.632 217.717C328.628 216.055 324.335 215.2 320 215.2Z" fill="#00CCFF"/>
  <path d="M320 215.84C311.428 215.84 303.207 219.245 297.146 225.306C291.085 231.367 287.68 239.588 287.68 248.16H288.8C288.8 239.885 292.087 231.949 297.938 226.098C303.789 220.247 311.725 216.96 320 216.96C328.274 216.96 336.21 220.247 342.061 226.098C347.913 231.949 351.2 239.885 351.2 248.16H352.32C352.277 239.616 348.854 231.436 342.797 225.41C336.74 219.383 328.544 216 320 216V215.84Z" fill="#0000FF"/>
  <path d="M319.999 216.56C315.792 216.559 311.626 217.397 307.745 219.024C303.865 220.651 300.347 223.035 297.398 226.036C294.449 229.037 292.127 232.596 290.568 236.505C289.01 240.413 288.245 244.593 288.319 248.8H288.959V248.16C289.044 239.928 292.396 232.066 298.277 226.305C304.158 220.544 312.087 217.355 320.319 217.44C328.552 217.525 336.413 220.877 342.174 226.758C347.935 232.639 351.124 240.568 351.039 248.8H351.679V248.16C351.679 244 350.86 239.88 349.268 236.037C347.676 232.193 345.342 228.701 342.401 225.759C339.459 222.817 335.966 220.484 332.123 218.891C328.279 217.299 324.16 216.48 319.999 216.48V216.56Z" fill="#800080"/>
  <path d="M320.32 230.48C319.76 230.48 319.36 230.08 318.88 230C318.647 230.206 318.472 230.469 318.374 230.764C318.275 231.06 318.257 231.375 318.32 231.68C318.56 231.76 318.56 232 319.04 232.4C319.52 232.8 319.44 232.96 319.36 234C319.36 234.32 319.44 235.2 319.84 235.28C320.24 235.36 320.64 235.04 320.72 234.32C320.8 233.76 321.04 233.36 321.28 233.04C321.52 231.52 321.12 230.96 320.32 230.48Z" fill="#510000"/>
  <path d="M317.76 226.8C317.28 226.8 316.48 227.6 316.16 227.2C316 226.96 315.92 226.48 316.16 226.08C316.521 225.284 317.141 224.635 317.92 224.24C319.76 223.12 321.04 223.44 321.92 225.04C322.8 226.48 323.68 228.08 323.76 229.36C323.76 229.76 324 230.48 323.6 230.88C322.56 232 319.92 229.68 318.4 230.08C317.92 230.16 317.28 230.56 316.8 230.24C316.48 230 316.8 229.44 317.04 229.2C317.52 228.8 318.24 227.28 318.16 226.64C318.16 226.32 318.16 226.8 317.76 226.8Z" fill="#FF0000"/>
  <path d="M317.6 226.08C316.64 226.4 316.8 226.88 316.32 227.28C316.48 227.36 316.96 227.52 317.44 227.04C317.6 226.88 317.84 226.8 318 226.8L317.44 227.36C316.965 227.751 316.582 228.243 316.32 228.8C316.08 229.44 316 230.16 316.08 230.24C316.08 230.24 316.4 230.88 317.28 231.2C318.88 231.84 319.2 233.2 320.88 233.2C322.16 233.2 322 232.32 323.04 232.48C323.84 232.64 324.4 231.92 323.52 231.52C322.093 231.24 320.626 231.24 319.2 231.52C318.88 228.32 319.2 229.44 319.12 228C319.04 226.64 318.56 226.56 319.12 225.36C318.72 226.16 318.16 226 317.52 226L317.6 226.08Z" fill="url(#paint0_linear_10_14283)"/>
  <path d="M320.8 223.84L320.72 224.32L320.96 225.12L321.12 225.92C321.12 226.16 321.44 226.24 321.68 226.4C322 226.64 321.68 227.2 321.92 227.28C322.08 227.28 322.32 226.48 322.32 226.32V225.76C322.195 225.516 322.061 225.275 321.92 225.04C321.87 224.957 321.817 224.877 321.76 224.8C321.582 224.53 321.367 224.288 321.12 224.08C321.042 224.023 320.962 223.97 320.88 223.92L320.72 223.84H320.8Z" fill="#FF2A2A"/>
  <path d="M321.039 229.92L319.439 229.36C318.399 229.04 317.359 228.4 316.639 228.72C316.399 228.8 316.399 229.04 316.319 229.44C316.319 229.84 315.919 230.48 316.319 230.24C316.799 229.92 318.239 230.88 318.719 231.12C318.959 231.28 319.519 231.6 319.599 231.92C319.759 232.4 319.599 233.36 319.599 233.84C319.599 234.24 319.759 235.28 320.159 235.44C320.639 235.52 321.039 235.12 321.199 234.4C321.439 233.68 321.519 233.28 321.839 232.88C322.159 232.48 322.479 232.24 322.879 232.16C323.359 232.16 323.999 232.56 323.999 232C323.999 231.68 323.679 231.36 323.839 230.88C323.919 230.48 323.519 230.56 323.119 230.4L320.959 229.92H321.039Z" fill="url(#paint1_linear_10_14283)"/>
  <path d="M318.72 231.12C318.4 230.96 316.88 229.92 316.32 230.32C316.08 230.32 316 230.32 316 230.08L316.16 229.36C316.16 229.12 316.32 228.72 316.56 228.56C317.12 228.08 318.4 228.96 319.04 229.2L318.72 231.12Z" fill="#910000"/>
  <path d="M321.44 233.12C322.16 231.84 322.64 232 323.52 232C323.84 232 323.92 231.76 323.84 231.44C323.6 231.92 322.48 231.44 321.84 231.68C320.64 232.24 320.88 234.64 320.24 234.88C320.88 235.44 321.12 233.52 321.44 233.12Z" fill="#FF3A3A"/>
  <path d="M282.479 246.08L274.479 259.92H365.599L357.599 246.16H282.559L282.479 246.08Z" fill="white"/>
  <path d="M279.76 257.12C278.502 257.118 277.246 257.198 276 257.36L275.6 258.08C277.52 257.84 279.36 257.52 281.36 257.52C283.92 257.52 286.32 258.16 289.12 258.16H292.8C295.6 258.16 297.92 257.52 300.56 257.52C303.2 257.52 305.6 258.16 308.4 258.16H312.08C314.88 258.16 317.2 257.52 319.84 257.52C322.48 257.52 324.88 258.16 327.68 258.16H331.28C334.08 258.16 336.48 257.52 339.12 257.52C341.76 257.52 344.16 258.16 346.96 258.16H350.56C353.36 258.16 355.76 257.52 358.4 257.52C360.48 257.52 362.4 257.92 364.4 258.08L364 257.28C362.83 257.159 361.655 257.105 360.48 257.12H356.88C354.08 257.12 351.68 257.68 349.04 257.76C346.4 257.76 344 257.12 341.2 257.12H337.6C334.8 257.12 332.4 257.68 329.76 257.76C327.12 257.76 324.72 257.12 321.92 257.12H318.4C315.6 257.12 313.2 257.68 310.56 257.76C307.92 257.76 305.52 257.12 302.72 257.12H299.12C296.32 257.12 293.92 257.68 291.28 257.76C288.64 257.76 286.32 257.12 283.52 257.12H279.84H279.76Z" fill="url(#paint2_linear_10_14283)"/>
  <path d="M279.76 256.24C278.502 256.238 277.246 256.318 276 256.48L275.6 257.2C277.52 256.96 279.36 256.64 281.36 256.64C283.92 256.64 286.32 257.28 289.12 257.28H292.8C295.6 257.28 297.92 256.64 300.56 256.64C303.2 256.64 305.6 257.28 308.4 257.28H312.08C314.88 257.28 317.2 256.64 319.84 256.64C322.48 256.64 324.88 257.28 327.68 257.28H331.28C334.08 257.28 336.48 256.64 339.12 256.64C341.76 256.64 344.16 257.28 346.96 257.28H350.56C353.36 257.28 355.76 256.64 358.4 256.64C360.48 256.64 362.4 257.04 364.4 257.2L364 256.4C362.83 256.279 361.655 256.225 360.48 256.24H356.88C354.08 256.24 351.68 256.8 349.04 256.88C346.4 256.88 344 256.24 341.2 256.24H337.6C334.8 256.24 332.4 256.8 329.76 256.88C327.12 256.88 324.72 256.24 321.92 256.24H318.4C315.6 256.24 313.2 256.8 310.56 256.88C307.92 256.88 305.52 256.24 302.72 256.24H299.12C296.32 256.24 293.92 256.8 291.28 256.88C288.64 256.88 286.32 256.24 283.52 256.24H279.84H279.76Z" fill="url(#paint3_linear_10_14283)"/>
  <path d="M279.76 255.36C278.502 255.358 277.246 255.438 276 255.6L275.6 256.32C277.52 256.08 279.36 255.76 281.36 255.76C283.92 255.76 286.32 256.4 289.12 256.4H292.8C295.6 256.4 297.92 255.76 300.56 255.76C303.2 255.76 305.6 256.4 308.4 256.4H312.08C314.88 256.4 317.2 255.76 319.84 255.76C322.48 255.76 324.88 256.4 327.68 256.4H331.28C334.08 256.4 336.48 255.76 339.12 255.76C341.76 255.76 344.16 256.4 346.96 256.4H350.56C353.36 256.4 355.76 255.76 358.4 255.76C360.48 255.76 362.4 256.16 364.4 256.32L364 255.52C362.83 255.399 361.655 255.345 360.48 255.36H356.88C354.08 255.36 351.68 255.92 349.04 256C346.4 256 344 255.36 341.2 255.36H337.6C334.8 255.36 332.4 255.92 329.76 256C327.12 256 324.72 255.36 321.92 255.36H318.4C315.6 255.36 313.2 255.92 310.56 256C307.92 256 305.52 255.36 302.72 255.36H299.12C296.32 255.36 293.92 255.92 291.28 256C288.64 256 286.32 255.36 283.52 255.36H279.84H279.76Z" fill="url(#paint4_linear_10_14283)"/>
  <path d="M279.76 254.48C278.502 254.478 277.246 254.558 276 254.72L275.6 255.44C277.52 255.2 279.36 254.88 281.36 254.88C283.92 254.88 286.32 255.52 289.12 255.52H292.8C295.6 255.52 297.92 254.88 300.56 254.88C303.2 254.88 305.6 255.52 308.4 255.52H312.08C314.88 255.52 317.2 254.88 319.84 254.88C322.48 254.88 324.88 255.52 327.68 255.52H331.28C334.08 255.52 336.48 254.88 339.12 254.88C341.76 254.88 344.16 255.52 346.96 255.52H350.56C353.36 255.52 355.76 254.88 358.4 254.88C360.48 254.88 362.4 255.28 364.4 255.44L364 254.64C362.83 254.519 361.655 254.465 360.48 254.48H356.88C354.08 254.48 351.68 255.04 349.04 255.12C346.4 255.12 344 254.48 341.2 254.48H337.6C334.8 254.48 332.4 255.04 329.76 255.12C327.12 255.12 324.72 254.48 321.92 254.48H318.4C315.6 254.48 313.2 255.04 310.56 255.12C307.92 255.12 305.52 254.48 302.72 254.48H299.12C296.32 254.48 293.92 255.04 291.28 255.12C288.64 255.12 286.32 254.48 283.52 254.48H279.84H279.76Z" fill="url(#paint5_linear_10_14283)"/>
  <path d="M279.76 253.6C278.502 253.598 277.246 253.678 276 253.84L275.6 254.56C277.52 254.32 279.36 254 281.36 254C283.92 254 286.32 254.64 289.12 254.64H292.8C295.6 254.64 297.92 254 300.56 254C303.2 254 305.6 254.64 308.4 254.64H312.08C314.88 254.64 317.2 254 319.84 254C322.48 254 324.88 254.64 327.68 254.64H331.28C334.08 254.64 336.48 254 339.12 254C341.76 254 344.16 254.64 346.96 254.64H350.56C353.36 254.64 355.76 254 358.4 254C360.48 254 362.4 254.4 364.4 254.56L364 253.76C362.83 253.639 361.655 253.585 360.48 253.6H356.88C354.08 253.6 351.68 254.16 349.04 254.24C346.4 254.24 344 253.6 341.2 253.6H337.6C334.8 253.6 332.4 254.16 329.76 254.24C327.12 254.24 324.72 253.6 321.92 253.6H318.4C315.6 253.6 313.2 254.16 310.56 254.24C307.92 254.24 305.52 253.6 302.72 253.6H299.12C296.32 253.6 293.92 254.16 291.28 254.24C288.64 254.24 286.32 253.6 283.52 253.6H279.84H279.76Z" fill="url(#paint6_linear_10_14283)"/>
  <path d="M279.76 252.72C278.502 252.718 277.246 252.798 276 252.96L275.6 253.68C277.52 253.44 279.36 253.12 281.36 253.12C283.92 253.12 286.32 253.76 289.12 253.76H292.8C295.6 253.76 297.92 253.12 300.56 253.12C303.2 253.12 305.6 253.76 308.4 253.76H312.08C314.88 253.76 317.2 253.12 319.84 253.12C322.48 253.12 324.88 253.76 327.68 253.76H331.28C334.08 253.76 336.48 253.12 339.12 253.12C341.76 253.12 344.16 253.76 346.96 253.76H350.56C353.36 253.76 355.76 253.12 358.4 253.12C360.48 253.12 362.4 253.52 364.4 253.68L364 252.88C362.83 252.759 361.655 252.705 360.48 252.72H356.88C354.08 252.72 351.68 253.28 349.04 253.36C346.4 253.36 344 252.72 341.2 252.72H337.6C334.8 252.72 332.4 253.28 329.76 253.36C327.12 253.36 324.72 252.72 321.92 252.72H318.4C315.6 252.72 313.2 253.28 310.56 253.36C307.92 253.36 305.52 252.72 302.72 252.72H299.12C296.32 252.72 293.92 253.28 291.28 253.36C288.64 253.36 286.32 252.72 283.52 252.72H279.84H279.76Z" fill="url(#paint7_linear_10_14283)"/>
  <path d="M279.76 251.76C278.502 251.758 277.246 251.838 276 252L275.6 252.72C277.52 252.48 279.36 252.16 281.36 252.16C283.92 252.16 286.32 252.8 289.12 252.8H292.8C295.6 252.8 297.92 252.16 300.56 252.16C303.2 252.16 305.6 252.8 308.4 252.8H312.08C314.88 252.8 317.2 252.16 319.84 252.16C322.48 252.16 324.88 252.8 327.68 252.8H331.28C334.08 252.8 336.48 252.16 339.12 252.16C341.76 252.16 344.16 252.8 346.96 252.8H350.56C353.36 252.8 355.76 252.16 358.4 252.16C360.48 252.16 362.4 252.56 364.4 252.72L364 251.92C362.83 251.799 361.655 251.745 360.48 251.76H356.88C354.08 251.76 351.68 252.32 349.04 252.4C346.4 252.4 344 251.76 341.2 251.76H337.6C334.8 251.76 332.4 252.32 329.76 252.4C327.12 252.4 324.72 251.76 321.92 251.76H318.4C315.6 251.76 313.2 252.32 310.56 252.4C307.92 252.4 305.52 251.76 302.72 251.76H299.12C296.32 251.76 293.92 252.32 291.28 252.4C288.64 252.4 286.32 251.76 283.52 251.76H279.84H279.76Z" fill="url(#paint8_linear_10_14283)"/>
  <path d="M279.76 250.88C278.502 250.878 277.246 250.958 276 251.12L275.6 251.84C277.52 251.6 279.36 251.28 281.36 251.28C283.92 251.28 286.32 251.92 289.12 251.92H292.8C295.6 251.92 297.92 251.28 300.56 251.28C303.2 251.28 305.6 251.92 308.4 251.92H312.08C314.88 251.92 317.2 251.28 319.84 251.28C322.48 251.28 324.88 251.92 327.68 251.92H331.28C334.08 251.92 336.48 251.28 339.12 251.28C341.76 251.28 344.16 251.92 346.96 251.92H350.56C353.36 251.92 355.76 251.28 358.4 251.28C360.48 251.28 362.4 251.68 364.4 251.84L364 251.04C362.83 250.919 361.655 250.865 360.48 250.88H356.88C354.08 250.88 351.68 251.44 349.04 251.52C346.4 251.52 344 250.88 341.2 250.88H337.6C334.8 250.88 332.4 251.44 329.76 251.52C327.12 251.52 324.72 250.88 321.92 250.88H318.4C315.6 250.88 313.2 251.44 310.56 251.52C307.92 251.52 305.52 250.88 302.72 250.88H299.12C296.32 250.88 293.92 251.44 291.28 251.52C288.64 251.52 286.32 250.88 283.52 250.88H279.84H279.76Z" fill="url(#paint9_linear_10_14283)"/>
  <path d="M279.76 250C278.502 249.998 277.246 250.078 276 250.24L275.6 250.96C277.52 250.72 279.36 250.4 281.36 250.4C283.92 250.4 286.32 251.04 289.12 251.04H292.8C295.6 251.04 297.92 250.4 300.56 250.4C303.2 250.4 305.6 251.04 308.4 251.04H312.08C314.88 251.04 317.2 250.4 319.84 250.4C322.48 250.4 324.88 251.04 327.68 251.04H331.28C334.08 251.04 336.48 250.4 339.12 250.4C341.76 250.4 344.16 251.04 346.96 251.04H350.56C353.36 251.04 355.76 250.4 358.4 250.4C360.48 250.4 362.4 250.8 364.4 250.96L364 250.16C362.83 250.039 361.655 249.985 360.48 250H356.88C354.08 250 351.68 250.56 349.04 250.64C346.4 250.64 344 250 341.2 250H337.6C334.8 250 332.4 250.56 329.76 250.64C327.12 250.64 324.72 250 321.92 250H318.4C315.6 250 313.2 250.56 310.56 250.64C307.92 250.64 305.52 250 302.72 250H299.12C296.32 250 293.92 250.56 291.28 250.64C288.64 250.64 286.32 250 283.52 250H279.84H279.76Z" fill="url(#paint10_linear_10_14283)"/>
  <path d="M282.559 246V246.16H357.52L357.439 246H282.559ZM282.399 246.24L282.319 246.48H357.599L357.52 246.24H282.319H282.399ZM282.239 246.56L282.079 246.8H357.92L357.759 246.56H282.239ZM281.999 246.96L281.759 247.36H358.239L357.999 246.96H281.999ZM281.679 247.52L281.439 247.92H358.559L358.32 247.52H281.679ZM281.359 248.08L281.199 248.4H358.799L358.639 248.08H281.359ZM281.039 248.64L280.879 248.96H359.199L358.959 248.64H281.039ZM280.719 249.2L280.479 249.68H359.52L359.279 249.2H280.799H280.719Z" fill="url(#paint11_linear_10_14283)"/>
  <path d="M285.92 249.84C288.64 250.4 288.88 249.84 288.88 249.84H285.92ZM351.12 249.84C351.12 249.84 351.36 250.4 354.08 249.84H351.12Z" fill="url(#paint12_linear_10_14283)"/>
  <path d="M344.479 237.6C343.119 237.6 342.719 238.32 342.719 238.32C340.559 246.8 333.279 255.36 324.639 255.36H318.239V264H367.359L362.399 255.2C354.639 254.08 348.319 246.16 346.319 238.32C346.319 238.32 345.839 237.6 344.479 237.6Z" fill="url(#paint13_linear_10_14283)"/>
  <path d="M344.479 238C343.839 238 343.519 238.08 343.279 238.24L343.039 238.48C341.84 242.909 339.527 246.958 336.32 250.24C333.12 253.52 329.119 255.76 324.639 255.76H318.479V263.68H367.199L362.639 255.68C358.879 255.12 355.44 253.12 352.72 250.24C349.512 246.958 347.199 242.909 345.999 238.48L345.759 238.24C345.366 238.035 344.92 237.951 344.479 238Z" fill="#97C924"/>
  <path d="M344.479 238H344.799V246.64C344.723 248.457 344.171 250.223 343.199 251.76C342.799 253.04 342.399 252.56 341.359 254.08C340.01 254.545 338.616 254.867 337.199 255.04C335.199 255.36 330.799 255.68 328.479 255.12C331.457 254.209 334.154 252.558 336.32 250.32C336.915 249.684 337.475 249.016 337.999 248.32C338.891 247.212 339.694 246.035 340.399 244.8L341.199 243.2C341.582 242.443 341.929 241.669 342.239 240.88C342.548 240.095 342.815 239.294 343.039 238.48L343.279 238.24L343.759 238.08L344.559 238H344.479Z" fill="#EDE71F"/>
  <path d="M343.999 239.12C343.599 243.92 342.159 249.68 338.639 253.36C337.359 254.4 335.679 255.44 334.159 255.2C339.519 250.8 342.799 244 343.919 239.12H343.999Z" fill="#C6CB24"/>
  <path d="M339.599 247.44C338.799 249.6 335.759 252.8 332.559 255.44H330.239C332.239 255.28 336.879 251.44 339.599 247.44Z" fill="#9ECB34"/>
  <path d="M332.24 237.6C330.88 237.6 330.48 238.32 330.48 238.32C328.32 246.8 321.04 255.36 312.4 255.36H306V264H355.12L350.16 255.2C342.4 254.08 336.08 246.16 334.08 238.32C334.08 238.32 333.6 237.6 332.24 237.6Z" fill="url(#paint14_linear_10_14283)"/>
  <path d="M332.24 238C331.6 238 331.28 238.08 331.04 238.24L330.8 238.48C329.601 242.909 327.287 246.958 324.08 250.24C320.88 253.52 316.88 255.76 312.4 255.76H306.24V263.68H354.96L350.4 255.68C346.64 255.12 343.2 253.12 340.48 250.24C337.273 246.958 334.96 242.909 333.76 238.48L333.52 238.24C333.127 238.035 332.681 237.951 332.24 238Z" fill="#97C924"/>
  <path d="M332.24 238H332.56V246.64C332.484 248.457 331.932 250.223 330.96 251.76C330.56 253.04 330.16 252.56 329.12 254.08C327.771 254.545 326.377 254.867 324.96 255.04C322.96 255.36 318.56 255.68 316.24 255.12C319.218 254.209 321.915 252.558 324.08 250.32C324.675 249.684 325.236 249.016 325.76 248.32C326.652 247.212 327.454 246.035 328.16 244.8L328.96 243.2C329.343 242.443 329.69 241.669 330 240.88C330.309 240.095 330.576 239.294 330.8 238.48L331.04 238.24L331.52 238.08L332.32 238H332.24Z" fill="#EDE71F"/>
  <path d="M331.76 239.12C331.36 243.92 329.92 249.68 326.4 253.36C325.12 254.4 323.44 255.44 321.92 255.2C327.28 250.8 330.56 244 331.68 239.12H331.76Z" fill="#C6CB24"/>
  <path d="M327.36 247.44C326.56 249.6 323.52 252.8 320.32 255.44H318C320 255.28 324.64 251.44 327.36 247.44Z" fill="#9ECB34"/>
  <path d="M321.76 238.4C324 246.8 331.2 255.36 339.84 255.36H346.32V264H293.68V255.36H300.08C308.72 255.36 316 246.8 318.16 238.32C318.16 238.32 318.64 237.68 320 237.68C321.36 237.68 321.76 238.32 321.76 238.32V238.4Z" fill="url(#paint15_linear_10_14283)"/>
  <path d="M320 238C320.64 238 320.96 238.16 321.2 238.24L321.44 238.48C322.639 242.909 324.953 246.958 328.16 250.24C331.36 253.52 335.36 255.76 339.84 255.76H346V263.68H294V255.68H300.16C304.56 255.68 308.64 253.52 311.84 250.24C315.018 246.949 317.304 242.901 318.48 238.48L318.72 238.24C319.116 238.043 319.559 237.96 320 238Z" fill="#97C924"/>
  <path d="M319.44 238C319.36 237.996 319.28 237.996 319.2 238L318.72 238.24L318.48 238.48C318.257 239.294 317.99 240.095 317.68 240.88C317.398 241.695 317.078 242.496 316.72 243.28C316.469 243.795 316.203 244.302 315.92 244.8C315.214 246.035 314.412 247.212 313.52 248.32C312.994 248.989 312.433 249.629 311.84 250.24C309.684 252.507 306.986 254.186 304 255.12C306.24 255.68 307.2 255.12 309.2 254.8C310.8 254.56 312.56 254.32 314 253.84C315.2 252.24 314.8 252.8 315.2 251.52C316.16 249.76 317.6 248.16 317.92 246.16C319.2 243.76 319.44 239.28 319.44 238Z" fill="#EDE71F"/>
  <path d="M319.44 239.12C319.12 243.92 317.6 249.68 314.08 253.36C312.8 254.4 311.2 255.44 309.6 255.2C315.04 250.8 318.32 244 319.44 239.12Z" fill="#C6CB24"/>
  <path d="M315.04 247.44C313.301 250.585 310.898 253.315 308 255.44H305.76C307.76 255.28 312.32 251.44 315.04 247.44Z" fill="#9ECB34"/>
  <path d="M320.8 238.08L321.2 238.24L321.52 238.48C321.747 239.293 322.014 240.093 322.32 240.88C322.601 241.695 322.921 242.496 323.28 243.28L324.08 244.8C324.785 246.035 325.588 247.212 326.48 248.32C327.006 248.989 327.567 249.629 328.16 250.24C330.301 252.597 332.996 254.384 336 255.44C330.16 255.44 327.68 254.96 325.6 252.24C324.087 250.639 322.941 248.728 322.24 246.64C321.84 245.04 320.64 241.44 320.72 238.08H320.8Z" fill="#EDE71F"/>
  <path d="M321.199 239.12C321.519 243.92 322.959 248.72 326.479 252.4C327.759 253.52 329.359 254.48 330.959 254.24C325.933 250.594 322.452 245.201 321.199 239.12Z" fill="#C6CB24"/>
  <path d="M307.84 237.6C306.4 237.6 306 238.32 306 238.32C304 246.16 296.56 256.16 288.8 257.36L284.96 264H324.16V254.96C317.12 253.04 311.44 245.6 309.6 238.32C309.6 238.32 309.2 237.68 307.76 237.68L307.84 237.6Z" fill="url(#paint16_linear_10_14283)"/>
  <path d="M307.84 238C307.2 238 306.8 238.16 306.56 238.24L306.32 238.48C304.975 242.869 302.772 246.948 299.84 250.48C297.12 253.92 292.08 257.36 288.64 257.68L285.2 263.68H323.6V255.12C320.712 254.167 318.102 252.519 316 250.32C312.781 247.015 310.467 242.938 309.28 238.48L309.04 238.24C308.669 238.054 308.254 237.971 307.84 238Z" fill="#97C924"/>
  <path d="M306.72 239.12C306.24 246.32 302.24 255.52 297.68 257.04C296.16 257.6 293.6 257.76 292.72 257.84C296.247 255.88 299.323 253.201 301.749 249.976C304.174 246.751 305.895 243.053 306.8 239.12H306.72Z" fill="#93BC30"/>
  <path d="M307.839 238H307.439V246.64C307.439 248.48 308.159 250 309.039 251.76L309.199 252.16C309.599 253.04 309.839 253.36 311.039 254.32C314.475 256.772 318.677 257.907 322.879 257.52C321.999 256.8 321.039 256.16 320.159 255.6L323.759 255.2C320.794 254.231 318.124 252.524 315.999 250.24C315.613 249.853 315.239 249.452 314.879 249.04L314.399 248.4C313.453 247.269 312.597 246.066 311.839 244.8C311.555 244.275 311.289 243.742 311.039 243.2C310.549 242.187 310.121 241.145 309.759 240.08C309.582 239.552 309.422 239.018 309.279 238.48L309.039 238.24C308.888 238.164 308.726 238.11 308.559 238.08C308.298 238.016 308.029 237.989 307.759 238H307.839Z" fill="#EDE71F"/>
  <path d="M308.32 239.12C308.72 243.92 310.16 249.68 313.68 253.36C314.96 254.4 316.56 255.44 318.16 255.2C313.28 251 309.839 245.377 308.32 239.12Z" fill="#CCD11E"/>
  <path d="M311.68 245.84C314.271 250.908 318.345 255.066 323.36 257.76H325.36C321.84 255.84 316.16 253.12 311.76 245.76L311.68 245.84Z" fill="#9ECB34"/>
  <path d="M295.52 237.6C294.08 237.6 293.68 238.32 293.68 238.32C291.68 246.16 284.24 256.16 276.48 257.36L272.64 264H311.84V254.96C304.8 253.04 299.12 245.6 297.28 238.32C297.28 238.32 296.88 237.68 295.44 237.68L295.52 237.6Z" fill="url(#paint17_linear_10_14283)"/>
  <path d="M295.52 238C294.88 238 294.48 238.16 294.24 238.24L294 238.48C292.654 242.869 290.452 246.948 287.52 250.48C284.8 253.92 279.76 257.36 276.32 257.68L272.88 263.68H311.28V255.12C308.392 254.167 305.782 252.519 303.68 250.32C300.461 247.015 298.147 242.938 296.96 238.48L296.72 238.24C296.349 238.054 295.934 237.971 295.52 238Z" fill="#97C924"/>
  <path d="M294.399 239.12C293.919 246.32 289.919 255.52 285.359 257.04C283.839 257.6 281.279 257.76 280.399 257.84C283.927 255.88 287.003 253.201 289.429 249.976C291.854 246.751 293.575 243.053 294.479 239.12H294.399Z" fill="#93BC30"/>
  <path d="M295.519 238H295.119V246.64C295.119 248.48 295.839 250 296.719 251.76L296.879 252.16C297.279 253.04 297.519 253.36 298.719 254.32C302.154 256.772 306.356 257.907 310.559 257.52C309.679 256.8 308.719 256.16 307.839 255.6L311.439 255.2C308.474 254.231 305.804 252.524 303.679 250.24C303.292 249.853 302.919 249.452 302.559 249.04L302.079 248.4C301.132 247.269 300.276 246.066 299.519 244.8C299.235 244.275 298.968 243.742 298.719 243.2C298.228 242.187 297.801 241.145 297.439 240.08C297.262 239.552 297.102 239.018 296.959 238.48L296.719 238.24C296.568 238.164 296.406 238.11 296.239 238.08C295.978 238.016 295.708 237.989 295.439 238H295.519Z" fill="#EDE71F"/>
  <path d="M296 239.12C296.4 243.92 297.84 249.68 301.36 253.36C302.64 254.4 304.24 255.44 305.84 255.2C300.96 251 297.519 245.377 296 239.12Z" fill="#C6CB24"/>
  <path d="M299.359 245.84C301.951 250.908 306.025 255.066 311.039 257.76H313.039C309.519 255.84 303.839 253.12 299.439 245.76L299.359 245.84Z" fill="#9ECB34"/>
  <path d="M365.2 259.76C364.72 259.92 361.68 259.6 360.08 259.76L359.04 260H356.4C353.52 260 351.04 260.8 348.32 260.8C345.6 260.8 343.12 260 340.32 260H337.6C334.72 260 332.24 260.8 329.52 260.8C326.8 260.8 324.32 260 321.52 260H318.8C315.92 260 313.44 260.8 310.8 260.8C308 260.8 305.6 260 302.72 260H300C297.12 260 294.72 260.8 292 260.8C289.2 260.8 286.8 260 283.92 260H281.2C278.96 260 276.24 260.48 274.08 260.64L269.04 269.36H370.96L365.2 259.76Z" fill="white"/>
  <path d="M358.4 258.48H357.92C355.36 258.56 353.44 259.36 348.96 259.36C344.48 259.36 344 258.56 338.88 258.72C334.08 258.72 332.16 259.68 329.52 259.68C326.96 259.68 322.8 259.12 319.52 259.44C316.32 259.76 312.48 260.48 309.92 260.48C306.8 260.48 303.68 259.92 300.48 260.24C297.2 260.56 295.68 261.44 291.6 261.44C288.08 261.44 284.4 260.88 281.36 260.88C278.64 260.88 275.6 261.68 273.36 262L272.64 263.2C274.48 262.96 279.52 262.16 281.28 262.16C283.2 262.16 289.84 262.56 293.52 262.4C297.28 262.32 297.68 261.44 302.08 261.44C305.12 261.44 307.36 261.76 310.48 261.76C312.48 261.76 314.24 260.8 317.2 260.8L319.44 260.72C321.92 260.32 326.16 260.72 329.04 260.88C331.68 261.04 333.44 260.4 336.24 260.32L339.76 260.24C342.56 260.08 344.88 260.72 347.52 260.72C350.08 260.56 352.64 259.92 355.36 259.92L358.96 259.76C360.8 259.76 363.68 259.76 365.6 260.16L364.96 259.04C363.04 258.96 360.72 258.48 358.4 258.48Z" fill="url(#paint18_linear_10_14283)"/>
  <path d="M280.239 267.84C277.519 267.84 275.119 268.48 272.559 268.56C271.596 268.535 270.634 268.455 269.679 268.32L269.279 268.96H274.079C276.879 268.96 279.199 268.32 281.759 268.24C284.399 268.32 286.719 269.04 289.519 269.04H293.119C295.839 269.04 298.239 268.32 300.799 268.24C303.439 268.32 305.839 269.04 308.559 269.04H312.159C314.959 269.04 317.279 268.32 319.919 268.24C322.479 268.32 324.799 269.04 327.599 269.04H331.199C333.919 269.04 336.319 268.32 338.959 268.24C341.519 268.32 343.919 269.04 346.639 269.04H350.239C353.039 269.04 355.359 268.32 357.919 268.24C360.559 268.32 362.879 269.04 365.679 269.04H369.279L370.719 268.96L370.319 268.32C369.519 268.4 368.639 268.56 367.759 268.56C365.119 268.56 362.799 267.76 359.999 267.76H356.399C353.679 267.76 351.279 268.56 348.719 268.56C346.079 268.48 343.759 267.76 340.959 267.76H337.359C334.639 267.76 332.239 268.56 329.679 268.56C327.039 268.48 324.719 267.76 321.919 267.76H318.319C315.519 267.76 313.199 268.56 310.639 268.56C307.999 268.48 305.679 267.76 302.879 267.76H299.279C296.559 267.76 294.159 268.56 291.599 268.56C288.959 268.48 286.639 267.76 283.839 267.76H280.239V267.84Z" fill="url(#paint19_linear_10_14283)"/>
  <path d="M280.239 266.8C277.519 266.8 275.119 267.44 272.559 267.52C271.596 267.495 270.634 267.414 269.679 267.28L269.279 267.92H274.079C276.879 267.92 279.199 267.28 281.759 267.2C284.399 267.28 286.719 268 289.519 268H293.119C295.839 268 298.239 267.28 300.799 267.2C303.439 267.28 305.839 268 308.559 268H312.159C314.959 268 317.279 267.28 319.919 267.2C322.479 267.28 324.799 268 327.599 268H331.199C333.919 268 336.319 267.28 338.959 267.2C341.519 267.28 343.919 268 346.639 268H350.239C353.039 268 355.359 267.28 357.919 267.2C360.559 267.28 362.879 268 365.679 268H369.279L370.719 267.92L370.319 267.28C369.519 267.36 368.639 267.52 367.759 267.52C365.119 267.52 362.799 266.72 359.999 266.72H356.399C353.679 266.72 351.279 267.52 348.719 267.52C346.079 267.44 343.759 266.72 340.959 266.72H337.359C334.639 266.72 332.239 267.52 329.679 267.52C327.039 267.44 324.719 266.72 321.919 266.72H318.319C315.519 266.72 313.199 267.52 310.639 267.52C307.999 267.44 305.679 266.72 302.879 266.72H299.279C296.559 266.72 294.159 267.52 291.599 267.52C288.959 267.44 286.639 266.72 283.839 266.72H280.239V266.8Z" fill="url(#paint20_linear_10_14283)"/>
  <path d="M280.239 265.76C277.519 265.76 275.119 266.4 272.559 266.48C271.596 266.455 270.634 266.374 269.679 266.24L269.279 266.88H274.079C276.879 266.88 279.199 266.24 281.759 266.16C284.399 266.24 286.719 266.96 289.519 266.96H293.119C295.839 266.96 298.239 266.24 300.799 266.16C303.439 266.24 305.839 266.96 308.559 266.96H312.159C314.959 266.96 317.279 266.24 319.919 266.16C322.479 266.24 324.799 266.96 327.599 266.96H331.199C333.919 266.96 336.319 266.24 338.959 266.16C341.519 266.24 343.919 266.96 346.639 266.96H350.239C353.039 266.96 355.359 266.24 357.919 266.16C360.559 266.24 362.879 266.96 365.679 266.96H369.279L370.719 266.88L370.319 266.24C369.519 266.32 368.639 266.48 367.759 266.48C365.119 266.48 362.799 265.68 359.999 265.68H356.399C353.679 265.68 351.279 266.48 348.719 266.48C346.079 266.4 343.759 265.68 340.959 265.68H337.359C334.639 265.68 332.239 266.48 329.679 266.48C327.039 266.4 324.719 265.68 321.919 265.68H318.319C315.519 265.68 313.199 266.48 310.639 266.48C307.999 266.4 305.679 265.68 302.879 265.68H299.279C296.559 265.68 294.159 266.48 291.599 266.48C288.959 266.4 286.639 265.68 283.839 265.68H280.239V265.76Z" fill="url(#paint21_linear_10_14283)"/>
  <path d="M280.239 264.72C277.519 264.72 275.119 265.36 272.559 265.44C271.596 265.415 270.634 265.335 269.679 265.2L269.279 265.84H274.079C276.879 265.84 279.199 265.2 281.759 265.12C284.399 265.2 286.719 265.92 289.519 265.92H293.119C295.839 265.92 298.239 265.2 300.799 265.12C303.439 265.2 305.839 265.92 308.559 265.92H312.159C314.959 265.92 317.279 265.2 319.919 265.12C322.479 265.2 324.799 265.92 327.599 265.92H331.199C333.919 265.92 336.319 265.2 338.959 265.12C341.519 265.2 343.919 265.92 346.639 265.92H350.239C353.039 265.92 355.359 265.2 357.919 265.12C360.559 265.2 362.879 265.92 365.679 265.92H369.279L370.719 265.84L370.319 265.2C369.519 265.28 368.639 265.44 367.759 265.44C365.119 265.44 362.799 264.64 359.999 264.64H356.399C353.679 264.64 351.279 265.44 348.719 265.44C346.079 265.36 343.759 264.64 340.959 264.64H337.359C334.639 264.64 332.239 265.44 329.679 265.44C327.039 265.36 324.719 264.64 321.919 264.64H318.319C315.519 264.64 313.199 265.44 310.639 265.44C307.999 265.36 305.679 264.64 302.879 264.64H299.279C296.559 264.64 294.159 265.44 291.599 265.44C288.959 265.36 286.639 264.64 283.839 264.64H280.239V264.72Z" fill="url(#paint22_linear_10_14283)"/>
  <path d="M280.239 263.68C277.519 263.68 275.119 264.32 272.559 264.4C271.596 264.375 270.634 264.295 269.679 264.16L269.279 264.8H274.079C276.879 264.8 279.199 264.16 281.759 264.08C284.399 264.16 286.719 264.88 289.519 264.88H293.119C295.839 264.88 298.239 264.16 300.799 264.08C303.439 264.16 305.839 264.88 308.559 264.88H312.159C314.959 264.88 317.279 264.16 319.919 264.08C322.479 264.16 324.799 264.88 327.599 264.88H331.199C333.919 264.88 336.319 264.16 338.959 264.08C341.519 264.16 343.919 264.88 346.639 264.88H350.239C353.039 264.88 355.359 264.16 357.919 264.08C360.559 264.16 362.879 264.88 365.679 264.88H369.279L370.719 264.8L370.319 264.16C369.519 264.24 368.639 264.4 367.759 264.4C365.119 264.4 362.799 263.6 359.999 263.6H356.399C353.679 263.6 351.279 264.4 348.719 264.4C346.079 264.32 343.759 263.6 340.959 263.6H337.359C334.639 263.6 332.239 264.4 329.679 264.4C327.039 264.32 324.719 263.6 321.919 263.6H318.319C315.519 263.6 313.199 264.4 310.639 264.4C307.999 264.32 305.679 263.6 302.879 263.6H299.279C296.559 263.6 294.159 264.4 291.599 264.4C288.959 264.32 286.639 263.6 283.839 263.6H280.239V263.68Z" fill="url(#paint23_linear_10_14283)"/>
  <path d="M280.239 262.64C277.519 262.64 275.119 263.28 272.559 263.36C271.596 263.335 270.634 263.255 269.679 263.12L269.279 263.76H274.079C276.879 263.76 279.199 263.12 281.759 263.04C284.399 263.12 286.719 263.84 289.519 263.84H293.119C295.839 263.84 298.239 263.12 300.799 263.04C303.439 263.12 305.839 263.84 308.559 263.84H312.159C314.959 263.84 317.279 263.12 319.919 263.04C322.479 263.12 324.799 263.84 327.599 263.84H331.199C333.919 263.84 336.319 263.12 338.959 263.04C341.519 263.12 343.919 263.84 346.639 263.84H350.239C353.039 263.84 355.359 263.12 357.919 263.04C360.559 263.12 362.879 263.84 365.679 263.84H369.279L370.719 263.76L370.319 263.12C369.519 263.2 368.639 263.36 367.759 263.36C365.119 263.36 362.799 262.56 359.999 262.56H356.399C353.679 262.56 351.279 263.36 348.719 263.36C346.079 263.28 343.759 262.56 340.959 262.56H337.359C334.639 262.56 332.239 263.36 329.679 263.36C327.039 263.28 324.719 262.56 321.919 262.56H318.319C315.519 262.56 313.199 263.36 310.639 263.36C307.999 263.28 305.679 262.56 302.879 262.56H299.279C296.559 262.56 294.159 263.36 291.599 263.36C288.959 263.28 286.639 262.56 283.839 262.56H280.239V262.64Z" fill="url(#paint24_linear_10_14283)"/>
  <path d="M280.239 261.68C277.519 261.68 275.119 262.32 272.559 262.4C271.596 262.375 270.634 262.295 269.679 262.16L269.279 262.8H274.079C276.879 262.8 279.199 262.16 281.759 262.08C284.399 262.16 286.719 262.88 289.519 262.88H293.119C295.839 262.88 298.239 262.16 300.799 262.08C303.439 262.16 305.839 262.88 308.559 262.88H312.159C314.959 262.88 317.279 262.16 319.919 262.08C322.479 262.16 324.799 262.88 327.599 262.88H331.199C333.919 262.88 336.319 262.16 338.959 262.08C341.519 262.16 343.919 262.88 346.639 262.88H350.239C353.039 262.88 355.359 262.16 357.919 262.08C360.559 262.16 362.879 262.88 365.679 262.88H369.279L370.719 262.8L370.319 262.16C369.519 262.24 368.639 262.4 367.759 262.4C365.119 262.4 362.799 261.6 359.999 261.6H356.399C353.679 261.6 351.279 262.4 348.719 262.4C346.079 262.32 343.759 261.6 340.959 261.6H337.359C334.639 261.6 332.239 262.4 329.679 262.4C327.039 262.32 324.719 261.6 321.919 261.6H318.319C315.519 261.6 313.199 262.4 310.639 262.4C307.999 262.32 305.679 261.6 302.879 261.6H299.279C296.559 261.6 294.159 262.4 291.599 262.4C288.959 262.32 286.639 261.6 283.839 261.6H280.239V261.68Z" fill="url(#paint25_linear_10_14283)"/>
  <path d="M280.239 260.64C277.519 260.64 275.119 261.28 272.559 261.36C271.596 261.335 270.634 261.255 269.679 261.12L269.279 261.76H274.079C276.879 261.76 279.199 261.12 281.759 261.04C284.399 261.12 286.719 261.84 289.519 261.84H293.119C295.839 261.84 298.239 261.12 300.799 261.04C303.439 261.12 305.839 261.84 308.559 261.84H312.159C314.959 261.84 317.279 261.12 319.919 261.04C322.479 261.12 324.799 261.84 327.599 261.84H331.199C333.919 261.84 336.319 261.12 338.959 261.04C341.519 261.12 343.919 261.84 346.639 261.84H350.239C353.039 261.84 355.359 261.12 357.919 261.04C360.559 261.12 362.879 261.84 365.679 261.84H369.279L370.719 261.76L370.319 261.12C369.519 261.2 368.639 261.36 367.759 261.36C365.119 261.36 362.799 260.56 359.999 260.56H356.399C353.679 260.56 351.279 261.36 348.719 261.36C346.079 261.28 343.759 260.56 340.959 260.56H337.359C334.639 260.56 332.239 261.36 329.679 261.36C327.039 261.28 324.719 260.56 321.919 260.56H318.319C315.519 260.56 313.199 261.36 310.639 261.36C307.999 261.28 305.679 260.56 302.879 260.56H299.279C296.559 260.56 294.159 261.36 291.599 261.36C288.959 261.28 286.639 260.56 283.839 260.56H280.239V260.64Z" fill="url(#paint26_linear_10_14283)"/>
  <path d="M280.239 259.6C277.519 259.6 275.119 260.24 272.559 260.32C271.596 260.295 270.634 260.215 269.679 260.08L269.279 260.72H274.079C276.879 260.72 279.199 260.08 281.759 260C284.399 260.08 286.719 260.8 289.519 260.8H293.119C295.839 260.8 298.239 260.08 300.799 260C303.439 260.08 305.839 260.8 308.559 260.8H312.159C314.959 260.8 317.279 260.08 319.919 260C322.479 260.08 324.799 260.8 327.599 260.8H331.199C333.919 260.8 336.319 260.08 338.959 260C341.519 260.08 343.919 260.8 346.639 260.8H350.239C353.039 260.8 355.359 260.08 357.919 260C360.559 260.08 362.879 260.8 365.679 260.8H369.279L370.719 260.72L370.319 260.08C369.519 260.16 368.639 260.32 367.759 260.32C365.119 260.32 362.799 259.52 359.999 259.52H356.399C353.679 259.52 351.279 260.32 348.719 260.32C346.079 260.24 343.759 259.52 340.959 259.52H337.359C334.639 259.52 332.239 260.32 329.679 260.32C327.039 260.24 324.719 259.52 321.919 259.52H318.319C315.519 259.52 313.199 260.32 310.639 260.32C307.999 260.24 305.679 259.52 302.879 259.52H299.279C296.559 259.52 294.159 260.32 291.599 260.32C288.959 260.24 286.639 259.52 283.839 259.52H280.239V259.6Z" fill="url(#paint27_linear_10_14283)"/>
  <path d="M275.12 259.76L273.12 263.12C275.44 262.72 278.8 261.76 281.68 261.76C284.56 261.76 288.08 262.48 291.6 262.56C295.6 262.56 297.2 261.6 300.4 261.28C303.68 260.96 306.8 261.68 310 261.76C312.48 261.76 316.32 260.88 319.6 260.56C322.8 260.16 325.76 260.8 329.6 260.8C333.52 260.88 334.16 259.84 338.88 259.76C344 259.68 344.48 260.48 348.96 260.48C352.32 260.64 355.28 259.76 358.32 259.6C361.36 259.36 362.72 259.6 364.96 259.6L363.44 257.04L282.4 258.88L275.12 259.76Z" fill="#97C924"/>
  <path d="M360 259.68L363.2 259.92C363.972 260.012 364.745 260.092 365.52 260.16L365.2 259.76C364.72 259.92 361.68 259.6 360.08 259.76L360 259.68Z" fill="white"/>
  </g>
  <path d="M320 179.9L294.3 224.4L268 270H372L346.3 225.4L320 180V179.9ZM320 182.3L345.2 226L369.9 268.8H270.1L295.3 225L320 182.3Z" fill="#C8A400"/>
  </g>
  <defs>
  <linearGradient id="paint0_linear_10_14283" x1="318.96" y1="231.28" x2="320.48" y2="226.72" gradientUnits="userSpaceOnUse">
  <stop stop-color="#510000"/>
  <stop offset="0.3" stop-color="#8A0000"/>
  <stop offset="1" stop-color="#AA0000"/>
  </linearGradient>
  <linearGradient id="paint1_linear_10_14283" x1="321.119" y1="233.12" x2="322.319" y2="229.92" gradientUnits="userSpaceOnUse">
  <stop stop-color="#FF2A2A"/>
  <stop offset="1" stop-color="#FF0000"/>
  </linearGradient>
  <linearGradient id="paint2_linear_10_14283" x1="275.6" y1="254" x2="427.52" y2="254" gradientUnits="userSpaceOnUse">
  <stop stop-color="#002255"/>
  <stop offset="0.5" stop-color="#0044AA"/>
  <stop offset="1" stop-color="#002255"/>
  </linearGradient>
  <linearGradient id="paint3_linear_10_14283" x1="275.6" y1="253.12" x2="427.52" y2="253.12" gradientUnits="userSpaceOnUse">
  <stop stop-color="#002255"/>
  <stop offset="0.5" stop-color="#0044AA"/>
  <stop offset="1" stop-color="#002255"/>
  </linearGradient>
  <linearGradient id="paint4_linear_10_14283" x1="275.6" y1="252.24" x2="427.52" y2="252.24" gradientUnits="userSpaceOnUse">
  <stop stop-color="#002255"/>
  <stop offset="0.5" stop-color="#0044AA"/>
  <stop offset="1" stop-color="#002255"/>
  </linearGradient>
  <linearGradient id="paint5_linear_10_14283" x1="275.6" y1="251.36" x2="427.52" y2="251.36" gradientUnits="userSpaceOnUse">
  <stop stop-color="#002255"/>
  <stop offset="0.5" stop-color="#0044AA"/>
  <stop offset="1" stop-color="#002255"/>
  </linearGradient>
  <linearGradient id="paint6_linear_10_14283" x1="275.6" y1="250.48" x2="427.52" y2="250.48" gradientUnits="userSpaceOnUse">
  <stop stop-color="#002255"/>
  <stop offset="0.5" stop-color="#0044AA"/>
  <stop offset="1" stop-color="#002255"/>
  </linearGradient>
  <linearGradient id="paint7_linear_10_14283" x1="275.6" y1="249.6" x2="427.52" y2="249.6" gradientUnits="userSpaceOnUse">
  <stop stop-color="#002255"/>
  <stop offset="0.5" stop-color="#0044AA"/>
  <stop offset="1" stop-color="#002255"/>
  </linearGradient>
  <linearGradient id="paint8_linear_10_14283" x1="275.6" y1="248.64" x2="427.52" y2="248.64" gradientUnits="userSpaceOnUse">
  <stop stop-color="#002255"/>
  <stop offset="0.5" stop-color="#0044AA"/>
  <stop offset="1" stop-color="#002255"/>
  </linearGradient>
  <linearGradient id="paint9_linear_10_14283" x1="275.6" y1="247.76" x2="427.52" y2="247.76" gradientUnits="userSpaceOnUse">
  <stop stop-color="#002255"/>
  <stop offset="0.5" stop-color="#0044AA"/>
  <stop offset="1" stop-color="#002255"/>
  </linearGradient>
  <linearGradient id="paint10_linear_10_14283" x1="275.6" y1="246.88" x2="427.52" y2="246.88" gradientUnits="userSpaceOnUse">
  <stop stop-color="#002255"/>
  <stop offset="0.5" stop-color="#0044AA"/>
  <stop offset="1" stop-color="#002255"/>
  </linearGradient>
  <linearGradient id="paint11_linear_10_14283" x1="275.599" y1="254" x2="427.52" y2="254" gradientUnits="userSpaceOnUse">
  <stop stop-color="#002255"/>
  <stop offset="0.5" stop-color="#0044AA"/>
  <stop offset="1" stop-color="#002255"/>
  </linearGradient>
  <linearGradient id="paint12_linear_10_14283" x1="275.6" y1="254" x2="427.52" y2="254" gradientUnits="userSpaceOnUse">
  <stop stop-color="#002255"/>
  <stop offset="0.5" stop-color="#0044AA"/>
  <stop offset="1" stop-color="#002255"/>
  </linearGradient>
  <linearGradient id="paint13_linear_10_14283" x1="307.839" y1="249.36" x2="307.839" y2="254.08" gradientUnits="userSpaceOnUse">
  <stop stop-color="#F5F549"/>
  <stop offset="1" stop-color="#97C924"/>
  </linearGradient>
  <linearGradient id="paint14_linear_10_14283" x1="295.6" y1="249.36" x2="295.6" y2="254.08" gradientUnits="userSpaceOnUse">
  <stop stop-color="#F5F549"/>
  <stop offset="1" stop-color="#97C924"/>
  </linearGradient>
  <linearGradient id="paint15_linear_10_14283" x1="307.84" y1="249.36" x2="307.84" y2="254.08" gradientUnits="userSpaceOnUse">
  <stop stop-color="#F5F549"/>
  <stop offset="1" stop-color="#97C924"/>
  </linearGradient>
  <linearGradient id="paint16_linear_10_14283" x1="307.84" y1="249.36" x2="307.84" y2="254.08" gradientUnits="userSpaceOnUse">
  <stop stop-color="#F5F549"/>
  <stop offset="1" stop-color="#97C924"/>
  </linearGradient>
  <linearGradient id="paint17_linear_10_14283" x1="295.52" y1="249.36" x2="295.52" y2="254.08" gradientUnits="userSpaceOnUse">
  <stop stop-color="#F5F549"/>
  <stop offset="1" stop-color="#97C924"/>
  </linearGradient>
  <linearGradient id="paint18_linear_10_14283" x1="272.649" y1="258.499" x2="365.715" y2="258.499" gradientUnits="userSpaceOnUse">
  <stop stop-color="#002255"/>
  <stop offset="0.5" stop-color="#0044AA"/>
  <stop offset="1" stop-color="#002255"/>
  </linearGradient>
  <linearGradient id="paint19_linear_10_14283" x1="269.633" y1="267.792" x2="370.362" y2="267.792" gradientUnits="userSpaceOnUse">
  <stop stop-color="#002255"/>
  <stop offset="0.5" stop-color="#0044AA"/>
  <stop offset="1" stop-color="#002255"/>
  </linearGradient>
  <linearGradient id="paint20_linear_10_14283" x1="269.633" y1="266.752" x2="370.362" y2="266.752" gradientUnits="userSpaceOnUse">
  <stop stop-color="#002255"/>
  <stop offset="0.5" stop-color="#0044AA"/>
  <stop offset="1" stop-color="#002255"/>
  </linearGradient>
  <linearGradient id="paint21_linear_10_14283" x1="269.633" y1="265.712" x2="370.362" y2="265.712" gradientUnits="userSpaceOnUse">
  <stop stop-color="#002255"/>
  <stop offset="0.5" stop-color="#0044AA"/>
  <stop offset="1" stop-color="#002255"/>
  </linearGradient>
  <linearGradient id="paint22_linear_10_14283" x1="269.633" y1="264.672" x2="370.362" y2="264.672" gradientUnits="userSpaceOnUse">
  <stop stop-color="#002255"/>
  <stop offset="0.5" stop-color="#0044AA"/>
  <stop offset="1" stop-color="#002255"/>
  </linearGradient>
  <linearGradient id="paint23_linear_10_14283" x1="269.633" y1="263.632" x2="370.362" y2="263.632" gradientUnits="userSpaceOnUse">
  <stop stop-color="#002255"/>
  <stop offset="0.5" stop-color="#0044AA"/>
  <stop offset="1" stop-color="#002255"/>
  </linearGradient>
  <linearGradient id="paint24_linear_10_14283" x1="269.633" y1="262.592" x2="370.362" y2="262.592" gradientUnits="userSpaceOnUse">
  <stop stop-color="#002255"/>
  <stop offset="0.5" stop-color="#0044AA"/>
  <stop offset="1" stop-color="#002255"/>
  </linearGradient>
  <linearGradient id="paint25_linear_10_14283" x1="269.633" y1="261.632" x2="370.362" y2="261.632" gradientUnits="userSpaceOnUse">
  <stop stop-color="#002255"/>
  <stop offset="0.5" stop-color="#0044AA"/>
  <stop offset="1" stop-color="#002255"/>
  </linearGradient>
  <linearGradient id="paint26_linear_10_14283" x1="269.633" y1="260.592" x2="370.362" y2="260.592" gradientUnits="userSpaceOnUse">
  <stop stop-color="#002255"/>
  <stop offset="0.5" stop-color="#0044AA"/>
  <stop offset="1" stop-color="#002255"/>
  </linearGradient>
  <linearGradient id="paint27_linear_10_14283" x1="269.633" y1="259.552" x2="370.362" y2="259.552" gradientUnits="userSpaceOnUse">
  <stop stop-color="#002255"/>
  <stop offset="0.5" stop-color="#0044AA"/>
  <stop offset="1" stop-color="#002255"/>
  </linearGradient>
  <clipPath id="clip0_10_14283">
  <rect width="640" height="480" fill="white"/>
  </clipPath>
  </defs>
  </svg>
