<svg id="flag-icons-nz" viewBox="0 0 640 480" xmlns="http://www.w3.org/2000/svg">
  <g clip-path="url(#clip0_10_14136)">
  <path fill-rule="evenodd" clip-rule="evenodd" d="M0 0H640V480H0V0Z" fill="#00247D"/>
  <path d="M508.426 107.188V122.358L538.764 107.188H508.426Z" fill="white"/>
  <path d="M514.889 124.047L505.973 111.775L539.433 106.215L514.889 124.047Z" fill="white"/>
  <path d="M508.425 107.188V122.358L478.086 107.188H508.425Z" fill="white"/>
  <path d="M501.962 124.047L510.878 111.775L477.417 106.215L501.962 124.047Z" fill="white"/>
  <path d="M517.081 113.477L502.654 118.165L526.456 142.331L517.081 113.477Z" fill="white"/>
  <path d="M503.045 124.834L511.961 112.562L527.589 142.667L503.045 124.834Z" fill="white"/>
  <path d="M499.769 113.477L514.195 118.165L509.144 84.6237L499.769 113.477Z" fill="white"/>
  <path d="M517.8 112.54L503.373 117.228L508.425 83.6863L517.8 112.54Z" fill="white"/>
  <path d="M499.77 113.477L514.196 118.165L490.394 142.331L499.77 113.477Z" fill="white"/>
  <path d="M513.806 124.834L504.89 112.562L489.262 142.667L513.806 124.834Z" fill="white"/>
  <path d="M508.426 110.276V120.3L528.473 110.276H508.426Z" fill="#CC142B"/>
  <path d="M512.697 121.416L506.805 113.307L528.915 109.632L512.697 121.416Z" fill="#CC142B"/>
  <path d="M508.425 110.276V120.3L488.377 110.276H508.425Z" fill="#CC142B"/>
  <path d="M504.154 121.416L510.046 113.307L487.935 109.632L504.154 121.416Z" fill="#CC142B"/>
  <path d="M514.146 114.431L504.612 117.529L520.341 133.498L514.146 114.431Z" fill="#CC142B"/>
  <path d="M504.87 121.936L510.762 113.827L521.089 133.72L504.87 121.936Z" fill="#CC142B"/>
  <path d="M502.706 114.432L512.239 117.529L508.901 95.3652L502.706 114.432Z" fill="#CC142B"/>
  <path d="M514.621 113.812L505.088 116.91L508.426 94.7457L514.621 113.812Z" fill="#CC142B"/>
  <path d="M502.705 114.431L512.238 117.529L496.51 133.498L502.705 114.431Z" fill="#CC142B"/>
  <path d="M511.981 121.936L506.089 113.827L495.762 133.72L511.981 121.936Z" fill="#CC142B"/>
  <path d="M587.965 177.24L587.965 190.739L614.962 177.24L587.965 177.24Z" fill="white"/>
  <path d="M593.717 192.243L585.782 181.322L615.558 176.374L593.717 192.243Z" fill="white"/>
  <path d="M587.965 177.24L587.965 190.739L560.968 177.24L587.965 177.24Z" fill="white"/>
  <path d="M582.213 192.243L590.147 181.322L560.372 176.374L582.213 192.243Z" fill="white"/>
  <path d="M595.668 182.837L582.83 187.008L604.011 208.513L595.668 182.837Z" fill="white"/>
  <path d="M583.177 192.943L591.111 182.022L605.018 208.811L583.177 192.943Z" fill="white"/>
  <path d="M580.263 182.837L593.101 187.008L588.605 157.161L580.263 182.837Z" fill="white"/>
  <path d="M596.308 182.002L583.47 186.174L587.965 156.326L596.308 182.002Z" fill="white"/>
  <path d="M580.262 182.837L593.1 187.008L571.919 208.513L580.262 182.837Z" fill="white"/>
  <path d="M592.753 192.943L584.818 182.022L570.911 208.811L592.753 192.943Z" fill="white"/>
  <path d="M587.966 180.328L587.966 188.681L604.672 180.328L587.966 180.328Z" fill="#CC142B"/>
  <path d="M591.525 189.611L586.615 182.853L605.041 179.792L591.525 189.611Z" fill="#CC142B"/>
  <path d="M587.966 180.328L587.966 188.681L571.26 180.328L587.966 180.328Z" fill="#CC142B"/>
  <path d="M584.407 189.611L589.316 182.853L570.891 179.792L584.407 189.611Z" fill="#CC142B"/>
  <path d="M592.732 183.791L584.788 186.372L597.895 199.679L592.732 183.791Z" fill="#CC142B"/>
  <path d="M585.003 190.045L589.913 183.287L598.519 199.864L585.003 190.045Z" fill="#CC142B"/>
  <path d="M583.199 183.791L591.144 186.372L588.362 167.902L583.199 183.791Z" fill="#CC142B"/>
  <path d="M593.128 183.274L585.184 185.856L587.965 167.386L593.128 183.274Z" fill="#CC142B"/>
  <path d="M583.199 183.791L591.144 186.372L578.037 199.679L583.199 183.791Z" fill="#CC142B"/>
  <path d="M590.928 190.045L586.019 183.287L577.413 199.864L590.928 190.045Z" fill="#CC142B"/>
  <path d="M415.882 200.453L415.882 215.622L446.22 200.453L415.882 200.453Z" fill="white"/>
  <path d="M422.345 217.312L413.429 205.04L446.889 199.479L422.345 217.312Z" fill="white"/>
  <path d="M415.881 200.453L415.881 215.622L385.542 200.453L415.881 200.453Z" fill="white"/>
  <path d="M409.418 217.312L418.334 205.04L384.873 199.479L409.418 217.312Z" fill="white"/>
  <path d="M424.537 206.742L410.11 211.43L433.912 235.596L424.537 206.742Z" fill="white"/>
  <path d="M410.501 218.099L419.417 205.827L435.045 235.932L410.501 218.099Z" fill="white"/>
  <path d="M407.225 206.742L421.651 211.43L416.6 177.888L407.225 206.742Z" fill="white"/>
  <path d="M425.256 205.805L410.829 210.492L415.881 176.951L425.256 205.805Z" fill="white"/>
  <path d="M407.226 206.742L421.652 211.43L397.85 235.596L407.226 206.742Z" fill="white"/>
  <path d="M421.262 218.099L412.346 205.827L396.718 235.932L421.262 218.099Z" fill="white"/>
  <path d="M415.881 203.54L415.881 213.564L435.928 203.54L415.881 203.54Z" fill="#CC142B"/>
  <path d="M420.152 214.681L414.26 206.571L436.37 202.897L420.152 214.681Z" fill="#CC142B"/>
  <path d="M415.88 203.54L415.88 213.564L395.832 203.54L415.88 203.54Z" fill="#CC142B"/>
  <path d="M411.609 214.681L417.501 206.571L395.39 202.897L411.609 214.681Z" fill="#CC142B"/>
  <path d="M421.601 207.696L412.067 210.793L427.796 226.762L421.601 207.696Z" fill="#CC142B"/>
  <path d="M412.325 215.201L418.217 207.091L428.544 226.984L412.325 215.201Z" fill="#CC142B"/>
  <path d="M410.161 207.696L419.694 210.794L416.356 188.63L410.161 207.696Z" fill="#CC142B"/>
  <path d="M422.076 207.077L412.543 210.174L415.881 188.01L422.076 207.077Z" fill="#CC142B"/>
  <path d="M410.16 207.696L419.693 210.793L403.965 226.762L410.16 207.696Z" fill="#CC142B"/>
  <path d="M419.436 215.201L413.544 207.091L403.217 226.984L419.436 215.201Z" fill="#CC142B"/>
  <path d="M508.425 346.756V363.596L542.105 346.756H508.425Z" fill="white"/>
  <path d="M515.6 365.472L505.702 351.848L542.848 345.675L515.6 365.472Z" fill="white"/>
  <path d="M508.425 346.756V363.596L474.745 346.756H508.425Z" fill="white"/>
  <path d="M501.249 365.472L511.147 351.848L474.002 345.675L501.249 365.472Z" fill="white"/>
  <path d="M518.034 353.738L502.018 358.942L528.442 385.769L518.034 353.738Z" fill="white"/>
  <path d="M502.452 366.345L512.351 352.722L529.7 386.142L502.452 366.345Z" fill="white"/>
  <path d="M498.815 353.738L514.831 358.942L509.223 321.706L498.815 353.738Z" fill="white"/>
  <path d="M518.832 352.697L502.816 357.901L508.424 320.666L518.832 352.697Z" fill="white"/>
  <path d="M498.815 353.738L514.831 358.942L488.408 385.769L498.815 353.738Z" fill="white"/>
  <path d="M514.397 366.345L504.499 352.722L487.15 386.142L514.397 366.345Z" fill="white"/>
  <path d="M508.425 349.843V361.538L531.814 349.843H508.425Z" fill="#CC142B"/>
  <path d="M513.408 362.84L506.534 353.38L532.33 349.093L513.408 362.84Z" fill="#CC142B"/>
  <path d="M508.426 349.843V361.538L485.037 349.843H508.426Z" fill="#CC142B"/>
  <path d="M503.443 362.84L510.316 353.38L484.521 349.093L503.443 362.84Z" fill="#CC142B"/>
  <path d="M515.099 354.692L503.977 358.306L522.326 376.936L515.099 354.692Z" fill="#CC142B"/>
  <path d="M504.277 363.447L511.15 353.986L523.199 377.195L504.277 363.447Z" fill="#CC142B"/>
  <path d="M501.752 354.692L512.874 358.306L508.979 332.448L501.752 354.692Z" fill="#CC142B"/>
  <path d="M515.653 353.969L504.531 357.583L508.426 331.725L515.653 353.969Z" fill="#CC142B"/>
  <path d="M501.752 354.692L512.874 358.306L494.524 376.936L501.752 354.692Z" fill="#CC142B"/>
  <path d="M512.574 363.447L505.7 353.986L493.652 377.195L512.574 363.447Z" fill="#CC142B"/>
  <mask id="mask0_10_14136" style="mask-type:luminance" maskUnits="userSpaceOnUse" x="0" y="0" width="365" height="220">
  <path d="M0 0H364.086V219.417H0V0Z" fill="white"/>
  </mask>
  <g mask="url(#mask0_10_14136)">
  <path d="M0 0L364.086 219.417ZM0 219.417L364.086 0Z" fill="black"/>
  <path d="M0 0L364.086 219.417M0 219.417L364.086 0" stroke="white" stroke-width="39.9717"/>
  </g>
  <mask id="mask1_10_14136" style="mask-type:luminance" maskUnits="userSpaceOnUse" x="0" y="0" width="365" height="220">
  <path d="M0 0L182.043 109.708H0V0ZM182.043 0H364.086L182.043 109.708V0ZM182.043 109.708H364.086V219.417L182.043 109.708ZM182.043 109.708V219.417H0L182.043 109.708Z" fill="white"/>
  </mask>
  <g mask="url(#mask1_10_14136)">
  <path d="M0 0L364.086 219.417ZM0 219.417L364.086 0Z" fill="black"/>
  <path d="M0 0L364.086 219.417M0 219.417L364.086 0" stroke="#CC142B" stroke-width="26.6478"/>
  </g>
  <mask id="mask2_10_14136" style="mask-type:luminance" maskUnits="userSpaceOnUse" x="0" y="0" width="600" height="300">
  <path d="M0 0H600V300H0V0Z" fill="white"/>
  </mask>
  <g mask="url(#mask2_10_14136)">
  <path d="M151.7 0V79.4H0V140H151.7V219.4H212.4V140.1H364V79.4H212.4V0H151.7Z" fill="white"/>
  </g>
  <path d="M163.8 0V91.5H0V127.9H163.8V219.4H200.2V128H364.1V91.5H200.2V0H163.8Z" fill="#CC142B"/>
  </g>
  <defs>
  <clipPath id="clip0_10_14136">
  <rect width="640" height="480" fill="white"/>
  </clipPath>
  </defs>
  </svg>
