<svg id="flag-icons-pn" viewBox="0 0 640 480" xmlns="http://www.w3.org/2000/svg">
  <g clip-path="url(#clip0_10_15445)">
    <path d="M640 0H0V480H640V0Z" fill="#012169" />
    <path d="M0 0L320 240ZM320 0L0 240Z" fill="black" />
    <path d="M0 0L320 240M320 0L0 240" stroke="white" stroke-width="60" />
    <mask id="mask0_10_15445" style="mask-type:luminance" maskUnits="userSpaceOnUse" x="0" y="0" width="374"
      height="320">
      <path d="M0 0V120H373.333V240H320L0 0ZM320 0H160V320H0V240L320 0Z" fill="white" />
    </mask>
    <g mask="url(#mask0_10_15445)">
      <path d="M0 0L320 240ZM320 0L0 240Z" fill="black" />
      <path d="M0 0L320 240M320 0L0 240" stroke="#C8102E" stroke-width="40" />
    </g>
    <path d="M160 0V320ZM0 120H373.333Z" fill="black" />
    <path d="M160 0V320M0 120H373.333" stroke="white" stroke-width="100" />
    <path d="M160 0V320ZM0 120H373.333Z" fill="black" />
    <path d="M160 0V320M0 120H373.333" stroke="#C8102E" stroke-width="60" />
    <path d="M320 0V240H0V480H640V0H320Z" fill="#012169" />
    <path
      d="M427.05 254.528C420.223 263.2 413.716 275.872 412.116 287.328C407.615 319.552 401.642 326.72 392.426 319.808C392.426 337.12 402.538 338.432 406.975 328.32C406.975 344.544 410.9 358.624 419.754 370.624C423.487 375.68 424.191 372.224 422.42 366.624C420.65 361.024 420.65 342.944 417.108 332.576C422.783 338.688 431.124 335.232 430.42 318.464C423.146 324.864 415.914 324.608 415.167 309.408C414.25 291.584 418.879 265.696 427.05 254.528Z"
      fill="#F7E017" stroke="black" stroke-width="0.6" />
    <path
      d="M418.41 126.368C418.901 119.968 417.984 113.408 414.869 109.28C408.853 101.344 402.965 103.968 398.57 110.368C392 105.056 388.522 123.904 381.077 120.736C382.314 126.848 384.277 129.504 387.989 127.392C384.085 132.704 387.989 139.104 383.381 145.472C391.722 149.472 396.16 142.56 395.797 130.56C398.997 134.816 403.946 134.56 406.613 129.76C402.176 127.616 402.154 121.856 403.946 116.448C406.613 108.48 419.114 108.8 418.41 126.368Z"
      fill="#F7E017" stroke="black" stroke-width="0.6" />
    <path
      d="M437.653 218.944C428.245 226.4 411.05 223.2 409.45 204.832C407.85 186.464 419.733 178.208 422.933 175.84C427.904 172.096 431.808 178.752 430.208 186.496C435.712 183.584 436.949 173.984 434.282 168.416C441.557 169.216 448.298 160.96 451.136 149.248C448.576 152.896 441.621 150.432 435.904 149.888C437.674 146.976 437.653 141.28 437.12 138.336C431.104 147.616 422.4 143.36 410.88 170.24C412.65 160.928 416.021 142.304 417.984 130.048C418.176 128.832 418.325 127.616 418.432 126.368C419.114 108.8 406.634 108.48 403.968 116.48C406.89 121.408 405.354 127.168 404.309 135.904C403.072 146.272 400.405 170.24 398.101 178.208C397.397 165.696 391.893 164.896 390.826 158.784C389.226 160.384 388.352 164.64 388.693 167.552C386.73 164.352 379.989 168.352 377.514 163.552C374.848 171.52 379.114 179.52 383.552 182.976C380.97 183.232 380.352 187.904 377.514 187.904C381.333 194.56 385.237 197.216 389.76 197.76C394.282 198.304 397.653 200.832 400.405 209.056C404.842 222.4 421.738 231.04 437.653 218.944Z"
      fill="#337321" stroke="black" stroke-width="0.6" />
    <path
      d="M461.077 202.688C455.765 224.768 441.215 240.48 434.645 242.88C423.466 246.944 400.682 263.552 394.581 272.096C393.621 271.776 392.725 271.264 392.063 270.56C389.055 267.36 386.559 256.992 391.893 248.192C408.575 224.768 426.495 234.88 437.674 218.912C428.266 226.368 411.071 223.168 409.471 204.8C419.583 208.8 437.866 209.056 452.394 185.632C454.335 188.864 460.01 198.976 461.077 202.688Z"
      fill="#F7E017" stroke="black" stroke-width="0.6" />
    <path
      d="M427.05 254.528C418.624 265.248 414.25 291.584 415.146 309.408C415.402 314.368 416.32 317.728 417.728 319.776C418.346 309.664 423.04 283.52 435.008 271.872C445.12 262.016 460.906 239.936 466.773 214.656C465.706 210.144 463.936 206.944 460.565 203.744C454.741 227.616 439.189 239.072 427.05 254.528Z"
      fill="#337321" stroke="black" stroke-width="0.6" />
    <path
      d="M455.658 192.448C452.65 199.232 445.802 208.544 439.253 212.288C440.661 209.888 441.109 206.848 441.194 204.32C432.853 209.12 416.17 208.576 409.429 204.864C419.541 208.864 437.823 209.12 452.351 185.696C453.802 188.064 455.039 190.176 455.658 192.448Z"
      fill="#316D3A" stroke="black" stroke-width="0.6" />
    <path
      d="M391.893 248.192C378.325 267.232 387.285 283.84 392.597 287.584C391.189 300.896 399.509 299.296 399.338 310.464C402.709 307.552 403.605 299.808 403.072 293.696C407.338 300.608 418.154 292.896 420.458 305.664C421.888 291.552 414.613 277.472 405.568 278.784C409.301 273.728 407.168 265.472 403.626 263.36C402.922 273.728 395.114 273.728 392.085 270.56C389.056 267.36 386.56 256.992 391.893 248.192Z"
      fill="#337321" stroke="black" stroke-width="0.6" />
    <path
      d="M421.248 369.28C419.776 370.56 419.882 373.408 420.8 375.264C422.656 378.976 419.477 387.424 425.493 389.248C427.264 389.792 428.629 388.16 429.312 385.12C431.168 376.736 425.237 375.808 424.704 371.808C424.17 367.808 422.485 368.224 421.248 369.28Z"
      fill="#F7E017" stroke="black" stroke-width="0.6" />
    <path
      d="M426.303 384.992C424.319 386.368 422.57 388.32 423.38 397.888C423.7 401.856 423.551 411.456 421.247 411.584C422.655 412.64 425.684 413.792 426.922 411.328C428.116 414.336 430.826 413.472 431.892 409.728C433.3 411.456 435.263 408.544 435.263 406.016C436.5 407.2 438.996 405.472 438.356 399.776C439.871 400.576 441.812 398.976 442.516 397.504C440.298 396.832 434.708 392.32 433.386 388.736C432.063 385.12 428.607 383.392 426.303 384.992Z"
      fill="#F7E017" stroke="black" stroke-width="0.6" />
    <path d="M395.562 115.84C396.458 113.856 397.461 112 398.571 110.368" stroke="black" stroke-width="0.6" />
    <path d="M429.312 151.072C430.869 149.728 433.258 149.568 435.904 149.824" stroke="black" stroke-width="0.6" />
    <path d="M426.923 411.328C426.304 409.984 426.07 404.416 426.518 401.024" stroke="black" stroke-width="0.6" />
    <path d="M431.894 409.728C430.912 408.608 429.056 404.736 428.736 401.344" stroke="black" stroke-width="0.6" />
    <path d="M435.264 406.016C434.027 405.152 430.997 399.296 430.336 395.52" stroke="black" stroke-width="0.6" />
    <path d="M438.357 399.744C436.885 399.264 432.405 394.88 430.549 390.24" stroke="black" stroke-width="0.6" />
    <path
      d="M520.149 248.48C541.973 275.904 543.381 297.696 540.01 310.496C538.239 298.528 529.194 279.904 519.786 275.104L520.149 248.48Z"
      fill="#F7E017" stroke="black" stroke-width="0.6" />
    <path
      d="M481.13 233.024H521.578C521.578 233.024 521.578 248.992 521.578 304.864C521.578 366.08 498.88 402.272 475.797 421.408C452.736 402.24 430.016 366.048 430.016 304.864C430.016 248.992 430.016 233.024 430.016 233.024H458.41C458.453 236.736 458.688 242.336 461.61 247.936C468.309 246.944 475.882 239.424 481.13 233.024Z"
      fill="#337321" stroke="black" stroke-width="0.6" />
    <path
      d="M521.579 233.024C521.579 233.024 521.579 248.992 521.579 304.864C521.579 323.328 519.509 339.552 515.989 353.664L475.819 243.104L435.648 353.664C432.128 339.52 430.059 323.328 430.059 304.864C430.059 248.992 430.059 233.024 430.059 233.024H521.579Z"
      fill="#006EC7" stroke="black" stroke-width="0.6" />
    <path
      d="M517.205 348.384C516.501 351.648 515.2 356.928 514.218 360.192L475.818 253.12L437.418 360.192C436.416 356.928 435.136 351.648 434.432 348.384L475.84 233.248L517.205 348.384Z"
      fill="#F7E017" />
    <path
      d="M494.058 387.776C495.125 388.576 497.087 390.048 497.962 390.592C500.095 384.192 500.437 375.168 499.733 367.168C497.429 375.968 489.621 375.68 487.487 380.992C488.789 381.984 490.005 383.264 491.05 384.384C488.383 388.384 482.154 395.072 478.613 396.672V339.584C478.613 335.584 477.717 332.256 477.717 328.928C477.717 328.928 477.717 319.776 477.717 317.12C477.717 314.464 477.354 310.592 475.775 310.592C474.175 310.592 473.834 314.464 473.834 317.12C473.834 319.776 473.834 328.928 473.834 328.928C473.834 332.256 472.938 336.128 472.938 339.584V396.672C470.997 388.16 463.338 391.072 459.797 382.56C461.183 382.048 462.655 381.888 464.063 382.304C461.397 368.736 454.122 367.68 452.714 363.68C452.714 369.28 451.114 382.304 453.61 387.904C454.165 386.912 454.997 385.856 456.021 384.96C459.029 394.816 472.597 394.848 475.797 411.072C478.357 405.088 487.594 398.176 494.058 387.776Z"
      fill="#F7E017" stroke="black" stroke-width="0.6" />
    <path
      d="M475.797 340.288C478.805 340.288 488.383 338.816 491.861 338.816C492.757 338.816 493.503 336.8 493.503 334.304C493.503 331.808 492.778 329.792 491.861 329.792C488.405 329.792 478.826 328.32 475.797 328.32C472.789 328.32 463.21 329.792 459.733 329.792C458.837 329.792 458.09 331.808 458.09 334.304C458.09 336.8 458.815 338.816 459.733 338.816C463.21 338.816 472.789 340.288 475.797 340.288Z"
      fill="#F7E017" stroke="black" stroke-width="0.6" />
    <path
      d="M473.856 316.896C473.216 316.128 472.384 315.648 471.445 315.648C469.44 315.648 467.797 317.888 467.797 320.64C467.797 323.392 469.418 325.632 471.445 325.632C473.45 325.632 475.072 323.392 475.072 320.64C475.072 318.496 477.141 318.496 477.141 320.64C477.141 324.96 474.581 328.448 471.445 328.448C468.288 328.448 465.749 324.96 465.749 320.64C465.749 316.32 468.309 312.832 471.445 312.832C472.384 312.832 473.28 313.152 474.069 313.696C474.005 314.4 473.856 315.744 473.856 316.896Z"
      fill="#F7E017" stroke="black" stroke-width="0.6" />
    <path
      d="M459.754 338.816C460.65 338.816 461.375 336.8 461.375 334.304C461.375 331.808 460.65 329.792 459.754 329.792"
      fill="#F7E017" />
    <path
      d="M459.754 338.816C460.65 338.816 461.375 336.8 461.375 334.304C461.375 331.808 460.65 329.792 459.754 329.792"
      stroke="black" stroke-width="0.6" />
    <path
      d="M461.077 338.816C461.973 338.816 462.698 336.8 462.698 334.304C462.698 331.808 461.973 329.792 461.077 329.792"
      fill="#F7E017" />
    <path
      d="M461.077 338.816C461.973 338.816 462.698 336.8 462.698 334.304C462.698 331.808 461.973 329.792 461.077 329.792"
      stroke="black" stroke-width="0.6" />
    <path
      d="M469.845 339.744C470.933 339.744 471.807 337.312 471.807 334.304C471.807 331.296 470.933 328.864 469.845 328.864"
      fill="#F7E017" />
    <path
      d="M469.845 339.744C470.933 339.744 471.807 337.312 471.807 334.304C471.807 331.296 470.933 328.864 469.845 328.864"
      stroke="black" stroke-width="0.6" />
    <path
      d="M471.871 339.968C473.002 339.968 473.919 337.408 473.919 334.272C473.919 331.136 473.002 328.576 471.871 328.576"
      fill="#F7E017" />
    <path
      d="M471.871 339.968C473.002 339.968 473.919 337.408 473.919 334.272C473.919 331.136 473.002 328.576 471.871 328.576"
      stroke="black" stroke-width="0.6" />
    <path
      d="M478.698 340.032C479.85 340.032 480.768 337.44 480.768 334.272C480.768 331.104 479.829 328.512 478.698 328.512"
      fill="#F7E017" />
    <path
      d="M478.698 340.032C479.85 340.032 480.768 337.44 480.768 334.272C480.768 331.104 479.829 328.512 478.698 328.512"
      stroke="black" stroke-width="0.6" />
    <path
      d="M480.832 339.872C481.963 339.872 482.88 337.376 482.88 334.304C482.88 331.232 481.963 328.736 480.832 328.736"
      fill="#F7E017" />
    <path
      d="M480.832 339.872C481.963 339.872 482.88 337.376 482.88 334.304C482.88 331.232 481.963 328.736 480.832 328.736"
      stroke="black" stroke-width="0.6" />
    <path
      d="M490.367 338.88C491.285 338.88 492.031 336.832 492.031 334.272C492.031 331.712 491.285 329.664 490.367 329.664"
      fill="#F7E017" />
    <path
      d="M490.367 338.88C491.285 338.88 492.031 336.832 492.031 334.272C492.031 331.712 491.285 329.664 490.367 329.664"
      stroke="black" stroke-width="0.6" />
    <path d="M456.021 384.96C457.109 383.968 458.431 383.072 459.818 382.592Z" fill="#F7E017" />
    <path d="M456.021 384.96C457.109 383.968 458.431 383.072 459.818 382.592" stroke="black" stroke-width="0.6" />
    <path d="M492.117 385.504C491.797 385.152 491.434 384.8 491.071 384.384Z" fill="#F7E017" />
    <path d="M492.117 385.504C491.797 385.152 491.434 384.8 491.071 384.384" stroke="black" stroke-width="0.6" />
    <path d="M494.059 387.776C496.533 383.776 498.603 379.264 499.755 374.08Z" fill="#F7E017" />
    <path d="M494.059 387.776C496.533 383.776 498.603 379.264 499.755 374.08" stroke="black" stroke-width="0.6" />
    <path
      d="M467.669 283.84C467.669 282.528 468.373 281.984 469.205 281.056C470.208 279.936 470.613 279.392 471.509 279.392H483.157C484.01 279.392 484.224 279.712 484.224 280.928V304.64C484.224 305.824 484.032 306.176 483.157 306.176H467.669V283.584"
      fill="white" />
    <path
      d="M467.669 283.84C467.669 282.528 468.373 281.984 469.205 281.056C470.208 279.936 470.613 279.392 471.509 279.392H483.157C484.01 279.392 484.224 279.712 484.224 280.928V304.64C484.224 305.824 484.032 306.176 483.157 306.176H467.669V283.584"
      stroke="black" stroke-width="0.6" />
    <path
      d="M480.277 308.256C481.813 308.256 481.535 308.192 482.602 306.592C483.733 304.928 483.626 305.056 483.626 303.52V281.792C483.626 280.672 483.434 280.352 482.645 280.352H471.871C471.018 280.352 470.655 280.864 469.738 281.92C468.97 282.784 468.33 283.328 468.33 284.544V308.256H480.277Z"
      fill="#E5E5E5" stroke="black" stroke-width="0.6" />
    <path
      d="M481.429 307.744C481.429 308.928 481.237 309.28 480.362 309.28H468.714C467.84 309.28 467.669 308.96 467.669 307.744V284C467.669 282.816 467.861 282.464 468.714 282.464H480.362C481.237 282.464 481.429 282.784 481.429 284V307.744Z"
      fill="white" stroke="black" stroke-width="0.6" />
    <path
      d="M504 219.104C506.261 222.912 507.008 228 505.771 232.992H502.4C503.808 226.592 502.933 220.512 496.896 219.712C487.872 218.528 477.376 244.736 461.589 247.904C456.981 239.648 457.216 223.936 463.083 216.48C460.053 203.392 453.675 188.992 449.237 182.784C446.336 182.08 442.987 181.728 440.832 181.92C443.136 174.464 449.707 166.624 455.04 163.424C455.893 161.536 456.832 159.712 457.685 158.08C458.219 147.84 490.688 152.64 497.6 159.008C497.621 170.496 500.629 208.736 504 219.104Z"
      fill="#96877D" stroke="black" stroke-width="0.6" />
    <path
      d="M464.661 226.112C463.893 208.384 459.115 193.76 452.395 183.808C455.595 185.152 462.144 185.152 466.581 180.352C472.427 174.496 487.701 164.256 493.291 168.64C493.739 170.112 493.995 173.44 493.653 175.552C492.331 170.24 477.589 178.464 473.429 180.992C469.44 183.776 467.669 187.52 469.077 195.904C466.773 192.992 467.563 190.176 465.173 188.064C466.133 191.52 466.923 197.76 467.2 202.816C466.304 199.232 464.725 191.52 461.248 186.976C464.256 195.744 466.88 216.832 465.643 228.032C468.032 228.032 473.323 224.512 475.435 221.984C473.579 225.984 468.203 228.768 464.747 229.824C463.189 232.608 462.123 239.808 462.208 243.808C461.973 238.88 462.997 226.88 464.661 226.112Z"
      fill="black" />
    <path
      d="M504 219.104C501.056 214.208 495.574 211.552 488.576 214.4C489.643 213.6 491.947 212.256 493.995 211.744C493.739 208.96 492.053 196.96 491.776 194.048L493.739 192.864C494.72 200.064 495.957 208.288 496.747 211.616C497.365 211.872 498.795 212.288 500.032 213.216C499.499 210.432 496.491 190.336 496.576 188.192L499.243 186.048C500.288 196.96 501.973 212.8 504 219.104Z"
      fill="black" />
    <path
      d="M502.421 233.024C503.829 226.624 502.954 220.544 496.917 219.744C492.245 219.136 487.168 225.952 481.173 233.024H502.421Z"
      fill="#96877D" stroke="black" stroke-width="0.6" />
    <path
      d="M463.21 175.68C460.543 176.224 454.613 175.424 451.583 173.952C451.754 172.736 452.074 171.52 452.458 170.176C450.602 172.032 447.061 175.68 445.717 178.208C449.983 179.552 458.773 180.224 463.21 175.68Z"
      fill="#96877D" stroke="black" stroke-width="0.6" />
    <path d="M463.104 216.512C464.085 220.768 464.725 224.864 464.81 228.512" stroke="black" stroke-width="0.6" />
    <path
      d="M455.061 163.456C453.461 166.976 452.053 170.752 451.584 173.952C454.592 175.424 460.544 176.224 463.211 175.68"
      stroke="black" stroke-width="0.6" />
    <path
      d="M449.258 182.816C450.41 183.104 451.476 183.424 452.394 183.808C455.594 185.152 462.143 185.152 466.58 180.352C471.018 175.552 483.071 160.672 496.746 159.072"
      stroke="black" stroke-width="0.6" />
    <path
      d="M445.738 178.208C450.005 179.552 458.794 180.192 463.21 175.68C473.493 165.184 483.434 159.04 493.376 158.24"
      stroke="black" stroke-width="0.6" />
    <path
      d="M520.148 248.48C535.039 263.904 546.047 278.816 549.247 302.752C552.447 326.688 558.484 333.088 565.93 326.688C564.159 340.512 554.922 342.112 547.135 331.488C547.839 347.456 543.594 366.624 532.586 373.536C531.882 363.968 536.106 356.384 534.89 348.512C534.356 345.056 534.186 337.056 537.194 333.344C531.348 336.256 522.111 330.688 521.236 317.632C527.978 322.432 536.66 323.232 540.031 310.432C543.38 297.696 541.972 275.872 520.148 248.48Z"
      fill="#337321" stroke="black" stroke-width="0.6" />
    <path
      d="M538.965 123.936C543.573 105.856 555.648 107.712 559.722 115.424C571.605 105.312 573.205 128.192 583.317 123.68C583.146 127.936 579.776 131.936 576.042 131.648C579.946 136.96 574.442 144.96 582.784 149.728C575.68 155.04 565.76 149.472 563.093 134.816C560.789 141.728 552.448 141.728 549.077 136.16C556.352 133.248 555.818 123.136 551.744 119.136C547.626 115.104 540.373 116.736 538.965 123.936Z"
      fill="#337321" stroke="black" stroke-width="0.6" />
    <path
      d="M502.976 163.776C506.283 179.776 513.131 194.688 520.512 204.832C529.024 216.544 541.888 213.6 549.077 202.432C549.248 224.704 533.867 226.432 525.312 219.456C521.536 216.384 518.485 217.984 522.112 222.912C527.616 230.368 539.648 235.904 553.856 240.48C578.688 248.448 569.835 278.016 562.56 277.728C564.651 277.664 566.357 274.4 563.349 270.336C541.803 241.248 497.984 252.704 498.688 187.776C494.08 204.8 475.093 198.144 483.968 177.92C486.805 181.376 491.776 181.632 493.205 176.32C494.315 172.192 493.589 164.992 488.619 158.784C489.429 158.688 491.2 158.784 491.008 155.712C491.221 157.504 492.309 160.16 495.104 159.264C495.893 161.152 496.747 162.4 497.877 161.728C498.091 161.6 498.773 161.088 498.496 159.2C498.709 162.784 501.504 164.032 502.976 163.776Z"
      fill="#337321" stroke="black" stroke-width="0.6" />
    <path
      d="M525.29 219.456C535.573 229.568 547.221 229.568 557.93 210.944C561.301 205.088 566.613 200.032 570.346 199.488C574.08 198.944 573.888 193.632 576.725 192.576C574.954 191.776 574.25 188.576 571.584 188.992C578.24 185.536 576.277 177.536 579.562 173.696C576.896 175.168 572.736 169.184 568.917 176.768C569.898 173.312 568.554 169.184 567.594 167.584C567.957 171.584 562.368 172.384 561.301 182.496C560.704 188.16 558.634 187.808 558.293 179.04C558.037 172.608 555.989 154.816 553.514 145.792C551.039 136.736 550.464 124.32 553.834 122.464C553.322 121.184 552.618 120.032 551.744 119.2C547.626 115.168 540.394 116.8 538.965 124C534.357 142.08 547.306 152.48 546.24 172.16C544.298 157.536 528.49 153.792 528.682 139.424C523.541 142.88 524.245 149.28 526.208 154.336C523.008 146.88 515.733 159.136 509.525 149.024C508.821 162.336 516.629 167.392 523.008 167.904C519.808 176.416 524.074 183.616 528.32 185.984C528.49 171.072 548.864 177.184 549.077 202.752C549.248 224.512 533.632 226.368 525.29 219.456Z"
      fill="#F7E017" stroke="black" stroke-width="0.6" />
    <path
      d="M553.855 240.48C578.687 248.448 569.834 278.016 562.559 277.728C557.93 277.568 553.514 271.744 553.236 266.688C547.924 270.944 549.332 279.328 553.407 282.656C542.228 280.672 537.535 291.712 537.258 303.808C539.306 298.208 545.514 297.824 547.818 299.008C550.122 300.192 556.074 300.864 558.463 296.864C556.5 299.392 559.7 305.248 556.948 309.76C566.271 309.216 570.346 296.192 568.746 290.464C580.82 274.016 578.516 247.136 553.855 240.48Z"
      fill="#F7E017" stroke="black" stroke-width="0.6" />
    <path
      d="M534.955 366.912C536.576 368.416 536.363 371.616 535.275 373.632C533.077 377.664 536.384 387.296 529.621 388.928C527.616 389.408 526.144 387.488 525.483 384.064C523.648 374.592 530.304 373.952 531.008 369.504C531.733 365.088 533.589 365.632 534.955 366.912Z"
      fill="#F7E017" stroke="black" stroke-width="0.6" />
    <path
      d="M528.853 384.096C531.029 385.76 532.906 388.064 531.754 398.688C531.263 403.104 531.157 413.824 533.738 414.112C532.117 415.2 528.725 416.256 527.402 413.44C525.973 416.704 522.986 415.552 521.898 411.328C520.255 413.152 518.165 409.76 518.25 406.944C516.821 408.192 514.111 406.112 514.965 399.776C513.258 400.576 511.125 398.656 510.378 396.992C512.874 396.384 519.231 391.712 520.831 387.776C522.41 383.872 526.314 382.176 528.853 384.096Z"
      fill="#F7E017" stroke="black" stroke-width="0.6" />
    <path d="M527.381 413.472C528.106 412.032 528.533 405.792 528.128 401.984" stroke="black" stroke-width="0.6" />
    <path d="M521.898 411.36C523.029 410.176 525.205 405.984 525.653 402.208" stroke="black" stroke-width="0.6" />
    <path d="M518.229 406.976C519.637 406.08 523.178 399.744 524.031 395.552" stroke="black" stroke-width="0.6" />
    <path d="M514.943 399.808C516.586 399.392 521.727 394.784 523.925 389.696" stroke="black" stroke-width="0.6" />
    <path
      d="M498.687 187.808C498.389 215.072 505.941 228.896 516.415 237.856C512.533 234.368 514.218 222.4 508.97 218.528C510.207 218.4 512.17 221.056 515.263 220C513.749 214.944 511.274 207.232 505.514 206.176C507.029 205.92 510.314 206.72 512.426 205.504C509.418 198.56 501.439 201.888 498.687 187.808Z"
      fill="#F7E017" stroke="black" stroke-width="0.6" />
    <path
      d="M496.81 161.856C496.17 161.536 495.637 160.576 495.104 159.328C492.309 160.224 491.221 157.568 491.008 155.776C491.179 158.848 489.429 158.72 488.597 158.816C493.589 165.024 494.314 172.224 493.205 176.352C491.776 181.664 486.827 181.408 483.968 177.952C483.605 189.248 493.376 192.992 496.917 178.752C496.917 181.152 498.965 180.896 499.498 184.064C502.016 177.952 500.096 169.152 496.81 161.856Z"
      fill="#F7E017" stroke="black" stroke-width="0.6" />
    <path
      d="M481.215 107.84C476.778 101.728 474.73 91.4881 474.922 85.6321C475.093 79.7761 476.693 73.3761 482.367 76.0641C480.597 76.0641 481.834 81.376 479.978 81.92C481.493 82.72 483.519 80.8641 483.797 79.6481C484.159 81.5041 486.463 80.992 486.634 83.104C487.53 82.048 486.549 76.864 485.226 75.776C486.207 74.976 486.741 70.848 486.293 68.864C485.397 69.12 484.074 71.0081 483.818 73.6641C484.266 71.5201 483.733 66.208 481.237 65.408C480.533 66.88 480.341 70.464 481.322 72.448C479.018 71.648 475.647 73.92 474.837 76.832C475.007 73.312 475.349 68.2881 476.799 65.1201C477.29 64.0641 476.095 62.208 475.157 64.736C473.429 59.68 468.821 57.024 466.773 59.552C464.725 62.08 461.994 58.368 460.309 62.336C458.623 66.336 452.906 66.752 453.205 70.976C453.375 73.504 452.97 77.408 452.138 78.816C450.09 82.272 453.119 84.8 453.653 87.872C453.29 77.76 464.021 58.08 474.773 65.792C473.791 68.32 472.938 73.376 472.639 79.488C472.191 88.544 473.087 101.312 478.933 108.768L481.215 107.84Z"
      fill="#337321" stroke="black" stroke-width="0.6" />
    <path
      d="M484.395 76.16C484.331 73.76 487.104 70.656 490.816 70.72C495.296 70.784 498.752 76.896 502.336 76.32C505.92 75.712 504.149 78.72 503.403 79.52C502.656 80.32 502.208 81.504 502.464 82.976C502.72 84.448 502.272 85.408 500.821 84.032C497.621 81.024 494.443 85.216 490.219 82.912C486.613 80.864 484.501 79.744 484.395 76.16Z"
      fill="#C8102E" stroke="black" stroke-width="0.6" />
    <path
      d="M466.133 138.976C464.362 130.592 457.621 121.408 454.336 119.296L454.165 114.784C455.936 113.728 460.202 108.672 462.144 105.856C475.456 115.424 493.546 101.856 501.888 87.7761L505.088 90.6881L503.488 93.8881L501.802 92.5441C499.754 96.2561 492.138 107.008 489.834 109.28C492.928 110.464 497.173 111.264 498.346 111.168C505.792 103.168 511.637 96.0001 514.474 95.4561L516.864 100.256L514.73 102.528L513.045 101.056C505.066 110.912 496.021 132.448 492.458 146.816C487.509 145.216 469.76 146.272 466.133 138.976Z"
      fill="#96877D" stroke="black" stroke-width="0.6" />
    <path
      d="M489.834 109.28C488.682 108.832 487.701 108.352 487.082 107.84C485.653 109.824 482.112 111.552 477.589 111.84"
      stroke="black" stroke-width="0.6" />
    <path
      d="M466.837 136.032C465.643 126.112 467.541 115.136 470.912 111.808C478.272 119.136 490.88 119.136 498.325 111.136"
      stroke="black" stroke-width="0.6" />
    <path
      d="M466.837 130.848C472.512 130.592 484.842 132.032 487.85 132.704C490.858 133.376 495.914 135.232 495.21 137.504"
      stroke="black" stroke-width="0.6" />
    <path d="M469.461 129.44L471.104 127.008L469.461 124.576L467.84 126.976L469.461 129.44Z" stroke="black"
      stroke-width="0.6" />
    <path
      d="M473.322 79.904C471.274 75.648 465.664 74.304 464.448 80.032C463.914 82.56 463.125 85.216 461.781 86.432C460.458 87.616 460.757 91.264 461.333 92.832C462.741 96.704 461.504 100.416 464.256 102.944C464.256 99.872 467.264 96.704 469.845 95.904C472.426 95.104 476.309 91.648 476.842 87.776C477.397 83.872 478.293 80.672 473.322 79.904Z"
      fill="#337321" stroke="black" stroke-width="0.6" />
    <path
      d="M460.544 118.208H461.248L461.269 125.472C461.419 125.536 461.568 125.664 461.696 125.792L465.877 122.176L466.24 123.104L462.037 126.752C462.059 126.976 462.08 127.232 462.059 127.456L466.24 131.072L465.877 132L461.653 128.416C461.547 128.576 461.397 128.736 461.248 128.8V136.032H460.544V128.768C460.395 128.704 460.245 128.576 460.117 128.448L455.936 132.064L455.573 131.136L459.776 127.488C459.755 127.264 459.733 127.008 459.755 126.784L455.573 123.168L455.936 122.24L460.139 125.856C460.245 125.696 460.395 125.536 460.544 125.472V118.208Z"
      fill="#96877D" stroke="black" stroke-width="0.6" />
    <path
      d="M466.858 136C465.344 138.304 463.232 139.712 460.885 139.712C456.234 139.712 452.479 134.08 452.479 127.104C452.479 120.128 456.234 114.496 460.885 114.496C463.616 114.496 466.026 116.448 467.562 119.456C467.136 121.056 466.624 124.608 466.581 126.208C466.282 121.856 463.85 118.464 460.864 118.464C457.685 118.464 455.125 122.336 455.125 127.072C455.125 131.84 457.706 135.68 460.864 135.68C463.509 135.68 465.813 132.896 466.474 129.216C466.495 130.88 466.538 134.688 466.858 136Z"
      fill="#96877D" stroke="black" stroke-width="0.6" />
    <path
      d="M457.344 148C456.81 147.072 455.829 144.544 455.936 142.688C456.725 142.56 458.24 143.36 458.944 144.416C458.858 143.072 458.496 140.16 458.688 138.816C459.669 139.36 461.696 141.088 462.421 143.072C462.25 141.728 461.888 138.272 462.25 136.16C463.317 137.088 465.088 139.616 465.45 141.344C465.536 138.688 466.154 134.304 466.688 133.216C467.477 134.4 468.736 135.488 469.525 137.088C469.696 134.944 470.421 132.416 471.466 131.776C472.256 133.12 473.514 136.16 473.77 139.616C474.56 139.232 475.626 137.216 476.074 136.16C476.522 137.216 476.97 139.072 476.693 141.344C477.674 140 478.826 138.144 479.082 136.544C479.786 137.344 481.13 139.328 481.472 141.472C481.301 139.744 481.386 136.672 481.024 134.944C482.346 136 483.413 137.856 483.69 139.872C484.053 138.016 484.842 134.688 485.546 133.888C486.25 136.032 486.976 138.56 486.869 140.672C487.317 139.328 488.021 136.96 488.725 136.416C489.344 137.888 489.258 141.088 489.088 142.816C489.706 141.472 490.858 139.904 491.562 139.36C491.648 140.16 491.733 141.76 491.562 142.944C492.352 142.272 493.696 138.688 494.144 136.832C495.381 137.76 496.618 140.96 496.725 142.56C497.621 142.016 499.392 139.648 499.925 138.304C499.925 139.232 500.202 141.76 499.84 143.744C500.373 142.944 500.906 141.344 501.162 140.672C501.525 142.016 501.248 145.184 500.885 146.912C501.674 145.856 502.848 145.184 503.552 145.184C503.637 147.456 502.57 151.424 501.589 154.368C493.098 150.816 475.264 149.472 457.344 148Z"
      fill="#337321" stroke="black" stroke-width="0.6" />
    <path
      d="M487.04 77.536C486.997 76.544 488.448 74.336 491.072 74.368C494.208 74.4 497.109 77.856 499.605 77.6C502.123 77.344 500.885 78.592 500.352 78.912C499.819 79.232 499.52 79.744 499.691 80.32C499.883 80.928 499.563 81.312 498.539 80.768C496.299 79.552 494.059 81.248 491.115 80.32C488.576 79.456 487.104 79.008 487.04 77.536Z"
      fill="#F7E017" />
    <path
      d="M460.096 156C457.429 160.8 454.784 160 454.25 156.928C453.717 153.856 455.68 152.416 454.954 149.728C454.25 147.072 456.106 145.856 457.002 147.072C457.898 148.256 460.736 144.416 461.973 148.416C463.21 152.416 464.192 155.2 463.488 156.8C462.762 158.4 460.629 157.6 460.096 156Z"
      fill="#F7E017" stroke="black" stroke-width="0.6" />
    <path
      d="M471.53 148.8C471.04 147.04 473.792 143.68 475.221 146.08C476.65 148.48 478.869 143.488 480.106 147.264C481.344 151.072 481.749 153.056 482.368 155.168C482.986 157.312 478.997 158.432 477.76 156.576C477.93 157.824 474.304 158.816 473.322 155.232C472.789 153.344 472.213 151.136 471.53 148.8Z"
      fill="#F7E017" stroke="black" stroke-width="0.6" />
    <path
      d="M489.983 151.008C489.322 149.152 492.564 146.496 494.25 149.888C494.698 148.48 497.898 148.224 498.111 152.288C498.325 156.352 498.431 158.752 498.517 160.352C498.602 161.952 496.575 163.424 495.103 159.36C492.479 160.16 491.284 157.952 490.986 155.648C490.666 153.28 490.346 152.128 489.983 151.008Z"
      fill="#F7E017" stroke="black" stroke-width="0.6" />
    <path
      d="M461.824 148.352C461.418 147.008 464.085 144.352 465.898 146.368C467.712 148.352 470.229 144.64 471.317 148.224C473.493 155.488 473.621 156 472.96 157.408C472.298 158.816 469.461 158.272 468.736 156.352C468.608 157.696 466.154 157.472 464.874 156.416C463.424 155.2 462.4 150.752 461.824 148.352Z"
      fill="#337321" stroke="black" stroke-width="0.6" />
    <path
      d="M480.49 148.672C479.871 146.624 484.031 144.8 485.866 148.416C486.805 147.136 488.831 147.072 489.983 151.008C491.135 154.944 491.306 157.12 490.474 158.112C489.877 158.816 487.722 159.36 487.018 157.568C486.037 158.496 483.029 157.696 482.367 155.168C481.706 152.672 481.13 150.464 480.49 148.672Z"
      fill="#337321" stroke="black" stroke-width="0.6" />
    <path
      d="M498.155 152.608C498.069 150.752 500.331 149.888 501.163 152.608C502.016 155.328 504.704 152.864 504.939 157.408C504.981 158.272 504.619 161.6 503.787 163.2C502.955 164.8 498.816 163.2 498.56 159.808C498.283 156.384 498.197 154.464 498.155 152.608Z"
      fill="#337321" stroke="black" stroke-width="0.6" />
    <path d="M460.096 156C459.114 154.016 457.792 150.816 456.106 154.272" stroke="black" stroke-width="0.6" />
    <path d="M468.757 156.32C468.181 155.2 467.435 153.312 467.157 151.872" stroke="black" stroke-width="0.6" />
    <path d="M477.76 156.608C477.141 155.936 476.203 154.624 475.712 153.216" stroke="black" stroke-width="0.6" />
    <path
      d="M476.949 149.6C478.507 149.856 479.573 152.064 480.043 153.056C480.533 154.048 481.557 155.84 482.347 156.064"
      stroke="black" stroke-width="0.6" />
    <path d="M487.019 157.6C486.486 156.32 485.952 155.2 485.824 154.272" stroke="black" stroke-width="0.6" />
    <path d="M485.866 148.416C486.4 149.536 486.805 150.464 487.104 151.552" stroke="black" stroke-width="0.6" />
    <path d="M495.082 159.328C494.378 157.344 493.269 155.392 492.33 154.752" stroke="black" stroke-width="0.6" />
    <path d="M494.741 152C494.827 155.936 498.325 156.192 498.475 158.976" stroke="black" stroke-width="0.6" />
    <path d="M501.162 152.608C501.525 153.6 501.653 154.592 501.695 156.256" stroke="black" stroke-width="0.6" />
  </g>
  <defs>
    <clipPath id="clip0_10_15445">
      <rect width="640" height="480" fill="white" />
    </clipPath>
  </defs>
</svg>
