<svg id="flag-icons-pt" viewBox="0 0 640 480" fill="none" xmlns="http://www.w3.org/2000/svg">
  <g clip-path="url(#clip0_10_15080)">
  <path d="M256 0H640V480H256V0Z" fill="#FF0000"/>
  <path d="M0 0H256V480H0V0Z" fill="#006600"/>
  <path fill-rule="evenodd" clip-rule="evenodd" d="M339.5 306.2C307.2 305.2 159.5 213 158.5 198.2L166.6 184.7C181.3 206 332.3 295.7 347.2 292.5L339.5 306.2Z" fill="#FFFF00" stroke="black" stroke-width="0.6" stroke-linecap="round" stroke-linejoin="round"/>
  <path fill-rule="evenodd" clip-rule="evenodd" d="M164.9 182.8C162 190.6 203.5 216.2 253.3 246.6C303.2 276.9 346.2 295.6 349.3 293L350.8 290.2C350.2 291.2 348.8 291.5 346.5 290.8C333 286.9 297.9 270.8 254.4 244.4C210.8 218 173 193.7 167.1 183.4C166.64 182.434 166.434 181.368 166.5 180.3H166.3L165.1 182.5L164.9 182.8ZM340.2 306.6C339.7 307.6 338.6 307.6 336.7 307.4C324.7 306.1 288.1 288.3 244.8 262.4C194.4 232.2 152.8 204.8 157.4 197.6L158.6 195.4L158.8 195.5C154.8 207.7 240.9 256.9 246 260.1C295.8 290.9 337.8 309 341.5 304.3L340.2 306.6Z" fill="#FFFF00" stroke="black" stroke-width="0.6" stroke-linecap="round" stroke-linejoin="round"/>
  <path fill-rule="evenodd" clip-rule="evenodd" d="M256.2 207.2C288.4 206.9 328.2 202.8 351.2 193.6L346.2 185.6C332.7 193.1 292.7 198.1 255.9 198.8C212.5 198.4 181.8 194.3 166.4 184L161.8 192.6C190 204.6 219 207.1 256.2 207.2Z" fill="#FFFF00" stroke="black" stroke-width="0.6" stroke-linecap="round" stroke-linejoin="round"/>
  <path fill-rule="evenodd" clip-rule="evenodd" d="M352.5 193.8C351.7 195.1 336.7 200.2 314.7 204C295.307 206.939 275.715 208.377 256.1 208.3C237.307 208.371 218.531 207.168 199.9 204.7C176.8 201.1 164.9 196.1 160.4 194.3L161.5 192.1C174.2 197.1 186.2 200.1 200.2 202.3C218.695 204.797 237.338 206.034 256 206C275.513 206.021 295.001 204.583 314.3 201.7C336.8 198 349.1 193.3 350.9 191.2L352.5 193.9V193.8ZM348.1 185.7C345.7 187.7 333.5 192 312.1 195.4C293.621 198.074 274.972 199.41 256.3 199.4C234.3 199.4 216.2 197.8 202.5 195.8C180.7 193 169.1 187.8 164.9 186.4L166.2 184.2C169.5 185.9 180.6 190.4 202.7 193.5C220.466 195.88 238.376 197.016 256.3 196.9C274.839 196.906 293.354 195.569 311.7 192.9C333.2 189.9 344.8 184.5 346.6 183.1L348.1 185.7ZM150.3 246C170.1 256.7 214.2 262 255.9 262.4C293.9 262.5 343.3 256.6 361.8 246.8L361.3 236.1C355.5 245.1 302.5 253.8 255.5 253.5C208.5 253.1 164.8 245.9 150.2 236.5V246" fill="#FFFF00"/>
  <path d="M150.3 246C170.1 256.7 214.2 262 255.9 262.4C293.9 262.5 343.3 256.6 361.8 246.8L361.3 236.1C355.5 245.1 302.5 253.8 255.5 253.5C208.5 253.1 164.8 245.9 150.2 236.5V246M352.5 193.8C351.7 195.1 336.7 200.2 314.7 204C295.307 206.939 275.715 208.377 256.1 208.3C237.307 208.371 218.531 207.168 199.9 204.7C176.8 201.1 164.9 196.1 160.4 194.3L161.5 192.1C174.2 197.1 186.2 200.1 200.2 202.3C218.695 204.797 237.338 206.034 256 206C275.513 206.021 295.001 204.583 314.3 201.7C336.8 198 349.1 193.3 350.9 191.2L352.5 193.9V193.8ZM348.1 185.7C345.7 187.7 333.5 192 312.1 195.4C293.621 198.074 274.972 199.41 256.3 199.4C234.3 199.4 216.2 197.8 202.5 195.8C180.7 193 169.1 187.8 164.9 186.4L166.2 184.2C169.5 185.9 180.6 190.4 202.7 193.5C220.466 195.88 238.376 197.016 256.3 196.9C274.839 196.906 293.354 195.569 311.7 192.9C333.2 189.9 344.8 184.5 346.6 183.1L348.1 185.7Z" stroke="black" stroke-width="0.6" stroke-linecap="round" stroke-linejoin="round"/>
  <path fill-rule="evenodd" clip-rule="evenodd" d="M362.8 244.5V247C360 250.4 342.6 255.4 320.8 259C299.142 262.113 277.28 263.584 255.4 263.4C234.653 263.577 213.924 262.139 193.4 259.1C178.086 257.33 163.121 253.286 149 247.1V244.2C158.7 250.6 184.9 255.4 193.7 256.8C209.5 259.2 229.8 261 255.4 261C282.3 261 303.8 259.1 320.4 256.6C336.1 254.3 358.4 248.4 362.8 244.5ZM362.8 235.5V238C360 241.3 342.6 246.3 320.8 249.9C299.145 253.047 277.282 254.551 255.4 254.4C234.655 254.522 213.93 253.085 193.4 250.1C178.086 248.33 163.121 244.286 149 238.1V235.1C158.7 241.6 185 246.3 193.7 247.7C214.128 250.692 234.754 252.13 255.4 252C282.3 252 303.9 250 320.4 247.5C336.1 245.3 358.4 239.4 362.8 235.5ZM255.8 304.3C210.2 304.1 171.1 291.9 162.8 289.9L168.8 299.3C196.849 309.234 226.448 314.077 256.2 313.6C290.9 312.6 321.2 309.9 342.5 299.5L348.7 289.7C334.2 296.6 284.7 304.3 255.7 304.3" fill="#FFFF00"/>
  <path d="M255.8 304.3C210.2 304.1 171.1 291.9 162.8 289.9L168.8 299.3C196.849 309.234 226.448 314.077 256.2 313.6C290.9 312.6 321.2 309.9 342.5 299.5L348.7 289.7C334.2 296.6 284.7 304.3 255.7 304.3M362.8 244.5V247C360 250.4 342.6 255.4 320.8 259C299.142 262.113 277.28 263.584 255.4 263.4C234.653 263.577 213.924 262.139 193.4 259.1C178.086 257.33 163.121 253.286 149 247.1V244.2C158.7 250.6 184.9 255.4 193.7 256.8C209.5 259.2 229.8 261 255.4 261C282.3 261 303.8 259.1 320.4 256.6C336.1 254.3 358.4 248.4 362.8 244.5ZM362.8 235.5V238C360 241.3 342.6 246.3 320.8 249.9C299.145 253.047 277.282 254.551 255.4 254.4C234.655 254.522 213.93 253.085 193.4 250.1C178.086 248.33 163.121 244.286 149 238.1V235.1C158.7 241.6 185 246.3 193.7 247.7C214.128 250.692 234.754 252.13 255.4 252C282.3 252 303.9 250 320.4 247.5C336.1 245.3 358.4 239.4 362.8 235.5Z" stroke="black" stroke-width="0.6" stroke-linecap="round" stroke-linejoin="round"/>
  <path fill-rule="evenodd" clip-rule="evenodd" d="M344.9 297.3C343.989 298.649 343.056 299.983 342.1 301.3C332.1 304.9 316.1 308.7 309.5 309.7C291.79 313 273.815 314.674 255.8 314.7C215.4 314.1 182.3 306.2 166.8 299.4L165.5 297.3L165.7 296.9L167.8 297.8C196.26 307.218 226.022 312.111 256 312.3C274.8 312.3 293.5 310.2 308.6 307.5C331.8 302.8 341.2 299.3 344.1 297.7L344.8 297.3H344.9ZM350.2 288.5C349.542 289.671 348.875 290.838 348.2 292C342.8 294 328.2 298.2 306.9 301.2C292.9 303.1 284.2 305 256.3 305.5C224.406 305.18 192.708 300.469 162.1 291.5L161 289C192.098 297.595 224.143 302.298 256.4 303C281.9 302.5 292.8 300.6 306.7 298.7C331.5 294.9 344 290.7 347.7 289.6C347.702 289.534 347.702 289.467 347.7 289.4L350.3 288.4L350.2 288.5Z" fill="#FFFF00" stroke="black" stroke-width="0.6" stroke-linecap="round" stroke-linejoin="round"/>
  <path fill-rule="evenodd" clip-rule="evenodd" d="M350.8 237.6C350.9 267.6 335.5 294.6 323.2 306.4C305.034 324.118 280.773 334.208 255.4 334.6C225.1 335.1 196.6 315.4 188.9 306.7C171.675 288.433 161.871 264.404 161.4 239.3C163.2 206.5 176.1 183.7 194.7 168C212.769 153.126 235.498 145.089 258.9 145.3C272.562 145.962 285.934 149.471 298.16 155.602C310.387 161.732 321.197 170.349 329.9 180.9C342.4 196.1 347.9 212.6 350.8 237.6ZM255.6 135C283.575 134.999 310.416 146.057 330.272 165.763C350.128 185.469 361.389 212.226 361.6 240.2C361.6 254.081 358.866 267.826 353.554 280.65C348.243 293.474 340.457 305.126 330.642 314.941C320.826 324.756 309.174 332.542 296.35 337.854C283.526 343.166 269.781 345.9 255.9 345.9C242.02 345.9 228.275 343.166 215.451 337.854C202.627 332.542 190.974 324.756 181.159 314.941C171.344 305.126 163.558 293.474 158.246 280.65C152.934 267.826 150.2 254.081 150.2 240.2C150.1 182.2 197.5 135 255.6 135Z" fill="#FFFF00" stroke="black" stroke-width="0.6" stroke-linecap="round" stroke-linejoin="round"/>
  <path fill-rule="evenodd" clip-rule="evenodd" d="M255.9 134.5C314.1 134.5 361.5 181.9 361.5 240.1C361.5 298.3 314.1 345.7 256 345.7C197.9 345.7 150.4 298.3 150.4 240.1C150.4 181.9 197.8 134.5 256 134.5H255.9ZM152.6 240C152.6 296.8 199.3 343.3 255.9 343.3C312.5 343.3 359.2 296.8 359.2 240C359.2 183.2 312.5 136.7 255.9 136.7C199.3 136.7 152.6 183.2 152.6 240Z" fill="#FFFF00" stroke="black" stroke-width="0.6" stroke-linecap="round" stroke-linejoin="round"/>
  <path fill-rule="evenodd" clip-rule="evenodd" d="M256 143.3C281.622 143.379 306.172 153.593 324.29 171.71C342.407 189.828 352.621 214.378 352.7 240C352.621 265.631 342.411 290.192 324.296 308.325C306.181 326.459 281.631 336.695 256 336.8C203 336.8 159.3 293.2 159.3 240C159.405 214.386 169.627 189.851 187.739 171.739C205.851 153.627 230.386 143.405 256 143.3ZM161.6 240C161.6 292 204.2 334.4 256 334.4C307.8 334.4 350.4 291.9 350.4 240C350.4 188 307.8 145.6 256 145.6C230.996 145.705 207.046 155.685 189.365 173.365C171.685 191.046 161.705 214.996 161.6 240Z" fill="#FFFF00" stroke="black" stroke-width="0.6" stroke-linecap="round" stroke-linejoin="round"/>
  <path fill-rule="evenodd" clip-rule="evenodd" d="M260.3 134H251.2V346.3H260.2L260.3 134Z" fill="#FFFF00" stroke="black" stroke-width="0.6" stroke-linecap="round" stroke-linejoin="round"/>
  <path fill-rule="evenodd" clip-rule="evenodd" d="M259.3 132.8H261.6V347.5H259.4V132.8H259.3ZM250.3 132.8H252.7V347.5H250.4V132.8H250.3Z" fill="#FFFF00" stroke="black" stroke-width="0.6" stroke-linecap="round" stroke-linejoin="round"/>
  <path fill-rule="evenodd" clip-rule="evenodd" d="M361.6 244.2V236.4L355.2 230.4L318.9 220.8L266.7 215.5L203.7 218.7L158.9 229.3L149.9 236V243.9L172.8 233.6L227.2 225.1H279.5L317.9 229.3L344.5 235.7L361.6 244.2Z" fill="#FFFF00" stroke="black" stroke-width="0.6" stroke-linecap="round" stroke-linejoin="round"/>
  <path fill-rule="evenodd" clip-rule="evenodd" d="M256 223.8C280.9 223.8 305 226.1 324.3 229.8C344.1 233.8 358 238.8 362.8 244.3V247.1C357 240.1 338.3 235.1 323.8 232.1C304.8 228.5 280.8 226.1 255.9 226.1C229.8 226.1 205.4 228.7 186.6 232.3C171.6 235.3 151.5 241.3 149 247.1V244.2C150.3 240.2 165.3 234.2 186.3 229.9C205.2 226.2 229.6 223.8 255.9 223.8H256ZM256 214.7C278.9 214.654 301.758 216.662 324.3 220.7C344.1 224.7 358 229.7 362.8 235.3V238C357 231.1 338.3 226 323.8 223.1C304.8 219.4 280.8 217.1 255.9 217.1C232.691 217.027 209.526 219.102 186.7 223.3C172.2 226 151.3 232.2 149 238V235.2C150.4 231.2 165.6 224.9 186.3 220.9C205.3 217.2 229.6 214.7 256 214.7ZM255.4 168.5C294.7 168.3 329 174 344.7 182L350.4 192C336.8 184.6 299.8 177 255.5 178C219.4 178.3 180.8 182 161.5 192.4L168.3 181C184.2 172.7 221.6 168.5 255.4 168.5Z" fill="#FFFF00" stroke="black" stroke-width="0.6" stroke-linecap="round" stroke-linejoin="round"/>
  <path fill-rule="evenodd" clip-rule="evenodd" d="M256 176.7C276.519 176.354 297.03 177.793 317.3 181C333.3 184 348.6 188.4 350.8 190.8L352.5 193.8C347.2 190.4 333.9 186.5 316.9 183.3C299.9 180.1 278.2 179 255.9 179.1C230.6 179 210.9 180.3 194.1 183.3C182.519 184.923 171.275 188.401 160.8 193.6L162.5 190.5C168.5 187.5 177.8 183.8 193.6 180.9C211.1 177.7 231 176.8 256 176.7ZM256 167.7C277.4 167.5 298.6 168.7 315.1 171.7C325.79 173.287 336.135 176.668 345.7 181.7L348.2 185.7C344 181 328.2 176.5 314.1 174.1C297.7 171.2 277.4 170.1 256 169.9C236.079 169.722 216.178 171.194 196.5 174.3C186.211 175.734 176.217 178.806 166.9 183.4L169.1 180.1C174.9 177.1 184.3 174.3 196.1 172C215.907 168.853 235.945 167.382 256 167.6V167.7ZM308.4 284C291.067 280.999 273.487 279.66 255.9 280C190.4 280.8 169.3 293.5 166.7 297.3L161.7 289.3C178.5 277.3 214.1 270.5 256.3 271.1C278.2 271.5 297.1 273 312.9 276.1L308.4 284.1" fill="#FFFF00"/>
  <path d="M308.4 284C291.067 280.999 273.487 279.66 255.9 280C190.4 280.8 169.3 293.5 166.7 297.3L161.7 289.3C178.5 277.3 214.1 270.5 256.3 271.1C278.2 271.5 297.1 273 312.9 276.1L308.4 284.1M256 176.7C276.519 176.354 297.03 177.793 317.3 181C333.3 184 348.6 188.4 350.8 190.8L352.5 193.8C347.2 190.4 333.9 186.5 316.9 183.3C299.9 180.1 278.2 179 255.9 179.1C230.6 179 210.9 180.3 194.1 183.3C182.519 184.923 171.275 188.401 160.8 193.6L162.5 190.5C168.5 187.5 177.8 183.8 193.6 180.9C211.1 177.7 231 176.8 256 176.7ZM256 167.7C277.4 167.5 298.6 168.7 315.1 171.7C325.79 173.287 336.135 176.668 345.7 181.7L348.2 185.7C344 181 328.2 176.5 314.1 174.1C297.7 171.2 277.4 170.1 256 169.9C236.079 169.722 216.178 171.194 196.5 174.3C186.211 175.734 176.217 178.806 166.9 183.4L169.1 180.1C174.9 177.1 184.3 174.3 196.1 172C215.907 168.853 235.945 167.382 256 167.6V167.7Z" stroke="black" stroke-width="0.6" stroke-linecap="round" stroke-linejoin="round"/>
  <path fill-rule="evenodd" clip-rule="evenodd" d="M255.6 278.9C273.8 279.2 291.6 279.9 308.9 283.1L307.7 285.3C291.7 282.3 274.5 281.3 255.7 281.3C231.4 281.1 207 283.4 185.7 289.5C179 291.4 167.9 295.7 166.7 299.3L165.5 297.3C165.9 295.1 172.5 290.7 185.1 287.3C209.5 280.3 232.3 279 255.6 278.9ZM256.4 269.7C275.61 269.68 294.784 271.354 313.7 274.7L312.4 277C293.929 273.612 275.18 271.971 256.4 272.1C232.2 272.1 206.5 273.9 183.1 280.7C175.6 282.9 162.5 287.7 162.1 291.4L160.9 289.2C161.1 285.8 172.4 281.3 182.6 278.4C206.1 271.5 231.9 269.8 256.4 269.7Z" fill="#FFFF00" stroke="black" stroke-width="0.6" stroke-linecap="round" stroke-linejoin="round"/>
  <path fill-rule="evenodd" clip-rule="evenodd" d="M349.4 290.5L341.6 302.8L318.9 282.7L260.3 243.2L194.1 206.9L159.8 195.2L167.1 181.6L169.6 180.3L190.9 185.6L261.3 221.9L301.9 247.5L336 272L349.9 288L349.4 290.5Z" fill="#FFFF00" stroke="black" stroke-width="0.6" stroke-linecap="round" stroke-linejoin="round"/>
  <path fill-rule="evenodd" clip-rule="evenodd" d="M158.6 195.5C164.6 191.5 208.8 211.1 255.2 239.1C301.3 267.1 345.5 298.7 341.5 304.6L340.2 306.7L339.6 307.2C339.7 307.1 340.4 306.2 339.6 304.1C337.6 297.6 306.2 272.6 254.3 241.2C203.6 211.1 161.4 192.9 157.3 198.1L158.6 195.5ZM351 290.4C354.8 282.8 313.8 251.9 262.9 221.8C210.9 192.3 173.3 174.9 166.4 180.1L165 183C165 183.1 165 182.8 165.4 182.5C166.6 181.5 168.7 181.5 169.6 181.5C181.4 181.7 215.1 197.2 262.4 224.3C283.2 236.3 350 279.3 349.7 291.3C349.7 292.3 349.8 292.5 349.4 293.1L351.1 290.5L351 290.4Z" fill="#FFFF00" stroke="black" stroke-width="0.6" stroke-linecap="round" stroke-linejoin="round"/>
  <path d="M192.641 251.767C192.656 260.047 194.314 268.242 197.519 275.877C200.723 283.512 205.409 290.436 211.307 296.247C217.133 302.163 224.072 306.868 231.725 310.09C239.377 313.312 247.591 314.988 255.894 315.021C272.698 315.02 288.813 308.343 300.694 296.461C306.571 290.617 311.236 283.67 314.422 276.019C317.607 268.367 319.249 260.162 319.254 251.874V167.394L192.641 167.18V251.767Z" fill="white" stroke="black" stroke-width="0.746669"/>
  <path d="M194.987 251.874C195.01 259.817 196.605 267.676 199.681 275C202.756 282.323 207.252 288.964 212.907 294.541C224.264 305.957 239.685 312.402 255.787 312.461C271.862 312.47 287.283 306.102 298.668 294.754C304.304 289.169 308.78 282.523 311.837 275.2C314.894 267.878 316.472 260.023 316.481 252.087V169.954H195.201V251.874M292.268 194.594V246.754L292.161 252.194C292.197 256.959 291.271 261.683 289.438 266.082C287.605 270.481 284.903 274.464 281.494 277.794C274.711 284.601 265.504 288.437 255.894 288.461C245.867 288.461 237.014 284.194 230.401 277.581C223.594 270.798 219.758 261.59 219.734 251.981V194.381L292.268 194.594Z" fill="#FF0000"/>
  <path d="M194.987 251.874C195.01 259.817 196.605 267.676 199.681 275C202.756 282.323 207.252 288.964 212.907 294.541C224.264 305.957 239.685 312.402 255.787 312.461C271.862 312.47 287.283 306.102 298.668 294.754C304.304 289.169 308.78 282.523 311.837 275.2C314.894 267.878 316.472 260.023 316.481 252.087V169.954H195.201V251.874M292.268 194.594V246.754L292.161 252.194C292.197 256.959 291.271 261.683 289.438 266.082C287.605 270.481 284.903 274.464 281.494 277.794C274.711 284.601 265.504 288.437 255.894 288.461C245.867 288.461 237.014 284.194 230.401 277.581C223.594 270.798 219.758 261.59 219.734 251.981V194.381L292.268 194.594Z" stroke="black" stroke-width="0.533335"/>
  <path d="M202.88 191.394C202.987 185.527 207.147 184.14 207.147 184.14C207.253 184.14 211.733 185.634 211.733 191.5H202.88" fill="#FFFF00"/>
  <path d="M199.254 184.247L198.507 190.967H202.987C202.987 185.42 207.254 184.567 207.254 184.567C207.36 184.567 211.52 185.74 211.627 190.967H216.107L215.254 184.14H199.254V184.247ZM198.187 191.074H216.32C216.64 191.074 216.96 191.394 216.96 191.82C216.96 192.354 216.64 192.674 216.32 192.674H198.187C197.867 192.674 197.547 192.354 197.547 191.82C197.547 191.394 197.867 191.074 198.294 191.074H198.187Z" fill="#FFFF00" stroke="black" stroke-width="0.533335"/>
  <path d="M204.8 190.967C204.8 187.447 207.254 186.487 207.254 186.487C207.254 186.487 209.707 187.554 209.707 190.967H204.8ZM198.614 181.367H216C216.32 181.367 216.64 181.794 216.64 182.22C216.64 182.54 216.32 182.86 216 182.86H198.614C198.294 182.86 197.974 182.54 197.974 182.114C197.974 181.794 198.294 181.474 198.614 181.474V181.367ZM199.04 182.967H215.467C215.787 182.967 216.107 183.287 216.107 183.714C216.107 184.14 215.787 184.46 215.467 184.46H198.934C198.507 184.46 198.294 184.14 198.294 183.714C198.294 183.287 198.507 182.967 198.934 182.967H199.04ZM204.374 171.66H205.654V172.514H206.614V171.66H208V172.62H208.96V171.554H210.24V173.687C210.24 174.114 210.027 174.327 209.707 174.327H205.014C204.694 174.327 204.374 174.114 204.374 173.794V171.66ZM209.28 174.54L209.6 181.367H205.014L205.334 174.434H209.28" fill="#FFFF00"/>
  <path d="M209.28 174.54L209.6 181.367H205.014L205.334 174.434H209.28M204.8 190.967C204.8 187.447 207.254 186.487 207.254 186.487C207.254 186.487 209.707 187.554 209.707 190.967H204.8ZM198.614 181.367H216C216.32 181.367 216.64 181.794 216.64 182.22C216.64 182.54 216.32 182.86 216 182.86H198.614C198.294 182.86 197.974 182.54 197.974 182.114C197.974 181.794 198.294 181.474 198.614 181.474V181.367ZM199.04 182.967H215.467C215.787 182.967 216.107 183.287 216.107 183.714C216.107 184.14 215.787 184.46 215.467 184.46H198.934C198.507 184.46 198.294 184.14 198.294 183.714C198.294 183.287 198.507 182.967 198.934 182.967H199.04ZM204.374 171.66H205.654V172.514H206.614V171.66H208V172.62H208.96V171.554H210.24V173.687C210.24 174.114 210.027 174.327 209.707 174.327H205.014C204.694 174.327 204.374 174.114 204.374 173.794V171.66Z" stroke="black" stroke-width="0.533335"/>
  <path d="M203.733 177.74V181.367H199.467V177.74H203.733Z" fill="#FFFF00" stroke="black" stroke-width="0.533335"/>
  <path d="M215.04 177.74V181.367H210.773V177.74H215.04Z" fill="#FFFF00" stroke="black" stroke-width="0.533335"/>
  <path d="M198.721 174.967H200.001V176.034H200.961V174.967H202.241V176.034H203.201V174.967H204.481V177.1C204.481 177.527 204.267 177.74 203.947 177.74H199.361C199.191 177.74 199.028 177.673 198.908 177.553C198.788 177.433 198.721 177.27 198.721 177.1V174.967Z" fill="#FFFF00" stroke="black" stroke-width="0.533335"/>
  <path d="M210.027 174.967H211.307V176.034H212.267V174.967H213.547V176.034H214.507V174.967H215.787V177.1C215.787 177.527 215.574 177.74 215.254 177.74H210.667C210.498 177.74 210.335 177.673 210.215 177.553C210.095 177.433 210.027 177.27 210.027 177.1V174.967Z" fill="#FFFF00" stroke="black" stroke-width="0.533335"/>
  <path d="M206.827 176.674C206.827 176.034 207.787 176.034 207.787 176.674V178.381H206.827V176.674Z" fill="black"/>
  <path d="M201.174 179.021C201.174 178.381 202.027 178.381 202.027 179.021V180.301H201.174V179.021Z" fill="black"/>
  <path d="M212.48 179.021C212.48 178.381 213.334 178.381 213.334 179.021V180.301H212.48V179.021Z" fill="black"/>
  <path d="M202.88 240.78C202.987 234.914 207.147 233.527 207.147 233.527C207.253 233.527 211.733 235.02 211.733 240.887H202.88" fill="#FFFF00"/>
  <path d="M199.254 233.634L198.507 240.354H202.987C202.987 234.807 207.254 233.954 207.254 233.954C207.36 233.954 211.52 235.127 211.627 240.354H216.107L215.254 233.527H199.254V233.634ZM198.187 240.46H216.32C216.64 240.46 216.96 240.78 216.96 241.207C216.96 241.74 216.64 242.06 216.32 242.06H198.187C197.867 242.06 197.547 241.74 197.547 241.207C197.547 240.78 197.867 240.46 198.294 240.46H198.187Z" fill="#FFFF00" stroke="black" stroke-width="0.533335"/>
  <path d="M204.8 240.354C204.8 236.834 207.254 235.874 207.254 235.874C207.254 235.874 209.707 236.94 209.707 240.354H204.8ZM198.614 230.754H216C216.32 230.754 216.64 231.18 216.64 231.607C216.64 231.927 216.32 232.247 216 232.247H198.614C198.294 232.247 197.974 231.927 197.974 231.5C197.974 231.18 198.294 230.86 198.614 230.86V230.754ZM199.04 232.354H215.467C215.787 232.354 216.107 232.674 216.107 233.1C216.107 233.527 215.787 233.847 215.467 233.847H198.934C198.507 233.847 198.294 233.527 198.294 233.1C198.294 232.674 198.507 232.354 198.934 232.354H199.04ZM204.374 221.047H205.654V221.9H206.614V221.047H208V222.007H208.96V220.94H210.24V223.074C210.24 223.5 210.027 223.714 209.707 223.714H205.014C204.694 223.714 204.374 223.5 204.374 223.18V221.047ZM209.28 223.927L209.6 230.754H205.014L205.334 223.82H209.28" fill="#FFFF00"/>
  <path d="M209.28 223.927L209.6 230.754H205.014L205.334 223.82H209.28M204.8 240.354C204.8 236.834 207.254 235.874 207.254 235.874C207.254 235.874 209.707 236.94 209.707 240.354H204.8ZM198.614 230.754H216C216.32 230.754 216.64 231.18 216.64 231.607C216.64 231.927 216.32 232.247 216 232.247H198.614C198.294 232.247 197.974 231.927 197.974 231.5C197.974 231.18 198.294 230.86 198.614 230.86V230.754ZM199.04 232.354H215.467C215.787 232.354 216.107 232.674 216.107 233.1C216.107 233.527 215.787 233.847 215.467 233.847H198.934C198.507 233.847 198.294 233.527 198.294 233.1C198.294 232.674 198.507 232.354 198.934 232.354H199.04ZM204.374 221.047H205.654V221.9H206.614V221.047H208V222.007H208.96V220.94H210.24V223.074C210.24 223.5 210.027 223.714 209.707 223.714H205.014C204.694 223.714 204.374 223.5 204.374 223.18V221.047Z" stroke="black" stroke-width="0.533335"/>
  <path d="M203.733 227.127V230.754H199.467V227.127H203.733Z" fill="#FFFF00" stroke="black" stroke-width="0.533335"/>
  <path d="M215.04 227.127V230.754H210.773V227.127H215.04Z" fill="#FFFF00" stroke="black" stroke-width="0.533335"/>
  <path d="M198.721 224.354H200.001V225.42H200.961V224.354H202.241V225.42H203.201V224.354H204.481V226.487C204.481 226.914 204.267 227.127 203.947 227.127H199.361C199.191 227.127 199.028 227.06 198.908 226.94C198.788 226.82 198.721 226.657 198.721 226.487V224.354Z" fill="#FFFF00" stroke="black" stroke-width="0.533335"/>
  <path d="M210.027 224.354H211.307V225.42H212.267V224.354H213.547V225.42H214.507V224.354H215.787V226.487C215.787 226.914 215.574 227.127 215.254 227.127H210.667C210.498 227.127 210.335 227.06 210.215 226.94C210.095 226.82 210.027 226.657 210.027 226.487V224.354Z" fill="#FFFF00" stroke="black" stroke-width="0.533335"/>
  <path d="M206.827 226.061C206.827 225.421 207.787 225.421 207.787 226.061V227.767H206.827V226.061Z" fill="black"/>
  <path d="M201.174 228.407C201.174 227.767 202.027 227.767 202.027 228.407V229.687H201.174V228.407Z" fill="black"/>
  <path d="M212.48 228.407C212.48 227.767 213.334 227.767 213.334 228.407V229.687H212.48V228.407Z" fill="black"/>
  <path d="M222.13 292.253C218.042 288.043 219.99 284.114 219.99 284.114C220.065 284.038 224.281 281.912 228.444 286.046L222.206 292.328" fill="#FFFF00"/>
  <path d="M214.504 289.79L218.746 295.055L221.903 291.876C217.967 287.968 220.368 284.339 220.368 284.339C220.443 284.263 224.207 282.138 227.991 285.746L231.148 282.567L225.702 278.362L214.428 289.715L214.504 289.79ZM218.596 295.357L231.374 282.49C231.599 282.263 232.052 282.262 232.354 282.562C232.733 282.938 232.734 283.391 232.509 283.618L219.732 296.485C219.506 296.712 219.054 296.713 218.675 296.338C218.372 296.037 218.371 295.584 218.671 295.282L218.596 295.357Z" fill="#FFFF00" stroke="black" stroke-width="0.533335"/>
  <path d="M223.18 290.589C220.683 288.109 221.73 285.692 221.73 285.692C221.73 285.692 224.216 284.703 226.638 287.108L223.18 290.589ZM212.009 288.215L224.26 275.878C224.486 275.651 225.014 275.724 225.317 276.025C225.544 276.25 225.545 276.703 225.32 276.93L213.069 289.267C212.843 289.494 212.391 289.496 212.088 289.195C211.861 288.97 211.859 288.517 212.085 288.29L212.009 288.215ZM213.445 289.04L225.02 277.384C225.245 277.157 225.698 277.155 226.001 277.456C226.303 277.756 226.305 278.209 226.079 278.436L214.429 290.167C214.129 290.47 213.751 290.396 213.449 290.095C213.146 289.795 213.069 289.418 213.37 289.115L213.445 289.04ZM209.18 277.288L210.082 276.38L210.688 276.981L211.364 276.3L210.758 275.699L211.736 274.715L212.417 275.391L213.093 274.71L212.336 273.958L213.238 273.05L214.752 274.553C215.055 274.854 215.056 275.156 214.83 275.383L211.523 278.713C211.298 278.94 210.921 279.017 210.694 278.791L209.18 277.288ZM214.681 275.836L219.751 280.419L216.519 283.674L211.824 278.561L214.605 275.761" fill="#FFFF00"/>
  <path d="M214.681 275.836L219.751 280.419L216.519 283.674L211.824 278.561L214.605 275.761M223.18 290.589C220.683 288.109 221.73 285.692 221.73 285.692C221.73 285.692 224.216 284.703 226.638 287.108L223.18 290.589ZM212.009 288.215L224.26 275.878C224.486 275.651 225.014 275.724 225.317 276.025C225.544 276.25 225.545 276.703 225.32 276.93L213.069 289.267C212.843 289.494 212.391 289.496 212.088 289.195C211.861 288.97 211.859 288.517 212.085 288.29L212.009 288.215ZM213.445 289.04L225.02 277.384C225.245 277.157 225.698 277.155 226.001 277.456C226.303 277.756 226.305 278.209 226.079 278.436L214.429 290.167C214.129 290.47 213.751 290.396 213.449 290.095C213.146 289.795 213.069 289.418 213.37 289.115L213.445 289.04ZM209.18 277.288L210.082 276.38L210.688 276.981L211.364 276.3L210.758 275.699L211.736 274.715L212.417 275.391L213.093 274.71L212.336 273.958L213.238 273.05L214.752 274.553C215.055 274.854 215.056 275.156 214.83 275.383L211.523 278.713C211.298 278.94 210.921 279.017 210.694 278.791L209.18 277.288Z" stroke="black" stroke-width="0.533335"/>
  <path d="M213.044 282.026L215.617 284.582L212.61 287.609L210.037 285.054L213.044 282.026Z" fill="#FFFF00" stroke="black" stroke-width="0.533335"/>
  <path d="M221.01 274.003L223.584 276.559L220.577 279.586L218.004 277.031L221.01 274.003Z" fill="#FFFF00" stroke="black" stroke-width="0.533335"/>
  <path d="M207.543 283.629L208.445 282.721L209.202 283.473L209.878 282.792L209.121 282.04L210.023 281.132L210.78 281.883L211.457 281.202L210.7 280.451L211.602 279.542L213.115 281.045C213.418 281.346 213.419 281.648 213.194 281.875L209.962 285.129C209.842 285.25 209.68 285.318 209.51 285.318C209.34 285.319 209.177 285.252 209.057 285.133L207.543 283.629Z" fill="#FFFF00" stroke="black" stroke-width="0.533335"/>
  <path d="M215.51 275.607L216.412 274.698L217.169 275.45L217.845 274.769L217.088 274.017L217.99 273.109L218.747 273.861L219.423 273.179L218.667 272.428L219.568 271.52L221.082 273.023C221.385 273.323 221.386 273.625 221.161 273.852L217.929 277.107C217.809 277.227 217.646 277.295 217.477 277.296C217.307 277.296 217.144 277.23 217.024 277.11L215.51 275.607Z" fill="#FFFF00" stroke="black" stroke-width="0.533335"/>
  <path d="M214.466 279.08C214.011 278.629 214.688 277.948 215.142 278.398L216.353 279.601L215.677 280.282L214.466 279.08Z" fill="black"/>
  <path d="M212.147 284.745C211.693 284.294 212.294 283.688 212.749 284.139L213.657 285.041L213.055 285.647L212.147 284.745Z" fill="black"/>
  <path d="M220.115 276.722C219.661 276.271 220.262 275.665 220.716 276.116L221.625 277.018L221.023 277.624L220.115 276.722Z" fill="black"/>
  <path d="M251.627 191.394C251.734 185.527 255.894 184.14 255.894 184.14C256 184.14 260.48 185.634 260.48 191.5H251.627" fill="#FFFF00"/>
  <path d="M248.001 184.247L247.254 190.967H251.734C251.734 185.42 256.001 184.567 256.001 184.567C256.107 184.567 260.267 185.74 260.374 190.967H264.854L264.001 184.14H248.001V184.247ZM246.934 191.074H265.067C265.387 191.074 265.707 191.394 265.707 191.82C265.707 192.354 265.387 192.674 265.067 192.674H246.934C246.614 192.674 246.294 192.354 246.294 191.82C246.294 191.394 246.614 191.074 247.041 191.074H246.934Z" fill="#FFFF00" stroke="black" stroke-width="0.533335"/>
  <path d="M253.547 190.967C253.547 187.447 256.001 186.487 256.001 186.487C256.001 186.487 258.454 187.554 258.454 190.967H253.547ZM247.361 181.367H264.747C265.067 181.367 265.387 181.794 265.387 182.22C265.387 182.54 265.067 182.86 264.747 182.86H247.361C247.041 182.86 246.721 182.54 246.721 182.114C246.721 181.794 247.041 181.474 247.361 181.474V181.367ZM247.787 182.967H264.214C264.534 182.967 264.854 183.287 264.854 183.714C264.854 184.14 264.534 184.46 264.214 184.46H247.681C247.254 184.46 247.041 184.14 247.041 183.714C247.041 183.287 247.254 182.967 247.681 182.967H247.787ZM253.121 171.66H254.401V172.514H255.361V171.66H256.747V172.62H257.707V171.554H258.987V173.687C258.987 174.114 258.774 174.327 258.454 174.327H253.761C253.441 174.327 253.121 174.114 253.121 173.794V171.66ZM258.027 174.54L258.347 181.367H253.761L254.081 174.434H258.027" fill="#FFFF00"/>
  <path d="M258.027 174.54L258.347 181.367H253.761L254.081 174.434H258.027M253.547 190.967C253.547 187.447 256.001 186.487 256.001 186.487C256.001 186.487 258.454 187.554 258.454 190.967H253.547ZM247.361 181.367H264.747C265.067 181.367 265.387 181.794 265.387 182.22C265.387 182.54 265.067 182.86 264.747 182.86H247.361C247.041 182.86 246.721 182.54 246.721 182.114C246.721 181.794 247.041 181.474 247.361 181.474V181.367ZM247.787 182.967H264.214C264.534 182.967 264.854 183.287 264.854 183.714C264.854 184.14 264.534 184.46 264.214 184.46H247.681C247.254 184.46 247.041 184.14 247.041 183.714C247.041 183.287 247.254 182.967 247.681 182.967H247.787ZM253.121 171.66H254.401V172.514H255.361V171.66H256.747V172.62H257.707V171.554H258.987V173.687C258.987 174.114 258.774 174.327 258.454 174.327H253.761C253.441 174.327 253.121 174.114 253.121 173.794V171.66Z" stroke="black" stroke-width="0.533335"/>
  <path d="M252.481 177.74V181.367H248.214V177.74H252.481Z" fill="#FFFF00" stroke="black" stroke-width="0.533335"/>
  <path d="M263.787 177.74V181.367H259.521V177.74H263.787Z" fill="#FFFF00" stroke="black" stroke-width="0.533335"/>
  <path d="M247.468 174.967H248.748V176.034H249.708V174.967H250.988V176.034H251.948V174.967H253.228V177.1C253.228 177.527 253.014 177.74 252.694 177.74H248.108C247.938 177.74 247.775 177.673 247.655 177.553C247.535 177.433 247.468 177.27 247.468 177.1V174.967Z" fill="#FFFF00" stroke="black" stroke-width="0.533335"/>
  <path d="M258.774 174.967H260.054V176.034H261.014V174.967H262.294V176.034H263.254V174.967H264.534V177.1C264.534 177.527 264.321 177.74 264.001 177.74H259.414C259.245 177.74 259.082 177.673 258.962 177.553C258.842 177.433 258.774 177.27 258.774 177.1V174.967Z" fill="#FFFF00" stroke="black" stroke-width="0.533335"/>
  <path d="M255.574 176.674C255.574 176.034 256.534 176.034 256.534 176.674V178.381H255.574V176.674Z" fill="black"/>
  <path d="M249.921 179.021C249.921 178.381 250.774 178.381 250.774 179.021V180.301H249.921V179.021Z" fill="black"/>
  <path d="M261.228 179.021C261.228 178.381 262.081 178.381 262.081 179.021V180.301H261.228V179.021Z" fill="black"/>
  <path d="M308.908 191.394C308.802 185.527 304.642 184.14 304.642 184.14C304.535 184.14 300.055 185.634 300.055 191.5H308.908" fill="#FFFF00"/>
  <path d="M312.535 184.247L313.281 190.967H308.801C308.801 185.42 304.535 184.567 304.535 184.567C304.428 184.567 300.268 185.74 300.161 190.967H295.681L296.534 184.14H312.535V184.247ZM313.601 191.074H295.468C295.148 191.074 294.828 191.394 294.828 191.82C294.828 192.354 295.148 192.674 295.468 192.674H313.601C313.921 192.674 314.241 192.354 314.241 191.82C314.241 191.394 313.921 191.074 313.495 191.074H313.601Z" fill="#FFFF00" stroke="black" stroke-width="0.533335"/>
  <path d="M306.988 190.967C306.988 187.447 304.534 186.487 304.534 186.487C304.534 186.487 302.081 187.554 302.081 190.967H306.988ZM313.174 181.367H295.788C295.468 181.367 295.148 181.794 295.148 182.22C295.148 182.54 295.468 182.86 295.788 182.86H313.174C313.494 182.86 313.814 182.54 313.814 182.114C313.814 181.794 313.494 181.474 313.174 181.474V181.367ZM312.748 182.967H296.321C296.001 182.967 295.681 183.287 295.681 183.714C295.681 184.14 296.001 184.46 296.321 184.46H312.854C313.281 184.46 313.494 184.14 313.494 183.714C313.494 183.287 313.281 182.967 312.854 182.967H312.748ZM307.414 171.66H306.134V172.514H305.174V171.66H303.788V172.62H302.828V171.554H301.548V173.687C301.548 174.114 301.761 174.327 302.081 174.327H306.774C307.094 174.327 307.414 174.114 307.414 173.794V171.66ZM302.508 174.54L302.188 181.367H306.774L306.454 174.434H302.508" fill="#FFFF00"/>
  <path d="M302.508 174.54L302.188 181.367H306.774L306.454 174.434H302.508M306.988 190.967C306.988 187.447 304.534 186.487 304.534 186.487C304.534 186.487 302.081 187.554 302.081 190.967H306.988ZM313.174 181.367H295.788C295.468 181.367 295.148 181.794 295.148 182.22C295.148 182.54 295.468 182.86 295.788 182.86H313.174C313.494 182.86 313.814 182.54 313.814 182.114C313.814 181.794 313.494 181.474 313.174 181.474V181.367ZM312.748 182.967H296.321C296.001 182.967 295.681 183.287 295.681 183.714C295.681 184.14 296.001 184.46 296.321 184.46H312.854C313.281 184.46 313.494 184.14 313.494 183.714C313.494 183.287 313.281 182.967 312.854 182.967H312.748ZM307.414 171.66H306.134V172.514H305.174V171.66H303.788V172.62H302.828V171.554H301.548V173.687C301.548 174.114 301.761 174.327 302.081 174.327H306.774C307.094 174.327 307.414 174.114 307.414 173.794V171.66Z" stroke="black" stroke-width="0.533335"/>
  <path d="M308.055 177.74V181.367H312.321V177.74H308.055Z" fill="#FFFF00" stroke="black" stroke-width="0.533335"/>
  <path d="M296.748 177.74V181.367H301.015V177.74H296.748Z" fill="#FFFF00" stroke="black" stroke-width="0.533335"/>
  <path d="M313.068 174.967H311.788V176.034H310.828V174.967H309.548V176.034H308.588V174.967H307.308V177.1C307.308 177.527 307.522 177.74 307.842 177.74H312.428C312.598 177.74 312.761 177.673 312.881 177.553C313.001 177.433 313.068 177.27 313.068 177.1V174.967Z" fill="#FFFF00" stroke="black" stroke-width="0.533335"/>
  <path d="M301.761 174.967H300.481V176.034H299.521V174.967H298.241V176.034H297.281V174.967H296.001V177.1C296.001 177.527 296.214 177.74 296.534 177.74H301.121C301.29 177.74 301.453 177.673 301.573 177.553C301.693 177.433 301.761 177.27 301.761 177.1V174.967Z" fill="#FFFF00" stroke="black" stroke-width="0.533335"/>
  <path d="M304.961 176.674C304.961 176.034 304.001 176.034 304.001 176.674V178.381H304.961V176.674Z" fill="black"/>
  <path d="M310.614 179.021C310.614 178.381 309.761 178.381 309.761 179.021V180.301H310.614V179.021Z" fill="black"/>
  <path d="M299.308 179.021C299.308 178.381 298.454 178.381 298.454 179.021V180.301H299.308V179.021Z" fill="black"/>
  <path d="M308.908 240.78C308.802 234.914 304.642 233.527 304.642 233.527C304.535 233.527 300.055 235.02 300.055 240.887H308.908" fill="#FFFF00"/>
  <path d="M312.535 233.634L313.281 240.354H308.801C308.801 234.807 304.535 233.954 304.535 233.954C304.428 233.954 300.268 235.127 300.161 240.354H295.681L296.534 233.527H312.535V233.634ZM313.601 240.46H295.468C295.148 240.46 294.828 240.78 294.828 241.207C294.828 241.74 295.148 242.06 295.468 242.06H313.601C313.921 242.06 314.241 241.74 314.241 241.207C314.241 240.78 313.921 240.46 313.495 240.46H313.601Z" fill="#FFFF00" stroke="black" stroke-width="0.533335"/>
  <path d="M306.988 240.354C306.988 236.834 304.534 235.874 304.534 235.874C304.534 235.874 302.081 236.94 302.081 240.354H306.988ZM313.174 230.754H295.788C295.468 230.754 295.148 231.18 295.148 231.607C295.148 231.927 295.468 232.247 295.788 232.247H313.174C313.494 232.247 313.814 231.927 313.814 231.5C313.814 231.18 313.494 230.86 313.174 230.86V230.754ZM312.748 232.354H296.321C296.001 232.354 295.681 232.674 295.681 233.1C295.681 233.527 296.001 233.847 296.321 233.847H312.854C313.281 233.847 313.494 233.527 313.494 233.1C313.494 232.674 313.281 232.354 312.854 232.354H312.748ZM307.414 221.047H306.134V221.9H305.174V221.047H303.788V222.007H302.828V220.94H301.548V223.074C301.548 223.5 301.761 223.714 302.081 223.714H306.774C307.094 223.714 307.414 223.5 307.414 223.18V221.047ZM302.508 223.927L302.188 230.754H306.774L306.454 223.82H302.508" fill="#FFFF00"/>
  <path d="M302.508 223.927L302.188 230.754H306.774L306.454 223.82H302.508M306.988 240.354C306.988 236.834 304.534 235.874 304.534 235.874C304.534 235.874 302.081 236.94 302.081 240.354H306.988ZM313.174 230.754H295.788C295.468 230.754 295.148 231.18 295.148 231.607C295.148 231.927 295.468 232.247 295.788 232.247H313.174C313.494 232.247 313.814 231.927 313.814 231.5C313.814 231.18 313.494 230.86 313.174 230.86V230.754ZM312.748 232.354H296.321C296.001 232.354 295.681 232.674 295.681 233.1C295.681 233.527 296.001 233.847 296.321 233.847H312.854C313.281 233.847 313.494 233.527 313.494 233.1C313.494 232.674 313.281 232.354 312.854 232.354H312.748ZM307.414 221.047H306.134V221.9H305.174V221.047H303.788V222.007H302.828V220.94H301.548V223.074C301.548 223.5 301.761 223.714 302.081 223.714H306.774C307.094 223.714 307.414 223.5 307.414 223.18V221.047Z" stroke="black" stroke-width="0.533335"/>
  <path d="M308.055 227.127V230.754H312.321V227.127H308.055Z" fill="#FFFF00" stroke="black" stroke-width="0.533335"/>
  <path d="M296.748 227.127V230.754H301.015V227.127H296.748Z" fill="#FFFF00" stroke="black" stroke-width="0.533335"/>
  <path d="M313.068 224.354H311.788V225.42H310.828V224.354H309.548V225.42H308.588V224.354H307.308V226.487C307.308 226.914 307.522 227.127 307.842 227.127H312.428C312.598 227.127 312.761 227.06 312.881 226.94C313.001 226.82 313.068 226.657 313.068 226.487V224.354Z" fill="#FFFF00" stroke="black" stroke-width="0.533335"/>
  <path d="M301.761 224.354H300.481V225.42H299.521V224.354H298.241V225.42H297.281V224.354H296.001V226.487C296.001 226.914 296.214 227.127 296.534 227.127H301.121C301.29 227.127 301.453 227.06 301.573 226.94C301.693 226.82 301.761 226.657 301.761 226.487V224.354Z" fill="#FFFF00" stroke="black" stroke-width="0.533335"/>
  <path d="M304.961 226.061C304.961 225.421 304.001 225.421 304.001 226.061V227.767H304.961V226.061Z" fill="black"/>
  <path d="M310.614 228.407C310.614 227.767 309.761 227.767 309.761 228.407V229.687H310.614V228.407Z" fill="black"/>
  <path d="M299.308 228.407C299.308 227.767 298.454 227.767 298.454 228.407V229.687H299.308V228.407Z" fill="black"/>
  <path d="M289.658 292.253C293.746 288.043 291.798 284.114 291.798 284.114C291.723 284.038 287.507 281.912 283.344 286.046L289.582 292.328" fill="#FFFF00"/>
  <path d="M297.284 289.79L293.042 295.055L289.885 291.876C293.821 287.968 291.42 284.339 291.42 284.339C291.345 284.263 287.581 282.138 283.797 285.746L280.64 282.567L286.086 278.362L297.36 289.715L297.284 289.79ZM293.192 295.357L280.414 282.49C280.189 282.263 279.736 282.262 279.434 282.562C279.055 282.938 279.054 283.391 279.279 283.618L292.057 296.485C292.282 296.712 292.735 296.713 293.113 296.338C293.416 296.037 293.417 295.584 293.117 295.282L293.192 295.357Z" fill="#FFFF00" stroke="black" stroke-width="0.533335"/>
  <path d="M288.608 290.589C291.106 288.109 290.058 285.692 290.058 285.692C290.058 285.692 287.572 284.703 285.15 287.108L288.608 290.589ZM299.779 288.215L287.528 275.878C287.302 275.651 286.774 275.724 286.471 276.025C286.244 276.25 286.243 276.703 286.468 276.93L298.72 289.267C298.945 289.494 299.398 289.496 299.7 289.195C299.927 288.97 299.929 288.517 299.703 288.29L299.779 288.215ZM298.343 289.04L286.768 277.384C286.543 277.157 286.09 277.155 285.788 277.456C285.485 277.756 285.483 278.209 285.709 278.436L297.359 290.167C297.659 290.47 298.037 290.396 298.339 290.095C298.642 289.795 298.719 289.418 298.418 289.115L298.343 289.04ZM302.608 277.288L301.706 276.38L301.101 276.981L300.424 276.3L301.03 275.699L300.053 274.715L299.371 275.391L298.695 274.71L299.452 273.958L298.55 273.05L297.036 274.553C296.733 274.854 296.732 275.156 296.958 275.383L300.265 278.713C300.49 278.94 300.867 279.017 301.094 278.791L302.608 277.288ZM297.107 275.836L292.038 280.419L295.269 283.674L299.964 278.561L297.183 275.761" fill="#FFFF00"/>
  <path d="M297.107 275.836L292.038 280.419L295.269 283.674L299.964 278.561L297.183 275.761M288.608 290.589C291.106 288.109 290.058 285.692 290.058 285.692C290.058 285.692 287.572 284.703 285.15 287.108L288.608 290.589ZM299.779 288.215L287.528 275.878C287.302 275.651 286.774 275.724 286.471 276.025C286.244 276.25 286.243 276.703 286.468 276.93L298.72 289.267C298.945 289.494 299.398 289.496 299.7 289.195C299.927 288.97 299.929 288.517 299.703 288.29L299.779 288.215ZM298.343 289.04L286.768 277.384C286.543 277.157 286.09 277.155 285.788 277.456C285.485 277.756 285.483 278.209 285.709 278.436L297.359 290.167C297.659 290.47 298.037 290.396 298.339 290.095C298.642 289.795 298.719 289.418 298.418 289.115L298.343 289.04ZM302.608 277.288L301.706 276.38L301.101 276.981L300.424 276.3L301.03 275.699L300.053 274.715L299.371 275.391L298.695 274.71L299.452 273.958L298.55 273.05L297.036 274.553C296.733 274.854 296.732 275.156 296.958 275.383L300.265 278.713C300.49 278.94 300.867 279.017 301.094 278.791L302.608 277.288Z" stroke="black" stroke-width="0.533335"/>
  <path d="M298.745 282.026L296.171 284.582L299.178 287.609L301.751 285.054L298.745 282.026Z" fill="#FFFF00" stroke="black" stroke-width="0.533335"/>
  <path d="M290.778 274.003L288.204 276.559L291.211 279.586L293.784 277.031L290.778 274.003Z" fill="#FFFF00" stroke="black" stroke-width="0.533335"/>
  <path d="M304.245 283.629L303.343 282.721L302.586 283.473L301.91 282.792L302.667 282.04L301.765 281.132L301.008 281.883L300.331 281.202L301.088 280.451L300.186 279.542L298.673 281.045C298.37 281.346 298.369 281.648 298.594 281.875L301.826 285.129C301.946 285.25 302.108 285.318 302.278 285.318C302.448 285.319 302.611 285.252 302.731 285.133L304.245 283.629Z" fill="#FFFF00" stroke="black" stroke-width="0.533335"/>
  <path d="M296.278 275.606L295.376 274.698L294.62 275.45L293.943 274.769L294.7 274.017L293.798 273.109L293.041 273.86L292.365 273.179L293.122 272.428L292.22 271.519L290.706 273.023C290.403 273.323 290.402 273.625 290.628 273.852L293.859 277.107C293.979 277.227 294.142 277.295 294.311 277.296C294.481 277.296 294.644 277.229 294.765 277.11L296.278 275.606Z" fill="#FFFF00" stroke="black" stroke-width="0.533335"/>
  <path d="M297.322 279.08C297.777 278.629 297.1 277.948 296.646 278.398L295.435 279.601L296.111 280.282L297.322 279.08Z" fill="black"/>
  <path d="M299.641 284.745C300.095 284.294 299.494 283.688 299.04 284.139L298.131 285.041L298.733 285.647L299.641 284.745Z" fill="black"/>
  <path d="M291.673 276.722C292.127 276.271 291.526 275.665 291.072 276.116L290.164 277.018L290.765 277.624L291.673 276.722Z" fill="black"/>
  <path d="M248.108 242.594C248.088 244.845 248.928 247.019 250.454 248.674C251.167 249.471 252.038 250.11 253.011 250.55C253.984 250.991 255.039 251.224 256.108 251.234C258.348 251.234 260.374 250.167 261.761 248.674C263.288 247.019 264.127 244.845 264.108 242.594V231.074H248.108V242.594Z" fill="#003399"/>
  <path d="M251.841 237.047C252.725 237.047 253.441 236.331 253.441 235.447C253.441 234.564 252.725 233.847 251.841 233.847C250.958 233.847 250.241 234.564 250.241 235.447C250.241 236.331 250.958 237.047 251.841 237.047Z" fill="white"/>
  <path d="M260.695 237.047C261.578 237.047 262.295 236.331 262.295 235.447C262.295 234.564 261.578 233.847 260.695 233.847C259.811 233.847 259.095 234.564 259.095 235.447C259.095 236.331 259.811 237.047 260.695 237.047Z" fill="white"/>
  <path d="M256.214 241.314C257.098 241.314 257.814 240.598 257.814 239.714C257.814 238.83 257.098 238.114 256.214 238.114C255.331 238.114 254.614 238.83 254.614 239.714C254.614 240.598 255.331 241.314 256.214 241.314Z" fill="white"/>
  <path d="M251.841 245.794C252.725 245.794 253.441 245.078 253.441 244.194C253.441 243.31 252.725 242.594 251.841 242.594C250.958 242.594 250.241 243.31 250.241 244.194C250.241 245.078 250.958 245.794 251.841 245.794Z" fill="white"/>
  <path d="M260.695 245.794C261.578 245.794 262.295 245.078 262.295 244.194C262.295 243.31 261.578 242.594 260.695 242.594C259.811 242.594 259.095 243.31 259.095 244.194C259.095 245.078 259.811 245.794 260.695 245.794Z" fill="white"/>
  <path d="M248.108 214.861C248.088 217.112 248.928 219.286 250.454 220.941C251.167 221.737 252.038 222.376 253.011 222.817C253.984 223.258 255.039 223.491 256.108 223.501C258.348 223.501 260.374 222.434 261.761 220.941C263.288 219.286 264.127 217.112 264.108 214.861V203.341H248.108V214.861Z" fill="#003399"/>
  <path d="M251.841 209.314C252.725 209.314 253.441 208.598 253.441 207.714C253.441 206.83 252.725 206.114 251.841 206.114C250.958 206.114 250.241 206.83 250.241 207.714C250.241 208.598 250.958 209.314 251.841 209.314Z" fill="white"/>
  <path d="M260.695 209.314C261.578 209.314 262.295 208.598 262.295 207.714C262.295 206.83 261.578 206.114 260.695 206.114C259.811 206.114 259.095 206.83 259.095 207.714C259.095 208.598 259.811 209.314 260.695 209.314Z" fill="white"/>
  <path d="M256.214 213.581C257.098 213.581 257.814 212.864 257.814 211.981C257.814 211.097 257.098 210.381 256.214 210.381C255.331 210.381 254.614 211.097 254.614 211.981C254.614 212.864 255.331 213.581 256.214 213.581Z" fill="white"/>
  <path d="M251.841 218.061C252.725 218.061 253.441 217.344 253.441 216.461C253.441 215.577 252.725 214.861 251.841 214.861C250.958 214.861 250.241 215.577 250.241 216.461C250.241 217.344 250.958 218.061 251.841 218.061Z" fill="white"/>
  <path d="M260.695 218.061C261.578 218.061 262.295 217.344 262.295 216.461C262.295 215.577 261.578 214.861 260.695 214.861C259.811 214.861 259.095 215.577 259.095 216.461C259.095 217.344 259.811 218.061 260.695 218.061Z" fill="white"/>
  <path d="M225.92 242.594C225.901 244.845 226.74 247.019 228.267 248.674C228.979 249.471 229.85 250.11 230.824 250.55C231.797 250.991 232.852 251.224 233.92 251.234C236.16 251.234 238.187 250.167 239.574 248.674C241.1 247.019 241.94 244.845 241.92 242.594V231.074H225.92V242.594Z" fill="#003399"/>
  <path d="M229.654 237.047C230.537 237.047 231.254 236.331 231.254 235.447C231.254 234.564 230.537 233.847 229.654 233.847C228.77 233.847 228.054 234.564 228.054 235.447C228.054 236.331 228.77 237.047 229.654 237.047Z" fill="white"/>
  <path d="M238.507 237.047C239.391 237.047 240.107 236.331 240.107 235.447C240.107 234.564 239.391 233.847 238.507 233.847C237.624 233.847 236.907 234.564 236.907 235.447C236.907 236.331 237.624 237.047 238.507 237.047Z" fill="white"/>
  <path d="M234.027 241.314C234.91 241.314 235.627 240.598 235.627 239.714C235.627 238.83 234.91 238.114 234.027 238.114C233.143 238.114 232.427 238.83 232.427 239.714C232.427 240.598 233.143 241.314 234.027 241.314Z" fill="white"/>
  <path d="M229.654 245.794C230.537 245.794 231.254 245.078 231.254 244.194C231.254 243.31 230.537 242.594 229.654 242.594C228.77 242.594 228.054 243.31 228.054 244.194C228.054 245.078 228.77 245.794 229.654 245.794Z" fill="white"/>
  <path d="M238.507 245.794C239.391 245.794 240.107 245.078 240.107 244.194C240.107 243.31 239.391 242.594 238.507 242.594C237.624 242.594 236.907 243.31 236.907 244.194C236.907 245.078 237.624 245.794 238.507 245.794Z" fill="white"/>
  <path d="M270.294 242.594C270.275 244.845 271.114 247.019 272.641 248.674C273.353 249.471 274.224 250.11 275.198 250.55C276.171 250.991 277.226 251.224 278.294 251.234C280.534 251.234 282.561 250.167 283.948 248.674C285.474 247.019 286.314 244.845 286.294 242.594V231.074H270.294V242.594Z" fill="#003399"/>
  <path d="M274.028 237.047C274.911 237.047 275.628 236.331 275.628 235.447C275.628 234.564 274.911 233.847 274.028 233.847C273.144 233.847 272.428 234.564 272.428 235.447C272.428 236.331 273.144 237.047 274.028 237.047Z" fill="white"/>
  <path d="M282.881 237.047C283.765 237.047 284.481 236.331 284.481 235.447C284.481 234.564 283.765 233.847 282.881 233.847C281.998 233.847 281.281 234.564 281.281 235.447C281.281 236.331 281.998 237.047 282.881 237.047Z" fill="white"/>
  <path d="M278.401 241.314C279.284 241.314 280.001 240.598 280.001 239.714C280.001 238.83 279.284 238.114 278.401 238.114C277.517 238.114 276.801 238.83 276.801 239.714C276.801 240.598 277.517 241.314 278.401 241.314Z" fill="white"/>
  <path d="M274.028 245.794C274.911 245.794 275.628 245.078 275.628 244.194C275.628 243.31 274.911 242.594 274.028 242.594C273.144 242.594 272.428 243.31 272.428 244.194C272.428 245.078 273.144 245.794 274.028 245.794Z" fill="white"/>
  <path d="M282.881 245.794C283.765 245.794 284.481 245.078 284.481 244.194C284.481 243.31 283.765 242.594 282.881 242.594C281.998 242.594 281.281 243.31 281.281 244.194C281.281 245.078 281.998 245.794 282.881 245.794Z" fill="white"/>
  <path d="M248.108 270.114C248.088 272.365 248.928 274.539 250.454 276.194C251.167 276.991 252.038 277.63 253.011 278.071C253.984 278.511 255.039 278.744 256.108 278.754C258.348 278.754 260.374 277.687 261.761 276.194C263.288 274.539 264.127 272.365 264.108 270.114V258.594H248.108V270.114Z" fill="#003399"/>
  <path d="M251.841 264.567C252.725 264.567 253.441 263.851 253.441 262.967C253.441 262.084 252.725 261.367 251.841 261.367C250.958 261.367 250.241 262.084 250.241 262.967C250.241 263.851 250.958 264.567 251.841 264.567Z" fill="white"/>
  <path d="M260.695 264.567C261.578 264.567 262.295 263.851 262.295 262.967C262.295 262.084 261.578 261.367 260.695 261.367C259.811 261.367 259.095 262.084 259.095 262.967C259.095 263.851 259.811 264.567 260.695 264.567Z" fill="white"/>
  <path d="M256.214 268.834C257.098 268.834 257.814 268.118 257.814 267.234C257.814 266.35 257.098 265.634 256.214 265.634C255.331 265.634 254.614 266.35 254.614 267.234C254.614 268.118 255.331 268.834 256.214 268.834Z" fill="white"/>
  <path d="M251.841 273.314C252.725 273.314 253.441 272.598 253.441 271.714C253.441 270.83 252.725 270.114 251.841 270.114C250.958 270.114 250.241 270.83 250.241 271.714C250.241 272.598 250.958 273.314 251.841 273.314Z" fill="white"/>
  <path d="M260.695 273.314C261.578 273.314 262.295 272.598 262.295 271.714C262.295 270.83 261.578 270.114 260.695 270.114C259.811 270.114 259.095 270.83 259.095 271.714C259.095 272.598 259.811 273.314 260.695 273.314Z" fill="white"/>
  </g>
  <defs>
  <clipPath id="clip0_10_15080">
  <rect width="640" height="480" fill="white"/>
  </clipPath>
  </defs>
  </svg>
