<svg id="flag-icons-rw" viewBox="0 0 640 480" xmlns="http://www.w3.org/2000/svg">
  <g clip-path="url(#clip0_10_15601)">
  <path d="M0 0H640V480H0V0Z" fill="#20603D"/>
  <path d="M0 0H640V360H0V0Z" fill="#FAD201"/>
  <path d="M0 0H640V240H0V0Z" fill="#00A1DE"/>
  <path d="M588.4 125.4L534.8 128.533L585.733 145.467L533.2 134.6L578.067 164.067L530.066 139.933L565.667 180.134L525.6 144.467L549.733 192.467L520.2 147.6L531 200.067L514.133 149.2L511 202.8L510.333 124.733L588.4 125.4Z" fill="#E5BE01"/>
  <path d="M588.4 125.4L534.8 122.267L585.733 105.333L533.2 116.2L578.067 86.7332L530.066 110.867L565.667 70.6664L525.6 106.333L549.733 58.333L520.2 103.2L531 50.733L514.133 101.6L511 47.9996L510.333 126.067L588.4 125.4Z" fill="#E5BE01"/>
  <path d="M433.6 125.4L487.2 128.533L436.267 145.467L488.8 134.6L443.933 164.067L491.934 139.933L456.333 180.134L496.4 144.467L472.267 192.467L501.8 147.6L491 200.067L507.867 149.2L511 202.8L511.667 124.733L433.6 125.4Z" fill="#E5BE01"/>
  <path d="M433.6 125.4L487.2 122.267L436.267 105.333L488.8 116.2L443.933 86.7332L491.934 110.867L456.333 70.6664L496.4 106.333L472.267 58.333L501.8 103.2L491 50.733L507.867 101.6L511 47.9996L511.667 126.067L433.6 125.4Z" fill="#E5BE01"/>
  <path d="M511 148.267C523.629 148.267 533.866 138.029 533.866 125.4C533.866 112.771 523.629 102.533 511 102.533C498.371 102.533 488.133 112.771 488.133 125.4C488.133 138.029 498.371 148.267 511 148.267Z" fill="#E5BE01" stroke="#00A1DE" stroke-width="2.26668"/>
  </g>
  <defs>
  <clipPath id="clip0_10_15601">
  <rect width="640" height="480" fill="white"/>
  </clipPath>
  </defs>
  </svg>
