<svg id="flag-icons-tj" viewBox="0 0 640 480" xmlns="http://www.w3.org/2000/svg">
  <g clip-path="url(#clip0_10_17354)">
  <path d="M0 0H640V480H0V0Z" fill="#006600"/>
  <path d="M0 0H640V342.9H0V0Z" fill="white"/>
  <path d="M0 0H640V137.1H0V0Z" fill="#CC0000"/>
  <path d="M300.8 233.6C301.742 232.002 303.175 230.752 304.886 230.036C306.597 229.319 308.494 229.175 310.294 229.625C312.093 230.075 313.699 231.095 314.871 232.532C316.044 233.969 316.72 235.747 316.8 237.6V272H323.2V237.7C323.279 235.847 323.956 234.069 325.128 232.632C326.301 231.195 327.907 230.175 329.706 229.725C331.506 229.275 333.402 229.419 335.113 230.136C336.824 230.852 338.258 232.102 339.2 233.7C340.191 230.667 340.45 227.442 339.955 224.29C339.46 221.138 338.226 218.148 336.353 215.565C334.48 212.981 332.021 210.879 329.179 209.429C326.336 207.979 323.191 207.223 320 207.223C316.809 207.223 313.663 207.979 310.821 209.429C307.979 210.879 305.52 212.981 303.647 215.565C301.774 218.148 300.539 221.138 300.044 224.29C299.549 227.442 299.808 230.667 300.8 233.7" fill="#F8C300"/>
  <path d="M305.4 224.7C308.208 224.119 311.127 224.434 313.746 225.6C316.366 226.767 318.553 228.725 320 231.2C321.448 228.725 323.635 226.767 326.254 225.6C328.874 224.434 331.793 224.119 334.6 224.7C334.181 221.122 332.462 217.823 329.771 215.429C327.08 213.034 323.603 211.712 320 211.712C316.398 211.712 312.921 213.034 310.23 215.429C307.538 217.823 305.82 221.122 305.4 224.7Z" fill="white"/>
  <path d="M316.8 258.3C316.375 263.174 314.584 267.829 311.632 271.73C308.68 275.631 304.687 278.62 300.113 280.354C295.538 282.088 290.567 282.496 285.771 281.531C280.975 280.566 276.548 278.268 273 274.9C271.495 278.74 269.131 282.185 266.087 284.97C263.044 287.754 259.404 289.804 255.445 290.963C251.487 292.121 247.315 292.358 243.251 291.653C239.187 290.949 235.338 289.323 232 286.9C234.5 311.9 272 306.8 274.8 282.5C286.5 303.2 312.4 297.2 320 271.9L316.8 258.3Z" fill="#F8C300"/>
  <path d="M323.2 258.3C323.625 263.174 325.416 267.829 328.368 271.73C331.32 275.631 335.313 278.62 339.887 280.354C344.462 282.088 349.433 282.496 354.229 281.531C359.025 280.566 363.452 278.268 367 274.9C368.505 278.74 370.869 282.185 373.913 284.97C376.956 287.754 380.596 289.804 384.555 290.963C388.513 292.121 392.685 292.358 396.749 291.653C400.813 290.949 404.662 289.323 408 286.9C405.5 311.9 368 306.8 365.2 282.5C353.5 303.2 327.6 297.2 320 271.9L323.2 258.3Z" fill="#F8C300"/>
  <path d="M291.8 302.6C286.5 313.9 276.1 315.8 267 306.7C267 306.7 270.6 304.1 274.6 303.4C273.8 300.3 275.3 295.9 277.5 293.6C280.412 295.51 282.569 298.374 283.6 301.7C289.1 301 291.8 302.7 291.8 302.7V302.6Z" fill="#F8C300"/>
  <path d="M332.798 301.334C325.723 311.616 315.153 311.792 307.661 301.328C307.661 301.328 311.638 299.351 315.698 299.314C315.415 296.125 317.614 292.029 320.16 290.119C322.721 292.479 324.381 295.656 324.855 299.107C330.395 299.314 332.781 301.432 332.781 301.432L332.798 301.334Z" fill="#F8C300"/>
  <path d="M373.025 306.688C364.382 315.692 353.922 314.157 348.22 302.62C348.22 302.62 352.463 301.311 356.477 301.931C356.713 298.738 359.544 295.051 362.366 293.578C364.511 296.321 365.636 299.725 365.547 303.206C370.981 304.306 372.993 306.782 372.993 306.782L373.025 306.688Z" fill="#F8C300"/>
  <path d="M253.5 327.8C296.893 314.884 343.107 314.884 386.5 327.8" stroke="#F8C300" stroke-width="11"/>
  <path d="M330.351 178.848L303.25 159.158H336.749L309.648 178.848L320 146.988L330.351 178.848Z" fill="#F8C300"/>
  <path d="M282.352 191.74L255.251 172.05H288.75L261.649 191.74L272.001 159.88L282.352 191.74Z" fill="#F8C300"/>
  <path d="M247.244 226.848L220.143 207.158H253.642L226.54 226.848L236.892 194.989L247.244 226.848Z" fill="#F8C300"/>
  <path d="M234.352 274.848L207.251 255.158H240.75L213.649 274.848L224.001 242.988L234.352 274.848Z" fill="#F8C300"/>
  <path d="M357.648 191.74L384.749 172.05H351.25L378.351 191.74L367.999 159.88L357.648 191.74Z" fill="#F8C300"/>
  <path d="M392.756 226.848L419.857 207.158H386.358L413.46 226.848L403.108 194.989L392.756 226.848Z" fill="#F8C300"/>
  <path d="M405.648 274.848L432.749 255.158H399.25L426.351 274.848L415.999 242.988L405.648 274.848Z" fill="#F8C300"/>
  </g>
  <defs>
  <clipPath id="clip0_10_17354">
  <rect width="640" height="480" fill="white"/>
  </clipPath>
  </defs>
  </svg>
