<svg id="flag-icons-uy" viewBox="0 0 640 480" xmlns="http://www.w3.org/2000/svg">
  <g clip-path="url(#clip0_10_17688)">
  <path d="M0 0H640V480H0V0Z" fill="white"/>
  <path d="M266 53.3H640V106.7H266V53.3ZM266 160H640V213.3H266V160ZM0 266.7H640V320H0V266.7ZM0 373.3H640V426.7H0V373.3Z" fill="#0038A8"/>
  <path d="M127.262 159.374L136.089 172.555C99.8159 198.806 121.961 214.329 96.2557 222.731C112.244 207.128 93.7382 205.813 107.209 173.293" fill="#FCD116"/>
  <path d="M127.262 159.374L136.089 172.555C99.8159 198.806 121.961 214.329 96.2557 222.731C112.244 207.128 93.7382 205.813 107.209 173.293" stroke="black" stroke-width="1.76" stroke-miterlimit="20" stroke-linecap="square"/>
  <path d="M120.952 163.11C100.939 196.096 114.064 214.232 96.2559 222.731" stroke="black" stroke-width="1.76" stroke-miterlimit="20"/>
  <path d="M133.3 133.3H150.9L133.3 230.1L115.7 133.3H133.3V230.1Z" fill="#FCD116"/>
  <path d="M133.3 133.3H150.9L133.3 230.1M133.3 133.3H115.7L133.3 230.1M133.3 133.3V230.1" stroke="black" stroke-width="1.76" stroke-miterlimit="20"/>
  <path d="M110.593 147.468L107.515 163.031C63.3038 155.943 67.9866 182.579 43.8686 170.344C66.2065 170.616 54.0512 156.601 86.5717 143.13" fill="#FCD116"/>
  <path d="M110.593 147.468L107.515 163.031C63.3038 155.943 67.9866 182.579 43.8686 170.344C66.2065 170.616 54.0512 156.601 86.5717 143.13" stroke="black" stroke-width="1.76" stroke-miterlimit="20" stroke-linecap="square"/>
  <path d="M103.49 145.648C66.0142 154.821 62.4705 176.926 43.8688 170.344" stroke="black" stroke-width="1.76" stroke-miterlimit="20"/>
  <path d="M133.301 133.3L145.746 145.745L64.8527 201.748L120.855 120.855L133.301 133.3L64.8527 201.748Z" fill="#FCD116"/>
  <path d="M133.301 133.3L145.746 145.745L64.8527 201.748M133.301 133.3L120.855 120.855L64.8527 201.748M133.301 133.3L64.8527 201.748" stroke="black" stroke-width="1.76" stroke-miterlimit="20"/>
  <path d="M107.226 127.262L94.0444 136.09C67.7941 99.8166 52.2712 121.962 43.8687 96.2564C59.4714 112.244 60.7865 93.7389 93.307 107.209" fill="#FCD116"/>
  <path d="M107.226 127.262L94.0444 136.09C67.7941 99.8166 52.2712 121.962 43.8687 96.2564C59.4714 112.244 60.7865 93.7389 93.307 107.209" stroke="black" stroke-width="1.76" stroke-miterlimit="20" stroke-linecap="square"/>
  <path d="M103.49 120.952C70.5042 100.939 52.3675 114.064 43.8687 96.2564" stroke="black" stroke-width="1.76" stroke-miterlimit="20"/>
  <path d="M133.3 133.3V150.9L36.4999 133.3L133.3 115.7V133.3H36.4999Z" fill="#FCD116"/>
  <path d="M133.3 133.3V150.9L36.4999 133.3M133.3 133.3V115.7L36.4999 133.3M133.3 133.3H36.4999" stroke="black" stroke-width="1.76" stroke-miterlimit="20"/>
  <path d="M119.132 110.593L103.569 107.515C110.657 63.3038 84.0211 67.9866 96.2561 43.8686C95.9838 66.2065 109.999 54.0512 123.469 86.5717" fill="#FCD116"/>
  <path d="M119.132 110.593L103.569 107.515C110.657 63.3038 84.0211 67.9866 96.2561 43.8686C95.9838 66.2065 109.999 54.0512 123.469 86.5717" stroke="black" stroke-width="1.76" stroke-miterlimit="20" stroke-linecap="square"/>
  <path d="M120.952 103.489C111.779 66.0137 89.6733 62.47 96.2558 43.8684" stroke="black" stroke-width="1.76" stroke-miterlimit="20"/>
  <path d="M133.299 133.3L120.854 145.745L64.8512 64.8519L145.744 120.855L133.299 133.3L64.8512 64.8519Z" fill="#FCD116"/>
  <path d="M133.299 133.3L120.854 145.745L64.8512 64.8519M133.299 133.3L145.744 120.855L64.8512 64.8519M133.299 133.3L64.8512 64.8519" stroke="black" stroke-width="1.76" stroke-miterlimit="20"/>
  <path d="M139.338 107.226L130.51 94.0446C166.784 67.7944 144.638 52.2714 170.344 43.8689C154.356 59.4716 172.861 60.7868 159.391 93.3073" fill="#FCD116"/>
  <path d="M139.338 107.226L130.51 94.0446C166.784 67.7944 144.638 52.2714 170.344 43.8689C154.356 59.4716 172.861 60.7868 159.391 93.3073" stroke="black" stroke-width="1.76" stroke-miterlimit="20" stroke-linecap="square"/>
  <path d="M145.648 103.49C165.661 70.5044 152.536 52.3678 170.344 43.869" stroke="black" stroke-width="1.76" stroke-miterlimit="20"/>
  <path d="M133.299 133.3H115.699L133.299 36.5004L150.899 133.3H133.299V36.5004Z" fill="#FCD116"/>
  <path d="M133.299 133.3H115.699L133.299 36.5004M133.299 133.3H150.899L133.299 36.5004M133.299 133.3V36.5004" stroke="black" stroke-width="1.76" stroke-miterlimit="20"/>
  <path d="M156.006 119.132L159.085 103.569C203.296 110.657 198.613 84.0213 222.731 96.2564C200.393 95.984 212.548 109.999 180.028 123.47" fill="#FCD116"/>
  <path d="M156.006 119.132L159.085 103.569C203.296 110.657 198.613 84.0213 222.731 96.2564C200.393 95.984 212.548 109.999 180.028 123.47" stroke="black" stroke-width="1.76" stroke-miterlimit="20" stroke-linecap="square"/>
  <path d="M163.11 120.952C200.585 111.779 204.129 89.674 222.731 96.2565" stroke="black" stroke-width="1.76" stroke-miterlimit="20"/>
  <path d="M133.299 133.3L120.854 120.855L201.747 64.8524L145.744 145.745L133.299 133.3L201.747 64.8524Z" fill="#FCD116"/>
  <path d="M133.299 133.3L120.854 120.855L201.747 64.8524M133.299 133.3L145.744 145.745L201.747 64.8524M133.299 133.3L201.747 64.8524" stroke="black" stroke-width="1.76" stroke-miterlimit="20"/>
  <path d="M159.374 139.338L172.555 130.51C198.805 166.784 214.328 144.638 222.731 170.344C207.128 154.356 205.813 172.861 173.293 159.391" fill="#FCD116"/>
  <path d="M159.374 139.338L172.555 130.51C198.805 166.784 214.328 144.638 222.731 170.344C207.128 154.356 205.813 172.861 173.293 159.391" stroke="black" stroke-width="1.76" stroke-miterlimit="20" stroke-linecap="square"/>
  <path d="M163.11 145.648C196.095 165.661 214.232 152.536 222.731 170.344" stroke="black" stroke-width="1.76" stroke-miterlimit="20"/>
  <path d="M133.3 133.3V115.7L230.1 133.3L133.3 150.9V133.3H230.1Z" fill="#FCD116"/>
  <path d="M133.3 133.3V115.7L230.1 133.3M133.3 133.3V150.9L230.1 133.3M133.3 133.3H230.1" stroke="black" stroke-width="1.76" stroke-miterlimit="20"/>
  <path d="M147.468 156.007L163.03 159.085C155.943 203.296 182.579 198.614 170.343 222.732C170.616 200.394 156.601 212.549 143.13 180.028" fill="#FCD116"/>
  <path d="M147.468 156.007L163.03 159.085C155.943 203.296 182.579 198.614 170.343 222.732C170.616 200.394 156.601 212.549 143.13 180.028" stroke="black" stroke-width="1.76" stroke-miterlimit="20" stroke-linecap="square"/>
  <path d="M145.648 163.111C154.821 200.586 176.926 204.13 170.344 222.732" stroke="black" stroke-width="1.76" stroke-miterlimit="20"/>
  <path d="M133.301 133.3L145.746 120.855L201.748 201.748L120.855 145.745L133.301 133.3L201.748 201.748Z" fill="#FCD116"/>
  <path d="M133.301 133.3L145.746 120.855L201.748 201.748M133.301 133.3L120.855 145.745L201.748 201.748M133.301 133.3L201.748 201.748" stroke="black" stroke-width="1.76" stroke-miterlimit="20"/>
  <path d="M133.3 165.567C151.12 165.567 165.566 151.12 165.566 133.3C165.566 115.48 151.12 101.033 133.3 101.033C115.479 101.033 101.033 115.48 101.033 133.3C101.033 151.12 115.479 165.567 133.3 165.567Z" fill="#FCD116" stroke="black" stroke-width="1.76" stroke-miterlimit="20"/>
  <path d="M157.059 120.393C155.006 122.74 153.833 118.633 146.499 118.633C139.166 118.633 137.993 123.033 136.82 122.153C135.646 121.273 142.98 115.993 145.326 115.7C147.673 115.407 154.419 117.753 157.059 120.393ZM148.553 123.033C150.606 124.793 148.846 128.607 146.793 128.607C144.739 128.607 140.926 125.087 142.686 122.74" fill="black"/>
  <path d="M138.873 125.673C139.166 122.153 142.1 121.567 146.793 121.567C151.486 121.567 153.54 125.087 155.3 125.967C153.246 125.967 151.486 123.033 146.793 123.033C142.1 123.033 142.1 123.033 138.873 125.967M139.753 126.553C140.926 124.793 142.393 128.313 145.62 128.313C148.846 128.313 150.606 127.433 152.66 125.967C154.713 124.5 149.726 129.487 146.5 129.487C143.273 129.487 138.873 127.727 139.753 126.553Z" fill="black"/>
  <path d="M149.726 128.313C153.539 126.26 151.193 123.327 149.726 122.74C150.313 123.327 152.659 126.26 149.726 128.313ZM133.3 145.913C135.06 145.913 135.646 145.326 137.993 145.326C140.34 145.326 145.913 148.553 149.139 147.38C142.393 150.02 145.033 148.26 133.3 148.26H131.833M150.313 150.02C149.139 147.966 149.433 148.553 147.086 145.326C149.433 147.086 150.019 147.966 150.313 150.02ZM133.3 152.953C140.633 152.953 139.46 151.486 149.139 147.38C142.1 148.26 140.633 150.606 133.3 150.606H131.833M133.3 142.1C135.353 142.1 135.94 140.633 138.286 140.633C140.633 140.633 143.86 141.513 145.326 142.686C145.62 142.98 144.446 140.34 142.1 140.046C139.753 139.753 140.633 135.94 137.993 135.353C137.993 136.526 138.873 136.233 139.166 137.993C139.166 139.46 136.526 139.46 135.94 137.993C136.526 140.34 134.766 140.34 133.3 140.34" fill="black"/>
  <path d="M109.54 120.393C111.594 122.74 112.767 118.633 120.1 118.633C127.433 118.633 128.607 123.033 129.78 122.153C130.953 121.273 123.62 115.993 121.273 115.7C118.927 115.407 112.18 117.753 109.54 120.393ZM118.047 123.033C115.994 124.793 117.754 128.607 119.807 128.607C121.86 128.607 125.673 125.087 123.913 122.74" fill="black"/>
  <path d="M127.727 125.673C127.433 122.153 124.5 121.567 119.807 121.567C115.113 121.567 113.06 125.087 111.3 125.967C113.353 125.967 115.113 123.033 119.807 123.033C124.5 123.033 124.5 123.033 127.727 125.967M126.847 126.553C125.673 124.793 124.207 128.313 120.98 128.313C117.753 128.313 115.993 127.433 113.94 125.967C111.887 124.5 116.873 129.487 120.1 129.487C123.327 129.487 127.727 127.727 126.847 126.553Z" fill="black"/>
  <path d="M116.873 128.313C113.06 126.26 115.407 123.327 116.873 122.74C116.287 123.327 113.94 126.26 116.873 128.313ZM133.3 145.913C131.54 145.913 130.953 145.326 128.607 145.326C126.26 145.326 120.687 148.553 117.46 147.38C124.207 150.02 121.567 148.26 133.3 148.26H134.767M116.287 150.02C117.46 147.966 117.167 148.553 119.513 145.326C117.167 147.086 116.58 147.966 116.287 150.02ZM133.3 152.953C125.967 152.953 127.14 151.486 117.46 147.38C124.5 148.26 125.967 150.606 133.3 150.606H134.767M133.3 142.1C131.247 142.1 130.66 140.633 128.313 140.633C125.967 140.633 122.74 141.513 121.273 142.686C120.98 142.98 122.153 140.34 124.5 140.046C126.847 139.753 125.967 135.94 128.607 135.353C128.607 136.526 127.727 136.233 127.433 137.993C127.433 139.46 130.073 139.46 130.66 137.993C130.073 140.34 131.833 140.34 133.3 140.34" fill="black"/>
  <path d="M133.3 155.593C131.833 155.593 128.02 156.473 133.3 156.473C138.579 156.473 134.766 155.593 133.3 155.593Z" fill="black"/>
  </g>
  <defs>
  <clipPath id="clip0_10_17688">
  <rect width="640" height="480" fill="white"/>
  </clipPath>
  </defs>
  </svg>
