<svg id="flag-icons-uz" viewBox="0 0 640 480" xmlns="http://www.w3.org/2000/svg">
  <g clip-path="url(#clip0_10_18014)">
  <path d="M0 320H640V480H0V320Z" fill="#1EB53A"/>
  <path d="M0 0H640V160H0V0Z" fill="#0099B5"/>
  <path d="M0 153.6H640V326.4H0V153.6Z" fill="#CE1126"/>
  <path d="M0 163.2H640V316.8H0V163.2Z" fill="white"/>
  <path d="M134.4 134.4C166.211 134.4 192 108.612 192 76.8C192 44.9884 166.211 19.2 134.4 19.2C102.588 19.2 76.7998 44.9884 76.7998 76.8C76.7998 108.612 102.588 134.4 134.4 134.4Z" fill="white"/>
  <path d="M153.6 134.4C185.412 134.4 211.2 108.612 211.2 76.8C211.2 44.9884 185.412 19.2 153.6 19.2C121.788 19.2 96 44.9884 96 76.8C96 108.612 121.788 134.4 153.6 134.4Z" fill="#0099B5"/>
  <path d="M261.1 111.38L257.452 122.324L263.02 124.244" fill="white"/>
  <path d="M261.1 111.38L264.748 122.324L259.18 124.244" fill="white"/>
  <path d="M272.056 119.34L260.52 119.252L260.415 125.141" fill="white"/>
  <path d="M272.056 119.34L262.775 126.191L259.229 121.489" fill="white"/>
  <path d="M250.144 119.34L259.425 126.191L262.972 121.489" fill="white"/>
  <path d="M250.144 119.34L261.68 119.252L261.785 125.141" fill="white"/>
  <path d="M267.871 132.22L264.39 121.222L258.756 122.941" fill="white"/>
  <path d="M267.871 132.22L258.487 125.51L261.863 120.684" fill="white"/>
  <path d="M254.328 132.22L263.712 125.51L260.336 120.684" fill="white"/>
  <path d="M254.328 132.22L257.81 121.222L263.443 122.941" fill="white"/>
  <path d="M261.1 65.3L257.452 76.244L263.02 78.164" fill="white"/>
  <path d="M261.1 65.3L264.748 76.244L259.18 78.164" fill="white"/>
  <path d="M272.056 73.2602L260.52 73.1727L260.415 79.0614" fill="white"/>
  <path d="M272.056 73.2603L262.775 80.1116L259.229 75.4094" fill="white"/>
  <path d="M250.144 73.2603L259.425 80.1116L262.972 75.4094" fill="white"/>
  <path d="M250.144 73.2602L261.68 73.1727L261.785 79.0614" fill="white"/>
  <path d="M267.871 86.1398L264.39 75.1417L258.756 76.8612" fill="white"/>
  <path d="M267.871 86.1399L258.487 79.4303L261.863 74.6042" fill="white"/>
  <path d="M254.328 86.1399L263.712 79.4303L260.336 74.6042" fill="white"/>
  <path d="M254.328 86.1398L257.81 75.1417L263.443 76.8612" fill="white"/>
  <path d="M261.1 19.22L257.452 30.164L263.02 32.084" fill="white"/>
  <path d="M261.1 19.22L264.748 30.164L259.18 32.084" fill="white"/>
  <path d="M272.056 27.1801L260.52 27.0926L260.415 32.9814" fill="white"/>
  <path d="M272.056 27.1802L262.775 34.0315L259.229 29.3294" fill="white"/>
  <path d="M250.144 27.1802L259.425 34.0315L262.972 29.3294" fill="white"/>
  <path d="M250.144 27.1801L261.68 27.0926L261.785 32.9814" fill="white"/>
  <path d="M267.871 40.0598L264.39 29.0616L258.756 30.7811" fill="white"/>
  <path d="M267.871 40.0599L258.487 33.3502L261.863 28.5241" fill="white"/>
  <path d="M254.328 40.0599L263.712 33.3502L260.336 28.5241" fill="white"/>
  <path d="M254.328 40.0598L257.81 29.0616L263.443 30.7811" fill="white"/>
  <path d="M307.18 111.38L303.532 122.324L309.1 124.244" fill="white"/>
  <path d="M307.18 111.38L310.828 122.324L305.26 124.244" fill="white"/>
  <path d="M318.136 119.34L306.6 119.252L306.495 125.141" fill="white"/>
  <path d="M318.136 119.34L308.855 126.191L305.309 121.489" fill="white"/>
  <path d="M296.224 119.34L305.505 126.191L309.052 121.489" fill="white"/>
  <path d="M296.224 119.34L307.76 119.252L307.865 125.141" fill="white"/>
  <path d="M313.951 132.22L310.47 121.222L304.836 122.941" fill="white"/>
  <path d="M313.951 132.22L304.567 125.51L307.943 120.684" fill="white"/>
  <path d="M300.408 132.22L309.792 125.51L306.416 120.684" fill="white"/>
  <path d="M300.408 132.22L303.89 121.222L309.523 122.941" fill="white"/>
  <path d="M307.18 65.3L303.532 76.244L309.1 78.164" fill="white"/>
  <path d="M307.18 65.3L310.828 76.244L305.26 78.164" fill="white"/>
  <path d="M318.136 73.2602L306.6 73.1727L306.495 79.0614" fill="white"/>
  <path d="M318.136 73.2603L308.855 80.1116L305.309 75.4094" fill="white"/>
  <path d="M296.224 73.2603L305.505 80.1116L309.052 75.4094" fill="white"/>
  <path d="M296.224 73.2602L307.76 73.1727L307.865 79.0614" fill="white"/>
  <path d="M313.951 86.1398L310.47 75.1417L304.836 76.8612" fill="white"/>
  <path d="M313.951 86.1399L304.567 79.4303L307.943 74.6042" fill="white"/>
  <path d="M300.408 86.1399L309.792 79.4303L306.416 74.6042" fill="white"/>
  <path d="M300.408 86.1398L303.89 75.1417L309.523 76.8612" fill="white"/>
  <path d="M307.18 19.22L303.532 30.164L309.1 32.084" fill="white"/>
  <path d="M307.18 19.22L310.828 30.164L305.26 32.084" fill="white"/>
  <path d="M318.136 27.1801L306.6 27.0926L306.495 32.9814" fill="white"/>
  <path d="M318.136 27.1802L308.855 34.0315L305.309 29.3294" fill="white"/>
  <path d="M296.224 27.1802L305.505 34.0315L309.052 29.3294" fill="white"/>
  <path d="M296.224 27.1801L307.76 27.0926L307.865 32.9814" fill="white"/>
  <path d="M313.951 40.0598L310.47 29.0616L304.836 30.7811" fill="white"/>
  <path d="M313.951 40.0599L304.567 33.3502L307.943 28.5241" fill="white"/>
  <path d="M300.408 40.0599L309.792 33.3502L306.416 28.5241" fill="white"/>
  <path d="M300.408 40.0598L303.89 29.0616L309.523 30.7811" fill="white"/>
  <path d="M353.26 111.38L349.612 122.324L355.18 124.244" fill="white"/>
  <path d="M353.26 111.38L356.908 122.324L351.34 124.244" fill="white"/>
  <path d="M364.216 119.34L352.681 119.252L352.575 125.141" fill="white"/>
  <path d="M364.216 119.34L354.935 126.191L351.389 121.489" fill="white"/>
  <path d="M342.304 119.34L351.585 126.191L355.132 121.489" fill="white"/>
  <path d="M342.304 119.34L353.84 119.252L353.945 125.141" fill="white"/>
  <path d="M360.031 132.22L356.55 121.222L350.917 122.941" fill="white"/>
  <path d="M360.031 132.22L350.647 125.51L354.023 120.684" fill="white"/>
  <path d="M346.488 132.22L355.872 125.51L352.496 120.684" fill="white"/>
  <path d="M346.488 132.22L349.97 121.222L355.603 122.941" fill="white"/>
  <path d="M353.26 65.3L349.612 76.244L355.18 78.164" fill="white"/>
  <path d="M353.26 65.3L356.908 76.244L351.34 78.164" fill="white"/>
  <path d="M364.216 73.2602L352.681 73.1727L352.575 79.0614" fill="white"/>
  <path d="M364.216 73.2603L354.935 80.1116L351.389 75.4094" fill="white"/>
  <path d="M342.304 73.2603L351.585 80.1116L355.132 75.4094" fill="white"/>
  <path d="M342.304 73.2602L353.84 73.1727L353.945 79.0614" fill="white"/>
  <path d="M360.031 86.1398L356.55 75.1417L350.917 76.8612" fill="white"/>
  <path d="M360.031 86.1399L350.647 79.4303L354.023 74.6042" fill="white"/>
  <path d="M346.488 86.1399L355.872 79.4303L352.496 74.6042" fill="white"/>
  <path d="M346.488 86.1398L349.97 75.1417L355.603 76.8612" fill="white"/>
  <path d="M353.26 19.22L349.612 30.164L355.18 32.084" fill="white"/>
  <path d="M353.26 19.22L356.908 30.164L351.34 32.084" fill="white"/>
  <path d="M364.216 27.1801L352.681 27.0926L352.575 32.9814" fill="white"/>
  <path d="M364.216 27.1802L354.935 34.0315L351.389 29.3294" fill="white"/>
  <path d="M342.304 27.1802L351.585 34.0315L355.132 29.3294" fill="white"/>
  <path d="M342.304 27.1801L353.84 27.0926L353.945 32.9814" fill="white"/>
  <path d="M360.031 40.0598L356.55 29.0616L350.917 30.7811" fill="white"/>
  <path d="M360.031 40.0599L350.647 33.3502L354.023 28.5241" fill="white"/>
  <path d="M346.488 40.0599L355.872 33.3502L352.496 28.5241" fill="white"/>
  <path d="M346.488 40.0598L349.97 29.0616L355.603 30.7811" fill="white"/>
  <path d="M168.94 111.38L165.292 122.324L170.86 124.244" fill="white"/>
  <path d="M168.94 111.38L172.588 122.324L167.02 124.244" fill="white"/>
  <path d="M179.896 119.34L168.36 119.252L168.255 125.141" fill="white"/>
  <path d="M179.896 119.34L170.615 126.191L167.068 121.489" fill="white"/>
  <path d="M157.984 119.34L167.265 126.191L170.811 121.489" fill="white"/>
  <path d="M157.984 119.34L169.52 119.252L169.625 125.141" fill="white"/>
  <path d="M175.711 132.22L172.229 121.222L166.596 122.941" fill="white"/>
  <path d="M175.711 132.22L166.327 125.51L169.703 120.684" fill="white"/>
  <path d="M162.168 132.22L171.552 125.51L168.176 120.684" fill="white"/>
  <path d="M162.168 132.22L165.65 121.222L171.283 122.941" fill="white"/>
  <path d="M215.02 111.38L211.372 122.324L216.94 124.244" fill="white"/>
  <path d="M215.02 111.38L218.668 122.324L213.1 124.244" fill="white"/>
  <path d="M225.976 119.34L214.44 119.252L214.335 125.141" fill="white"/>
  <path d="M225.976 119.34L216.695 126.191L213.149 121.489" fill="white"/>
  <path d="M204.064 119.34L213.345 126.191L216.892 121.489" fill="white"/>
  <path d="M204.064 119.34L215.6 119.252L215.705 125.141" fill="white"/>
  <path d="M221.791 132.22L218.309 121.222L212.676 122.941" fill="white"/>
  <path d="M221.791 132.22L212.407 125.51L215.783 120.684" fill="white"/>
  <path d="M208.248 132.22L217.632 125.51L214.256 120.684" fill="white"/>
  <path d="M208.248 132.22L211.73 121.222L217.363 122.941" fill="white"/>
  <path d="M215.02 65.3L211.372 76.244L216.94 78.164" fill="white"/>
  <path d="M215.02 65.3L218.668 76.244L213.1 78.164" fill="white"/>
  <path d="M225.976 73.2602L214.44 73.1727L214.335 79.0614" fill="white"/>
  <path d="M225.976 73.2603L216.695 80.1116L213.149 75.4094" fill="white"/>
  <path d="M204.064 73.2603L213.345 80.1116L216.892 75.4094" fill="white"/>
  <path d="M204.064 73.2602L215.6 73.1727L215.705 79.0614" fill="white"/>
  <path d="M221.791 86.1398L218.309 75.1417L212.676 76.8612" fill="white"/>
  <path d="M221.791 86.1399L212.407 79.4303L215.783 74.6042" fill="white"/>
  <path d="M208.248 86.1399L217.632 79.4303L214.256 74.6042" fill="white"/>
  <path d="M208.248 86.1398L211.73 75.1417L217.363 76.8612" fill="white"/>
  </g>
  <defs>
  <clipPath id="clip0_10_18014">
  <rect width="640" height="480" fill="white"/>
  </clipPath>
  </defs>
  </svg>
