<svg id="flag-icons-ve" viewBox="0 0 640 480" xmlns="http://www.w3.org/2000/svg">
  <g clip-path="url(#clip0_10_17849)">
  <path d="M0 0H640V480H0V0Z" fill="#CF142B"/>
  <path d="M0 0H640V320H0V0Z" fill="#00247D"/>
  <path d="M0 0H640V160H0V0Z" fill="#FFCC00"/>
  <path d="M348.478 174.492L339.235 192.358L349.64 197.848L348.478 174.492Z" fill="white"/>
  <path d="M348.478 174.492L351.053 194.442L339.398 196.042L348.478 174.492Z" fill="white"/>
  <path d="M364.811 191.404L344.962 188.135L342.956 199.727L364.811 191.404Z" fill="white"/>
  <path d="M364.81 191.404L346.632 200.018L341.509 189.428L364.81 191.404Z" fill="white"/>
  <path d="M327.346 184.798L341.482 199.11L349.919 190.911L327.346 184.798Z" fill="white"/>
  <path d="M327.346 184.798L347.116 188.514L345.036 200.093L327.346 184.798Z" fill="white"/>
  <path d="M353.772 212.164L350.748 192.277L339.104 193.951L353.772 212.164Z" fill="white"/>
  <path d="M353.773 212.164L339.963 197.537L348.452 189.392L353.773 212.164Z" fill="white"/>
  <path d="M330.618 208.081L348.597 199.06L343.407 188.502L330.618 208.081Z" fill="white"/>
  <path d="M330.618 208.081L340.262 190.427L350.631 195.983L330.618 208.081Z" fill="white"/>
  <path d="M402.001 193.972L387.205 207.6L395.104 216.317L402.001 193.972Z" fill="white"/>
  <path d="M402.001 193.972L397.597 213.6L386.098 211.117L402.001 193.972Z" fill="white"/>
  <path d="M411.564 215.451L394.031 205.59L388.181 215.797L411.564 215.451Z" fill="white"/>
  <path d="M411.564 215.451L391.536 217.328L390.343 205.624L411.564 215.451Z" fill="white"/>
  <path d="M378.618 196.43L387.006 214.713L397.739 209.894L378.618 196.43Z" fill="white"/>
  <path d="M378.618 196.43L395.924 206.683L390.01 216.853L378.618 196.43Z" fill="white"/>
  <path d="M394.09 231.183L398.051 211.461L386.536 209.052L394.09 231.183Z" fill="white"/>
  <path d="M394.09 231.183L386.116 212.715L396.878 207.964L394.09 231.183Z" fill="white"/>
  <path d="M373.729 219.427L393.709 217.099L392.442 205.403L373.729 219.427Z" fill="white"/>
  <path d="M373.729 219.427L388.828 206.137L396.672 214.904L373.729 219.427Z" fill="white"/>
  <path d="M445.631 230.583L427.066 238.328L431.508 249.222L445.631 230.583Z" fill="white"/>
  <path d="M445.632 230.583L434.78 247.521L424.823 241.255L445.632 230.583Z" fill="white"/>
  <path d="M447.272 254.037L434.169 238.774L425.181 246.365L447.272 254.037Z" fill="white"/>
  <path d="M447.271 254.037L427.809 248.951L430.691 237.545L447.271 254.037Z" fill="white"/>
  <path d="M422.818 224.895L424.447 244.945L436.18 244.087L422.818 224.895Z" fill="white"/>
  <path d="M422.818 224.895L435.573 240.449L426.537 247.983L422.818 224.895Z" fill="white"/>
  <path d="M425.472 262.845L435.939 245.666L425.942 239.464L425.472 262.845Z" fill="white"/>
  <path d="M425.472 262.845L424.295 242.763L436.034 241.98L425.472 262.845Z" fill="white"/>
  <path d="M410.36 244.834L429.932 249.48L432.742 238.056L410.36 244.834Z" fill="white"/>
  <path d="M410.36 244.834L429.095 237.509L433.467 248.431L410.36 244.834Z" fill="white"/>
  <path d="M474.11 279.909L454.016 280.838L454.463 292.593L474.11 279.909Z" fill="white"/>
  <path d="M474.11 279.909L458.12 292.114L450.906 282.821L474.11 279.909Z" fill="white"/>
  <path d="M467.629 302.51L460.537 283.686L449.495 287.744L467.629 302.51Z" fill="white"/>
  <path d="M467.629 302.51L451.081 291.074L457.69 281.342L467.629 302.51Z" fill="white"/>
  <path d="M454.617 266.761L449.291 286.159L460.61 289.366L454.617 266.761Z" fill="white"/>
  <path d="M454.618 266.761L461.284 285.74L450.217 289.729L454.618 266.761Z" fill="white"/>
  <path d="M444.132 303.33L459.843 290.768L452.571 281.52L444.132 303.33Z" fill="white"/>
  <path d="M444.132 303.33L449.895 284.057L461.193 287.336L444.132 303.33Z" fill="white"/>
  <path d="M436.091 281.236L452.894 292.296L459.441 282.522L436.091 281.236Z" fill="white"/>
  <path d="M436.091 281.236L456.201 280.761L456.575 292.519L436.091 281.236Z" fill="white"/>
  <path d="M165.891 279.909L181.881 292.114L189.094 282.82L165.891 279.909Z" fill="white"/>
  <path d="M165.891 279.909L185.985 280.837L185.538 292.593L165.891 279.909Z" fill="white"/>
  <path d="M185.383 266.761L178.717 285.74L189.784 289.729L185.383 266.761Z" fill="white"/>
  <path d="M185.384 266.761L190.71 286.159L179.391 289.366L185.384 266.761Z" fill="white"/>
  <path d="M172.372 302.509L188.92 291.073L182.311 281.341L172.372 302.509Z" fill="white"/>
  <path d="M172.372 302.509L179.464 283.685L190.506 287.744L172.372 302.509Z" fill="white"/>
  <path d="M203.91 281.236L183.8 280.761L183.426 292.519L203.91 281.236Z" fill="white"/>
  <path d="M203.91 281.236L187.107 292.296L180.56 282.522L203.91 281.236Z" fill="white"/>
  <path d="M195.869 303.33L190.106 284.057L178.808 287.336L195.869 303.33Z" fill="white"/>
  <path d="M195.869 303.33L180.158 290.767L187.43 281.52L195.869 303.33Z" fill="white"/>
  <path d="M194.369 230.583L205.221 247.521L215.178 241.255L194.369 230.583Z" fill="white"/>
  <path d="M194.37 230.583L212.935 238.328L208.493 249.222L194.37 230.583Z" fill="white"/>
  <path d="M217.182 224.895L204.427 240.449L213.463 247.983L217.182 224.895Z" fill="white"/>
  <path d="M217.182 224.895L215.553 244.945L203.82 244.087L217.182 224.895Z" fill="white"/>
  <path d="M192.73 254.037L212.192 248.951L209.31 237.545L192.73 254.037Z" fill="white"/>
  <path d="M192.729 254.037L205.832 238.774L214.82 246.365L192.729 254.037Z" fill="white"/>
  <path d="M229.642 244.834L210.907 237.509L206.535 248.431L229.642 244.834Z" fill="white"/>
  <path d="M229.642 244.834L210.07 249.48L207.26 238.056L229.642 244.834Z" fill="white"/>
  <path d="M214.529 262.845L215.706 242.763L203.967 241.98L214.529 262.845Z" fill="white"/>
  <path d="M214.529 262.845L204.062 245.666L214.059 239.464L214.529 262.845Z" fill="white"/>
  <path d="M238.001 193.972L242.405 213.6L253.904 211.117L238.001 193.972Z" fill="white"/>
  <path d="M238.001 193.972L252.797 207.6L244.898 216.317L238.001 193.972Z" fill="white"/>
  <path d="M261.384 196.43L244.077 206.683L249.992 216.853L261.384 196.43Z" fill="white"/>
  <path d="M261.384 196.43L252.995 214.713L242.263 209.894L261.384 196.43Z" fill="white"/>
  <path d="M228.437 215.45L248.465 217.327L249.658 205.624L228.437 215.45Z" fill="white"/>
  <path d="M228.437 215.45L245.97 205.59L251.82 215.796L228.437 215.45Z" fill="white"/>
  <path d="M266.271 219.427L251.172 206.136L243.328 214.904L266.271 219.427Z" fill="white"/>
  <path d="M266.271 219.427L246.291 217.099L247.558 205.403L266.271 219.427Z" fill="white"/>
  <path d="M245.91 231.183L253.884 212.715L243.122 207.964L245.91 231.183Z" fill="white"/>
  <path d="M245.91 231.183L241.949 211.461L253.464 209.051L245.91 231.183Z" fill="white"/>
  <path d="M291.522 174.492L288.947 194.442L300.602 196.042L291.522 174.492Z" fill="white"/>
  <path d="M291.522 174.492L300.765 192.358L290.36 197.848L291.522 174.492Z" fill="white"/>
  <path d="M312.654 184.798L292.884 188.514L294.964 200.093L312.654 184.798Z" fill="white"/>
  <path d="M312.654 184.798L298.518 199.11L290.081 190.911L312.654 184.798Z" fill="white"/>
  <path d="M275.19 191.404L293.368 200.018L298.491 189.428L275.19 191.404Z" fill="white"/>
  <path d="M275.189 191.404L295.038 188.135L297.044 199.727L275.189 191.404Z" fill="white"/>
  <path d="M309.382 208.081L299.738 190.427L289.369 195.983L309.382 208.081Z" fill="white"/>
  <path d="M309.382 208.081L291.403 199.06L296.593 188.502L309.382 208.081Z" fill="white"/>
  <path d="M286.227 212.164L300.037 197.537L291.548 189.392L286.227 212.164Z" fill="white"/>
  <path d="M286.228 212.164L289.252 192.277L300.896 193.951L286.228 212.164Z" fill="white"/>
  </g>
  <defs>
  <clipPath id="clip0_10_17849">
  <rect width="640" height="480" fill="white"/>
  </clipPath>
  </defs>
  </svg>
