<svg id="flag-icons-vg" viewBox="0 0 640 480" xmlns="http://www.w3.org/2000/svg">
  <g clip-path="url(#clip0_10_18256)">
  <mask id="mask0_10_18256" style="mask-type:luminance" maskUnits="userSpaceOnUse" x="0" y="0" width="640" height="480">
  <path d="M0 0H640V480H0V0Z" fill="white"/>
  </mask>
  <g mask="url(#mask0_10_18256)">
  <path d="M0 0H960V480H0V0Z" fill="#000066"/>
  <path fill-rule="evenodd" clip-rule="evenodd" d="M0 0H350V175H0V0Z" fill="#000066"/>
  <path d="M0 0V19.6L310.9 175H350V155.4L39.1 0H0ZM350 0V19.6L39.1 175H0V155.4L310.9 0H350Z" fill="white"/>
  <path d="M145.8 0V175H204.2V0H145.8ZM0 58.3V116.7H350V58.3H0Z" fill="white"/>
  <path d="M0 70V105H350V70H0ZM157.5 0V175H192.5V0H157.5ZM0 175L116.7 116.7H142.7L26.2 175H0ZM0 0L116.7 58.3H90.6L0 13V0ZM207.3 58.3L323.9 0H350L233.3 58.3H207.3ZM350 175L233.3 116.7H259.4L350 162V175Z" fill="#CC0000"/>
  <path fill-rule="evenodd" clip-rule="evenodd" d="M378.5 154.5L597.8 153.6L597.4 349C597.4 349 605.1 378.7 505.4 423.9C541.3 420.2 580.4 381.9 580.4 381.9C580.4 381.9 596.2 361.6 603.9 372.9C609.521 381.285 616.56 388.628 624.7 394.6C630.4 399 634.9 411.2 626.3 420.2C617.8 429.2 604.3 430.4 600.7 419.4C595 422.2 560 464.6 488.4 466.6C467.385 466.514 446.596 462.263 427.234 454.093C407.873 445.922 390.323 433.995 375.6 419C375.6 419 365.9 434.4 352 422.2C338.6 406.4 348.8 396.2 348.8 396.2C348.8 396.2 360.2 389.7 363.4 385.2C368.7 379.1 370.4 371 379.3 371C389.9 371.8 394 380.3 394 380.3C394 380.3 430.6 419 470 423.8C381 381.1 377.7 354.7 378 348.2L378.5 154.5Z" fill="white"/>
  <path fill-rule="evenodd" clip-rule="evenodd" d="M383.8 159.7L592.9 158.5V346.5C593.3 370.9 552.2 395.8 487.9 427.5C421.6 393.3 383.4 372.5 382.9 346.1L383.8 159.7Z" fill="#006129" stroke="black" stroke-width="1.7"/>
  <path d="M409 366.9L421.3 348.8L433.7 366.9" stroke="#F7C600" stroke-width="1.7"/>
  <path fill-rule="evenodd" clip-rule="evenodd" d="M423.7 360.1C423.774 360.463 423.766 360.838 423.677 361.198C423.588 361.557 423.42 361.893 423.186 362.18C422.951 362.467 422.656 362.698 422.321 362.857C421.986 363.015 421.621 363.098 421.25 363.098C420.88 363.098 420.514 363.015 420.179 362.857C419.844 362.698 419.549 362.467 419.314 362.18C419.08 361.893 418.912 361.557 418.823 361.198C418.734 360.838 418.726 360.463 418.8 360.1C418.8 359.437 419.063 358.801 419.532 358.332C420.001 357.863 420.637 357.6 421.3 357.6C421.963 357.6 422.599 357.863 423.068 358.332C423.537 358.801 423.8 359.437 423.8 360.1H423.7Z" fill="#F7C600" stroke="black" stroke-width="0.8"/>
  <path fill-rule="evenodd" clip-rule="evenodd" d="M411.201 380.3H430.4C430.4 380.3 430.7 377.9 428.4 376.3C438.4 375 435.801 366.1 444.201 365.6C445.801 365.9 439.8 369.4 439.8 369.4C439.8 369.4 434.8 373 437 374.8C438.9 376.2 439.7 373.9 440 372.1C440.2 370.4 448 369.3 447 364.2C445 360.2 434 367 434 367H426.201C425.701 366 423.501 362.5 421.201 362.5C418.601 362.6 416.8 367 416.8 367H399C399 367 398.4 371.6 407.4 372.5C409.4 375.1 411.001 375.9 412.701 376.5C411.601 377.5 411.201 378.7 411.201 380.3Z" fill="#F7C600" stroke="black" stroke-width="0.8"/>
  <path d="M412.6 376.4H428.6M405.3 367C405.3 367 406.6 374.5 412.5 376.2" stroke="black" stroke-width="0.8"/>
  <path fill-rule="evenodd" clip-rule="evenodd" d="M404.282 366.886C404.943 364.109 406.001 363.58 407.191 360.009C407.324 356.439 404.282 356.835 405.208 354.587C406.795 352.074 406.001 349.826 403.092 347.975C403.621 351.149 399.124 354.19 399.124 356.835C399.124 359.48 401.505 358.951 401.24 362.919C401.24 365.299 400.579 364.638 400.447 366.886H404.414H404.282Z" fill="url(#paint0_linear_10_18256)" stroke="black" stroke-width="0.7935"/>
  <path fill-rule="evenodd" clip-rule="evenodd" d="M423.5 349.2C423.571 349.535 423.567 349.882 423.486 350.215C423.406 350.548 423.253 350.859 423.037 351.125C422.822 351.391 422.549 351.606 422.24 351.753C421.931 351.9 421.593 351.977 421.25 351.977C420.908 351.977 420.569 351.9 420.26 351.753C419.951 351.606 419.679 351.391 419.463 351.125C419.248 350.859 419.094 350.548 419.014 350.215C418.934 349.882 418.929 349.535 419 349.2C419.11 348.684 419.393 348.222 419.802 347.89C420.212 347.558 420.723 347.377 421.25 347.377C421.777 347.377 422.289 347.558 422.698 347.89C423.108 348.222 423.391 348.684 423.5 349.2Z" fill="#F7C600" stroke="black" stroke-width="0.8"/>
  <path d="M408.2 329.6L420.6 311.4L433 329.6" stroke="#F7C600" stroke-width="1.7"/>
  <path fill-rule="evenodd" clip-rule="evenodd" d="M423 322.8C423.074 323.163 423.066 323.538 422.977 323.898C422.888 324.257 422.72 324.593 422.485 324.88C422.251 325.167 421.956 325.398 421.621 325.556C421.286 325.715 420.92 325.798 420.55 325.798C420.179 325.798 419.813 325.715 419.479 325.556C419.144 325.398 418.849 325.167 418.614 324.88C418.38 324.593 418.212 324.257 418.123 323.898C418.034 323.538 418.026 323.163 418.1 322.8C418.1 322.137 418.363 321.501 418.832 321.032C419.301 320.563 419.937 320.3 420.6 320.3C421.263 320.3 421.899 320.563 422.368 321.032C422.836 321.501 423.1 322.137 423.1 322.8H423Z" fill="#F7C600" stroke="black" stroke-width="0.8"/>
  <path fill-rule="evenodd" clip-rule="evenodd" d="M410.5 343H429.7C429.7 343 430 340.6 427.7 339C437.7 337.7 435.1 328.8 443.5 328.3C445.1 328.6 439.1 332.1 439.1 332.1C439.1 332.1 434.1 335.6 436.3 337.5C438.2 338.9 439 336.5 439.3 334.8C439.5 333.1 447.3 331.9 446.3 326.9C444.3 322.8 433.3 329.7 433.3 329.7H425.5C425 328.7 422.8 325.2 420.5 325.2C417.9 325.3 416.1 329.7 416.1 329.7H398.3C398.3 329.7 397.7 334.3 406.7 335.1C408.7 337.8 410.3 338.5 412 339.2C410.9 340.2 410.5 341.4 410.5 343Z" fill="#F7C600" stroke="black" stroke-width="0.8"/>
  <path d="M412 339H427.9M404.6 329.7C404.6 329.7 405.9 337.1 411.8 338.9" stroke="black" stroke-width="0.8"/>
  <path fill-rule="evenodd" clip-rule="evenodd" d="M403.682 329.486C404.343 326.709 405.401 326.18 406.592 322.609C406.724 319.038 403.682 319.435 404.608 317.187C406.195 314.674 405.401 312.426 402.492 310.574C403.021 313.748 398.524 316.79 398.524 319.435C398.524 322.08 400.905 321.551 400.64 325.519C400.64 327.899 399.979 327.238 399.847 329.486H403.814H403.682Z" fill="url(#paint1_linear_10_18256)" stroke="black" stroke-width="0.7935"/>
  <path fill-rule="evenodd" clip-rule="evenodd" d="M422.8 311.9C422.871 312.235 422.866 312.582 422.786 312.915C422.706 313.248 422.553 313.559 422.337 313.825C422.121 314.091 421.849 314.306 421.54 314.453C421.231 314.6 420.893 314.677 420.55 314.677C420.207 314.677 419.869 314.6 419.56 314.453C419.251 314.306 418.979 314.091 418.763 313.825C418.547 313.559 418.394 313.248 418.314 312.915C418.234 312.582 418.229 312.235 418.3 311.9C418.409 311.384 418.692 310.922 419.102 310.59C419.512 310.258 420.023 310.077 420.55 310.077C421.077 310.077 421.588 310.258 421.998 310.59C422.408 310.922 422.691 311.384 422.8 311.9Z" fill="#F7C600" stroke="black" stroke-width="0.8"/>
  <path d="M539.4 295.6L551.7 277.6L564.1 295.6" stroke="#F7C600" stroke-width="1.7"/>
  <path fill-rule="evenodd" clip-rule="evenodd" d="M554.2 288.9C554.274 289.263 554.266 289.638 554.177 289.998C554.088 290.357 553.92 290.693 553.686 290.98C553.451 291.266 553.156 291.498 552.821 291.656C552.486 291.815 552.121 291.897 551.75 291.897C551.38 291.897 551.014 291.815 550.679 291.656C550.344 291.498 550.049 291.266 549.814 290.98C549.58 290.693 549.412 290.357 549.323 289.998C549.234 289.638 549.226 289.263 549.3 288.9C549.415 288.335 549.721 287.827 550.168 287.462C550.614 287.097 551.173 286.897 551.75 286.897C552.327 286.897 552.886 287.097 553.332 287.462C553.779 287.827 554.085 288.335 554.2 288.9Z" fill="#F7C600" stroke="black" stroke-width="0.8"/>
  <path fill-rule="evenodd" clip-rule="evenodd" d="M541.7 309L560.8 309.1C560.8 309.1 561.1 306.6 558.8 305.1C568.8 303.7 566.3 294.9 574.7 294.4C576.3 294.6 570.3 298.2 570.3 298.2C570.3 298.2 565.3 301.7 567.5 303.5C569.4 305 570.2 302.7 570.4 300.9C570.7 299.1 578.6 298 577.4 293C575.5 288.9 564.5 295.8 564.5 295.8H556.6C556.2 294.8 554 291.3 551.7 291.3C549.1 291.3 547.2 295.8 547.2 295.8H529.4C529.4 295.8 528.8 300.3 537.8 301.2C539.8 303.9 541.4 304.6 543.2 305.2C542 306.2 541.7 307.5 541.7 309Z" fill="#F7C600" stroke="black" stroke-width="0.8"/>
  <path d="M543 305.2H559M535.8 295.8C535.8 295.8 537.1 303.2 542.9 305" stroke="black" stroke-width="0.8"/>
  <path fill-rule="evenodd" clip-rule="evenodd" d="M534.682 295.586C535.343 292.809 536.401 292.28 537.592 288.709C537.724 285.139 534.682 285.535 535.608 283.287C537.195 280.774 536.401 278.526 533.492 276.675C534.021 279.849 529.524 282.89 529.524 285.535C529.524 288.18 531.905 287.651 531.64 291.619C531.64 293.999 530.979 293.338 530.847 295.586H534.814H534.682Z" fill="url(#paint2_linear_10_18256)" stroke="black" stroke-width="0.7935"/>
  <path fill-rule="evenodd" clip-rule="evenodd" d="M554 278C554.071 278.335 554.066 278.682 553.986 279.015C553.906 279.348 553.753 279.659 553.537 279.925C553.322 280.191 553.049 280.406 552.74 280.553C552.431 280.7 552.093 280.777 551.75 280.777C551.408 280.777 551.069 280.7 550.76 280.553C550.451 280.406 550.179 280.191 549.963 279.925C549.748 279.659 549.594 279.348 549.514 279.015C549.434 278.682 549.429 278.335 549.5 278C549.61 277.484 549.893 277.022 550.302 276.69C550.712 276.358 551.223 276.177 551.75 276.177C552.277 276.177 552.789 276.358 553.198 276.69C553.608 277.022 553.891 277.484 554 278Z" fill="#F7C600" stroke="black" stroke-width="0.8"/>
  <path d="M411.3 259.4L423.6 241.2L436 259.4" stroke="#F7C600" stroke-width="1.7"/>
  <path fill-rule="evenodd" clip-rule="evenodd" d="M426.1 252.6C426.174 252.963 426.166 253.338 426.077 253.698C425.988 254.057 425.821 254.393 425.586 254.68C425.352 254.966 425.056 255.198 424.722 255.356C424.387 255.515 424.021 255.597 423.65 255.597C423.28 255.597 422.914 255.515 422.579 255.356C422.244 255.198 421.949 254.966 421.715 254.68C421.48 254.393 421.312 254.057 421.223 253.698C421.135 253.338 421.127 252.963 421.2 252.6C421.315 252.035 421.622 251.527 422.068 251.162C422.515 250.797 423.074 250.597 423.65 250.597C424.227 250.597 424.786 250.797 425.233 251.162C425.679 251.527 425.986 252.035 426.1 252.6Z" fill="#F7C600" stroke="black" stroke-width="0.8"/>
  <path fill-rule="evenodd" clip-rule="evenodd" d="M413.6 272.8H432.7C432.7 272.8 433 270.3 430.7 268.8C440.7 267.4 438.2 258.6 446.6 258.1C448.2 258.4 442.2 261.9 442.2 261.9C442.2 261.9 437.1 265.4 439.4 267.3C441.2 268.7 442 266.3 442.3 264.6C442.5 262.9 450.4 261.7 449.3 256.7C447.4 252.6 436.4 259.5 436.4 259.5H428.5C428 258.5 425.9 255 423.6 255C421 255.1 419.1 259.5 419.1 259.5H401.3C401.3 259.5 400.7 264.1 409.7 264.9C411.7 267.6 413.3 268.3 415.1 269C413.9 270 413.6 271.2 413.6 272.8Z" fill="#F7C600" stroke="black" stroke-width="0.8"/>
  <path d="M415 268.9H431M407.7 259.5C407.7 259.5 409 266.9 414.8 268.7" stroke="black" stroke-width="0.8"/>
  <path fill-rule="evenodd" clip-rule="evenodd" d="M406.682 259.286C407.343 256.509 408.401 255.98 409.592 252.409C409.724 248.839 406.682 249.235 407.608 246.987C409.195 244.474 408.401 242.226 405.492 240.375C406.021 243.549 401.524 246.59 401.524 249.235C401.524 251.88 403.905 251.351 403.64 255.319C403.64 257.699 402.979 257.038 402.847 259.286H406.814H406.682Z" fill="url(#paint3_linear_10_18256)" stroke="black" stroke-width="0.7935"/>
  <path fill-rule="evenodd" clip-rule="evenodd" d="M425.9 241.7C425.971 242.035 425.966 242.382 425.886 242.715C425.806 243.048 425.652 243.359 425.437 243.625C425.221 243.891 424.949 244.106 424.64 244.253C424.33 244.4 423.992 244.477 423.65 244.477C423.307 244.477 422.969 244.4 422.66 244.253C422.351 244.106 422.078 243.891 421.863 243.625C421.647 243.359 421.493 243.048 421.413 242.715C421.333 242.382 421.329 242.035 421.4 241.7C421.509 241.184 421.792 240.722 422.202 240.39C422.611 240.058 423.122 239.877 423.65 239.877C424.177 239.877 424.688 240.058 425.098 240.39C425.507 240.722 425.79 241.184 425.9 241.7Z" fill="#F7C600" stroke="black" stroke-width="0.8"/>
  <path d="M411.6 223.7L423.9 205.6L436.3 223.8" stroke="#F7C600" stroke-width="1.7"/>
  <path fill-rule="evenodd" clip-rule="evenodd" d="M426.4 217C426.4 217.663 426.137 218.299 425.668 218.768C425.199 219.237 424.563 219.5 423.9 219.5C423.237 219.5 422.601 219.237 422.133 218.768C421.664 218.299 421.4 217.663 421.4 217C421.4 216.337 421.664 215.701 422.133 215.232C422.601 214.763 423.237 214.5 423.9 214.5C424.563 214.5 425.199 214.763 425.668 215.232C426.137 215.701 426.4 216.337 426.4 217Z" fill="#F7C600" stroke="black" stroke-width="0.8"/>
  <path fill-rule="evenodd" clip-rule="evenodd" d="M413.9 237.1H433C433 237.1 433.3 234.7 431 233.1C441 231.8 438.4 223 446.8 222.5C448.5 222.7 442.4 226.2 442.4 226.2C442.4 226.2 437.4 229.8 439.7 231.6C441.5 233 442.3 230.7 442.6 229C442.8 227.2 450.7 226 449.6 221C447.7 217 436.6 223.8 436.6 223.8H428.8C428.3 222.9 426.1 219.4 423.9 219.3C421.3 219.4 419.4 223.8 419.4 223.8H401.6C401.6 223.8 401 228.4 410 229.3C412 231.9 413.6 232.7 415.4 233.3C414.2 234.3 413.9 235.5 413.9 237.1Z" fill="#F7C600" stroke="black" stroke-width="0.8"/>
  <path d="M415.3 233.2H431.2M408 223.8C408 223.8 409.2 231.3 415.1 233" stroke="black" stroke-width="0.8"/>
  <path fill-rule="evenodd" clip-rule="evenodd" d="M406.982 223.686C407.643 220.909 408.701 220.38 409.891 216.809C410.024 213.238 406.982 213.635 407.908 211.387C409.495 208.874 408.701 206.626 405.792 204.774C406.321 207.948 401.824 210.99 401.824 213.635C401.824 216.28 404.205 215.751 403.94 219.719C403.94 222.099 403.279 221.438 403.147 223.686H407.114H406.982Z" fill="url(#paint4_linear_10_18256)" stroke="black" stroke-width="0.7935"/>
  <path fill-rule="evenodd" clip-rule="evenodd" d="M426.2 206C426.271 206.335 426.267 206.682 426.187 207.015C426.107 207.348 425.953 207.659 425.737 207.925C425.522 208.191 425.249 208.406 424.94 208.553C424.631 208.701 424.293 208.777 423.95 208.777C423.608 208.777 423.27 208.701 422.96 208.553C422.651 208.406 422.379 208.191 422.163 207.925C421.948 207.659 421.794 207.348 421.714 207.015C421.634 206.682 421.629 206.335 421.7 206C421.81 205.484 422.093 205.022 422.502 204.69C422.912 204.358 423.423 204.177 423.95 204.177C424.478 204.177 424.989 204.358 425.398 204.69C425.808 205.022 426.091 205.484 426.2 206Z" fill="#F7C600" stroke="black" stroke-width="0.8"/>
  <path d="M412.2 187.5L424.6 169.4L437 187.6" stroke="#F7C600" stroke-width="1.7"/>
  <path fill-rule="evenodd" clip-rule="evenodd" d="M427 180.8C427.108 181.173 427.129 181.565 427.059 181.947C426.99 182.329 426.832 182.69 426.6 183C426.367 183.311 426.065 183.563 425.718 183.736C425.371 183.91 424.988 184 424.6 184C424.212 184 423.829 183.91 423.482 183.736C423.134 183.563 422.832 183.311 422.6 183C422.367 182.69 422.209 182.329 422.14 181.947C422.071 181.565 422.091 181.173 422.2 180.8C422.314 180.235 422.621 179.727 423.067 179.362C423.514 178.997 424.073 178.798 424.65 178.798C425.226 178.798 425.785 178.997 426.232 179.362C426.678 179.727 426.985 180.235 427.1 180.8H427Z" fill="#F7C600" stroke="black" stroke-width="0.8"/>
  <path fill-rule="evenodd" clip-rule="evenodd" d="M414.6 201H433.6C433.6 201 434 198.5 431.6 197C441.7 195.6 439.1 186.8 447.6 186.3C449.1 186.5 443.1 190 443.1 190C443.1 190 438.1 193.6 440.4 195.4C442.2 196.9 443 194.5 443.3 192.8C443.5 191 451.3 189.9 450.3 184.8C448.3 180.8 437.3 187.6 437.3 187.6H429.5C429 186.7 426.8 183.2 424.5 183.2C421.9 183.2 420.1 187.7 420.1 187.7H402.3C402.3 187.7 401.7 192.2 410.7 193.1C412.029 194.974 413.921 196.375 416.1 197.1C414.9 198.1 414.6 199.3 414.6 200.9V201Z" fill="#F7C600" stroke="black" stroke-width="0.8"/>
  <path d="M416 197H431.9M408.6 187.6C408.6 187.6 409.9 195.1 415.8 196.9" stroke="black" stroke-width="0.8"/>
  <path fill-rule="evenodd" clip-rule="evenodd" d="M407.682 187.486C408.343 184.709 409.401 184.18 410.592 180.609C410.724 177.038 407.682 177.435 408.608 175.187C410.195 172.674 409.401 170.426 406.492 168.574C407.021 171.748 402.524 174.79 402.524 177.435C402.524 180.08 404.905 179.551 404.64 183.519C404.64 185.899 403.979 185.238 403.847 187.486H407.814H407.682Z" fill="url(#paint5_linear_10_18256)" stroke="black" stroke-width="0.7935"/>
  <path fill-rule="evenodd" clip-rule="evenodd" d="M426.9 169.9C426.971 170.235 426.966 170.582 426.886 170.915C426.806 171.248 426.652 171.559 426.437 171.825C426.221 172.091 425.949 172.306 425.64 172.453C425.33 172.6 424.992 172.677 424.65 172.677C424.307 172.677 423.969 172.6 423.66 172.453C423.351 172.306 423.078 172.091 422.863 171.825C422.647 171.559 422.493 171.248 422.413 170.915C422.333 170.582 422.329 170.235 422.4 169.9C422.509 169.384 422.792 168.922 423.202 168.59C423.611 168.258 424.122 168.077 424.65 168.077C425.177 168.077 425.688 168.258 426.098 168.59C426.507 168.922 426.79 169.384 426.9 169.9Z" fill="#F7C600" stroke="black" stroke-width="0.8"/>
  <path d="M540.4 188.1L552.7 170L565.1 188.2" stroke="#F7C600" stroke-width="1.7"/>
  <path fill-rule="evenodd" clip-rule="evenodd" d="M555.2 181.3C555.2 181.963 554.937 182.599 554.468 183.068C553.999 183.537 553.363 183.8 552.7 183.8C552.037 183.8 551.401 183.537 550.932 183.068C550.464 182.599 550.2 181.963 550.2 181.3C550.2 180.637 550.464 180.001 550.932 179.532C551.401 179.063 552.037 178.8 552.7 178.8C553.363 178.8 553.999 179.063 554.468 179.532C554.937 180.001 555.2 180.637 555.2 181.3Z" fill="#F7C600" stroke="black" stroke-width="0.8"/>
  <path fill-rule="evenodd" clip-rule="evenodd" d="M542.7 201.5H561.8C561.8 201.5 562.1 199.1 559.8 197.5C569.8 196.2 567.2 187.4 575.6 186.9C577.3 187.1 571.2 190.6 571.2 190.6C571.2 190.6 566.2 194.2 568.5 196C570.3 197.4 571.1 195.1 571.4 193.4C571.6 191.6 579.5 190.4 578.4 185.4C576.5 181.4 565.4 188.2 565.4 188.2H557.6C557.1 187.3 555 183.8 552.7 183.8C550.1 183.8 548.2 188.2 548.2 188.2H530.4C530.4 188.2 529.8 192.8 538.8 193.7C540.129 195.574 542.02 196.975 544.2 197.7C543 198.7 542.7 199.9 542.7 201.5Z" fill="#F7C600" stroke="black" stroke-width="0.8"/>
  <path d="M544 197.6H560M536.7 188.2C536.7 188.2 538 195.7 543.9 197.5" stroke="black" stroke-width="0.8"/>
  <path fill-rule="evenodd" clip-rule="evenodd" d="M535.682 188.086C536.343 185.309 537.401 184.78 538.592 181.209C538.724 177.639 535.682 178.035 536.608 175.787C538.195 173.274 537.401 171.026 534.492 169.175C535.021 172.349 530.524 175.39 530.524 178.035C530.524 180.68 532.905 180.151 532.64 184.119C532.64 186.499 531.979 185.838 531.847 188.086H535.814H535.682Z" fill="url(#paint6_linear_10_18256)" stroke="black" stroke-width="0.7935"/>
  <path fill-rule="evenodd" clip-rule="evenodd" d="M555 170.4C555.071 170.735 555.066 171.082 554.986 171.415C554.906 171.748 554.753 172.059 554.537 172.325C554.322 172.591 554.049 172.806 553.74 172.953C553.431 173.1 553.093 173.177 552.75 173.177C552.408 173.177 552.069 173.1 551.76 172.953C551.451 172.806 551.179 172.591 550.963 172.325C550.748 172.059 550.594 171.748 550.514 171.415C550.434 171.082 550.429 170.735 550.5 170.4C550.61 169.884 550.893 169.422 551.302 169.09C551.712 168.758 552.223 168.577 552.75 168.577C553.277 168.577 553.789 168.758 554.198 169.09C554.608 169.422 554.891 169.884 555 170.4Z" fill="#F7C600" stroke="black" stroke-width="0.8"/>
  <path d="M539.2 223.6L551.5 205.5L563.9 223.7" stroke="#F7C600" stroke-width="1.7"/>
  <path fill-rule="evenodd" clip-rule="evenodd" d="M554 216.8C554.074 217.163 554.066 217.538 553.977 217.898C553.888 218.257 553.72 218.593 553.485 218.88C553.251 219.167 552.956 219.398 552.621 219.556C552.286 219.715 551.92 219.798 551.55 219.798C551.179 219.798 550.813 219.715 550.479 219.556C550.144 219.398 549.849 219.167 549.614 218.88C549.38 218.593 549.212 218.257 549.123 217.898C549.034 217.538 549.026 217.163 549.1 216.8C549.1 216.137 549.363 215.501 549.832 215.032C550.301 214.563 550.937 214.3 551.6 214.3C552.263 214.3 552.899 214.563 553.368 215.032C553.836 215.501 554.1 216.137 554.1 216.8H554Z" fill="#F7C600" stroke="black" stroke-width="0.8"/>
  <path fill-rule="evenodd" clip-rule="evenodd" d="M541.5 237H560.6C560.6 237 560.9 234.6 558.6 233C568.6 231.7 566.1 222.9 574.5 222.4C576.1 222.6 570.1 226.1 570.1 226.1C570.1 226.1 565.1 229.7 567.3 231.5C569.2 233 570 230.6 570.2 228.9C570.5 227.1 578.4 226 577.2 220.9C575.3 216.9 564.3 223.8 564.3 223.8H556.5C556 222.8 553.8 219.3 551.5 219.3C548.9 219.3 547 223.7 547 223.7H529.2C529.2 223.7 528.6 228.3 537.6 229.2C539.6 231.9 541.2 232.6 543 233.2C541.8 234.2 541.5 235.4 541.5 237Z" fill="#F7C600" stroke="black" stroke-width="0.8"/>
  <path d="M542.9 233.2L558.9 233.1M535.6 223.7C535.6 223.7 536.9 231.2 542.7 233" stroke="black" stroke-width="0.8"/>
  <path fill-rule="evenodd" clip-rule="evenodd" d="M534.582 223.586C535.243 220.809 536.301 220.28 537.491 216.709C537.623 213.139 534.582 213.535 535.507 211.287C537.094 208.774 536.301 206.526 533.391 204.675C533.92 207.849 529.424 210.89 529.424 213.535C529.424 216.18 531.804 215.651 531.54 219.619C531.54 221.999 530.879 221.338 530.746 223.586H534.714H534.582Z" fill="url(#paint7_linear_10_18256)" stroke="black" stroke-width="0.7935"/>
  <path fill-rule="evenodd" clip-rule="evenodd" d="M553.8 206C553.871 206.335 553.866 206.682 553.786 207.015C553.706 207.348 553.553 207.659 553.337 207.925C553.121 208.191 552.849 208.406 552.54 208.553C552.231 208.701 551.893 208.777 551.55 208.777C551.207 208.777 550.869 208.701 550.56 208.553C550.251 208.406 549.979 208.191 549.763 207.925C549.547 207.659 549.394 207.348 549.314 207.015C549.234 206.682 549.229 206.335 549.3 206C549.409 205.484 549.692 205.022 550.102 204.69C550.512 204.358 551.023 204.177 551.55 204.177C552.077 204.177 552.588 204.358 552.998 204.69C553.408 205.022 553.691 205.484 553.8 206Z" fill="#F7C600" stroke="black" stroke-width="0.8"/>
  <path d="M537.6 260L550 241.8L562.4 260" stroke="#F7C600" stroke-width="1.7"/>
  <path fill-rule="evenodd" clip-rule="evenodd" d="M552.4 253.2C552.474 253.563 552.466 253.938 552.377 254.298C552.288 254.657 552.12 254.993 551.886 255.28C551.651 255.566 551.356 255.798 551.021 255.956C550.687 256.115 550.321 256.197 549.95 256.197C549.58 256.197 549.214 256.115 548.879 255.956C548.544 255.798 548.249 255.566 548.015 255.28C547.78 254.993 547.612 254.657 547.523 254.298C547.434 253.938 547.426 253.563 547.5 253.2C547.5 252.537 547.764 251.901 548.232 251.432C548.701 250.963 549.337 250.7 550 250.7C550.663 250.7 551.299 250.963 551.768 251.432C552.237 251.901 552.5 252.537 552.5 253.2H552.4Z" fill="#F7C600" stroke="black" stroke-width="0.8"/>
  <path fill-rule="evenodd" clip-rule="evenodd" d="M540 273.3H559C559 273.3 559.4 270.9 557 269.3C567.1 268 564.5 259.2 572.9 258.7C574.5 258.9 568.5 262.4 568.5 262.4C568.5 262.4 563.5 266 565.7 267.8C567.6 269.3 568.4 266.9 568.7 265.2C569 263.5 576.7 262.3 575.7 257.2C573.7 253.2 562.7 260 562.7 260H555C554.5 259.1 552.3 255.6 550 255.6C547.4 255.6 545.6 260 545.6 260H527.8C527.8 260 527.2 264.6 536.2 265.5C537.503 267.357 539.357 268.756 541.5 269.5C540.4 270.5 540 271.7 540 273.3Z" fill="#F7C600" stroke="black" stroke-width="0.8"/>
  <path d="M541.3 269.4H557.3M534 260C534 260 535.3 267.4 541.2 269.2" stroke="black" stroke-width="0.8"/>
  <path fill-rule="evenodd" clip-rule="evenodd" d="M532.982 259.886C533.643 257.109 534.701 256.58 535.891 253.009C536.024 249.439 532.982 249.835 533.908 247.587C535.495 245.074 534.701 242.826 531.792 240.975C532.321 244.149 527.824 247.19 527.824 249.835C527.824 252.48 530.205 251.951 529.94 255.919C529.94 258.299 529.279 257.638 529.147 259.886H533.114H532.982Z" fill="url(#paint8_linear_10_18256)" stroke="black" stroke-width="0.7935"/>
  <path fill-rule="evenodd" clip-rule="evenodd" d="M552.2 242.3C552.271 242.635 552.267 242.982 552.187 243.315C552.107 243.648 551.953 243.959 551.737 244.225C551.522 244.491 551.249 244.706 550.94 244.853C550.631 245.001 550.293 245.077 549.95 245.077C549.608 245.077 549.27 245.001 548.96 244.853C548.651 244.706 548.379 244.491 548.163 244.225C547.948 243.959 547.794 243.648 547.714 243.315C547.634 242.982 547.629 242.635 547.7 242.3C547.81 241.784 548.093 241.322 548.502 240.99C548.912 240.658 549.423 240.477 549.95 240.477C550.478 240.477 550.989 240.658 551.398 240.99C551.808 241.322 552.091 241.784 552.2 242.3Z" fill="#F7C600" stroke="black" stroke-width="0.8"/>
  <path d="M539.2 367.3L551.5 349.1L563.9 367.3" stroke="#F7C600" stroke-width="1.3"/>
  <path fill-rule="evenodd" clip-rule="evenodd" d="M554 360.5C554.074 360.863 554.066 361.238 553.977 361.598C553.888 361.957 553.72 362.293 553.485 362.58C553.251 362.867 552.956 363.098 552.621 363.256C552.286 363.415 551.92 363.498 551.55 363.498C551.179 363.498 550.813 363.415 550.479 363.256C550.144 363.098 549.849 362.867 549.614 362.58C549.38 362.293 549.212 361.957 549.123 361.598C549.034 361.238 549.026 360.863 549.1 360.5C549.215 359.935 549.521 359.427 549.968 359.062C550.414 358.697 550.973 358.498 551.55 358.498C552.126 358.498 552.685 358.697 553.132 359.062C553.578 359.427 553.885 359.935 554 360.5Z" fill="#F7C600" stroke="black" stroke-width="0.8"/>
  <path fill-rule="evenodd" clip-rule="evenodd" d="M541.5 380.7H560.6C560.6 380.7 560.9 378.2 558.6 376.7C568.6 375.4 566.1 366.5 574.5 366C576.1 366.3 570.1 369.8 570.1 369.8C570.1 369.8 565.1 373.3 567.3 375.2C569.2 376.6 570 374.2 570.2 372.5C570.5 370.8 578.4 369.6 577.2 364.6C575.3 360.5 564.3 367.4 564.3 367.4H556.4C556 366.4 553.8 362.9 551.5 362.9C548.9 363 547 367.4 547 367.4H529.2C529.2 367.4 528.6 372 537.6 372.8C539.6 375.5 541.2 376.2 543 376.9C541.8 377.9 541.5 379.1 541.5 380.7Z" fill="#F7C600" stroke="black" stroke-width="0.8"/>
  <path d="M542.9 376.8H558.9M535.6 367.4C535.6 367.4 536.9 374.8 542.7 376.6" stroke="black" stroke-width="0.8"/>
  <path fill-rule="evenodd" clip-rule="evenodd" d="M534.585 367.353C535.201 364.479 536.227 363.965 537.459 360.373C537.664 356.78 534.585 357.293 535.406 354.932C537.048 352.469 536.227 350.108 533.353 348.26C533.866 351.545 529.452 354.522 529.452 357.191C529.452 359.859 531.71 359.244 531.505 363.35C531.608 365.608 530.889 365.095 530.684 367.353H534.585Z" fill="url(#paint9_linear_10_18256)" stroke="black" stroke-width="0.8212"/>
  <path fill-rule="evenodd" clip-rule="evenodd" d="M553.8 349.6C553.871 349.935 553.866 350.282 553.786 350.615C553.706 350.948 553.553 351.259 553.337 351.525C553.121 351.791 552.849 352.006 552.54 352.153C552.231 352.3 551.893 352.377 551.55 352.377C551.207 352.377 550.869 352.3 550.56 352.153C550.251 352.006 549.979 351.791 549.763 351.525C549.547 351.259 549.394 350.948 549.314 350.615C549.234 350.282 549.229 349.935 549.3 349.6C549.409 349.084 549.692 348.622 550.102 348.29C550.512 347.958 551.023 347.777 551.55 347.777C552.077 347.777 552.588 347.958 552.998 348.29C553.408 348.622 553.691 349.084 553.8 349.6Z" fill="#F7C600" stroke="black" stroke-width="0.8"/>
  <path d="M539 331.4L551.3 313.2L563.7 331.4" stroke="#F7C600" stroke-width="1.7"/>
  <path fill-rule="evenodd" clip-rule="evenodd" d="M553.8 324.6C553.873 324.963 553.865 325.338 553.776 325.698C553.688 326.057 553.52 326.393 553.285 326.68C553.051 326.967 552.756 327.198 552.421 327.357C552.086 327.515 551.72 327.598 551.35 327.598C550.979 327.598 550.613 327.515 550.278 327.357C549.944 327.198 549.648 326.967 549.414 326.68C549.179 326.393 549.012 326.057 548.923 325.698C548.834 325.338 548.826 324.963 548.9 324.6C548.9 323.937 549.163 323.301 549.632 322.832C550.101 322.363 550.737 322.1 551.4 322.1C552.063 322.1 552.699 322.363 553.167 322.832C553.636 323.301 553.9 323.937 553.9 324.6H553.8Z" fill="#F7C600" stroke="black" stroke-width="0.8"/>
  <path fill-rule="evenodd" clip-rule="evenodd" d="M541.3 344.8H560.401C560.401 344.8 560.701 342.3 558.401 340.8C568.401 339.4 565.9 330.6 574.3 330.1C575.9 330.3 569.901 333.9 569.901 333.9C569.901 333.9 564.9 337.4 567.1 339.2C569 340.7 569.8 338.4 570.1 336.6C570.3 334.9 578.1 333.7 577.1 328.7C575.1 324.6 564.1 331.5 564.1 331.5H556.201C555.801 330.5 553.6 327 551.3 327C548.7 327 546.8 331.5 546.8 331.5H529C529 331.5 528.401 336 537.401 336.9C539.401 339.6 541.1 340.3 542.8 341C541.6 342 541.3 343.2 541.3 344.8Z" fill="#F7C600" stroke="black" stroke-width="0.8"/>
  <path d="M542.7 340.9H558.7M535.4 331.5C535.4 331.5 536.7 338.9 542.6 340.7" stroke="black" stroke-width="0.8"/>
  <path fill-rule="evenodd" clip-rule="evenodd" d="M534.381 331.286C535.043 328.509 536.101 327.98 537.291 324.409C537.423 320.839 534.381 321.235 535.307 318.987C536.894 316.474 536.101 314.226 533.191 312.375C533.72 315.549 529.224 318.59 529.224 321.235C529.224 323.88 531.604 323.351 531.34 327.319C531.34 329.699 530.678 329.038 530.546 331.286H534.514H534.381Z" fill="url(#paint10_linear_10_18256)" stroke="black" stroke-width="0.7935"/>
  <path fill-rule="evenodd" clip-rule="evenodd" d="M553.6 313.7C553.671 314.035 553.666 314.382 553.586 314.715C553.506 315.048 553.352 315.359 553.137 315.625C552.921 315.891 552.649 316.106 552.34 316.253C552.031 316.4 551.692 316.477 551.35 316.477C551.007 316.477 550.669 316.4 550.36 316.253C550.051 316.106 549.778 315.891 549.563 315.625C549.347 315.359 549.194 315.048 549.114 314.715C549.033 314.382 549.029 314.035 549.1 313.7C549.209 313.184 549.492 312.722 549.902 312.39C550.312 312.058 550.823 311.877 551.35 311.877C551.877 311.877 552.388 312.058 552.798 312.39C553.207 312.722 553.49 313.184 553.6 313.7Z" fill="#F7C600" stroke="black" stroke-width="0.8"/>
  <path d="M434.7 298L447 279.9L459.4 298" stroke="#F7C600" stroke-width="1.7"/>
  <path fill-rule="evenodd" clip-rule="evenodd" d="M449.5 291.2C449.574 291.563 449.566 291.938 449.477 292.298C449.388 292.657 449.22 292.993 448.985 293.28C448.751 293.567 448.456 293.798 448.121 293.956C447.786 294.115 447.42 294.198 447.05 294.198C446.679 294.198 446.313 294.115 445.979 293.956C445.644 293.798 445.349 293.567 445.114 293.28C444.88 292.993 444.712 292.657 444.623 292.298C444.534 291.938 444.526 291.563 444.6 291.2C444.715 290.635 445.021 290.127 445.468 289.762C445.914 289.397 446.473 289.198 447.05 289.198C447.626 289.198 448.185 289.397 448.632 289.762C449.078 290.127 449.385 290.635 449.5 291.2Z" fill="#F7C600" stroke="black" stroke-width="0.8"/>
  <path fill-rule="evenodd" clip-rule="evenodd" d="M437 311.4H456.1C456.1 311.4 456.4 309 454.1 307.4C464.1 306.1 461.6 297.2 470 296.7C471.6 297 465.6 300.5 465.6 300.5C465.6 300.5 460.6 304.1 462.8 305.9C464.6 307.3 465.4 304.9 465.7 303.2C466 301.5 473.8 300.4 472.7 295.3C470.8 291.3 459.8 298.1 459.8 298.1H452C451.5 297.1 449.4 293.6 447.1 293.6C444.5 293.7 442.6 298.1 442.6 298.1H424.8C424.8 298.1 424.2 302.7 433.2 303.5C434.514 305.411 436.407 306.849 438.6 307.6C437.4 308.6 437.1 309.8 437.1 311.4H437Z" fill="#F7C600" stroke="black" stroke-width="0.8"/>
  <path d="M438.4 307.5H454.4M431 298C431 298 432.2 305.5 438.1 307.2" stroke="black" stroke-width="0.8"/>
  <path fill-rule="evenodd" clip-rule="evenodd" d="M430.082 297.986C430.743 295.209 431.801 294.68 432.991 291.109C433.123 287.538 430.082 287.935 431.007 285.687C432.594 283.174 431.801 280.926 428.891 279.074C429.42 282.248 424.924 285.29 424.924 287.935C424.924 290.58 427.304 290.051 427.04 294.019C427.04 296.399 426.379 295.738 426.246 297.986H430.214H430.082Z" fill="url(#paint11_linear_10_18256)" stroke="black" stroke-width="0.7935"/>
  <path fill-rule="evenodd" clip-rule="evenodd" d="M449.3 280.3C449.371 280.635 449.366 280.982 449.286 281.315C449.206 281.648 449.053 281.959 448.837 282.225C448.621 282.491 448.349 282.706 448.04 282.853C447.731 283.001 447.393 283.077 447.05 283.077C446.707 283.077 446.369 283.001 446.06 282.853C445.751 282.706 445.479 282.491 445.263 282.225C445.047 281.959 444.894 281.648 444.814 281.315C444.734 280.982 444.729 280.635 444.8 280.3C444.909 279.784 445.192 279.322 445.602 278.99C446.012 278.658 446.523 278.477 447.05 278.477C447.577 278.477 448.088 278.658 448.498 278.99C448.908 279.322 449.191 279.784 449.3 280.3Z" fill="#F7C600" stroke="black" stroke-width="0.8"/>
  <path fill-rule="evenodd" clip-rule="evenodd" d="M500.7 384.2C500.7 384.2 505.7 395.7 511.4 388.6C517.1 381.5 515 378.5 515 378.5L502.3 371.5L498.5 379.5L500.7 384.2Z" fill="#F7C600" stroke="black" stroke-width="0.8"/>
  <path fill-rule="evenodd" clip-rule="evenodd" d="M511.7 382.6C511.7 382.6 512.5 382.8 513.2 381.6C513.9 380.4 511.7 379.7 510.7 378.3L509.7 380.6L511.7 382.6ZM482.8 379.6L471.6 385.7C471.6 385.7 466 386.8 465.6 385.7C465.2 384.6 465.8 383.7 468.6 383.5C471.6 383.3 479.5 376.1 479.5 376.1L482.8 379.6ZM483 179.9L483.4 183.9C483.5 185.3 481.2 188.3 481 188.1C480.8 187.9 479.8 188.3 480 189.1C480.2 189.9 481.7 190.2 481.7 190.2C481.7 190.2 481 193.2 481.7 193.2C482.4 193.4 479.9 197 481.7 198C483.5 199 486.6 200.2 488 200C489.4 199.6 488 205.3 488 205.3L484 213.6L505.5 211.4L501 204.4C501 204.4 499 203 499.5 198.9C500.1 194.9 499.2 176.7 499.2 176.7L484 174.7L483 179.9ZM479 211.6C479 211.6 472.1 214.8 472.4 223.4C470.6 231.7 469.7 240 469.7 240C469.7 240 461.5 249.3 459 252.6C456.5 255.9 452.7 262.8 451.3 264.6C449.9 266.4 444.5 272.3 444.7 274.6C444.8 276.8 443.4 286.6 448.8 287.7C450.2 288.3 454.7 276.4 454.7 276.4C454.7 276.4 454.9 271.2 453.4 270.3C451.9 269.4 456.7 266 456.7 266L468.1 257.5C470.2 255.8 475.9 249.5 475.9 249.5L479.1 211.5L479 211.6Z" fill="#FFC6B5" stroke="black" stroke-width="0.8"/>
  <path fill-rule="evenodd" clip-rule="evenodd" d="M487 205C487 205 488.8 209.9 492.8 209C496.8 208.2 501.6 204.5 501.6 204.5C501.6 204.5 505.3 204.4 505.9 204.9C506.4 205.5 516 214.8 515.7 217.7C515.4 220.6 511.3 219.7 509.7 221.7C508.1 223.7 505.7 228.5 506.4 232.1C507.1 235.7 509.2 240.4 508.9 242.2C508.6 244 507.1 244.6 507.1 245.6C507.1 246.6 508.4 248.2 508.4 250C508.4 251.8 506.7 254.4 507 256.3C507.3 258 507.4 263.3 507.4 263.3L507 287.7C507 287.7 508.4 288.6 508.5 290C508.6 291.4 517.9 331.7 517.9 331.7C517.9 331.7 517.5 333 516.5 332.8C515.5 332.6 520.3 339.1 520.5 340.8C520.7 342.5 525.3 356.8 525.2 358.8C525 360.8 524.3 365 523.9 365.2C523.5 365.3 526.9 374.1 526.4 375.4C525.8 376.8 520.2 376.7 520.2 376.7L518.6 376.4C518.6 376.4 518.8 378.2 517.6 378.4C516.4 378.6 508.4 377.9 508.4 377.9C508.4 377.9 506 381.5 504.6 381.4C503.2 381.3 501.4 378.8 501 379.2C500.6 379.6 502.3 382 501.8 382.7C501.4 383.4 494.3 384.9 493 381.5C491.6 378.2 493.8 379 493.4 378.3C493 377.7 489.8 375.9 488.8 376.4C487.8 376.9 491.3 377.8 491.2 379.2C491 380.6 488.2 382.7 487 382.7C485.8 382.7 483.2 377.5 479.4 378.1C475.4 378.6 473 379.6 473 379.6C473 379.6 468.4 381.6 466.5 381.1C464.5 380.7 463.7 379.1 463.7 378.3C463.7 377.5 465.1 373.9 464.9 372.8C464.7 371.7 463.7 370.6 463.7 368.9C463.7 367.3 466.9 361.6 466.9 361.6L466.7 336C466.7 336 463.8 336 463.7 334.2C463.6 332.4 468.1 293.8 468.8 291.3C469.5 288.8 471.3 280 471.3 280C471.3 280 469.3 281 469.1 280C468.9 279 475.3 257 475.3 257C475.3 257 476.4 246 476.4 243C476.4 240.1 475.9 236.1 475.9 236.1C475.9 236.1 470.2 233.7 470.1 230.1C469.5 224.1 475.5 220.9 476.1 218.9L478.9 211.1C478.9 211.1 482 205.9 487 205.1V205Z" fill="white" stroke="black" stroke-width="0.8"/>
  <path fill-rule="evenodd" clip-rule="evenodd" d="M485 381.3C485 381.3 471.5 388.3 469.5 388.9C467.5 389.5 466.3 386.5 468.3 385.9C470.3 385.4 473.3 385.1 473.3 385.1C473.3 385.1 468.7 381.5 468.8 381.4L475.2 379C475.3 379 477.2 382.6 478.4 382.4C479.6 382.2 483.3 379.4 483.3 379.4L484.9 381.3H485Z" fill="#F7C600" stroke="black" stroke-width="0.8"/>
  <path fill-rule="evenodd" clip-rule="evenodd" d="M503.9 385.1C505.2 386.8 505.7 389.6 508.6 388C511.5 386.4 507.1 383.2 507.1 383.2L503.9 385.2V385.1ZM509.2 384.9C509.2 384.9 510.6 385.9 511.8 384.7C513 383.5 509.3 380.8 509.3 380.8L507.5 382.9L509.2 384.9Z" fill="#FFC6B5" stroke="black" stroke-width="0.8"/>
  <path d="M505 210.5C505 210.5 492.7 218.4 493 221.1M507.8 211.8L505 215M511.7 215.3C511.7 215.3 505.6 220.3 506.5 223.5M482.8 209.9C482.8 209.9 481 213.6 481.4 214.9C481.8 216.1 484.9 220.9 485.3 223.7C485.7 226.7 485.3 228.7 485.3 228.7M479.6 216.8C479.6 216.8 480.2 221.2 481 222.1C481.8 222.9 484 226.7 484.3 228.1M478.5 235.3C478.5 235.3 482.1 237.1 485.5 230.1M490.8 225.3C490.7 225.3 488.2 232.1 492.6 234.6C497 237.1 500.4 236.8 502.4 236.1C504.3 235.4 506.4 234.1 506.4 234.1M488.9 233.6C488.9 233.6 489.2 242.8 502.7 251.8M489.5 242.2C489.5 242.2 489.3 250.2 494.6 253.9M486.6 232.8C486.6 232.8 482.6 244.7 479.5 245.9M485.5 241.5C485.5 241.5 485.3 250.1 484.2 253.2M483.1 255.2C483.1 255.2 485.9 258.7 488.9 258.4C491.9 258.2 493.2 254.5 495.3 255.1C497.3 255.7 499.3 257.3 504.2 256.9M497.2 260.5C497.2 260.5 497.2 267.5 498.5 268.3C499.8 269.1 499.2 275.5 499.2 275.5M480.2 257C480.2 257 480.1 263.6 479.2 266C478.4 268.4 476.7 272.4 477 275.8M471.7 279.8C472.4 279.5 474.7 277.4 474.7 277.4M476 278.9C476 278.9 470 304.4 471.7 319.7M477.4 280.2C477.4 280.2 474.4 299.3 475.8 302.9M475.9 279.6L487.6 280.4M489.2 278.9C489.2 278.9 492.4 280.6 496.8 280.3M487.8 288.2C487.8 288.2 487.3 320.9 486.4 328.2M504.9 295.7C504.9 295.7 508.5 324.4 510.6 327M498 299.4C498 299.4 500.2 324.8 501.4 327M466.4 335.9C466.4 335.9 470.8 334.5 474.7 330.3C479.1 336.3 485.9 330.6 485.9 330.6C485.9 330.6 496.4 337.8 501.2 329.8C508.4 334.5 512 329.1 512 329.1C512 329.1 514.6 333.1 516.6 332.7M505 335.5C505 335.5 510.5 360.9 518.5 368.1M477.2 332.8C477.2 332.8 477.9 354.1 479.1 369M476.1 356.8C476.1 356.8 475.5 370.8 474.7 371.7M468 373C468 373 469.5 379 477.2 373.4C484.9 367.8 484.9 375.4 485.2 376.4C485.5 377.1 486.7 383.1 489.6 378.1M495.7 369.9C495.7 369.9 494.5 382.3 505.5 373.2C516.5 364.2 518.2 373.2 518.5 375.9" stroke="black" stroke-width="0.8"/>
  <path fill-rule="evenodd" clip-rule="evenodd" d="M482.6 179.1C482.6 179.1 485.6 179.5 487.3 178.5C488.9 177.5 490.9 177.1 492.3 179.1C493.7 181.1 494.6 180.9 494.6 180.9C494.6 180.9 492.6 186 494.6 186.6C496.7 187.2 497.6 187.2 497.8 187.8C498 188.5 496 190.1 496.6 190.8C497.1 191.4 498.1 192.3 498.2 192.8C498.4 193.4 497 195.8 497.4 196.3C497.8 196.9 499.1 199.1 499.9 199.1C500.7 199.1 500.2 202.6 502.7 201.7C505.2 200.8 505 198.7 505 198.7C505 198.7 507.7 198.3 508.4 195.9C509.1 193.5 510.7 192.9 510.7 192.9C510.7 192.9 514.1 191.2 509.7 188.4C509.7 169 496.9 171 496.9 171C496.9 171 495.3 167.6 492.9 168C490.3 168.4 490.2 171.3 488.4 171C486.6 170.8 486.2 169.5 486 169.7C485.9 169.8 484.4 172.6 484.4 173.3C484.4 174 479.5 172.3 479.9 175.9C480.3 179.5 482.7 179.4 482.6 179.1Z" fill="#9C5100" stroke="black" stroke-width="0.8"/>
  <path d="M495.901 174.4C495.901 174.4 494.901 180.4 501.401 179.9C500.601 183.3 503.101 184.4 503.101 184.4M507.901 188.1C508.101 188.1 510.901 189.9 507.901 192.1M498.501 193C498.501 193 499.901 194.6 501.501 194.2C503.001 193.8 505.501 195.8 505.501 195.8C505.501 195.8 507.501 196.5 507.801 196M490.101 198.3C490.101 198.3 494.801 200.1 497.801 192.6M481.301 190.3L484.101 190.5" stroke="black" stroke-width="0.8"/>
  <path d="M481.7 193.1H484.2L482 194.1" stroke="black" stroke-width="0.8" stroke-linejoin="round"/>
  <path d="M485.2 185.3C485.6 185.3 487.2 184.8 487.4 185.3C487.7 185.6 485.8 185.9 485.2 185.3Z" stroke="black" stroke-width="1.4" stroke-linejoin="round"/>
  <path fill-rule="evenodd" clip-rule="evenodd" d="M515.2 218.3C515.3 218.3 519.7 232 520.3 235.5C521.423 241.872 521.992 248.33 522 254.8C521.3 256.8 514.2 266 513.4 268.4C512.5 270.8 507.5 279.8 507.5 279.8C507.5 279.8 506.3 288.7 505.7 289.1C505.2 289.5 507.2 291.7 507 292.4C506.7 293.2 503 297.1 501.3 296.7C499.6 296.3 497 294.3 496.9 292.5C496.8 290.7 496.9 284.8 498.2 283.2C499.5 281.6 506 266.3 506.4 265.3C506.8 264.3 512.4 252.3 512.5 250.3C512.7 248.1 510.8 243.3 508.8 241.6C504.5 228.7 506.2 221 515.2 218.3Z" fill="#FFC6B5" stroke="black" stroke-width="0.8"/>
  <path d="M450.501 277.8L450.701 283.9M444.801 277.4C444.801 277.4 448.801 283.9 448.401 287.4" stroke="black" stroke-width="0.8"/>
  <path d="M497 291C497 291 500 290.7 499.9 295.6C501.8 289.6 505.6 289.4 505.6 289.4" stroke="black" stroke-width="0.8" stroke-linejoin="round"/>
  <path fill-rule="evenodd" clip-rule="evenodd" d="M487.1 430C545.7 428.3 583.6 386 583.1 385.6C582.7 385.2 590.9 373.8 597.4 375.4C603.9 377 613.3 396.2 624.7 400.2C630.4 409.2 623 417.3 620.6 419C618.1 420.6 607.2 425 605.6 418.6C603.9 412 600.6 413.3 600.6 413.3C600.6 413.3 548.6 464.1 488.3 462.1C426.1 462.5 374.8 413.3 374.8 413.3L370.3 418.1C370.3 418.1 365.4 423.4 363 423.1C360.6 422.6 350 415.7 349.2 408.8C348.4 401.8 355.7 397.4 355.7 397.4C355.7 397.4 373.6 383.6 375.7 376.2C379.7 372.2 387.4 379.1 387.4 379.1C387.4 379.1 434.6 433.2 487.1 429.9V430Z" fill="#F7C600" stroke="black" stroke-width="1.7"/>
  <path d="M354.5 398.5C354.5 398.5 359.3 397.2 361.1 399.2C362.9 401.2 375.1 413.2 375.1 413.2" stroke="black" stroke-width="1.7"/>
  <path d="M365.5 404.1L360.7 407.7C360.7 407.7 372.9 410.2 370.1 418.2M620.3 398C620.3 398 617.9 396.7 614.1 399.5C609.364 403.76 604.89 408.302 600.7 413.1" stroke="black" stroke-width="1.7"/>
  <path d="M609.4 403.8L614.7 407.8C614.7 407.8 603.7 408.6 606.1 419" stroke="black" stroke-width="1.7"/>
  <path d="M416.5 411.4L416.1 411.9C415.318 411.536 414.431 411.465 413.6 411.7C412.9 411.9 411.6 412.5 409.7 413.7L393.6 423L393.2 422.7L397.2 403.9C397.7 401.6 397.9 400.2 397.9 399.7C397.9 399.2 397.5 398.7 396.9 398.1L397.2 397.6L405.9 403.8L405.6 404.3L405.3 404.1C404.5 403.6 403.9 403.3 403.5 403.3C403.352 403.269 403.198 403.281 403.057 403.334C402.915 403.387 402.792 403.48 402.7 403.6C402.564 403.816 402.462 404.052 402.4 404.3L401.9 406.6L399.3 418.3L408.6 412.9C409.356 412.471 410.091 412.003 410.8 411.5L411.6 410.7C411.8 410.5 411.9 410.2 411.9 409.9L411.6 408.9C411.218 408.384 410.743 407.943 410.2 407.6L410.6 407.1L416.5 411.4ZM422.3 439.4L422 439.9L411.8 434.3L412.1 433.8L412.7 434.2C413.3 434.5 413.8 434.6 414.3 434.6C414.6 434.6 414.9 434.5 415.3 434.2L416.3 432.5L423.3 419.7C423.9 418.7 424.3 418 424.3 417.7C424.315 417.343 424.209 416.991 424 416.7C423.696 416.267 423.281 415.922 422.8 415.7L422.2 415.3L422.5 414.8L432.7 420.4L432.4 420.9L431.7 420.6C431.254 420.302 430.736 420.13 430.2 420.1C429.9 420.1 429.6 420.2 429.2 420.5C428.751 421.009 428.38 421.582 428.1 422.2L421.1 435.1C420.666 435.711 420.329 436.386 420.1 437.1C420.1 437.4 420.3 437.7 420.5 438.1C420.7 438.4 421.1 438.8 421.6 439.1L422.3 439.4ZM459.6 430.6L457 438L456.4 437.8C456.484 435.793 455.961 433.806 454.9 432.1C453.965 430.614 452.556 429.486 450.9 428.9C449.513 428.387 447.988 428.387 446.6 428.9C445.162 429.481 443.939 430.495 443.1 431.8C442.098 433.219 441.291 434.766 440.7 436.4C440 438.4 439.6 440.2 439.5 441.9C439.4 443.6 439.8 445 440.6 446.1C441.464 447.226 442.65 448.063 444 448.5C444.519 448.684 445.055 448.818 445.6 448.9L447.4 449L449 444.6L449.4 443C449.4 442.7 449.2 442.4 448.9 442C448.565 441.67 448.153 441.429 447.7 441.3L447.2 441.1L447.4 440.5L457.6 444.2L457.4 444.8C456.6 444.5 456 444.4 455.6 444.5C455.3 444.5 454.9 444.7 454.6 445L454 446.4L452.4 450.8C450.9 450.9 449.4 450.8 447.8 450.6C446.203 450.433 444.627 450.098 443.1 449.6C441.374 449.013 439.777 448.096 438.4 446.9C437.332 445.949 436.421 444.835 435.7 443.6C435.023 442.394 434.582 441.071 434.4 439.7C434.195 437.977 434.401 436.229 435 434.6C435.504 433.098 436.316 431.718 437.384 430.547C438.451 429.376 439.751 428.44 441.2 427.8C442.68 427.106 444.286 426.721 445.919 426.669C447.553 426.618 449.18 426.901 450.7 427.5C451.7 427.8 452.7 428.3 453.5 428.7L455.5 430.2C455.961 430.647 456.463 431.049 457 431.4H458C458.408 431.151 458.751 430.808 459 430.4L459.6 430.6ZM475.3 455.9V456.5L463.7 454.7L463.8 454.1L464.6 454.2C465.124 454.345 465.677 454.345 466.2 454.2L466.9 453.5C467.1 453.2 467.2 452.5 467.4 451.5L469.6 437C469.8 435.8 469.8 435.1 469.7 434.8C469.591 434.476 469.381 434.196 469.1 434C468.8 433.7 468.3 433.5 467.7 433.4H467V432.7L478.6 434.5L478.5 435.1L477.8 435C477.277 434.855 476.724 434.855 476.2 435L475.4 435.7C475.136 436.338 474.967 437.012 474.9 437.7L472.7 452.2C472.556 452.924 472.522 453.666 472.6 454.4C472.6 454.7 472.9 455 473.2 455.2C473.5 455.5 474 455.7 474.6 455.8H475.3M505.3 448.6L504.8 456.5L485 457.5V456.9H485.7C486.27 456.889 486.825 456.715 487.3 456.4C487.6 456.2 487.8 456 487.9 455.6V453.6L487.2 438.9C487.203 438.189 487.102 437.482 486.9 436.8C486.8 436.5 486.5 436.3 486.2 436.1C485.8 435.9 485.2 435.8 484.7 435.8H483.9V435.2L495.8 434.6V435.2L494.8 435.3C494.274 435.299 493.756 435.437 493.3 435.7C493 435.9 492.8 436.2 492.7 436.5C492.5 436.8 492.5 437.5 492.6 438.6L493.3 452.8C493.3 453.9 493.5 454.6 493.6 455C493.8 455.3 494 455.5 494.4 455.6H498.3C499.317 455.572 500.312 455.297 501.2 454.8C502.03 454.319 502.719 453.63 503.2 452.8C503.6 451.8 504.2 450.4 504.6 448.7H505.2M526.8 444.9L519.3 447.1L519 449.5V451.3C519.3 451.9 519.6 452.3 520.2 452.4C520.5 452.5 521.2 452.4 522.4 452.2L522.6 452.8L515.5 454.8L515.3 454.3C515.989 453.997 516.553 453.468 516.9 452.8C517.3 452.1 517.5 450.8 517.8 449L520.3 429.7H520.6L533.6 444.8C534.8 446.3 535.6 447.1 536.3 447.4C536.7 447.6 537.3 447.7 538 447.5L538.1 448.1L527.8 451.2L527.6 450.6L528.1 450.5C528.9 450.2 529.5 450 529.7 449.6C529.778 449.484 529.827 449.351 529.845 449.212C529.862 449.073 529.847 448.932 529.8 448.8C529.766 448.591 529.698 448.388 529.6 448.2L528.8 447.2L526.8 444.9ZM525.9 443.9L520.6 437.5L519.5 445.8L525.9 443.8M554.4 414.8L557.3 420.2L556.7 420.5C556.027 419.667 555.215 418.957 554.3 418.4C553.621 418.049 552.864 417.877 552.1 417.9C551.349 418.004 550.63 418.278 550 418.7L548.5 419.5L556.7 434.6L557.8 436.4C558.1 436.6 558.4 436.7 558.8 436.7C559.3 436.7 559.8 436.6 560.3 436.3L561 435.9L561.3 436.5L551 442L550.7 441.5L551.4 441.1C551.881 440.879 552.295 440.534 552.6 440.1L552.8 439.1C552.8 438.8 552.5 438.1 552 437.1L543.8 422.1L542.4 422.8C541.1 423.5 540.3 424.3 540 425.2C539.584 426.582 539.655 428.064 540.2 429.4L539.6 429.7L536.8 424.3L554.4 414.9M567.8 406.9L573.2 414.2L573.6 413.9C574.7 413.1 575.3 412.1 575.2 411C575.1 409.9 574.7 408.6 573.8 407.1L574.3 406.8L581.3 416.1L580.9 416.5C580.17 415.673 579.287 414.994 578.3 414.5C577.659 414.151 576.925 414.011 576.2 414.1C575.5 414.1 574.8 414.5 574 415.1L577.7 420.1C578.125 420.759 578.629 421.364 579.2 421.9L580.1 422.1C580.4 422.1 580.8 421.8 581.4 421.5L582.4 420.7C583.874 419.686 584.966 418.207 585.5 416.5C585.92 414.76 585.744 412.929 585 411.3L585.5 411L589 417.2L573.6 428.8L573.3 428.3L573.9 427.9C574.4 427.5 574.7 427.1 574.9 426.7V425.7C574.66 425.053 574.323 424.446 573.9 423.9L565 412.2L563.8 410.8C563.523 410.555 563.17 410.414 562.8 410.4C562.3 410.4 561.8 410.7 561.2 411.1L560.6 411.5L560.2 411.1L575.1 399.8L579.1 405.1L578.5 405.5C577.642 404.595 576.579 403.909 575.4 403.5C574.435 403.278 573.426 403.348 572.5 403.7C571.9 403.9 570.9 404.6 569.5 405.6L567.8 407" fill="black"/>
  </g>
  </g>
  <defs>
  <linearGradient id="paint0_linear_10_18256" x1="278.997" y1="393.949" x2="269.213" y2="392.521" gradientUnits="userSpaceOnUse">
  <stop stop-color="#FF0000"/>
  <stop offset="1" stop-color="#FFFF00"/>
  </linearGradient>
  <linearGradient id="paint1_linear_10_18256" x1="278.397" y1="357.872" x2="268.613" y2="356.443" gradientUnits="userSpaceOnUse">
  <stop stop-color="#FF0000"/>
  <stop offset="1" stop-color="#FFFF00"/>
  </linearGradient>
  <linearGradient id="paint2_linear_10_18256" x1="405.033" y1="325.03" x2="395.249" y2="323.601" gradientUnits="userSpaceOnUse">
  <stop stop-color="#FF0000"/>
  <stop offset="1" stop-color="#FFFF00"/>
  </linearGradient>
  <linearGradient id="paint3_linear_10_18256" x1="281.397" y1="290.052" x2="271.613" y2="288.623" gradientUnits="userSpaceOnUse">
  <stop stop-color="#FF0000"/>
  <stop offset="1" stop-color="#FFFF00"/>
  </linearGradient>
  <linearGradient id="paint4_linear_10_18256" x1="281.565" y1="255.51" x2="271.781" y2="254.081" gradientUnits="userSpaceOnUse">
  <stop stop-color="#FF0000"/>
  <stop offset="1" stop-color="#FFFF00"/>
  </linearGradient>
  <linearGradient id="paint5_linear_10_18256" x1="282.265" y1="220.633" x2="272.481" y2="219.204" gradientUnits="userSpaceOnUse">
  <stop stop-color="#FF0000"/>
  <stop offset="1" stop-color="#FFFF00"/>
  </linearGradient>
  <linearGradient id="paint6_linear_10_18256" x1="406.033" y1="221.1" x2="396.249" y2="219.672" gradientUnits="userSpaceOnUse">
  <stop stop-color="#FF0000"/>
  <stop offset="1" stop-color="#FFFF00"/>
  </linearGradient>
  <linearGradient id="paint7_linear_10_18256" x1="404.932" y1="255.41" x2="395.148" y2="253.982" gradientUnits="userSpaceOnUse">
  <stop stop-color="#FF0000"/>
  <stop offset="1" stop-color="#FFFF00"/>
  </linearGradient>
  <linearGradient id="paint8_linear_10_18256" x1="403.333" y1="290.652" x2="393.549" y2="289.224" gradientUnits="userSpaceOnUse">
  <stop stop-color="#FF0000"/>
  <stop offset="1" stop-color="#FFFF00"/>
  </linearGradient>
  <linearGradient id="paint9_linear_10_18256" x1="404.914" y1="394.371" x2="395.13" y2="392.942" gradientUnits="userSpaceOnUse">
  <stop stop-color="#FF0000"/>
  <stop offset="1" stop-color="#FFFF00"/>
  </linearGradient>
  <linearGradient id="paint10_linear_10_18256" x1="404.732" y1="359.539" x2="394.948" y2="358.111" gradientUnits="userSpaceOnUse">
  <stop stop-color="#FF0000"/>
  <stop offset="1" stop-color="#FFFF00"/>
  </linearGradient>
  <linearGradient id="paint11_linear_10_18256" x1="304.003" y1="327.43" x2="294.219" y2="326.001" gradientUnits="userSpaceOnUse">
  <stop stop-color="#FF0000"/>
  <stop offset="1" stop-color="#FFFF00"/>
  </linearGradient>
  <clipPath id="clip0_10_18256">
  <rect width="640" height="480" fill="white"/>
  </clipPath>
  </defs>
  </svg>
