<svg id="flag-icons-zw" viewBox="0 0 640 480" xmlns="http://www.w3.org/2000/svg">
  <g clip-path="url(#clip0_10_18931)">
  <mask id="mask0_10_18931" style="mask-type:luminance" maskUnits="userSpaceOnUse" x="-1" y="0" width="641" height="481">
  <path d="M639.948 0.0141602H-0.0732422V480.02H639.948V0.0141602Z" fill="white"/>
  </mask>
  <g mask="url(#mask0_10_18931)">
  <path d="M-2.30078 -0.100098H982.347V479.792H-2.30078V-0.100098Z" fill="#006400"/>
  <path d="M-2.30078 68.4558H982.347V411.236H-2.30078V68.4558Z" fill="#FFD200"/>
  <path d="M-2.30078 137.012H982.347V342.68H-2.30078V137.012Z" fill="#D40000"/>
  <path d="M-2.30078 205.568H982.347V274.124H-2.30078V205.568Z" fill="black"/>
  <path d="M-2.30078 -0.100098V479.792L325.915 239.846L-2.30078 -0.100098Z" fill="black" stroke="black" stroke-width="23.1461"/>
  <path d="M-2.30078 -0.100098V479.792L325.915 239.846L-2.30078 -0.100098Z" fill="white"/>
  <path d="M122.539 119.187L187.596 314.229L17.3926 193.685H227.802L57.4818 314.229L122.539 119.187Z" fill="#D40000"/>
  <path d="M94.7576 289.778L106.245 287.721L127.462 286.921L135.316 287.607L152.899 290.463L154.188 288.749V276.409L156.298 265.783L159.815 255.043L163.683 246.473L168.606 237.561L176.577 239.503H178.687L178.922 238.018L162.042 223.964L144.459 210.824L119.022 192.314L116.678 191.742L113.982 172.318L111.989 166.491L109.293 164.206L104.252 162.606L98.6258 162.835L96.047 164.206L90.6549 165.348L87.8416 165.805L85.9661 167.976L85.7316 170.719L93.5854 170.947L95.5781 171.747L95.3437 172.547L90.8893 173.118L88.7794 173.804L91.241 175.632L93.8198 176.546L97.102 177.689L97.8053 179.974L98.0397 209.453L96.2814 214.023L95.6953 222.593L98.2742 232.876L91.7099 240.189L87.9588 246.702L87.2555 250.701L85.2628 254.7L85.0283 257.213L86.3177 259.956L91.3582 276.181L93.937 289.549L94.7576 289.778Z" fill="#FFCC00"/>
  <path d="M100.853 162.149C98.7426 162.149 97.8049 162.378 95.8121 163.406C94.1609 164.327 92.3179 164.874 90.42 165.006C87.4895 165.006 85.1451 167.062 85.1451 169.69V171.404L89.365 171.29C101.79 171.633 90.5373 172.775 89.5995 172.89C86.5518 173.461 90.3028 175.86 93.9366 177.117C97.8049 178.26 97.5704 177.574 97.5704 194.256C97.5704 207.853 97.5704 209.796 96.3982 212.881C94.8744 217.451 94.8744 224.307 96.3982 228.877C97.1016 230.705 97.5704 232.305 97.5704 232.648C97.5704 232.876 95.6949 235.047 93.4677 237.561C89.365 242.131 86.9034 246.816 86.9034 250.129C86.7572 251.196 86.3556 252.213 85.7312 253.1C84.2074 255.043 84.2074 258.356 85.614 259.613C87.1379 260.984 93.3505 284.522 93.4677 288.978C93.4677 290.577 93.7022 290.577 103.197 288.749C110.934 287.264 129.103 286.921 138.363 288.064C142.583 288.635 147.506 289.549 149.264 289.892C154.891 291.377 154.657 291.606 154.657 284.979C154.7 274.537 156.727 264.193 160.635 254.471C162.875 248.931 165.58 243.581 168.723 238.475C168.723 238.475 170.833 238.703 173.412 239.389C178.218 240.532 179.624 240.417 179.624 238.246C179.624 237.104 174.584 232.99 149.851 214.252C139.875 206.293 129.591 198.708 119.022 191.514C118.318 191.514 117.615 191.171 117.498 190.714L115.74 179.859C114.919 174.261 113.747 168.776 113.278 167.634C111.637 164.206 108.472 162.492 103.197 162.149C102.416 162.125 101.634 162.125 100.853 162.149ZM100.97 163.292H103.314C111.051 163.749 112.457 165.805 114.567 179.288C115.137 182.855 115.606 186.437 115.974 190.029C115.974 190.943 114.919 192.085 112.223 193.799C107.787 196.833 103.837 200.491 100.501 204.654L98.9771 206.711L98.6254 201.912V188.429C98.9771 178.488 98.6254 177.574 95.3433 176.432C92.6472 175.518 89.1306 174.604 90.0684 174.032C91.2406 173.347 92.4128 173.804 95.226 173.004C96.3982 172.775 96.281 172.89 96.0466 171.976C95.8122 170.49 94.1711 169.69 89.8339 169.919C86.3173 170.147 85.9657 170.033 86.2001 169.119C86.669 167.291 88.5445 166.148 91.475 165.805C93.2691 165.603 95.0139 165.101 96.6327 164.32C97.9412 163.553 99.4432 163.158 100.97 163.178V163.292ZM118.436 192.771H118.904C120.897 193.114 178.452 236.989 178.452 238.246C178.452 238.703 177.983 239.046 177.28 239.046C176.811 239.046 162.159 235.047 144.81 230.134C117.146 222.136 113.161 220.993 111.989 219.508C111.173 218.504 110.72 217.265 110.699 215.985C110.677 214.704 111.09 213.453 111.871 212.424C112.434 211.758 112.835 210.977 113.043 210.138C113.043 208.767 110.113 212.195 109.527 214.137C108.941 216.423 110.113 220.308 111.871 221.564C112.575 222.136 117.85 223.85 123.593 225.563C133.44 228.306 134.143 228.648 134.612 230.248C135.784 234.019 131.681 238.475 125.82 239.732C123.623 240.245 121.551 241.177 119.725 242.474C113.643 247.384 106.849 251.388 99.5632 254.357C99.0943 254.7 98.5082 256.528 98.1565 258.242C97.4532 262.012 97.2188 262.584 96.0466 262.584C95.4605 262.584 95.3433 262.241 95.8121 260.984C96.6327 258.699 96.5155 255.957 95.6949 255.957C95.1088 255.957 94.8744 256.756 94.8744 258.013C94.8744 259.156 94.5227 260.527 94.0538 260.87C93.4677 261.555 93.3505 261.098 93.585 258.242C93.8194 256.299 93.7022 254.814 93.4677 254.814C92.8816 254.814 91.8267 257.671 91.475 260.184C91.2406 261.67 91.2406 261.67 90.7717 259.841C90.42 258.47 90.5372 257.556 91.5922 255.842C92.2583 254.601 92.6572 253.24 92.7644 251.843C92.7644 250.358 93.9366 248.873 99.446 243.502C102.963 239.96 107.3 235.504 108.824 233.562C111.52 230.362 111.637 230.134 111.52 226.82C111.52 224.992 111.285 223.278 111.051 223.05C110.347 222.364 109.41 226.021 109.879 227.963C110.113 229.791 109.879 230.362 106.01 234.819C103.227 237.924 100.293 240.898 97.2188 243.731C92.6472 247.844 91.0061 250.129 91.0061 252.186C91.0061 252.872 90.5372 254.471 89.8339 255.957C89.1306 257.442 88.8962 258.927 89.1306 259.27C89.3651 259.613 89.1306 259.613 88.7789 259.27C88.1928 258.699 88.1928 257.785 88.6617 255.842C88.9301 254.875 89.0096 253.867 88.8962 252.872C88.3101 251.729 87.4895 253.1 87.1379 255.957C86.9034 257.556 86.5518 258.813 86.2001 258.585C85.3796 258.128 85.614 255.157 86.669 253.557C87.2551 252.757 87.8412 250.929 88.1928 249.444C89.0134 245.216 90.8889 241.788 94.9916 237.218C96.3055 235.824 97.5571 234.375 98.7426 232.876L97.5704 229.106C95.9983 224.011 95.9171 218.589 97.336 213.452C98.8599 209.11 101.908 204.768 106.714 200.083C111.402 195.627 115.974 192.885 118.436 192.771ZM136.019 229.563C136.167 229.552 136.317 229.562 136.458 229.591C136.6 229.621 136.731 229.67 136.842 229.734C136.952 229.799 137.041 229.878 137.101 229.967C137.161 230.055 137.192 230.151 137.191 230.248C137.119 230.383 136.984 230.499 136.806 230.582C136.627 230.664 136.413 230.708 136.194 230.708C135.975 230.708 135.762 230.664 135.583 230.582C135.405 230.499 135.27 230.383 135.198 230.248C135.192 230.09 135.27 229.935 135.42 229.81C135.57 229.685 135.781 229.598 136.019 229.563ZM138.949 229.905C139.097 229.895 139.247 229.904 139.389 229.934C139.531 229.964 139.661 230.012 139.772 230.077C139.883 230.142 139.971 230.221 140.031 230.31C140.092 230.398 140.122 230.494 140.121 230.591C140.049 230.725 139.915 230.842 139.736 230.924C139.558 231.007 139.344 231.051 139.125 231.051C138.906 231.051 138.692 231.007 138.514 230.924C138.335 230.842 138.201 230.725 138.129 230.591C138.122 230.433 138.201 230.278 138.35 230.153C138.5 230.028 138.712 229.94 138.949 229.905ZM141.997 230.477C142.145 230.466 142.295 230.476 142.437 230.505C142.578 230.535 142.709 230.584 142.82 230.648C142.931 230.713 143.019 230.792 143.079 230.881C143.139 230.97 143.17 231.065 143.169 231.162C143.097 231.297 142.962 231.413 142.784 231.496C142.605 231.578 142.392 231.622 142.173 231.622C141.954 231.622 141.74 231.578 141.561 231.496C141.383 231.413 141.248 231.297 141.176 231.162C141.17 231.004 141.249 230.849 141.398 230.724C141.548 230.599 141.759 230.512 141.997 230.477ZM144.81 231.048C144.958 231.037 145.108 231.047 145.25 231.077C145.392 231.106 145.522 231.155 145.633 231.22C145.744 231.284 145.832 231.364 145.892 231.452C145.953 231.541 145.983 231.637 145.982 231.734C145.91 231.868 145.776 231.984 145.597 232.067C145.419 232.149 145.205 232.194 144.986 232.194C144.767 232.194 144.553 232.149 144.375 232.067C144.196 231.984 144.062 231.868 143.99 231.734C143.983 231.575 144.062 231.42 144.211 231.296C144.361 231.171 144.573 231.083 144.81 231.048ZM137.425 231.734C137.573 231.723 137.723 231.732 137.865 231.762C138.007 231.792 138.137 231.84 138.248 231.905C138.359 231.97 138.447 232.049 138.508 232.138C138.568 232.226 138.598 232.322 138.597 232.419C138.525 232.554 138.391 232.67 138.212 232.753C138.034 232.835 137.82 232.879 137.601 232.879C137.382 232.879 137.168 232.835 136.99 232.753C136.811 232.67 136.677 232.554 136.605 232.419C136.599 232.261 136.677 232.106 136.827 231.981C136.976 231.856 137.188 231.769 137.425 231.734ZM140.239 232.191C140.387 232.18 140.536 232.19 140.678 232.219C140.82 232.249 140.951 232.298 141.062 232.362C141.172 232.427 141.261 232.506 141.321 232.595C141.381 232.683 141.412 232.779 141.411 232.876C141.339 233.011 141.204 233.127 141.026 233.21C140.847 233.292 140.633 233.336 140.414 233.336C140.195 233.336 139.982 233.292 139.803 233.21C139.625 233.127 139.49 233.011 139.418 232.876C139.412 232.718 139.49 232.563 139.64 232.438C139.789 232.313 140.001 232.226 140.239 232.191ZM146.334 232.419C146.482 232.408 146.632 232.418 146.774 232.448C146.916 232.477 147.046 232.526 147.157 232.591C147.268 232.656 147.356 232.735 147.416 232.823C147.476 232.912 147.507 233.008 147.506 233.105C147.434 233.239 147.3 233.356 147.121 233.438C146.942 233.521 146.729 233.565 146.51 233.565C146.291 233.565 146.077 233.521 145.899 233.438C145.72 233.356 145.585 233.239 145.513 233.105C145.507 232.946 145.586 232.792 145.735 232.667C145.885 232.542 146.096 232.454 146.334 232.419ZM143.169 232.419C143.317 232.408 143.467 232.418 143.609 232.448C143.751 232.477 143.881 232.526 143.992 232.591C144.103 232.656 144.191 232.735 144.251 232.823C144.312 232.912 144.342 233.008 144.341 233.105C144.269 233.239 144.135 233.356 143.956 233.438C143.778 233.521 143.564 233.565 143.345 233.565C143.126 233.565 142.912 233.521 142.734 233.438C142.555 233.356 142.42 233.239 142.348 233.105C142.342 232.946 142.421 232.792 142.57 232.667C142.72 232.542 142.931 232.454 143.169 232.419ZM149.03 233.105C149.147 233.105 153.367 234.019 158.408 235.39L167.668 238.018L165.91 241.103C164.927 242.755 163.989 244.431 163.096 246.13C161.924 248.415 161.69 248.415 156.063 247.159C149.968 245.787 140.356 244.531 130.509 243.731L121.132 242.931L124.648 241.674C126.772 240.877 128.846 239.962 130.861 238.932C133.205 237.675 134.143 237.447 137.777 237.789C143.052 238.132 146.568 237.104 147.975 235.047L149.147 233.105H149.03ZM138.715 233.79C138.863 233.779 139.013 233.789 139.154 233.819C139.296 233.848 139.427 233.897 139.538 233.962C139.648 234.027 139.737 234.106 139.797 234.195C139.857 234.283 139.888 234.379 139.887 234.476C139.815 234.61 139.68 234.727 139.502 234.809C139.323 234.892 139.11 234.936 138.89 234.936C138.671 234.936 138.458 234.892 138.279 234.809C138.101 234.727 137.966 234.61 137.894 234.476C137.888 234.317 137.966 234.163 138.116 234.038C138.266 233.913 138.477 233.825 138.715 233.79ZM145.279 233.79C145.427 233.779 145.577 233.789 145.719 233.819C145.861 233.848 145.991 233.897 146.102 233.962C146.213 234.027 146.301 234.106 146.361 234.195C146.421 234.283 146.452 234.379 146.451 234.476C146.362 234.588 146.228 234.682 146.063 234.747C145.897 234.813 145.707 234.847 145.513 234.847C145.32 234.847 145.13 234.813 144.964 234.747C144.799 234.682 144.664 234.588 144.576 234.476C144.57 234.317 144.648 234.163 144.798 234.038C144.947 233.913 145.159 233.825 145.396 233.79H145.279ZM135.901 233.79C136.049 233.779 136.199 233.789 136.341 233.819C136.483 233.848 136.614 233.897 136.724 233.962C136.835 234.027 136.923 234.106 136.984 234.195C137.044 234.283 137.075 234.379 137.074 234.476C137.002 234.61 136.867 234.727 136.688 234.809C136.51 234.892 136.296 234.936 136.077 234.936C135.858 234.936 135.645 234.892 135.466 234.809C135.287 234.727 135.153 234.61 135.081 234.476C135.112 234.338 135.207 234.209 135.354 234.107C135.5 234.005 135.691 233.934 135.901 233.904V233.79ZM142.114 234.019C142.385 233.997 142.659 234.044 142.878 234.151C143.096 234.257 143.243 234.415 143.286 234.59C143.214 234.724 143.08 234.841 142.901 234.923C142.723 235.006 142.509 235.05 142.29 235.05C142.071 235.05 141.857 235.006 141.679 234.923C141.5 234.841 141.366 234.724 141.294 234.59C141.324 234.452 141.42 234.323 141.566 234.221C141.713 234.119 141.904 234.048 142.114 234.019ZM134.378 235.276C134.526 235.265 134.675 235.275 134.817 235.304C134.959 235.334 135.09 235.383 135.201 235.447C135.311 235.512 135.4 235.591 135.46 235.68C135.52 235.768 135.551 235.864 135.55 235.961C135.478 236.096 135.343 236.212 135.165 236.295C134.986 236.377 134.772 236.421 134.553 236.421C134.334 236.421 134.121 236.377 133.942 236.295C133.764 236.212 133.629 236.096 133.557 235.961C133.551 235.803 133.629 235.648 133.779 235.523C133.928 235.398 134.14 235.311 134.378 235.276ZM137.308 235.276C137.472 235.262 137.639 235.274 137.795 235.31C137.951 235.346 138.091 235.405 138.205 235.483C138.32 235.561 138.404 235.655 138.452 235.758C138.499 235.861 138.509 235.97 138.48 236.075C138.408 236.21 138.274 236.326 138.095 236.409C137.917 236.491 137.703 236.536 137.484 236.536C137.265 236.536 137.051 236.491 136.873 236.409C136.694 236.326 136.559 236.21 136.487 236.075C136.481 235.917 136.56 235.762 136.709 235.637C136.859 235.512 137.07 235.425 137.308 235.39V235.276ZM140.356 235.504C140.627 235.482 140.901 235.529 141.119 235.636C141.338 235.742 141.484 235.9 141.528 236.075C141.456 236.21 141.321 236.326 141.143 236.409C140.964 236.491 140.751 236.536 140.532 236.536C140.313 236.536 140.099 236.491 139.92 236.409C139.742 236.326 139.607 236.21 139.535 236.075C139.566 235.937 139.661 235.808 139.808 235.706C139.955 235.604 140.146 235.534 140.356 235.504ZM143.638 235.504C143.786 235.493 143.936 235.503 144.078 235.533C144.22 235.562 144.35 235.611 144.461 235.676C144.572 235.741 144.66 235.82 144.72 235.908C144.78 235.997 144.811 236.093 144.81 236.19C144.738 236.324 144.604 236.441 144.425 236.523C144.246 236.606 144.033 236.65 143.814 236.65C143.595 236.65 143.381 236.606 143.203 236.523C143.024 236.441 142.889 236.324 142.817 236.19C142.811 236.031 142.89 235.877 143.039 235.752C143.189 235.627 143.4 235.539 143.638 235.504ZM119.842 244.759C133.68 245.117 147.453 246.723 160.986 249.558C161.104 249.672 160.283 252.415 158.994 255.728L156.649 262.584C156.532 263.155 155.712 263.155 153.719 262.926C143.99 261.441 115.857 261.555 105.073 263.155C98.8599 264.069 98.0393 263.955 98.5082 262.698L99.6804 258.699L100.384 255.614L106.714 252.415C110.933 250.316 114.936 247.829 118.67 244.988H119.725L119.842 244.759ZM88.1928 260.984C88.5445 260.984 89.2478 261.327 90.0684 261.898C91.2406 262.584 92.6472 263.155 93.2333 263.155C96.281 263.155 97.9221 267.383 100.501 281.437L101.439 286.464C101.673 287.607 101.439 287.835 98.7426 288.406C95.4605 289.092 94.6399 289.206 94.6399 288.749C94.6399 287.607 91.3578 273.096 89.9511 267.954C89.251 265.689 88.6255 263.402 88.0756 261.098C88.0934 261.088 88.1137 261.083 88.1342 261.083C88.1548 261.083 88.175 261.088 88.1928 261.098V260.984ZM121.718 263.269H125.117L123.945 264.412C121.952 266.697 121.014 266.811 119.608 265.326C119.114 264.829 118.717 264.248 118.436 263.612C118.436 263.384 119.959 263.155 121.718 263.155V263.269ZM128.868 263.269H135.198L133.791 264.64C132.15 266.469 132.033 266.469 130.275 264.64L128.868 263.155V263.269ZM138.48 263.269H140.004C140.825 263.269 142.348 263.269 143.286 263.498L145.045 263.841L143.403 265.326C142.466 266.126 141.645 266.811 141.528 266.697L139.887 264.869L138.48 263.155V263.269ZM148.444 263.612L149.851 263.955C150.671 264.183 152.429 264.298 153.719 264.412H156.063L154.305 265.897C153.668 266.476 152.959 266.975 152.195 267.383C152.078 267.383 151.023 266.469 150.202 265.44L148.444 263.612ZM113.043 263.726H113.278C113.395 263.955 112.926 264.869 112.106 265.669L110.934 267.268L109.175 265.897L107.417 264.412L110.23 264.069L113.043 263.726ZM115.74 263.955L117.615 265.554L119.491 267.268L115.974 267.497L112.457 267.611L114.098 265.897L115.74 263.955ZM136.839 263.955C137.191 263.955 137.425 264.069 137.777 264.298C138.39 264.86 138.905 265.516 139.301 266.24C139.77 267.154 139.652 267.383 138.129 267.383L135.198 266.811L133.791 266.469L135.315 264.983C136.019 264.298 136.487 263.841 136.956 263.841L136.839 263.955ZM127.11 263.955C127.696 263.955 128.282 264.298 128.985 265.44C129.806 266.697 129.806 266.697 126.641 266.697H123.476L125.117 265.212C125.938 264.412 126.641 264.069 127.11 264.069V263.955ZM147.037 264.183L148.444 265.554C150.085 267.04 150.319 267.954 149.147 267.84L145.865 267.497L143.286 267.268L145.162 265.783L147.037 264.183ZM105.776 264.983C106.01 264.983 106.948 265.554 107.651 266.354L109.058 267.84L106.128 268.297L102.025 268.868C101.204 269.097 101.439 268.525 103.197 267.04C104.369 265.897 105.541 264.983 105.776 264.983ZM101.439 264.983H101.908C102.845 265.212 102.845 265.44 101.204 267.04L99.446 268.754L98.8599 267.268C98.391 266.126 98.5082 265.783 99.5632 265.326C100.164 265.108 100.798 264.993 101.439 264.983ZM155.36 267.04C155.594 267.04 155.594 267.268 155.36 267.725C155.125 268.639 154.07 268.868 154.07 267.954C154.07 267.725 154.422 267.383 154.891 267.154H155.243L155.36 267.04ZM130.275 268.868C139.301 268.868 148.444 269.097 150.671 269.325C154.305 269.782 154.657 269.896 154.657 271.267C154.657 272.867 154.188 272.981 149.264 272.182C147.858 271.839 141.88 271.382 136.136 270.925C124.988 270.268 113.801 270.65 102.728 272.067C100.501 272.296 99.9148 272.067 99.9148 271.382C99.9148 269.896 111.871 268.868 130.275 268.868ZM118.201 272.182H124.531L123.124 273.667C121.366 275.495 121.249 275.495 119.608 273.667L118.201 272.182ZM126.407 272.182L128.048 273.781L129.689 275.609L126.289 275.724H122.89L124.648 273.895L126.289 272.182H126.407ZM128.868 272.182H135.198L133.791 273.667C132.15 275.495 132.033 275.495 130.275 273.667L128.868 272.182ZM113.864 272.182C114.098 272.182 113.864 272.753 113.043 273.895C112.223 274.924 111.402 275.724 111.285 275.724C111.051 275.724 110.23 275.038 109.527 274.238L108.12 272.753H110.23C111.303 272.758 112.37 272.604 113.395 272.296C113.55 272.265 113.709 272.265 113.864 272.296V272.182ZM116.208 272.753L117.732 274.124L119.491 275.609L116.443 275.838L113.043 276.066L114.685 274.352L116.208 272.753ZM136.605 272.753L138.246 274.581C140.121 276.523 140.004 276.638 135.784 275.838L133.791 275.495L135.198 274.124L136.605 272.753ZM138.949 272.753H141.762C144.81 272.753 145.162 273.21 143.403 274.81C141.997 275.952 141.997 275.952 140.356 274.238L138.949 272.753ZM103.08 273.324C104.486 273.324 104.369 273.438 102.611 275.152C101.321 276.409 101.204 276.409 100.735 275.495C100.384 274.352 101.439 273.438 103.08 273.324ZM148.561 273.553C149.03 273.553 149.968 273.553 150.906 273.781L153.602 274.238L152.078 275.609L150.671 276.98L149.382 275.381L148.209 273.553H148.561ZM106.362 274.124C106.714 274.124 107.065 274.352 107.651 274.924C108.824 276.066 108.824 276.066 107.886 276.523C106.977 276.815 106.029 276.969 105.073 276.98H103.197L104.721 275.381C105.541 274.581 105.893 274.238 106.245 274.124H106.362ZM146.334 274.467C146.803 274.467 147.155 274.695 147.741 275.609L148.796 276.98H146.334C144.693 276.98 143.99 276.752 143.99 276.295C144.224 275.838 144.81 275.152 145.513 274.81L146.334 274.467ZM153.836 275.952C154.07 275.952 154.07 276.181 154.07 276.523C154.07 277.666 153.016 278.466 152.547 277.666C152.429 277.323 152.664 276.752 153.133 276.409L153.836 275.952ZM123.476 277.323C133.674 277.323 144.927 278.009 151.609 279.151L153.484 279.494V284.522C153.484 288.292 153.25 289.549 152.664 289.549L146.803 288.406C133.248 286.166 119.439 285.782 105.776 287.264L103.08 287.607L102.376 283.379C102.085 281.949 101.928 280.495 101.908 279.037C101.908 279.037 104.604 278.466 107.769 278.123C111.637 277.552 117.381 277.323 123.476 277.323Z" fill="black"/>
  <path d="M143.99 248.758C140.473 248.758 138.012 251.158 138.012 254.7C138.012 260.184 144.342 262.927 148.093 259.042C151.844 255.157 149.265 248.758 143.99 248.758ZM143.99 250.129C144.606 250.129 145.215 250.248 145.784 250.477C146.353 250.707 146.87 251.044 147.305 251.468C147.741 251.892 148.086 252.396 148.322 252.951C148.557 253.505 148.679 254.1 148.679 254.7C148.679 258.128 144.81 260.413 141.646 258.927C138.481 257.214 138.715 251.958 142.114 250.586C142.667 250.331 143.263 250.177 143.873 250.129H143.99Z" fill="black"/>
  <path d="M120.428 248.073C116.912 248.073 114.45 250.472 114.45 254.014C114.45 259.499 120.78 262.241 124.531 258.356C128.282 254.471 125.703 248.073 120.428 248.073ZM120.428 249.444C121.044 249.444 121.654 249.562 122.223 249.792C122.792 250.021 123.309 250.358 123.744 250.783C124.179 251.207 124.525 251.711 124.76 252.265C124.996 252.82 125.117 253.414 125.117 254.014C125.117 257.442 121.249 259.727 118.084 258.242C114.919 256.528 115.154 251.272 118.553 249.901C119.106 249.646 119.702 249.491 120.311 249.444H120.428Z" fill="black"/>
  <path d="M100.853 165.92C100.364 165.949 99.9019 166.163 99.5559 166.521C99.2099 166.879 99.004 167.357 98.9775 167.862C98.9775 168.424 99.1937 168.962 99.5784 169.359C99.9631 169.756 100.485 169.979 101.029 169.979C101.573 169.979 102.095 169.756 102.479 169.359C102.864 168.962 103.08 168.424 103.08 167.862C103.067 167.58 102.998 167.304 102.876 167.051C102.755 166.798 102.585 166.573 102.376 166.391C102.167 166.209 101.924 166.073 101.662 165.992C101.4 165.911 101.125 165.886 100.853 165.92ZM100.97 166.605C101.343 166.605 101.701 166.738 101.965 166.973C102.229 167.209 102.377 167.529 102.377 167.862C102.377 168.195 102.229 168.515 101.965 168.751C101.701 168.986 101.343 169.119 100.97 169.119C100.597 169.119 100.239 168.986 99.9756 168.751C99.7118 168.515 99.5636 168.195 99.5636 167.862C99.5636 167.697 99.6 167.534 99.6707 167.381C99.7414 167.229 99.845 167.09 99.9756 166.973C100.106 166.857 100.261 166.764 100.432 166.701C100.603 166.638 100.786 166.605 100.97 166.605Z" fill="black"/>
  </g>
  </g>
  <defs>
  <clipPath id="clip0_10_18931">
  <rect width="640" height="480" fill="white"/>
  </clipPath>
  </defs>
  </svg>
